<svg xmlns="http://www.w3.org/2000/svg" width="20.771" height="20.769" viewBox="0 0 20.771 20.769"><defs><style>.a{fill:#fff;}</style></defs><g transform="translate(0)"><path class="a" d="M53.468,64.908a2.82,2.82,0,1,0,2.006.826,2.731,2.731,0,0,0-2.006-.826Zm6.519-3.688a13.048,13.048,0,0,0-3.82-2.677,13.226,13.226,0,0,0-4.513-1.188H51.58a.86.86,0,0,0-.634.251.87.87,0,0,0-.31.693v1.991a.907.907,0,0,0,.243.634.9.9,0,0,0,.612.3,9.438,9.438,0,0,1,8.5,8.5.9.9,0,0,0,.3.613.9.9,0,0,0,.634.244h1.991a.871.871,0,0,0,.693-.31.9.9,0,0,0,.251-.709,13.23,13.23,0,0,0-1.188-4.513,13.042,13.042,0,0,0-2.677-3.82Z" transform="translate(-50.636 -49.804)"/><path class="a" d="M69.633,28.022A21.214,21.214,0,0,0,59.02,17.41a20.458,20.458,0,0,0-7.4-1.771h-.044a.884.884,0,0,0-.649.266.872.872,0,0,0-.3.678v2.109a.9.9,0,0,0,.258.642.884.884,0,0,0,.627.288,16.71,16.71,0,0,1,6.025,1.5,16.613,16.613,0,0,1,8.37,8.37,16.474,16.474,0,0,1,1.49,6.025.885.885,0,0,0,.288.627.923.923,0,0,0,.657.258h2.109a.872.872,0,0,0,.678-.3.853.853,0,0,0,.266-.693,20.457,20.457,0,0,0-1.77-7.4Z" transform="translate(-50.635 -15.639)"/></g></svg>