<svg xmlns="http://www.w3.org/2000/svg" width="337.759" height="221.405" viewBox="0 0 337.759 221.405"><defs><style>.a{fill:#659ad2;}.b{fill:#fff;}.c{fill:#00458c;}.d{fill:#1559a7;}.e{fill:#3a77bb;}.f{fill:#231916;}.g{fill:#b0d1ee;}</style></defs><g transform="translate(-0.083 -0.255)"><path class="a" d="M91.837,101.793l-51.818,6.963S10.863,103.574,1.757,79.133s20.128-19.65,20.128-19.65C12.611,47.3,3.093,10.678,17.666,1.372,28.34-5.442,47.17,14.661,48.722,27.855c0,0,.374-26.012,18.212-18.21s24.9,92.149,24.9,92.149" transform="translate(0.083 88.396)"/><path class="b" d="M36.289,27.953a.835.835,0,0,1-.354-.129l-.025.021.022-.021c-1.049-.568-4.575-3.263-18-13.527C8.955,7.436,0,.557,0,.557L.426,0c12.025,9.241,35,26.841,35.892,27.314l-.138.259.225-.224.039.516a.193.193,0,0,1-.156.089" transform="translate(13.844 162.936)"/><path class="b" d="M35.944,84.211,0,.276.645,0,36.588,83.934Z" transform="translate(23.799 102.453)"/><path class="c" d="M.595,3.065a3.508,3.508,0,0,1,.35,1.087A23.753,23.753,0,0,1,6.218,5.328c.4.014.672,0,.695-.045l-.174-.215A29.375,29.375,0,0,0,3.494,1.732,15.408,15.408,0,0,0,0,0Z" transform="translate(109.012 83.555)"/><path class="b" d="M5.631,4.984,0,28.106s64.149,2.339,64.576.6S55.711.671,55.711.671L5.469,0Z" transform="translate(69.976 160.384)"/><path class="d" d="M53.23,30.06c-5.1,0-11.86-.1-20.67-.295C16.6,29.4.519,28.815.429,28.811L0,28.8,5.72,5.3,5.551,0l.366.005L56.4.681l.081.229c1.557,4.412,9.3,26.507,8.874,28.238C65.263,29.532,65.135,30.06,53.23,30.06ZM6.272.711l.151,4.664-.011.046L.882,28.128c15.577.568,38.673,1.233,52.5,1.233,6.78,0,10.584-.16,11.308-.475.046-1.8-5.227-17.439-8.782-27.514Z" transform="translate(69.534 160.028)"/><path class="e" d="M1.677.314,0,7.2,7.669,0A36.578,36.578,0,0,1,1.677.314" transform="translate(70.759 178.072)"/><path class="e" d="M21.532,1.348c1.23,0,15.576-3.925,23.821,1.622s13.265,74.6,13.265,74.6S15.18,83.714,2.887,73.06,21.532,1.348,21.532,1.348" transform="translate(72.558 87.323)"/><path class="b" d="M0,3.689s3.26,6.864,2.888,12.293c1.118,1.639,9.341,3.024,13.066-1.69,0,0-3.547-10.129-1.146-14.292Z" transform="translate(94.002 73.414)"/><path class="d" d="M8.564,18.218c-.166,0-.319,0-.456-.008-2.384-.084-4.554-.791-5.161-1.683a.339.339,0,0,1-.059-.22C3.246,11.064.067,4.255.034,4.187A.35.35,0,0,1,.265,3.7L15.074.01a.318.318,0,0,1,.08-.01.364.364,0,0,1,.283.138.348.348,0,0,1,.024.385c-2.284,3.961,1.138,13.9,1.173,14a.346.346,0,0,1-.057.332C15.585,16.112,13.225,18.218,8.564,18.218ZM14.525.868.843,4.274c.715,1.609,3.023,7.233,2.751,11.946.5.566,2.265,1.211,4.54,1.291.138,0,.28.007.421.007,1.828,0,5.213-.383,7.352-2.946C15.388,13.02,12.879,5.062,14.525.868Z" transform="translate(93.653 73.067)"/><path class="d" d="M0,3.522c.207.536.437,1.164.668,1.859,1.35,1.613,3.775,3.893,6.713,3.932,2.637.035,4.638-3.177,5.851-5.885A14.565,14.565,0,0,1,13.321,0L2.588,2Z" transform="translate(94.803 75.481)"/><path class="d" d="M8.153,29.327S6.639,34.2,5.882,33.279,4.706,28.485,2.352,21.76s-4.036-10.007.5-11.771c0,0,1.85-11.434,12.612-9.836S30.852,5.2,30.938,7.046a3.029,3.029,0,0,1-1.345,2.689s2.185,10.846,2.017,13.537S8.153,29.327,8.153,29.327" transform="translate(79.767 36.847)"/><path class="b" d="M.389,13.078s.687,2.985,1.934,6.535h0C-1.544,19.334.3,24.6,1.566,25.437c.742.495,2.154.233,3.19-.067,1.426,2.744,3.158,5.043,5.133,5.7,5.8,1.933,14.377-1.43,15.722-5.213a20.811,20.811,0,0,0,.842-8.154s3.363-.253,3.194-3.2-3.111-5.885-3.783-3.279c-2.559-2.064-2.924-3.5-4.4-6.014C15.213-5.438-1.229,1.763.389,13.078" transform="translate(84.421 48.221)"/><path class="d" d="M13.979,32.338a12.183,12.183,0,0,1-3.855-.581c-1.783-.595-3.533-2.486-5.2-5.62a7.366,7.366,0,0,1-1.846.283,2.422,2.422,0,0,1-1.357-.336A5.569,5.569,0,0,1,.15,21.025a2.063,2.063,0,0,1,2.023-1.416C1.138,16.584.513,14.013.4,13.529l0-.018a.194.194,0,0,1,0-.028C-.533,7.051,4.082,2.361,8.761.725A12.425,12.425,0,0,1,12.873,0a10.53,10.53,0,0,1,9.238,5.394c.332.568.607,1.073.859,1.542l0,.008A11.986,11.986,0,0,0,26.05,11a1.227,1.227,0,0,1,1.123-.769c.036,0,.073,0,.108,0,1.392.137,2.937,2.462,3.061,4.608A3.005,3.005,0,0,1,29.3,17.413a4.417,4.417,0,0,1-2.128.951,20.853,20.853,0,0,1-.893,7.964C25.166,29.473,19.3,32.338,13.979,32.338ZM5.1,25.375a.353.353,0,0,1,.311.189c1.622,3.118,3.281,4.979,4.932,5.531a11.441,11.441,0,0,0,3.605.537,17.749,17.749,0,0,0,7.358-1.7c2.26-1.075,3.834-2.474,4.319-3.838a20.417,20.417,0,0,0,.822-8,.349.349,0,0,1,.323-.388c.123-.01,3.017-.281,2.872-2.825-.118-2.027-1.576-3.87-2.429-3.954a.409.409,0,0,0-.075-.007c-.257,0-.467.266-.592.749a.344.344,0,0,1-.228.244.352.352,0,0,1-.113.019.336.336,0,0,1-.218-.079,12.664,12.664,0,0,1-3.63-4.58l0-.009c-.257-.476-.523-.968-.847-1.517a10.179,10.179,0,0,0-3.929-3.917A9.661,9.661,0,0,0,12.938.7a12.1,12.1,0,0,0-3.946.685C4.582,2.926.224,7.334,1.078,13.367c.074.314.753,3.161,1.921,6.482a.352.352,0,0,1-.052.329.325.325,0,0,1-.248.144.214.214,0,0,1-.056-.007c-.106-.009-.208-.013-.3-.013a1.418,1.418,0,0,0-1.528.951A4.891,4.891,0,0,0,2.1,25.5a1.765,1.765,0,0,0,.964.217A7.25,7.25,0,0,0,5,25.389.336.336,0,0,1,5.1,25.375Z" transform="translate(84.077 47.866)"/><path class="b" d="M14.671,84.976c7.115-20.894,12.293-23.314,1.845-40.924C7.47,28.805-7.387-3.16,4.3.253L27.458,7.014c1.2,10.013,14.838,25.4,21.718,21.105,2.726-1.7,4.677-6.3,7.883-1.679,8.676,12.49-12,79.369-16.779,92.021-1.7,4.506-39.057,6.009-25.608-33.485" transform="translate(37.959 59.331)"/><path class="d" d="M32.934,121.395a25.35,25.35,0,0,1-8.445-1.436c-7.2-2.581-18.046-10.528-9.8-34.745,1.415-4.16,2.776-7.644,3.871-10.442,4.723-12.108,6.313-16.186-2-30.19C9.841,33.249-3.453,6.547.835,1.02A2.7,2.7,0,0,1,3.089,0,6.014,6.014,0,0,1,4.751.267L27.9,7.03a.349.349,0,0,1,.249.294c.86,7.171,8.29,17.361,15,20.572a8.647,8.647,0,0,0,3.687.957,4.648,4.648,0,0,0,2.5-.68,12.514,12.514,0,0,0,1.915-1.623l.026-.025.083-.08c1.06-1.032,2.061-2.006,3.286-2.006a2.362,2.362,0,0,1,.246.013c.951.093,1.868.793,2.8,2.141,8.678,12.492-11.715,79.025-16.741,92.344C40.42,120.361,37.046,121.395,32.934,121.395ZM15.351,85.438C7.3,109.089,17.768,116.805,24.726,119.3a24.7,24.7,0,0,0,8.22,1.395c3.7,0,6.931-.88,7.356-2,5-13.26,25.336-79.438,16.818-91.7-.812-1.169-1.562-1.772-2.293-1.842-.048,0-.1-.007-.145-.007-.971,0-1.916.915-2.917,1.885a13.083,13.083,0,0,1-2.055,1.741,5.33,5.33,0,0,1-2.869.788,9.352,9.352,0,0,1-3.987-1.027c-3.244-1.553-6.838-4.8-9.858-8.912s-5.024-8.471-5.507-11.978L4.556.939A5.352,5.352,0,0,0,3.087.7a2,2,0,0,0-1.7.752c-3.5,4.517,7.108,28.159,15.781,42.775,8.482,14.3,6.73,18.792,2.045,30.8l-.045.116c-1.143,2.932-2.439,6.256-3.815,10.3h0Z" transform="translate(37.61 58.98)"/><path class="b" d="M.278,8.628A15.059,15.059,0,0,0,6.221,23.79c6.044,4.4,17.723,2.151,20.8-1.434C46.058.143,3.513-7.548.278,8.628" transform="translate(39.628 46.141)"/><path class="d" d="M15.436,26.891c-4.681,0-7.511-1.347-9.061-2.476A15.33,15.33,0,0,1,.294,8.9C1.2,4.373,5.205,1.229,11.281.273A23.726,23.726,0,0,1,14.923,0a25.3,25.3,0,0,1,9.65,1.877A13.725,13.725,0,0,1,31.43,7.53c1.693,3.032,2.411,8.165-3.788,15.394C25.673,25.223,20.54,26.891,15.436,26.891ZM14.955.7h0a23.275,23.275,0,0,0-3.567.267C5.619,1.871,1.826,4.814.981,9.038A14.642,14.642,0,0,0,6.786,23.851C8.278,24.937,11,26.233,15.5,26.233c4.86,0,9.743-1.582,11.611-3.763,4.7-5.481,5.979-10.53,3.707-14.6a13.072,13.072,0,0,0-6.572-5.386A24.554,24.554,0,0,0,14.955.7Z" transform="translate(39.269 45.799)"/><path class="b" d="M.592,51.945C6.678,41.884,37.168-3.343,38.053.2c.619,2.483-4.35,8.784-3.373,9.14S46.038-1.756,47.015.374s-7.1,9.85-7.1,9.85S50.741-.336,50.741,2.681s-7.454,10.471-7.454,10.471,9.407-7.011,9.23-4.526-8.785,8.164-8.165,8.341,6.745-2.84,6.923-.887-10.648,5.236-14.908,7.543C33.143,25.369,19,49.52,15.331,57.883c-4.136,9.439-18.388.089-14.739-5.938" transform="translate(47.193 0.604)"/><path class="d" d="M9.86,62.6A11.3,11.3,0,0,1,.956,57.5a5.02,5.02,0,0,1-.314-5.383C4.429,45.854,34.7,0,38.219,0a.234.234,0,0,1,.053.005.567.567,0,0,1,.471.454c.382,1.532-1.073,4.2-2.242,6.338l-.013.024A16.887,16.887,0,0,0,35.271,9.3a50.426,50.426,0,0,0,3.86-3.354C42.862,2.528,45.606.111,46.936.111a.95.95,0,0,1,.185.017.766.766,0,0,1,.563.449c.384.84-.289,2.394-2,4.618,2.458-2.021,4.139-3.045,5-3.045a.763.763,0,0,1,.3.054.8.8,0,0,1,.464.825c0,1.959-2.807,5.521-5.161,8.165,2.086-1.408,4.846-3.084,6.135-3.084a.881.881,0,0,1,.424.091.778.778,0,0,1,.38.8c-.119,1.631-3.056,4.126-6.318,6.757l-.007.006c-.4.325-.818.661-1.157.943l.449-.154.2-.069a15.5,15.5,0,0,1,4.2-1.061,1.719,1.719,0,0,1,.941.219.971.971,0,0,1,.444.755c.129,1.426-3.312,2.922-8.994,5.217l-.034.014c-2.364.955-4.6,1.858-6.062,2.652C33.792,25.954,19.8,49.707,16,58.372a6.43,6.43,0,0,1-5.665,4.213C10.175,62.6,10.014,62.6,9.86,62.6ZM38.082.72c-1.365.472-7.54,8.452-16.942,21.893C13.405,33.67,4.851,46.508,1.242,52.474a4.356,4.356,0,0,0,.311,4.656,10.558,10.558,0,0,0,8.32,4.77c.141,0,.281,0,.418-.013a5.8,5.8,0,0,0,5.07-3.8C18.893,50.035,33.086,25.54,36.55,23.665c1.511-.819,3.772-1.733,6.167-2.7l.011,0c3.44-1.39,8.639-3.49,8.547-4.5a.267.267,0,0,0-.127-.229,1.058,1.058,0,0,0-.561-.119,15.953,15.953,0,0,0-3.961,1.027l-.014,0a7.746,7.746,0,0,1-1.836.531.56.56,0,0,1-.171-.024.434.434,0,0,1-.278-.295c-.069-.346.177-.567,2.135-2.146l.012-.01c2.221-1.792,5.939-4.791,6.043-6.252.008-.086-.005-.127-.013-.133a.285.285,0,0,0-.19-.053c-.972,0-4.691,2.2-8.467,5.016a.343.343,0,0,1-.209.07.358.358,0,0,1-.267-.121.352.352,0,0,1,.019-.477c2.045-2.046,7.351-7.871,7.351-10.224a.306.306,0,0,0-.034-.178.225.225,0,0,0-.138-.037c-.959,0-5.241,3.369-9.544,7.51l-.221.215-.3.287a.351.351,0,0,1-.242.1.35.35,0,0,1-.245-.6c.148-.146.319-.311.51-.495,2.534-2.486,7.157-7.559,6.516-8.958a.512.512,0,0,0-.118-.013c-1.2,0-4.886,3.373-7.325,5.605-2.9,2.654-3.965,3.582-4.533,3.582a.463.463,0,0,1-.162-.028.533.533,0,0,1-.316-.315c-.188-.5.283-1.4,1.279-3.215l.018-.033C36.913,4.581,38.312,2.017,38.082.72Z" transform="translate(46.843 0.255)"/><path class="b" d="M0,1.276c.446,0,9.252,5.172,9.965,12.137C11.608,29.475.953,111.338,32.43,105.1V96.211s9.49,3.4,13.194,0C44.818,70.781,23.744-11.158,0,1.276" transform="translate(109.012 82.279)"/><path class="d" d="M29.537,106.138a12.882,12.882,0,0,1-8.547-3.111C8.049,92.064,9.171,55.206,9.914,30.816l0-.1c.23-7.618.412-13.634.075-16.922C9.306,7.1.891,2.123.321,1.969a.322.322,0,0,1-.314-.263.366.366,0,0,1,.2-.391A10.912,10.912,0,0,1,5.3,0a11.876,11.876,0,0,1,6,1.762c18.86,11.011,34.33,72.2,35.046,94.786a.344.344,0,0,1-.114.268,7.686,7.686,0,0,1-5.325,1.609,27.286,27.286,0,0,1-7.757-1.38v8.407a.354.354,0,0,1-.281.344A17.27,17.27,0,0,1,29.537,106.138ZM5.294.705a9.977,9.977,0,0,0-4.109.913c2.433,1.318,8.884,6.068,9.5,12.108.344,3.375.159,9.437-.076,17.112-.693,22.782-1.854,60.911,10.831,71.654a12.208,12.208,0,0,0,8.109,2.944,16.325,16.325,0,0,0,2.9-.273v-8.6a.355.355,0,0,1,.147-.287.374.374,0,0,1,.206-.062.353.353,0,0,1,.116.019,28.41,28.41,0,0,0,8.029,1.492,7.152,7.152,0,0,0,4.691-1.315c-.42-12.168-4.8-33.313-10.656-51.42a162.252,162.252,0,0,0-10.87-26.519c-4.375-8.137-8.805-13.554-13.167-16.1A11.21,11.21,0,0,0,5.294.705Z" transform="translate(108.637 81.931)"/><path class="b" d="M.248,2.125S5.711.493,6.715.054c1.149-.5-.544,2.653-2.443,3.066-2.024.441-5.181-.642-4.024-1" transform="translate(97.395 71.352)"/><path class="d" d="M3.55,3.923C2.052,3.923.181,3.43.015,2.8c-.021-.078-.1-.478.48-.654l.024-.006C1.431,1.861,6.029.478,6.924.084A.869.869,0,0,1,7.273,0a.5.5,0,0,1,.333.118A.633.633,0,0,1,7.752.81a4.922,4.922,0,0,1-3.059,3A5.435,5.435,0,0,1,3.55,3.923ZM7.025.8h0C5.632,1.33,1.42,2.595.944,2.737a7.152,7.152,0,0,0,2.589.493,4.729,4.729,0,0,0,1.013-.1A4.38,4.38,0,0,0,7.025.8Z" transform="translate(97.046 71.001)"/><path class="d" d="M22.729,15.946C21.89,15.106,0,0,0,0S12.9,47.233,13.849,47.238s8.88-31.292,8.88-31.292" transform="translate(127.275 126.896)"/><path class="b" d="M0,4.118,21.2,9.388l1.023-4.118L1.023,0Z" transform="translate(57.212 142.814)"/><path class="d" d="M21.885,10.236h0L0,4.8,1.192,0,23.078,5.441l-1.193,4.794ZM1.7.848.848,4.286l20.526,5.1.855-3.438Z" transform="translate(56.787 142.39)"/><path class="b" d="M30.378,22.895c-.36-.959-3.9-15.507-14.949-20.993S.185,3.983,0,9.605s4.517,23.343,9.068,24.45,21.3-11.16,21.3-11.16" transform="translate(168.041 68.26)"/><path class="f" d="M10.045,34.808a2.874,2.874,0,0,1-.709-.076C4.514,33.561-.173,15.529,0,9.931c.095-3,1.34-6.895,4.549-8.814A8.291,8.291,0,0,1,8.865,0a16.206,16.206,0,0,1,7.07,1.927c6.641,3.3,11.96,10.656,14.977,20.723.069.237.114.388.142.461l.092.247-.214.158C30.3,23.977,15.457,34.808,10.045,34.808ZM8.852.7a7.562,7.562,0,0,0-3.939,1.02C1.946,3.491.793,7.135.7,9.954c-.187,5.834,4.687,23.1,8.8,24.1a2.6,2.6,0,0,0,.6.064c4.794,0,18.643-9.891,20.207-11.019-.02-.072-.045-.154-.075-.248-2.957-9.878-8.148-17.086-14.617-20.3A15.54,15.54,0,0,0,8.852.7Z" transform="translate(167.692 67.922)"/><path class="b" d="M58.122,9.169s4.133,19.768,8.805,40.615S71.242,77.82,71.242,77.82l-35.4-.18s-2.4-16.474-3.474-17.193S29.908,77.82,29.908,77.82.255,78.537.075,77.46s0-44.391.179-53.374A137.888,137.888,0,0,1,2.411,4.676S23.438.182,24.875,0,58.122,9.169,58.122,9.169" transform="translate(141.075 125.073)"/><path class="d" d="M12.687,78.773c-12.459,0-12.565-.637-12.61-.908-.187-1.115,0-44.87.175-53.44A138.58,138.58,0,0,1,2.412,4.973l0-.015.043-.228.228-.048C2.892,4.637,23.72.188,25.18,0a.361.361,0,0,1,.056,0c2.117,0,33.022,9.09,33.334,9.182l.2.058.042.206.033.155,0,.023c1.028,4.9,4.7,22.281,8.768,40.43,4.639,20.7,4.337,27.835,4.322,28.129l-.018.333h-.334l-35.705-.18-.044-.3c-1.03-7.09-2.454-15.107-3.182-16.712-.629,1.635-1.509,9.722-2.052,16.866l-.024.315-.316.009C23.228,78.687,17.314,78.773,12.687,78.773ZM25.291.7h-.028C23.935.864,5.194,4.861,3.061,5.317A135.973,135.973,0,0,0,.952,24.44C.759,34.029.611,74.788.758,77.626c.973.35,6.859.424,11.626.424,5.06,0,11.619-.084,17.546-.225.482-6.257,1.452-16.834,2.515-17.352a.468.468,0,0,1,.2-.047.475.475,0,0,1,.258.079c.469.313,1.132,2.756,1.969,7.262.679,3.653,1.3,7.755,1.613,9.874l34.756.176c0-1.392-.2-9.271-4.311-27.606C62.9,32.219,59.212,14.751,58.177,9.826l-.007-.034C45.719,6.137,26.688.7,25.291.7Z" transform="translate(140.727 124.726)"/><path class="d" d="M15.206,7.91c.665,3.139,1.622,7.633,2.765,12.927C14.527,16.524,0,.1,0,0c0-.07,8.215,4.213,15.206,7.91" transform="translate(185.007 131.15)"/><path class="d" d="M0,16.976c.031-3.4.063-6.132.1-7.751C.157,6.161.429,2.928.758,0L29.341,20.276S4.282,17.415,0,16.976" transform="translate(141.234 139.933)"/><path class="b" d="M4.58,0s6.709,1.676,8.506,2.276,5.931,5.511,5.931,7.008-1.258,1.078-1.258,1.078-.18,2.7-1.2,2.757-2.037.059-2.037.059a2.741,2.741,0,0,1-2.335,2.037c-6.668.43-7.4-.943-12.189-4.613Z" transform="translate(169.09 146.231)"/><path class="d" d="M10.487,16.057c-4.22,0-5.616-1.1-8.675-3.519l-.168-.132C1.2,12.055.736,11.692.216,11.294L0,11.127,4.807,0,5.1.073c.69.173,6.8,1.7,8.532,2.283C15.588,3.01,19.8,8.021,19.8,9.7a1.459,1.459,0,0,1-.519,1.264,1.341,1.341,0,0,1-.776.215c-.115.982-.463,2.64-1.491,2.7-.676.038-1.352.053-1.8.061a2.993,2.993,0,0,1-2.571,2.036C11.83,16.031,11.126,16.057,10.487,16.057ZM5.213.825.859,10.9c.463.356.88.685,1.283,1l.1.081c3.016,2.382,4.264,3.368,8.242,3.368.622,0,1.311-.024,2.108-.074a2.356,2.356,0,0,0,2.021-1.772l.067-.264.272,0c.042,0,1.032,0,2.016-.057.464-.029.8-1.43.871-2.431l.029-.453.43.142a.933.933,0,0,0,.262.038.52.52,0,0,0,.311-.085.893.893,0,0,0,.224-.7c0-1.262-3.9-6.083-5.69-6.678C11.89,2.514,6.752,1.212,5.213.825Z" transform="translate(168.66 145.818)"/><path class="b" d="M26.946,7.324C-8.2,23.342-15.295,94.2,44.379,96.282c2.625-2.567,8.4-11.277,5.677-12.372-4.212-1.7-17.207-7.54-20.953-16.381,0,0,26.956-2.7,30.371.54s19.1,17.517,27.316,0C105.395,28.4,63.228-18.284,26.946,7.324" transform="translate(126.246 63.18)"/><path class="d" d="M44.882,97.031h0l-.15-.006C20.944,96.194,4.986,84.078.948,63.784c-4.467-22.445,7.28-47.732,26.187-56.37A41.873,41.873,0,0,1,38.006,1.85,35.591,35.591,0,0,1,49.254,0c8.73,0,17.326,3.337,24.86,9.649,14.18,11.88,24.409,35.4,13.359,58.959-2.326,4.958-5.464,7.843-9.326,8.572a10.7,10.7,0,0,1-1.971.179,17.261,17.261,0,0,1-7.862-2.207,39.5,39.5,0,0,1-8.716-6.44c-1.041-.987-4.706-1.488-10.892-1.488-6.254,0-14,.537-18.725,1,3.96,8.525,16.747,14.215,20.571,15.755a1.443,1.443,0,0,1,.886,1.117c.552,2.782-4.325,9.752-6.45,11.831l-.106.1ZM49.248.71A34.943,34.943,0,0,0,38.194,2.53,41.121,41.121,0,0,0,27.513,8l-.057.033C8.809,16.534-2.775,41.482,1.634,63.647c3.959,19.9,19.621,31.81,42.971,32.672,2.35-2.367,6.59-8.854,6.148-11.088a.744.744,0,0,0-.462-.606c-4-1.61-17.33-7.563-21.147-16.568l-.185-.438.472-.048c1.783-.175,11.085-1.051,19.134-1.051,6.461,0,10.336.567,11.516,1.686a38.973,38.973,0,0,0,8.491,6.3,16.6,16.6,0,0,0,7.594,2.156,10.1,10.1,0,0,0,1.849-.166c3.632-.687,6.6-3.44,8.824-8.181,10.409-22.2,1.252-46.041-13.174-58.125C66.265,3.987,57.822.71,49.248.71Z" transform="translate(125.881 62.788)"/><path class="b" d="M12.909,11.78C17.788,2.98,7.373-.976,7.7.2,8.118,1.7,9.722,2.681,8.851,3.051S7.433.753,5.911.323A3.574,3.574,0,0,0,2.123,1.508a7.5,7.5,0,0,0-.446,2.344C1.565,4.14-.077,6.6.05,7.686A3.488,3.488,0,0,0,.464,9.177s-.82.283-.281,1.67,3.383,3.236,3.383,3.236Z" transform="translate(176.615 92.072)"/><path class="d" d="M3.853,14.8h0l-.126-.083c-.12-.078-2.945-1.924-3.518-3.4A2,2,0,0,1,.124,9.749a1.17,1.17,0,0,1,.244-.343A5.1,5.1,0,0,1,.052,8.07c-.1-.848.626-2.232,1.425-3.6l.058-.1c.085-.145.147-.25.169-.3a2.664,2.664,0,0,0,.032-.4V3.642a4.693,4.693,0,0,1,.428-1.953A3.688,3.688,0,0,1,5.3.189,3.881,3.881,0,0,1,6.358.332,3.887,3.887,0,0,1,8.294,2.179l.012.019c.211.328.587.879.737.879a.051.051,0,0,0,.021,0c.04-.1-.222-.454-.378-.666A5.614,5.614,0,0,1,7.716.64.478.478,0,0,1,7.931.085.768.768,0,0,1,8.322,0a7.748,7.748,0,0,1,4.207,2.268c1.6,1.555,3.863,4.925,1.035,10.026l-.075.134L3.853,14.8ZM5.308.89A3.024,3.024,0,0,0,2.782,2.016,4.041,4.041,0,0,0,2.437,3.7a2.167,2.167,0,0,1-.084.62c-.026.068-.119.235-.272.5C1.655,5.547.658,7.249.746,7.989A3.442,3.442,0,0,0,1.1,9.322l.25.378L.93,9.852c-.161.069-.383.411-.071,1.215.369.951,2.137,2.324,3.123,2.985l9.046-2.229c2.094-3.885,1.016-6.629-.258-8.247A8.279,8.279,0,0,0,8.471.7,5.922,5.922,0,0,0,9.25,1.993c.358.487.64.871.531,1.263a.712.712,0,0,1-.445.461.793.793,0,0,1-.315.07c-.528,0-.919-.61-1.3-1.2l-.005-.008C7.3,1.927,6.821,1.189,6.167,1A3.11,3.11,0,0,0,5.308.89Z" transform="translate(176.265 91.728)"/><path class="b" d="M0,0C.27,1.209,1.464,2.959,1.632,4.167a84.213,84.213,0,0,1,.62,11.161c4.68,2.42,8.823,2.234,11.978-.828L14.2,3.26Z" transform="translate(163.459 53.874)"/><path class="d" d="M8.709,17.8A13.561,13.561,0,0,1,2.553,16.1l-.189-.1v-.213A83.884,83.884,0,0,0,1.749,4.682,8.5,8.5,0,0,0,.933,2.558L.926,2.545a10.312,10.312,0,0,1-.8-2L0,0,15.008,3.445l.034,11.665-.106.106A8.688,8.688,0,0,1,8.709,17.8ZM.977.941c.148.394.358.833.56,1.257l.021.043a9.1,9.1,0,0,1,.884,2.341,83.168,83.168,0,0,1,.62,11A12.665,12.665,0,0,0,8.695,17.09a8.011,8.011,0,0,0,5.649-2.275L14.31,4Z" transform="translate(162.997 53.409)"/><path class="d" d="M0,0Q.116.974.2,1.947c1.464,1.733,3.513,3.946,5,4.676,2.56,1.258,7.245-5.213,7.245-5.213L3.755.828C3.558.716,1.509.3,0,0" transform="translate(165.228 59.097)"/><path class="b" d="M19.5,11.8l0-7.043S8.258-4.122,2.8,2.381A11.514,11.514,0,0,0,.089,8.536c-.682,6.812,2.792,14.928,2.792,14.928Z" transform="translate(179.185 98.825)"/><path class="d" d="M17.394,2.72C10.335,7.131,9.6,15.512,9.6,15.512,6.6,25.813,3.428,24.445,6.218,36.537c0,0-5.924,9.294-6.218,15.029,0,0,3.266-2.337,5.837-3.88,0,0-1.312,2.822,2.806,6.643S16.438,65.8,19.671,63.151c6.685-5.47,3.721-18.462.818-26.809-.53-1.525-3.141-3.865-1.908-3.865h0A23.166,23.166,0,0,1,17.1,25s-.3-2.353.515-2.133,6.249-.881,8.087-5.22a21.044,21.044,0,0,0,1.912-6.616,20.6,20.6,0,0,1,4.116-.3c5.146.81,5.587,12.72,6.175,13.162s.956-4.045,1.985-4.265.441,2.06-.367,4.191a18.369,18.369,0,0,1-1.766,3.529,15.249,15.249,0,0,1-2.2,6.984,9,9,0,0,1-2.47,2.462,12.908,12.908,0,0,1-1.4,2.466C25.545,47.708,37.021,55.5,35.7,59.475s4.852,3.235,8.085-1.323c8.092-11.4-3.239-34.552-4.116-48.815C37.74-1.36,24.648-1.814,17.394,2.72" transform="translate(144.845 23.727)"/><path class="b" d="M.052,14.27S-.83,23.9,5.493,26.546s10.953.149,13.013-2.94a15.249,15.249,0,0,0,2.2-6.984,18.369,18.369,0,0,0,1.766-3.529c.808-2.133,1.4-4.412.367-4.191s-1.4,4.705-1.985,4.264S19.829.815,14.683.006a20.719,20.719,0,0,0-4.116.3A21.046,21.046,0,0,1,8.655,6.918C6.817,11.256,1.376,12.359.568,12.137S.052,14.27.052,14.27" transform="translate(161.891 34.453)"/><path class="d" d="M10.991,28.363a13.7,13.7,0,0,1-5.28-1.144C3.057,26.108,1.3,23.751.479,20.213a19.563,19.563,0,0,1-.425-5.589c-.066-.558-.164-1.9.343-2.345a.621.621,0,0,1,.415-.159.741.741,0,0,1,.2.029.674.674,0,0,0,.152.013c.838,0,5.784-.928,7.522-5.032A21.315,21.315,0,0,0,10.57.638l.011-.268L10.842.31A18.733,18.733,0,0,1,14.518,0c.235,0,.405,0,.484,0h.045c4.189.656,5.392,7.661,6.039,11.424.076.451.174,1.017.255,1.4.088-.265.181-.612.263-.917l.029-.109c.439-1.647.781-2.737,1.489-2.889a1.019,1.019,0,0,1,.205-.022.68.68,0,0,1,.536.24c.169.193.681.779-.709,4.439a19.065,19.065,0,0,1-1.747,3.519,15.391,15.391,0,0,1-2.257,7.064A9.717,9.717,0,0,1,10.991,28.363ZM.829,12.824a3.82,3.82,0,0,0-.075,1.752l0,.038,0,.038A19.3,19.3,0,0,0,1.111,19.7c.507,2.416,1.763,5.569,4.871,6.869a12.974,12.974,0,0,0,5,1.085,9.024,9.024,0,0,0,7.587-3.9,14.893,14.893,0,0,0,2.148-6.8l0-.1.056-.084A18.285,18.285,0,0,0,22.5,13.318c1.03-2.718.95-3.619.833-3.736-.406.084-.822,1.633-1.022,2.377l-.005.02c-.322,1.216-.481,1.759-.862,1.892a.437.437,0,0,1-.151.027.486.486,0,0,1-.293-.1c-.243-.18-.326-.613-.606-2.242C19.823,8.216,18.633,1.274,14.981.7c-.008,0-.339,0-.42,0A19.807,19.807,0,0,0,11.247.94,23.66,23.66,0,0,1,9.33,7.4a8.834,8.834,0,0,1-4.186,4.28,10.029,10.029,0,0,1-4,1.169A1.308,1.308,0,0,1,.829,12.824Z" transform="translate(161.538 34.104)"/><path class="d" d="M4.838,1.947A9.423,9.423,0,0,1,.161.646.353.353,0,0,1,.054.163.349.349,0,0,1,.538.056C.578.08,4.456,2.492,8.353.334a.351.351,0,1,1,.34.613,7.864,7.864,0,0,1-3.855,1" transform="translate(168.005 55.224)"/><path class="d" d="M10.7,36.449a.353.353,0,0,1-.233-.089C5.638,32.059-.108,19.663,0,10.717.048,7.065,1.053,4.378,2.995,2.736A10.9,10.9,0,0,1,13.1.38C19.6,2.03,25.852,8.771,29.425,17.972a.35.35,0,0,1-.652.256c-3.44-8.858-9.658-15.6-15.843-17.17A10.244,10.244,0,0,0,3.446,3.269C1.668,4.776.745,7.285.7,10.727.593,19.493,6.213,31.633,10.937,35.836a.351.351,0,0,1-.232.613" transform="translate(178.477 98.483)"/><path class="d" d="M4.27,26.908a.348.348,0,0,1-.308-.187C3.894,26.6-2.623,14.131,1.2.258a.342.342,0,0,1,.43-.243.349.349,0,0,1,.243.43C-1.873,14.04,4.514,26.27,4.579,26.394a.347.347,0,0,1-.145.471.331.331,0,0,1-.164.044" transform="translate(151.078 104.151)"/><path class="a" d="M45.528,76.707c16.1,0,41.088-13.085,36.075-31.361-2.716-9.9-20.74-1.707-20.74-1.707C68.793,35.879,86.535,12.3,74.785,2.159,66.175-5.273,43.142,8.182,39.777,16.8c0,0-6.229-27.318-22.763-5.992S0,64.177,0,65.445,45.528,76.707,45.528,76.707" transform="translate(255.585 119.813)"/><path class="b" d="M.3,21.8,0,21.171,45.045,0l.3.633Z" transform="translate(283.236 171.044)"/><path class="b" d="M.522,46.231,0,45.766,40.974,0,41.5.465Z" transform="translate(277.85 133.747)"/><path class="d" d="M9.885,7.187S-.269,11,.718,11.412.718,30.55.36,34.323,0,38.816,0,38.816l62.721-.72S65.954,23.721,63.8,15.455,58.946,0,58.946,0Z" transform="translate(225.735 167.285)"/><path class="b" d="M0,5.392S1.8,21.118,3.865,22.555s16.623,2.247,33.516-1.8,24.441-6.65,24.711-9.615S57.869,0,57.869,0Z" transform="translate(222.59 156.141)"/><path class="d" d="M13.731,24.448c-4.873,0-8.581-.475-9.677-1.239C1.906,21.717.226,7.424.042,5.8L0,5.446l.356-.034L58.453,0l.11.2c.186.338,4.541,8.319,4.268,11.342s-6.578,5.519-24.977,9.922A106.174,106.174,0,0,1,13.731,24.448ZM58.059.738.777,6.075c.618,5.272,2.179,15.521,3.677,16.56.97.673,4.609,1.109,9.27,1.109a105.559,105.559,0,0,0,23.965-2.957c14.892-3.564,24.176-6.365,24.444-9.308C62.365,8.932,58.78,2.085,58.059.738Z" transform="translate(222.2 155.772)"/><path class="b" d="M3.478,21.424c-.527-.215-1.663-1.444-2.653-4.081s-1.277-10.99.2-11.3,1.808,5.923,2.968,5.607S8.121-.344,9.555.008s.872,1.4,2.009,2.443a4.878,4.878,0,0,1,1.688,2.383c3.229,6.544-4.773,18.108-9.774,16.589" transform="translate(306.96 50.278)"/><path class="d" d="M4.759,22.258a3.612,3.612,0,0,1-1.03-.147L3.7,22.1c-.73-.3-1.893-1.738-2.848-4.282C0,15.542-.435,8.566.629,6.629A1.043,1.043,0,0,1,1.3,6.053a.957.957,0,0,1,.189-.02c.967,0,1.415,1.614,1.89,3.323l0,.01c.228.82.61,2.192.886,2.3.381-.24,1.416-3.09,2.1-4.976C8.065,2.038,8.9,0,9.831,0A.66.66,0,0,1,9.99.02a1.826,1.826,0,0,1,1.435,1.365,2.78,2.78,0,0,0,.728,1.159,4.38,4.38,0,0,1,1.483,1.9l.282.583c2.006,4.064-.141,9.961-3.3,13.684C8.708,20.966,6.572,22.258,4.759,22.258ZM1.469,6.737H1.448c-.042.007-.118.071-.2.228-.89,1.619-.589,8.339.263,10.6C2.534,20.31,3.619,21.3,3.95,21.445a2.907,2.907,0,0,0,.825.116c1.6,0,3.53-1.2,5.309-3.3,3.011-3.548,5.079-9.125,3.206-12.921L13,4.751A3.668,3.668,0,0,0,11.73,3.107a3.511,3.511,0,0,1-.954-1.461l0-.007c-.2-.5-.3-.783-.949-.941C9.243.852,7.864,4.639,7.04,6.9l-.01.027c-1.378,3.79-1.959,5.238-2.6,5.41a.741.741,0,0,1-.207.031c-.733,0-1.08-1.247-1.518-2.826C2.375,8.339,1.883,6.737,1.469,6.737Z" transform="translate(306.607 49.926)"/><path class="b" d="M7.1,13.7C6.29,13.7,0,11.816,0,11.816S.808,2.381,1.8.583s11.5.988,12.13,2.607-2.155,10.6-2.155,10.6Z" transform="translate(303.186 66.236)"/><path class="d" d="M12.4,14.5h0l-4.932-.1C6.563,14.4.336,12.519.273,12.5L0,12.419l.024-.282v-.011C.11,11.15.888,2.54,1.863.765,2.147.25,2.887,0,4.124,0c.22,0,.46.008.712.024,3.273.218,9.229,1.94,9.791,3.388.673,1.729-2.034,10.463-2.15,10.833L12.4,14.5ZM4.132.7c-.9,0-1.519.15-1.656.4C1.577,2.74.78,11.538.747,11.912,2.82,12.53,6.9,13.7,7.47,13.7h.008l4.411.085c1.065-3.483,2.5-9.054,2.085-10.122C13.63,2.776,8.354.959,4.79.724,4.558.709,4.336.7,4.132.7Z" transform="translate(302.813 65.886)"/><path class="f" d="M10.6,44.416a7.92,7.92,0,0,1-1.642-.175c-4.534-.968-7.933-5.585-8.87-12.049C-.84,25.773,5.623,7.18,15.013,1.609A10.563,10.563,0,0,1,20.415,0a10.756,10.756,0,0,1,6.469,2.39c3.883,2.912-2.009,27.431-7.821,36.589C16.869,42.434,13.784,44.416,10.6,44.416ZM20.41.711h0a9.853,9.853,0,0,0-5.041,1.5C6.374,7.549-.1,25.985.782,32.092c.894,6.163,4.084,10.556,8.323,11.465a7.435,7.435,0,0,0,1.525.16c2.963,0,5.747-1.815,7.84-5.111,6.024-9.493,11.33-33.152,8-35.655A10.072,10.072,0,0,0,20.411.712Z" transform="translate(205.35 107.824)"/><path class="d" d="M6.234,27.486C6.709,34.624,2.268,37,.523,41.92s.635,11.1,10.786,12.372S42.24,44.458,42.24,44.458s2.854-18.4-2.221-30.3C36.256,5.345,30.634.437,24.243.029,10.941-.82,5.546,17.193,6.234,27.486" transform="translate(217.318 55.21)"/><path class="b" d="M12.347,20.9c1.528-.628,19.948-5.212,29.024-5.57C61.106,14.55,80.521,22.284,84.377,3.5c.432-2.1,1.1-3.633,2.815-3.492A46.9,46.9,0,0,1,98.54,2.1c1.942.711,1.61,5,.635,9.45C93.167,39,61,36.717,60.6,41.477c-.18,2.157,10.243,40.256,7.01,43.49S5.967,100.423,3.63,94.131-6.613,28,12.347,20.9" transform="translate(216.537 75.849)"/><path class="d" d="M10.975,96.585a22.97,22.97,0,0,1-4.686-.377c-1.491-.323-2.353-.848-2.634-1.6C1.646,89.2-7.055,28.283,12.573,20.929c1.7-.7,20.222-5.243,29.136-5.6.979-.039,2.008-.058,3.059-.058,3.96,0,7.82.268,11.553.528,3.486.241,6.779.468,9.819.468,5.364,0,9-.727,11.8-2.357,3.335-1.942,5.443-5.256,6.444-10.132a8.183,8.183,0,0,1,.892-2.594A2.265,2.265,0,0,1,87.3,0c.087,0,.177,0,.268.012A45.612,45.612,0,0,1,99.013,2.12c1.85.679,2.138,3.994.857,9.853-4.263,19.483-21.337,24.09-31.538,26.843-3.873,1.042-6.932,1.865-7.03,3.042-.048.576.874,4.58,1.942,9.215,3.739,16.226,7.2,32.255,4.964,34.494-1.575,1.574-13.368,4.515-23.659,6.581-13.835,2.778-26.375,4.436-33.544,4.436ZM44.768,15.974c-1.024,0-2.043.02-3.029.059-8.9.351-27.232,4.855-28.906,5.545l-.01,0c-18.158,6.8-11.238,65.441-8.512,72.78.185.5.921.9,2.127,1.163a24.613,24.613,0,0,0,5.035.413c3.44,0,13.584-.445,33.46-4.569,11.86-2.461,21.654-5.167,22.782-6.3,2.151-2.152-2.6-22.756-5.147-33.825l0-.019C61.239,45.48,60.55,42.45,60.605,41.8c.139-1.66,3.076-2.454,7.521-3.654l.018,0C78.194,35.431,95.013,30.9,99.187,11.824c1.162-5.31,1.014-8.523-.415-9.047A45.736,45.736,0,0,0,87.515.709C87.442.7,87.369.7,87.3.7c-1.112,0-1.757.935-2.227,3.226-1.045,5.086-3.28,8.55-6.833,10.591-2.945,1.692-6.727,2.446-12.261,2.446-3.057,0-6.287-.224-9.707-.461h-.017C52.524,16.241,48.665,15.974,44.768,15.974Z" transform="translate(216.184 75.497)"/><path class="b" d="M0,0S2.6,6.1,2.532,7.741a7.941,7.941,0,0,1-.179,1.867c10.907,3.2,11.374-.321,9.306-9.075Z" transform="translate(235.105 88.198)"/><path class="d" d="M9.134,11.488a23.772,23.772,0,0,1-6.342-1.175L2.4,10.2l.172-.366A13.811,13.811,0,0,0,2.72,8.1C2.778,6.819.933,2.185.216.507L0,0,12.472.571l.059.254c1.163,4.917,1.509,8.073-.158,9.652A4.513,4.513,0,0,1,9.134,11.488ZM1.067.744c.567,1.365,2.411,5.931,2.347,7.383-.032.717-.073,1.258-.123,1.608A22.389,22.389,0,0,0,9.136,10.8a3.868,3.868,0,0,0,2.76-.822c1.4-1.329,1.048-4.328.022-8.736L1.067.744Z" transform="translate(234.57 87.826)"/><path class="d" d="M0,0A63.26,63.26,0,0,1,2.227,6.05C3.309,6.667,5.085,7.9,7.216,7.6s3.969-2.417,5.131-3.754l-.408-2.12L4.984.229Z" transform="translate(235.105 88.198)"/><path class="b" d="M.086,31.782c1.8,12.4,12.4,15.993,18.331,6.65s11.5-33.426,7.908-36.123C11.565-8.76-1.174,23.095.086,31.782" transform="translate(205.7 108.184)"/><path class="d" d="M10.6,44.416a7.92,7.92,0,0,1-1.642-.175c-4.534-.968-7.933-5.585-8.87-12.049C-.84,25.773,5.623,7.18,15.013,1.609A10.563,10.563,0,0,1,20.415,0a10.756,10.756,0,0,1,6.469,2.39c3.883,2.912-2.009,27.431-7.821,36.589C16.869,42.434,13.784,44.416,10.6,44.416ZM20.41.711h0a9.853,9.853,0,0,0-5.041,1.5C6.374,7.549-.1,25.985.782,32.092c.894,6.163,4.084,10.556,8.323,11.465a7.435,7.435,0,0,0,1.525.16c2.963,0,5.747-1.815,7.84-5.111,6.024-9.493,11.33-33.152,8-35.655A10.072,10.072,0,0,0,20.411.712Z" transform="translate(205.35 107.824)"/><path class="b" d="M.355,15.188s-3.3,14.651,10.257,15.127,11.75-9.855,12.226-12.234S15.541,5.233,13.8,0c0,0-1.27,7.613-13.443,15.188" transform="translate(229.264 61.918)"/><path class="d" d="M11.875,30.79c-.335,0-.635,0-.915-.015-3.871-.134-6.776-1.422-8.634-3.829a12.457,12.457,0,0,1-2.32-7.464A19.122,19.122,0,0,1,.372,15.22l.034-.142L.529,15C3.917,12.893,8.59,9.41,11.616,4.786A14.51,14.51,0,0,0,13.811.052L14.489,0c.784,2.353,2.808,5.783,4.765,9.1l.025.043c2.439,4.129,4.545,7.695,4.26,9.118a11.023,11.023,0,0,0-.108,1.39C23.278,23.267,22.957,30.79,11.875,30.79ZM14.211,1.241a19.548,19.548,0,0,1-3.319,5.791,38.661,38.661,0,0,1-9.864,8.483,19.233,19.233,0,0,0-.29,4.394,11.556,11.556,0,0,0,2.143,6.612c1.723,2.231,4.45,3.426,8.1,3.554.3.011.6.016.9.016,10.4,0,10.7-6.811,10.851-10.47a11.31,11.31,0,0,1,.121-1.5c.231-1.156-2.009-4.951-4.175-8.622A75.569,75.569,0,0,1,14.211,1.241Z" transform="translate(228.905 61.807)"/><path class="b" d="M.492.089S6.134,1.125,10.017.051c1.866-.516-.051,3.025-4.388,3.106S-1.093.009.492.089" transform="translate(235.853 86.12)"/><path class="d" d="M5.987,3.857H5.824c-2.9,0-5.046-1.461-5.642-2.5A.89.89,0,0,1,.1.414.744.744,0,0,1,.773.086l.086,0L.906.1A32.905,32.905,0,0,0,6.08.536,16.038,16.038,0,0,0,10.275.063,1.588,1.588,0,0,1,10.695,0a.719.719,0,0,1,.577.237.832.832,0,0,1,.037.946C10.825,2.262,8.854,3.8,5.987,3.857ZM.8.788A.525.525,0,0,0,.672.8C.68.8.689.822.706.856a1.914,1.914,0,0,0,.308.458A6.579,6.579,0,0,0,5.847,3.158h.128A5.833,5.833,0,0,0,10.454,1.25a1.045,1.045,0,0,0,.275-.574c0,.012-.024.015-.071.022a1.577,1.577,0,0,0-.2.041,16.833,16.833,0,0,1-4.406.5A32.751,32.751,0,0,1,.8.788Z" transform="translate(235.502 85.769)"/><path class="b" d="M0,13.882A9.585,9.585,0,0,0,1.44,8.844c-.406-3.519,11.545-15.552,9.7-3.827-.072.46,1.136-1.364,1.9.038s.529,3.523-1.251,6.667a16.84,16.84,0,0,1-4.433,5Z" transform="translate(225.831 89.595)"/><path class="d" d="M8.076,17.465h0L0,14.345l.442-.372a9.538,9.538,0,0,0,1.33-4.741C1.524,7.093,5.2,2.516,8.027.789A4.561,4.561,0,0,1,10.3,0a1.808,1.808,0,0,1,1.025.293c.922.617,1.229,2.072.938,4.446a1.463,1.463,0,0,1,.735-.225,1.022,1.022,0,0,1,.2.02,1.266,1.266,0,0,1,.824.7c.891,1.65.481,3.942-1.254,7.007A17.184,17.184,0,0,1,8.228,17.36l-.151.1ZM10.288.7h0a3.915,3.915,0,0,0-1.9.687C5.592,3.1,2.269,7.452,2.466,9.151A9.649,9.649,0,0,1,1.2,14.059l6.772,2.618A16.609,16.609,0,0,0,12.157,11.9c1.584-2.8,2-4.927,1.246-6.329-.109-.205-.229-.323-.354-.349a.294.294,0,0,0-.072-.009,1.406,1.406,0,0,0-.684.356l-.011.008-.01.008a.791.791,0,0,1-.435.211.354.354,0,0,1-.186-.055l-.2-.121.025-.307c.373-2.378.181-3.954-.542-4.437A1.145,1.145,0,0,0,10.288.7Z" transform="translate(225.153 89.246)"/><path class="b" d="M4.135,0,0,8.593c1.438,2.876,9.3,5.739,10.515,5.036S13.984,6,14.109,4.014C13.57,2.216,4.135,0,4.135,0" transform="translate(221.416 101.266)"/><path class="d" d="M10.313,14.49a9.307,9.307,0,0,1-2.366-.447c-2.565-.768-6.778-2.7-7.87-4.888L0,9,4.33,0,4.6.066C6.213.443,14.266,2.421,14.833,4.32l.019.059,0,.062c-.116,1.848-2.317,9.056-3.769,9.9A1.531,1.531,0,0,1,10.313,14.49ZM4.718.812.783,8.991c1,1.714,4.541,3.538,7.365,4.383a8.1,8.1,0,0,0,2.182.419.817.817,0,0,0,.4-.062c.964-.557,3.238-7.041,3.416-9.262C13.652,3.339,8.1,1.626,4.718.812Z" transform="translate(221.027 100.859)"/><path class="b" d="M11.293,0H254.365a11.326,11.326,0,0,1,11.293,11.292h0a11.326,11.326,0,0,1-11.293,11.292H11.293A11.326,11.326,0,0,1,0,11.293H0A11.326,11.326,0,0,1,11.293,0" transform="translate(41.952 192.531)"/><path class="d" d="M254.714,23.287H11.642A11.643,11.643,0,0,1,11.642,0H254.714a11.643,11.643,0,0,1,0,23.287ZM11.642.7a10.942,10.942,0,0,0,0,21.885H254.714a10.942,10.942,0,1,0,0-21.885Z" transform="translate(41.604 192.181)"/><path class="b" d="M13.138,0H252.162L265.3,13.156H0Z" transform="translate(41.046 186.527)"/><path class="d" d="M265.644,13.841H.343A.342.342,0,0,1,.1,13.258L13.238.1a.337.337,0,0,1,.243-.1H252.505a.341.341,0,0,1,.243.1l13.138,13.158a.341.341,0,0,1-.242.583ZM13.624.683h0L1.168,13.158H264.816L252.363.683H13.624Z" transform="translate(40.703 186.184)"/><path class="b" d="M2.9,0H267.6a2.906,2.906,0,0,1,0,5.812H2.9A2.906,2.906,0,0,1,2.9,0" transform="translate(38.265 199.562)"/><path class="d" d="M283.887,38.386H19.183A19.193,19.193,0,0,1,19.183,0h264.7a19.193,19.193,0,0,1,0,38.386" transform="translate(21.977 183.274)"/><path class="g" d="M.471,41.531A93.1,93.1,0,0,1,.7,20.467,85.85,85.85,0,0,1,5.619,0s.742,5.3-.444,8.411,1.787,2.725.148,5.815,2.081,4.2.4,6.447,1.946,3.1.7,5.441S3.793,30.8,5.1,32.4s2,2.355.991,4,1.77,3.343.7,5-6.322.134-6.322.134" transform="translate(86.147 137.016)"/><path class="d" d="M4.823,42.646a16.938,16.938,0,0,1-4.1-.654L.5,41.927.473,41.7A93.733,93.733,0,0,1,.7,20.548,85.88,85.88,0,0,1,5.64,0l.674.077c.077.56.7,5.527-.464,8.586a2.429,2.429,0,0,0,.178,2.542c.417.721.891,1.538-.048,3.31a3,3,0,0,0,.266,3.3c.493.9,1.052,1.926.108,3.192-.714.955-.313,1.539.242,2.347A2.659,2.659,0,0,1,7.079,26.4l-.218.407c-1.146,2.138-2.228,4.157-1.138,5.49l.114.138c1.254,1.531,2.011,2.455.907,4.263-.394.642-.043,1.323.364,2.112l.007.014c.456.878.973,1.873.319,2.884C7.035,42.331,6.157,42.646,4.823,42.646ZM5.768,1.667h0A86.229,86.229,0,0,0,1.4,20.629a94.789,94.789,0,0,0-.262,20.753,15.2,15.2,0,0,0,3.718.56c1.058,0,1.728-.2,1.991-.608.431-.67.069-1.372-.351-2.185-.446-.857-.951-1.829-.35-2.813.848-1.383.385-1.947-.852-3.453l-.114-.14c-1.382-1.689-.141-4.011,1.06-6.256l.221-.412c.5-.948.066-1.584-.441-2.321-.555-.8-1.245-1.806-.23-3.165.678-.906.327-1.547-.159-2.434a3.7,3.7,0,0,1-.27-3.969c.756-1.428.45-1.958.061-2.628A3.106,3.106,0,0,1,5.2,8.412a17.935,17.935,0,0,0,.573-6.744Z" transform="translate(85.799 136.892)"/><path class="b" d="M21.8,35.432S18.643,9.394,0,0C0,0,.838,3.4,2.626,3.783s.238,4.119,3.19,6.2-.263,6.415,4.562,7.838-1.933,3.312,1.379,6.809.856,4.961,3.139,8.888,6.9,1.915,6.9,1.915" transform="translate(68.64 143.39)"/><path class="d" d="M19.672,36.942a5.025,5.025,0,0,1-4.554-2.594,8.58,8.58,0,0,1-1.207-4.358,5.863,5.863,0,0,0-1.883-4.466c-1.829-1.928-.84-3.52-.186-4.573.325-.526.606-.98.487-1.284-.078-.208-.407-.526-1.526-.855-2.959-.87-3.135-2.841-3.291-4.579v-.014c-.117-1.28-.228-2.488-1.373-3.294A5.865,5.865,0,0,1,3.9,6.579c-.172-1.1-.286-1.684-.827-1.8C1.1,4.357.219.885.182.738L0,0,.679.342A33.384,33.384,0,0,1,11.955,9.837a50.1,50.1,0,0,1,6.679,11.772,63.455,63.455,0,0,1,4.031,14.438l.032.256-.238.105-.01,0A7.854,7.854,0,0,1,19.672,36.942ZM1.1,1.351C1.373,2.1,2.12,3.861,3.223,4.1c1.034.22,1.2,1.261,1.371,2.363A5.211,5.211,0,0,0,6.54,10.353c1.415,1,1.544,2.429,1.668,3.814C8.364,15.9,8.5,17.4,11,18.141c1.163.343,1.774.736,1.981,1.277.239.627-.14,1.242-.543,1.893l-.005.008c-.666,1.077-1.355,2.19.1,3.722a6.513,6.513,0,0,1,2.075,4.9A7.884,7.884,0,0,0,15.723,34a4.358,4.358,0,0,0,3.952,2.27,6.886,6.886,0,0,0,2.261-.4,63.365,63.365,0,0,0-3.853-13.852C15.354,15.3,10.194,6.262,1.1,1.351Z" transform="translate(68.116 142.736)"/><path class="b" d="M.006,38.295S-.778,12.081,16.251,0c0,0-.319,3.488-2.03,4.133s.381,4.108-2.226,6.608,1.22,6.3-3.339,8.432,2.408,2.985-.343,6.938-.1,5.033-1.774,9.258S.006,38.295.006,38.295" transform="translate(89.451 140.854)"/><path class="d" d="M2,39.548a7.249,7.249,0,0,1-1.739-.194L.013,39.29,0,39.031A62.722,62.722,0,0,1,1.829,24.154,50.091,50.091,0,0,1,6.67,11.515,33.379,33.379,0,0,1,16.4.439L17.019,0l-.07.757c-.014.151-.364,3.714-2.257,4.429-.517.194-.543.784-.547,1.9a5.863,5.863,0,0,1-1.56,4.634c-1.013.973-.94,2.187-.863,3.472.108,1.744.23,3.721-2.568,5.027-1.059.5-1.335.858-1.38,1.076-.071.315.266.714.657,1.176l.016.019c.8.944,2.02,2.37.5,4.551a5.841,5.841,0,0,0-1.193,4.693,8.636,8.636,0,0,1-.542,4.491A5.2,5.2,0,0,1,2,39.548ZM16.129,1.5C7.866,7.725,4.12,17.434,2.432,24.482A63.393,63.393,0,0,0,.7,38.74a7.057,7.057,0,0,0,1.348.129,4.5,4.5,0,0,0,4.514-2.9A7.861,7.861,0,0,0,7.056,31.8a6.518,6.518,0,0,1,1.317-5.161c1.209-1.735.361-2.731-.459-3.695l-.006-.007c-.5-.585-.964-1.138-.82-1.794.125-.566.671-1.047,1.77-1.558,2.361-1.1,2.271-2.6,2.168-4.34v-.009c-.086-1.387-.175-2.821,1.075-4.022a5.209,5.209,0,0,0,1.344-4.135c.005-1.117.01-2.172,1-2.547C15.5,4.133,15.974,2.28,16.129,1.5Z" transform="translate(89.102 140.13)"/><path class="d" d="M13.62,16.043H0V1.3A1.3,1.3,0,0,1,1.3,0H12.324a1.3,1.3,0,0,1,1.3,1.3Z" transform="translate(82.64 177.484)"/><path class="d" d="M13.97,16.745H.35A.35.35,0,0,1,0,16.4V1.647A1.649,1.649,0,0,1,1.646,0H12.674a1.649,1.649,0,0,1,1.646,1.647V16.4A.35.35,0,0,1,13.97,16.745ZM1.646.7A.948.948,0,0,0,.7,1.647v14.4H13.62V1.647A.947.947,0,0,0,12.674.7Z" transform="translate(82.29 177.132)"/><path class="b" d="M9.31,5.953C8.951,4.636,3.437.082,3.437.082S.684-.517.2,1.52.258,41.377.117,40.326s.481,3.03,3.319,2.168S9.31,5.953,9.31,5.953" transform="translate(241.431 131.069)"/><path class="d" d="M3.027,43.318c-.811,0-1.943-.391-2.731-2.253l-.129.01-.049-.349,0-.015a.721.721,0,0,1,.021-.365c.014-1.123-.015-5.178-.046-9.235C-.015,16.387-.085,3.066.214,1.8A2.567,2.567,0,0,1,2.929,0,4.423,4.423,0,0,1,3.86.1l.149.072C4.582.641,9.619,4.831,10,6.216l.015.061-.005.062c-.51,6-3.2,35.962-6.12,36.845A2.884,2.884,0,0,1,3.027,43.318ZM2.893.7a1.815,1.815,0,0,0-2,1.253c-.305,1.3-.178,18.735-.1,29.151.043,5.7.062,8.3-.011,9.281a.8.8,0,0,1,.039.091l.008.022c.518,1.4,1.261,2.117,2.206,2.117a2.261,2.261,0,0,0,.651-.1C5.378,42,7.844,23.5,9.3,6.35,8.956,5.413,5.721,2.5,3.632.764A4.632,4.632,0,0,0,2.893.7Z" transform="translate(241.081 130.712)"/><path class="e" d="M6,1.455c-.3-.06-6,.832-6,.832V4.33C0,7.2,30.153,4.683,31.618,2.1L31.6,1.843,31.443,0S5.882,1.454,6,1.455" transform="translate(255.393 189.854)"/><path class="d" d="M7.492,6.321a27.248,27.248,0,0,1-6.057-.481C1.08,5.746,0,5.458,0,4.7V2.357l.295-.046c2.578-.4,5.639-.834,6.087-.834l.037,0-.008.041c.5-.083,1.634-.147,3.9-.276L32.113,0l.214,2.546-.053.095c-.975,1.717-10.876,2.8-13.888,3.1C14.589,6.108,10.618,6.321,7.492,6.321ZM6.3,2.167h0c-.483,0-4.747.656-5.6.787V4.7c0,.062.164.267.912.464a26.088,26.088,0,0,0,6.056.51c9.053,0,22.7-1.882,23.942-3.3L31.473.739C31.2.754,9.475,1.99,6.714,2.151l0,.1L6.3,2.169Z" transform="translate(255.043 189.485)"/><path class="b" d="M1.105,0l50.82,1.213A1.289,1.289,0,0,1,53.03,2.594l.616,35.515a1.283,1.283,0,0,1-1.105,1.379L1.105,42.412C.5,42.447,0,41.792,0,41.032V1.379A1.261,1.261,0,0,1,1.105,0" transform="translate(243.553 131.15)"/><path class="d" d="M1.41,43.112a1.241,1.241,0,0,1-.854-.356A1.911,1.911,0,0,1,0,41.383V1.732A1.892,1.892,0,0,1,.534.385,1.3,1.3,0,0,1,1.435,0h.028L52.283,1.215a1.63,1.63,0,0,1,1.445,1.725l.616,35.516a1.619,1.619,0,0,1-1.435,1.733L1.473,43.111ZM1.435.7a.581.581,0,0,0-.41.187A1.189,1.189,0,0,0,.7,1.732V41.383a1.218,1.218,0,0,0,.337.865.574.574,0,0,0,.379.166h.02l51.437-2.923a.941.941,0,0,0,.774-1.022L53.03,2.953c-.01-.562-.352-1.027-.762-1.038L1.446.7Z" transform="translate(243.203 130.799)"/><path class="b" d="M15.087.274C6.4.9-.344,2.426.014,3.672S7.7,5.414,16.379,4.782s15.432-2.151,15.075-3.4S23.77-.358,15.087.274" transform="translate(255.381 188.469)"/><path class="d" d="M9.7,6.429C5.539,6.429.485,6.1.04,4.546a1.079,1.079,0,0,1,.173-.93C1.494,1.778,10.568.649,15.727.272,16.61.208,19.753,0,23.143,0c4.162,0,9.218.327,9.665,1.883a1.089,1.089,0,0,1-.176.933C31.348,4.651,22.277,5.78,17.119,6.157,15.966,6.239,12.935,6.429,9.7,6.429ZM15.777.96h0l.052.688C7.192,2.276,2.455,3.583,1.5,4.26c.7.382,3.606.8,8.322.8,2.256,0,4.678-.093,7.2-.276,8.639-.626,13.373-1.935,14.328-2.613-.7-.382-3.6-.8-8.314-.8-2.257,0-4.681.093-7.206.277Z" transform="translate(254.691 187.783)"/><path class="b" d="M6.274,2.809c-.6-.6-3.8-2.809-3.8-2.809L0,.718V31.209l2.472.9Z" transform="translate(264.83 159.424)"/><path class="d" d="M2.822,32.808a.283.283,0,0,1-.119-.024L.23,31.889A.349.349,0,0,1,0,31.561V1.069A.353.353,0,0,1,.253.734L2.724.017A.292.292,0,0,1,2.824,0a.346.346,0,0,1,.2.064C3.226.2,6.27,2.308,6.873,2.91a.357.357,0,0,1,.1.295l-3.8,29.3A.344.344,0,0,1,3,32.754.333.333,0,0,1,2.822,32.808ZM2.761.734h0L.7,1.332V31.314l1.832.664L6.256,3.293C5.538,2.667,3.219,1.051,2.761.734Z" transform="translate(264.479 159.073)"/><path class="b" d="M0,0,11.669.382l.082,30.047L0,32.1Z" transform="translate(267.301 159.424)"/><path class="d" d="M.35,32.807a.357.357,0,0,1-.229-.086A.351.351,0,0,1,0,32.455V.352A.35.35,0,0,1,.106.1.361.361,0,0,1,.35,0,.021.021,0,0,1,.362,0l11.67.382a.349.349,0,0,1,.339.349l.081,30.046a.35.35,0,0,1-.3.345L.4,32.8A.327.327,0,0,1,.35,32.807ZM.7.714V32.052l11.051-1.577-.08-29.4Z" transform="translate(266.951 159.074)"/></g></svg>