<svg xmlns="http://www.w3.org/2000/svg" width="80" height="80" viewBox="0 0 80 80"><defs><style>.a{fill:#9acff1;}.b{fill:#7c4ad0;mix-blend-mode:hard-light;isolation:isolate;}.c{fill:none;}.d{fill:#ebebeb;opacity:0.3;}.d,.e{fill-rule:evenodd;}.e{fill:#fff;}</style></defs><g transform="translate(0 -0.333)"><ellipse class="a" cx="36.5" cy="35.5" rx="36.5" ry="35.5" transform="translate(0 0.333)"/><circle class="b" cx="36" cy="36" r="36" transform="translate(8 8.333)"/><g transform="translate(18.9 22.348)"><rect class="c" width="39.281" height="39.281"/><path class="d" d="M6,27.277H9.273a1.637,1.637,0,0,0,0-3.273H6V20.73H9.273a1.637,1.637,0,1,0,0-3.273H6V14.184H9.273a1.637,1.637,0,0,0,0-3.273H6V7.637A1.637,1.637,0,0,1,7.637,6h9.82a1.637,1.637,0,0,1,1.637,1.637V32.187a1.637,1.637,0,0,1-1.637,1.637H7.637A1.637,1.637,0,0,1,6,32.187Z" transform="translate(-1.09 -1.09)"/><path class="e" d="M31.273,6h4.91a3.273,3.273,0,0,1,3.273,3.273V26.047a3.273,3.273,0,0,1-.81,2.156l-4.3,4.917a.818.818,0,0,1-1.232,0L28.81,28.2A3.273,3.273,0,0,1,28,26.047V9.273A3.273,3.273,0,0,1,31.273,6Z" transform="translate(-5.086 -1.09)"/></g></g></svg>