<svg xmlns="http://www.w3.org/2000/svg" xmlns:xlink="http://www.w3.org/1999/xlink" width="274.5" height="274.5" viewBox="0 0 274.5 274.5"><defs><style>.a{fill:none;}.b{fill:#fff;}.c{fill:#1559a7;}.d{fill:#b0d1ee;}.e{fill:#3a77bb;}.f{fill:#eeeeef;}.g{fill:#00458c;}.h{clip-path:url(#a);}</style><clipPath id="a"><path class="a" d="M0,274.5H274.5V0H0Z"/></clipPath></defs><g transform="translate(0 -1)"><path class="b" d="M0,29.42H10.849V0H0Z" transform="translate(185.555 223.112)"/><path class="c" d="M11.32,29.891H0V0H11.32V29.89ZM.47.471V29.42H10.849V.471Z" transform="translate(185.319 222.876)"/><path class="d" d="M0,3.627H10.849V0H0Z" transform="translate(185.555 242.229)"/><path class="c" d="M11.32,4.1H0V0H11.32V4.1ZM.47.47V3.626H10.849V.47Z" transform="translate(185.319 241.993)"/><path class="b" d="M12.131,0H136.386l12.131,5.429H0Z" transform="translate(47.907 156.214)"/><path class="c" d="M148.593,5.809H.077L0,5.445,12.207,0,136.539.016,148.67,5.445l-.077.363h0ZM12.248.38.968,5.429H147.7L136.422.38Z" transform="translate(47.83 156.024)"/><path class="b" d="M0,79.264H147.225V0H0Z" transform="translate(49.201 162.673)"/><path class="c" d="M147.7,79.734H0V0H147.7V79.734ZM.47.47V79.262H147.227V.47Z" transform="translate(48.966 162.438)"/><path class="e" d="M0,2.829H147.225V0H0Z" transform="translate(49.201 162.672)"/><g transform="translate(0 1)"><path class="e" d="M5.991,2.535c-.123.084-.245.174-.363.267h0q-.329.757-.6,1.472h0L4.9,4.628h0c-.129.353-.246.7-.354,1.032l-.1.334h0l-.1.328h0l-.093.325h0l-.087.319h0l-.08.315h0L4,7.59H4c-.05.205-.1.406-.138.606l-.06.3h0l-.057.291-.053.288-.047.284h0c-.031.188-.059.373-.084.556l-.036.271-.033.267h0l-.028.264-.026.26h0l-.024.256h0l-.02.252h0l-.017.25h0l-.015.247-.012.243-.01.24-.009.236-.007.233h0l0,.23h0l0,.227,0,.225h0v.44h0v.216h0v.215h0v.421h0v.207h0v.2h0v.2h0v.2h0v.2h0l0,.2h0l0,.195h0l0,.193h0c-.007.257-.018.508-.035.756h0c-.009.124-.019.248-.031.37h0c-.011.122-.025.243-.041.364h0c-.039.3-.09.6-.157.9v0C3.263,24.964,2.932,30.164,0,35.263c1.267-.17,2.177,1.644,3.539,1.644,1.284,0,5.706-.417,9.567-.545,3.487-.116,6.792-1.819,9.475-2.5a118.405,118.405,0,0,1,1.947-12.513A114.375,114.375,0,0,1,22.192,8.292c-.6-3.679-.42-6.344,1.423-6.662.109-.018.773.181.882.18C21.426-1.245,9.776-.043,5.991,2.535" transform="translate(135.659 116.376)"/><path class="c" d="M3.982,37.376a3.219,3.219,0,0,1-1.91-.9l-.034-.027a2.572,2.572,0,0,0-1.42-.724,1.007,1.007,0,0,0-.143.01L0,35.8l.238-.415c2.823-4.908,3.244-9.853,3.01-16.24l0-.06.028-.054c.031-.157.089-.472.134-.822.013-.1.029-.226.041-.359s.023-.255.031-.362c.017-.242.028-.486.034-.745l.012-.98,0-1.466L3.7,10.659l.069-.544c.026-.187.054-.373.084-.562l.22-1.17c.037-.176.076-.347.118-.529l.019-.084.549-1.946c.119-.366.235-.706.356-1.041l.133-.356c.2-.52.4-1.005.6-1.484l.071-.09c.109-.088.232-.178.375-.276C8.168,1.3,11.952.314,15.939.059,16.552.02,17.174,0,17.788,0c4.487,0,6.456,1.02,7.317,1.877l.4.395-.559.008a2.373,2.373,0,0,1-.435-.086,3.953,3.953,0,0,0-.434-.094c-1.474.255-1.87,2.345-1.208,6.389a111.144,111.144,0,0,0,2.249,12.649l.005.024.092.423-.012.051a115.567,115.567,0,0,0-1.944,12.486l-.017.162-.159.041c-.867.22-1.8.549-2.793.9l-.008,0a22.85,22.85,0,0,1-6.723,1.606c-2.189.074-4.567.24-6.3.361C5.751,37.294,4.565,37.376,3.982,37.376ZM17.8.469h0c-.59,0-1.206.02-1.833.059-3.847.246-7.625,1.224-9.4,2.434-.108.073-.21.148-.3.222-.2.476-.4.948-.571,1.405l-.13.353c-.124.339-.242.683-.35,1.023L4.672,7.88c-.048.2-.094.4-.136.6L4.321,9.63c-.032.191-.06.383-.083.548L3.99,14.509l.005,1.25-.013.993c-.007.279-.019.529-.036.766-.008.113-.017.246-.031.375s-.028.261-.042.373c-.04.312-.091.6-.156.891.23,6.316-.171,11.215-2.877,16.113a3.5,3.5,0,0,1,1.516.829,2.835,2.835,0,0,0,1.625.807c.578,0,1.87-.09,3.238-.185,1.75-.122,4.144-.288,6.322-.361a22.48,22.48,0,0,0,6.59-1.583l.045-.016c.927-.326,1.8-.633,2.629-.853a115.746,115.746,0,0,1,1.925-12.326l-.07-.322A111.014,111.014,0,0,1,22.4,8.545c-.709-4.326-.186-6.586,1.6-6.909A13.314,13.314,0,0,0,17.8.47Z" transform="translate(135.216 116.142)"/><path class="c" d="M8.226,0A18.5,18.5,0,0,0,1.734,2.129,13.07,13.07,0,0,0,0,5.428l0,0v0s3.7-2.32,5.653-3.444A8.95,8.95,0,0,0,7.934.425Z" transform="translate(140.204 116.598)"/><path class="b" d="M20.361,39.954c-2.408,0-4.947-.1-7.546-.312l5.522-.392L19,39.2,6.919,38.5l.01-.172c.117-2.059.242-3.691.394-5.136.979.076,2.011.171,3.1.272,2.919.269,6.227.574,9.349.574a26.5,26.5,0,0,0,7.285-.832,8.776,8.776,0,0,0,5.049-3.278c.986-1.422,1.327-3.722,1.04-7.031a83.688,83.688,0,0,0-1.616-9.426C30.4,8.057,29.327,2.942,30.7.915A2.045,2.045,0,0,1,32.1.028,1.916,1.916,0,0,1,32.425,0c.913,0,1.815.674,2.68,2A21.9,21.9,0,0,1,37.352,7.19a84.913,84.913,0,0,1,2.961,14.974c.358,3.063.578,6.022.635,8.556a6.261,6.261,0,0,1-1.842,4.673C35.418,39.162,26.877,39.954,20.361,39.954ZM.508,36.182v0a2.452,2.452,0,0,1-.445-1.9,1.4,1.4,0,0,1,.84-.821c-.158.973-.291,1.889-.394,2.724Z" transform="translate(127.581 118.18)"/><path class="c" d="M20.7,40.432c-2.426,0-5.007-.108-7.671-.32l0-.47,2.539-.18-8.667-.5.024-.407c.119-2.078.245-3.714.4-5.147l.025-.228.229.018c1,.078,2.069.177,3.1.272h.01c2.939.271,6.271.577,9.376.577a26.058,26.058,0,0,0,7.155-.815,8.567,8.567,0,0,0,4.93-3.2c2.148-3.1.682-10.1-.611-16.271v-.006l0-.012c-1.144-5.461-2.224-10.618-.791-12.727A2.276,2.276,0,0,1,32.3.031,2.127,2.127,0,0,1,32.658,0a2.5,2.5,0,0,1,1.5.55c3.291,2.462,5.579,12.887,6.623,21.822.359,3.073.579,6.039.636,8.578a6.522,6.522,0,0,1-2.136,5.067c-1.707,1.611-4.427,2.8-8.084,3.532A54.406,54.406,0,0,1,20.7,40.432ZM7.77,33.685c-.141,1.384-.257,2.92-.366,4.834l11.842.687,0,.47-2.629.186c1.307.056,2.614.085,3.885.085a56.214,56.214,0,0,0,10.335-.831c3.72-.709,6.451-1.866,8.119-3.44a6.071,6.071,0,0,0,1.988-4.715c-.055-2.508-.274-5.458-.632-8.533C39.33,13.993,37.053,3.3,33.877.927A2.01,2.01,0,0,0,32.659.471a1.7,1.7,0,0,0-.283.024,1.793,1.793,0,0,0-1.242.789c-1.322,1.943-.26,7.011.863,12.376,1.378,6.576,2.8,13.376.54,16.642a8.97,8.97,0,0,1-5.121,3.363,26.394,26.394,0,0,1-7.361.854c-3.131,0-6.472-.309-9.42-.581l-.323-.03c-.891-.082-1.732-.159-2.544-.223ZM.539,36.535h0a2.666,2.666,0,0,1-.466-2.1,1.643,1.643,0,0,1,.969-.962l.4-.176-.071.43c-.153.939-.285,1.854-.392,2.718l-.437.088ZM.825,34.15a.952.952,0,0,0-.305.434A1.589,1.589,0,0,0,.612,35.6C.68,35.1.752,34.615.825,34.15Z" transform="translate(127.346 117.945)"/><path class="b" d="M.168,2.448a2.588,2.588,0,0,1,.55,2.279C-2.736,22,7.393,4.478,7.373,4.416,7.163,3.788,5.747,2.448,5.721.535S.168,2.448.168,2.448" transform="translate(147.421 112.297)"/><path class="c" d="M1.115,12.8a.83.83,0,0,1-.439-.12c-.577-.351-1.2-1.539.048-7.773A2.362,2.362,0,0,0,.237,2.845l-.2-.2L.27,2.485C1.113,1.9,3.974,0,5.38,0a.951.951,0,0,1,.44.091.705.705,0,0,1,.371.672A5.562,5.562,0,0,0,7.378,3.79l.007.01a3.758,3.758,0,0,1,.447.774c.171.508-3.9,6.393-5.488,7.666A2.111,2.111,0,0,1,1.115,12.8ZM5.358.459h0C4.5.46,2.364,1.636.746,2.729A2.9,2.9,0,0,1,1.184,5C-.064,11.249.635,12.2.994,12.316a.484.484,0,0,0,.157.025c.839,0,2.361-1.879,3.489-3.455A47.432,47.432,0,0,0,7.352,4.64a5.414,5.414,0,0,0-.364-.588l0-.006A6.028,6.028,0,0,1,5.722.769c0-.2-.082-.241-.116-.259A.534.534,0,0,0,5.359.46Z" transform="translate(147.185 112.065)"/><path class="c" d="M.285,2.967a2.974,2.974,0,0,1-.056.418C.145,3.814.069,4.215,0,4.6.784,8.834,5.254,1.787,5.42,0c0,0-.267.5-.716.474A5.835,5.835,0,0,1,.285,2.967" transform="translate(147.909 113.638)"/><path class="b" d="M0,5.385c.826,2.353,2.2,5.04,4.309,5.743,3.291,1.1,6.728-1.809,7-4.769.052-.561.225-1.162.287-1.846a3.276,3.276,0,0,0,1.1-2.829A1.641,1.641,0,0,0,12.22.768C10.267.1,10.31,1.9,10.383,2.535c.6,1.767-.2,1.6-1.164-.195C8.809,1.576,5.562.364,3.244,0c.5.481,1.369.63,2.726,1.62,1.6,1.165-3.366,1.532-4.6.524A3.1,3.1,0,0,1,.837,1.58,5.778,5.778,0,0,1,0,5.385" transform="translate(142.289 105.242)"/><path class="c" d="M6.04,11.834A4.869,4.869,0,0,1,4.5,11.583C2.261,10.837.839,7.968.04,5.694L0,5.58l.07-.1A5.5,5.5,0,0,0,.864,1.858l.423-.185a2.886,2.886,0,0,0,.5.52,4.541,4.541,0,0,0,2.488.534,5.144,5.144,0,0,0,1.75-.246c.222-.089.285-.173.29-.2s-.034-.109-.218-.244A10.751,10.751,0,0,0,4.341,1.01l-.005,0L4.33,1A3.757,3.757,0,0,1,3.343.4l.2-.4C5.865.364,9.225,1.6,9.689,2.46a4.02,4.02,0,0,0,.927,1.275,2.592,2.592,0,0,0-.195-.892,2.24,2.24,0,0,1,.5-1.967,1.242,1.242,0,0,1,.8-.258,2.657,2.657,0,0,1,.839.158l.082.05a1.871,1.871,0,0,1,.555,1.045,3.414,3.414,0,0,1-1.106,2.988c-.035.328-.092.633-.148.928l0,.015,0,.027c-.052.275-.1.535-.123.783a6,6,0,0,1-2.763,4.28A5.519,5.519,0,0,1,6.04,11.834ZM1.35,2.44A5.492,5.492,0,0,1,.524,5.65c.76,2.128,2.091,4.808,4.122,5.486a4.395,4.395,0,0,0,1.393.226A5.054,5.054,0,0,0,8.789,10.5a5.521,5.521,0,0,0,2.552-3.928c.025-.277.078-.557.133-.853s.121-.635.154-.992l.009-.1.071-.061A3.059,3.059,0,0,0,12.732,1.96a1.426,1.426,0,0,0-.374-.754,2.093,2.093,0,0,0-.636-.118.8.8,0,0,0-.508.154c-.429.346-.365,1.234-.335,1.5.3.849.281,1.331-.043,1.473a.386.386,0,0,1-.15.03c-.376,0-.864-.54-1.412-1.56-.268-.5-2.313-1.4-4.378-1.922a10.422,10.422,0,0,1,1.474.9c.3.219.436.448.407.682s-.227.432-.582.573A5.842,5.842,0,0,1,4.229,3.2a4.711,4.711,0,0,1-2.743-.642C1.438,2.519,1.392,2.478,1.35,2.44Z" transform="translate(142.027 105.011)"/><path class="c" d="M12.994,13.327c.962,1.794,1.766,1.961,1.164.2-.073-.637-.116-2.438,1.837-1.768,0,0,.156-4.521-3.128-6.219a7.977,7.977,0,0,0,.067-1.095C12.934-1.714,6.763-.471,5.6,2.2a5.96,5.96,0,0,0-.322,3.437A9.342,9.342,0,0,0,.305,10.782c-.818,2.264.088,5.738,1.745,4.2.183,1.108.536,2.352,1.165,1.993l.024.04,0-.052a1.094,1.094,0,0,0,.237-.21,5.5,5.5,0,0,0,1.137-4.186,3.071,3.071,0,0,0,.537.563c1.231,1.009,6.195.642,4.6-.524-1.357-.991-2.223-1.139-2.726-1.62,2.318.364,5.565,1.576,5.976,2.34" transform="translate(138.514 94.255)"/><path class="b" d="M13.474,0C5.272,3.71-2.241,41.324.62,41.006c.374-.041,4.789,1.839,5.7-.333A15.858,15.858,0,0,0,6.7,37.335a62.2,62.2,0,0,1,3.329-18.272c.391-1.263.7-2.288.859-2.968.861-3.776-.925-8.012,2.587-16.1" transform="translate(127.813 119.179)"/><path class="c" d="M4.5,42.166A11.686,11.686,0,0,1,1.43,41.6L1.4,41.594a5.177,5.177,0,0,0-.538-.139l-.056,0c-.211,0-.5-.124-.656-.712C-1.141,36.018,5.9,3.485,13.61,0l.312.307a26.366,26.366,0,0,0-2.293,11.96,17.91,17.91,0,0,1-.28,4.094c-.162.71-.487,1.772-.863,2.985A61.785,61.785,0,0,0,7.167,37.561a15.346,15.346,0,0,1-.395,3.417A2.2,2.2,0,0,1,4.5,42.166ZM.867,40.985a3.2,3.2,0,0,1,.693.165A11.3,11.3,0,0,0,4.5,41.7c.968,0,1.586-.3,1.837-.9A16.975,16.975,0,0,0,6.7,37.536a62.2,62.2,0,0,1,3.341-18.329c.4-1.308.7-2.286.853-2.95a17.482,17.482,0,0,0,.267-3.987v-.005A26.753,26.753,0,0,1,13.225.75c-1.51.993-3.087,3.185-4.687,6.518A79.731,79.731,0,0,0,3.954,20.076C1.246,29.788.038,38.54.608,40.62c.061.221.142.37.2.37a.038.038,0,0,0,.017,0Z" transform="translate(127.579 118.965)"/><path class="f" d="M3.437,0S4.213,3.1,4.6,3.359s3.058-1.744,3.962-.452C9.417,4.13,2.158,7.12.183,5.934L0,2.539.21.9S3.456.074,3.437,0" transform="translate(128.733 150.977)"/><path class="c" d="M1.732,6.633A2.811,2.811,0,0,1,.3,6.329L.19,6.264,0,2.746.232.908.386.868C1.792.51,3.377.084,3.547,0l.1.2L3.9.136l0,.008A14.306,14.306,0,0,0,4.971,3.361c.064-.008.473-.185.772-.314l.015-.006A5.839,5.839,0,0,1,7.87,2.43a1.267,1.267,0,0,1,1.12.538c.119.172.248.538-.234,1.054C7.693,5.162,4.1,6.633,1.732,6.633ZM3.511.513C3.1.655,2.335.857.658,1.285L.469,2.763l.177,3.22a2.588,2.588,0,0,0,1.087.191c1.83,0,5.536-1.247,6.679-2.474.11-.118.281-.335.191-.464A.852.852,0,0,0,7.854,2.9a5.548,5.548,0,0,0-1.922.579,3.119,3.119,0,0,1-1,.335A.393.393,0,0,1,4.7,3.749C4.323,3.495,3.793,1.612,3.511.513Z" transform="translate(128.498 150.783)"/><path class="c" d="M0,.024C.351.008,3.349,0,3.349,0S.2,3.943.2,3.8,0,.024,0,.024" transform="translate(129.06 152.932)"/><path class="c" d="M.444,4.276a.19.19,0,0,1-.069-.015l-.156-.05L.21,4.043C.2,3.915.058,1.152.013.308l0-.034L0,.037.237.026C.585.01,3.457,0,3.6,0l.489,0L3.78.384C.982,3.894.63,4.276.444,4.276ZM3.106.474c-.453,0-1.98.008-2.612.017l.049.9c.036.687.081,1.533.11,2.084C1.319,2.7,2.7.982,3.106.474Z" transform="translate(128.813 152.695)"/><path class="b" d="M0,.615C1.268.214,3.237-.259,4.212.169c.951.42,1.781,2.592.831,3.534-.986.978-3.347,1.054-4.827.92Z" transform="translate(128.518 148.889)"/><path class="c" d="M1.59,5.14c-.525,0-.946-.031-1.151-.049l-.2-.018L0,.68.173.625A11.955,11.955,0,0,1,3.437,0,2.791,2.791,0,0,1,4.551.189,2.887,2.887,0,0,1,5.89,2.245a2.022,2.022,0,0,1-.437,1.86C4.591,4.961,2.876,5.14,1.59,5.14ZM3.443.468a11.494,11.494,0,0,0-2.954.551L.683,4.639c.3.022.607.034.915.034a5.332,5.332,0,0,0,3.524-.9,1.633,1.633,0,0,0,.306-1.44A2.477,2.477,0,0,0,4.361.619,2.328,2.328,0,0,0,3.443.468Z" transform="translate(128.273 148.654)"/><path class="b" d="M.018,1.465C-.237,1.38,2.311.478,3.052.011,3.4-.2,1.974,2.945.018,1.465" transform="translate(146.938 113.585)"/><path class="c" d="M1.31,2.392A1.968,1.968,0,0,1,.142,1.975L.024,1.936,0,1.756c-.009-.23.132-.3,1.423-.843a15.937,15.937,0,0,0,1.738-.8L3.339,0l.174.159c.247.3-.4,1.194-.71,1.515A2.1,2.1,0,0,1,1.31,2.392ZM2.9.782c-.379.18-.846.378-1.291.565-.278.117-.677.286-.937.407a1.369,1.369,0,0,0,.643.171,1.267,1.267,0,0,0,.5-.107A2.587,2.587,0,0,0,2.9.782Z" transform="translate(146.703 113.286)"/><path class="c" d="M0,.349A.391.391,0,1,1,.779.434c0,.009-.125,2.32.366,2.693.038.214-.021.285-.233.322C.271,3.56-.022.563,0,.349" transform="translate(130.646 150.229)"/><path class="g" d="M27.427,3.321h0L0,2.571V0L27.844.732l.036.764a.714.714,0,0,1-.4.693L44.819.96l.66-.048.018.572L27.427,3.321Z" transform="translate(101.099 156.472)"/><path class="c" d="M0,.542C1.445.281,3.253,0,3.253,0S4.931.043,5.287,1.095l.966,21.864-.841.1L4.231,1.451A.866.866,0,0,0,3.385.71Z" transform="translate(123.555 134.756)"/><path class="b" d="M0,2.3v0a.717.717,0,0,0,.394-.692L.317,0,17.994,1.023l-.661.048Z" transform="translate(128.585 156.36)"/><path class="c" d="M.392,2.869h0L0,2.362.483,2.35l.339.019,0,.47-.431.03ZM1.55,2.785h0l-.119-.445A.476.476,0,0,0,1.7,1.87L1.608,0l.261.014L19.545,1.039l0,.469-18,1.278ZM2.1.5h0l.064,1.348a1.011,1.011,0,0,1-.072.429l13.78-.98L2.1.5Z" transform="translate(127.047 156.11)"/><path class="b" d="M.671,0,27.838,1.373a.809.809,0,0,1,.747.749l1.193,22.2a.629.629,0,0,1-.67.677L1.942,23.629a.81.81,0,0,1-.748-.749L0,.678A.629.629,0,0,1,.671,0" transform="translate(99.201 133.738)"/><path class="c" d="M29.386,25.486h-.049L2.171,24.112a1.056,1.056,0,0,1-.977-.977L0,.933A.883.883,0,0,1,.253.254.9.9,0,0,1,.884,0H.924L28.092,1.373a1.059,1.059,0,0,1,.976.977l1.193,22.2a.868.868,0,0,1-.875.933ZM.879.484A.384.384,0,0,0,.6.6.4.4,0,0,0,.484.907l1.194,22.2a.568.568,0,0,0,.518.52L29.361,25h.008a.411.411,0,0,0,.3-.111.4.4,0,0,0,.112-.311l-1.193-22.2a.569.569,0,0,0-.518-.52L.9.484Z" transform="translate(98.959 133.497)"/><path class="c" d="M1.557.736c3.047-2.124,2.67.863,1.385,2.5-1.721,2.2-4.834-.1-1.385-2.5" transform="translate(111.415 144.275)"/><path class="c" d="M11.853,1.712C11.16,5.978,3.016,8.287.983,10.559c-1,1.12-1.569,4.308-.042,4.059l20.985-3.424C23.76,10.9,21.142.049,19.318,0l.275,2.717v0l.073.489C16.9,6.455,12.907,4.874,12.907,4.874l-.131-.486-.123-.058c-.233-.63-.5-1.838-.8-2.619" transform="translate(221.415 237.079)"/><path class="b" d="M0,1.043C.46,3.174,1.206,5.685,1.682,7.465c0,0,3.994,1.579,6.757-1.666L7.513,0H7.036A11.841,11.841,0,0,1,0,1.043" transform="translate(232.64 234.488)"/><path class="c" d="M4.2,8.31a7.3,7.3,0,0,1-2.367-.39.237.237,0,0,1-.143-.16c-.129-.479-.276-1.008-.431-1.569l-.028-.1C.811,4.576.335,2.859.006,1.328a.234.234,0,0,1,.06-.214.241.241,0,0,1,.171-.072.218.218,0,0,1,.041,0,9.55,9.55,0,0,0,1.706.143A11.373,11.373,0,0,0,7.152.034.232.232,0,0,1,7.272,0h.476a.238.238,0,0,1,.232.2L8.907,6a.236.236,0,0,1-.053.189A5.946,5.946,0,0,1,4.2,8.31ZM.539,1.565h0c.318,1.412.75,2.971,1.13,4.346l.043.154c.171.612.295,1.06.4,1.456a6.708,6.708,0,0,0,2.1.339,5.47,5.47,0,0,0,4.211-1.9L7.548.47H7.335A11.766,11.766,0,0,1,2.012,1.665a10.506,10.506,0,0,1-1.473-.1Z" transform="translate(232.404 234.253)"/><path class="b" d="M30.662.6C29.9,11.412,24.541,12.483,12.9,11.819a42.925,42.925,0,0,0-6.431-1.437c-1.5,0-7.129,2.957-6.4,3.568.535.449,1.993-.268,2.007-.151.033.281-1.865.858-.943,1.166.779.26,2.394-.683,3.079-.683s.677,4.008,3.763,4.036c17.995.164,26.735-.006,30.467-16.088-.533-.6-1.043-1.2-1.523-1.8-2.3-.936-4.884-.08-6.253.17" transform="translate(147.075 118.172)"/><path class="c" d="M12.87,18.816c-1.355,0-2.749-.013-4.225-.026l-.442,0c-2.26-.02-2.982-2.022-3.413-3.219a2.863,2.863,0,0,0-.373-.822,5.014,5.014,0,0,0-1.06.311l-.029.01a5.476,5.476,0,0,1-1.646.414,1.218,1.218,0,0,1-.393-.059c-.256-.085-.395-.219-.413-.4s.077-.321.3-.487a2.435,2.435,0,0,1-.357.029,1.014,1.014,0,0,1-.671-.2.42.42,0,0,1-.117-.489c.388-1.063,5.29-3.5,6.668-3.5a42.1,42.1,0,0,1,6.5,1.446c1.89.107,3.372.157,4.663.157,4.535,0,7.29-.642,9.212-2.146C29.205,8.166,30.347,5.3,30.663.815A.235.235,0,0,1,30.854.6c.216-.039.455-.093.731-.155l.014,0h.006A14.511,14.511,0,0,1,34.784,0a6.406,6.406,0,0,1,2.454.443.214.214,0,0,1,.094.072c.465.582.961,1.168,1.515,1.792a.231.231,0,0,1,.054.209,26.893,26.893,0,0,1-3.508,8.861,14.144,14.144,0,0,1-5.412,4.9C25.866,18.4,20.591,18.816,12.87,18.816ZM4.441,14.281c.387,0,.547.448.79,1.126.415,1.151,1.041,2.891,2.975,2.909,1.628.016,3.312.032,4.87.032,7.629,0,12.822-.406,16.8-2.48,4.266-2.227,6.9-6.341,8.542-13.34C37.91,1.959,37.448,1.412,37,.857A6.075,6.075,0,0,0,34.782.471,14.184,14.184,0,0,0,31.7.9c-.225.05-.412.091-.585.126a18.713,18.713,0,0,1-1.162,5.633,8.194,8.194,0,0,1-2.549,3.492,9.937,9.937,0,0,1-4.085,1.781,27.53,27.53,0,0,1-5.771.5c-1.274,0-2.725-.047-4.434-.144l-.128-.036-.006,0a38.278,38.278,0,0,0-6.283-1.4c-1.407,0-6.162,2.6-6.229,3.2a.5.5,0,0,0,.283.064,4.567,4.567,0,0,0,1.12-.235l.011,0a1.607,1.607,0,0,1,.4-.094.253.253,0,0,1,.147.043.259.259,0,0,1,.11.18c.03.259-.239.412-.646.642l0,0a4.065,4.065,0,0,0-.491.31l.037.014a.775.775,0,0,0,.245.034,5.357,5.357,0,0,0,1.5-.392l.014-.005A4.383,4.383,0,0,1,4.441,14.281Z" transform="translate(146.84 117.938)"/><path class="c" d="M3.849,0C.032,4.715-.349,9.065.2,15.428c.086,1,3.945-1.309,7.222.024C3.9,11.031,1.969,6.419,3.849,0" transform="translate(176.565 103.147)"/><path class="c" d="M.856,16.07a.761.761,0,0,1-.464-.121A.475.475,0,0,1,.2,15.595C-.358,9.135.066,4.736,3.9,0l.408.214C2.685,5.751,3.741,10.308,7.84,15.454l-.272.363a5.94,5.94,0,0,0-2.275-.408,14.227,14.227,0,0,0-3.077.431l-.024.005A7.1,7.1,0,0,1,.856,16.07Zm2.7-14.851A15.353,15.353,0,0,0,.768,7.772a29.823,29.823,0,0,0-.1,7.783.29.29,0,0,0,.187.041,7.61,7.61,0,0,0,1.255-.216h.005a14.527,14.527,0,0,1,3.179-.441,6.985,6.985,0,0,1,1.7.2,19.052,19.052,0,0,1-3.233-5.93A14.934,14.934,0,0,1,3.558,1.219Z" transform="translate(176.332 103)"/><path class="c" d="M13.856,0c-1.124.943-4.4,3.591-6.5,4.272-2.57.833-5.14.538-6.381,1.862a4.175,4.175,0,0,0-.785,3.909c.257.393,22.4.1,22.868-.147S22.548.653,22,.3,21.4.088,20.85.009l0,.341c0,.51.007.834.007.834a5.8,5.8,0,0,1-6.908.441Z" transform="translate(182.805 241.931)"/><path class="b" d="M0,.652.351,6.619a5.8,5.8,0,0,0,6.908-.441s0-.324-.008-.834C7.242,4.035,7.237,1.493,7.3,0Z" transform="translate(196.407 236.937)"/><path class="c" d="M3.783,8.053a6.409,6.409,0,0,1-3.3-.974L.373,7.016,0,.7,7.8,0,7.789.27C7.725,1.646,7.724,3.928,7.734,5.6l.009.949-.093.071A6.2,6.2,0,0,1,3.783,8.053ZM7.307.516.5,1.125l.33,5.614a5.889,5.889,0,0,0,2.952.839A5.715,5.715,0,0,0,7.272,6.322L7.265,5.6C7.257,4.349,7.251,2.018,7.307.516Z" transform="translate(196.158 236.679)"/><path class="c" d="M8.023,14.2C4.562,16.589,0,14.869,0,10.493c0-5.2,15.294-15,19.02-8.137,0,0,5.056.444,5.2,8.088l-1.657.457h0v0h0l0-.006h0l0-.009h0l0-.012h0l-.007-.016h0l-.008-.018h0l-.009-.023h0l-.011-.025h0l-.013-.027h0l-.014-.03h0l-.015-.032h0l-.017-.035h0l-.018-.037h0l-.019-.04h0l-.021-.042h0l-.023-.043h0l-.024-.045-.025-.046h0l-.026-.048h0l-.027-.049h0l-.028-.051-.03-.052h0l-.031-.053h0l-.033-.054h0l-.034-.055h0L22.072,10h0l-.036-.056h0L22,9.885h0l-.038-.057-.04-.057-.041-.057-.042-.056h0L21.8,9.6h0l-.044-.055-.044-.056-.045-.055h0l-.046-.054h0l-.047-.052-.048-.053-.05-.05-.05-.05h0l-.051-.048h0l-.052-.046-.053-.045h0L21.208,9h0l-.055-.041h0l-.056-.04-.056-.037h0l-.057-.036-.058-.032-.059-.03-.06-.027h0l-.06-.025-.06-.022h0l-.061-.018h0l-.061-.016L20.5,8.658l-.063-.009-.063-.006h0l-.064,0-.066,0-.065.006-.066.01-.066.013-.1.024-.088.024-.082.023-.077.023-.071.024-.065.023h0l-.06.024h0l-.055.024-.049.022-.045.025h0l-.04.024h0l-.036.024h0l-.033.024h0L19.222,9h0l-.025.025h0l-.021.026h0l-.017.026h0l-.014.025h0l-.011.026h0l-.008.026h0l-.007.027h0l0,.027h0v.027l0,.059h0l0,.03h0l.011.063h0l.008.032.037.14c.012.049.025.1.035.156h0l.014.085h0l.006.043h0l0,.045,0,.046v.048h0l0,.049h0l0,.05-.006.052-.008.054h0l-.011.055-.014.057-.017.058h0l-.02.059h0l-.024.06-.027.063-.032.064-.035.066L19,10.746l-.044.07-.049.072-.054.074-.059.076-.065.078-.07.078-.076.081-.081.084a2.058,2.058,0,0,0-.342,1.657s-1.771,1.028-5.029-.4l-.15-.067-.147-.066-.142-.065-.138-.066-.134-.064-.13-.064-.126-.064h0l-.123-.063-.118-.063h0l-.115-.061h0l-.111-.061h0l-.108-.06h0l-.1-.06-.1-.06-.1-.059-.095-.059-.09-.057-.087-.057h0l-.083-.056-.081-.055-.078-.054-.075-.054h0l-.071-.052h0l-.068-.052h0l-.065-.051h0l-.062-.05-.06-.048-.058-.048-.055-.047h0l-.052-.046h0l-.05-.044h0l-.047-.044-.044-.043h0l-.043-.042h0l-.041-.041-.038-.04h0l-.036-.039h0l-.034-.037h0l-.031-.036h0l-.03-.035-.027-.034h0l-.026-.033h0l-.024-.031-.023-.03-.021-.029h0L9.671,10.3h0l-.017-.026h0l-.015-.025h0l-.014-.024h0L9.608,10.2h0L9.6,10.179h0l-.01-.02-.009-.018h0l-.009-.017h0L9.56,10.11h0L9.553,10.1h0l-.006-.012h0l0-.011h0l0-.009h0l0-.007h0v-.007h0v0h0v0h0v0h0v0h0l0,.008h0l0,.009h0l0,.013h0l0,.016h0l-.006.018h0l-.007.02h0l-.007.023-.009.025h0l-.009.027h0l-.01.028h0l-.011.031h0l-.013.032h0l-.014.035h0l-.015.035h0l-.016.038h0l-.017.038h0l-.018.041h0l-.02.041h0l-.021.043-.023.043-.023.043h0l-.025.044h0l-.026.045h0l-.027.045-.028.047h0l-.029.046-.031.046-.033.047h0l-.034.047L9,11.072l-.037.047-.039.046-.04.046h0l-.041.045L8.8,11.3l-.044.044-.045.043-.047.043-.049.043-.05.041-.053.039-.053.039-.056.037-.057.035h0l-.059.033-.06.033h0l-.062.029L8.1,11.79l-.065.026-.067.025-.069.022-.072.02-.072.017-.076.015-.076.012-.078.009-.08.007-.082,0H7.283l-.086,0-.088-.006-.091-.009h0v0l0,0,0,.006v0l0,.006,0,.009,0,.008v0l0,.011,0,.012,0,0,0,.009.006.015,0,.015h0l.007.017.008.019,0,.01,0,.009.009.021.009.023v0l.009.021.009.025.007.017,0,.009.01.027.01.027,0,.008.008.021.012.03.01.026,0,0,.013.032.013.033.006.014.009.02.014.035.015.036h0l.016.036.016.039.009.023.008.016.017.041.017.041,0,.008.015.034.019.043.014.034,0,.01.019.044.02.044.007.016.014.03.021.047.019.045,0,0,.022.049.023.049.011.026.011.024.024.051.024.052,0,.006.021.047.026.053.026.055.026.054.026.057.007.014.02.042.026.057.024.049,0,.009.028.059.028.059.013.026.016.033.029.06.031.061h0l.03.06Z" transform="translate(154.163 83.267)"/><path class="c" d="M17.411,83.443C15.511,77.035,4.65,42.8,0,29.623c3.2-6.6,7.316-13.791,12.363-22.676.009-.009.009-.019.019-.028l.009-.009c.132-.2,2.079-3.015,4.282-6.91C15.36,32.525,19.727,50.919,28.527,83.169c.9,3.261-10.671,1.8-11.116.274" transform="translate(211.939 150.754)"/><path class="c" d="M0,21.447A231.357,231.357,0,0,1,12.8,0C7.751,8.885,3.639,16.078.435,22.676.284,22.241.142,21.834,0,21.447" transform="translate(211.504 157.701)"/><path class="c" d="M4.357,0C4.329.586,4.3,1.163,4.282,1.73,2.079,5.624.132,8.441,0,8.639.1,8.393,1.919,4.442,4.357,0" transform="translate(224.33 149.024)"/><path class="c" d="M25.107,87.2a21,21,0,0,1-4.68-.543c-1.507-.366-2.414-.831-2.556-1.308C15.887,78.648,4.421,42.51.034,30.313L0,30.217l.046-.092A234.361,234.361,0,0,1,12.88,8.623c0-.014,1.877-4.1,4.35-8.623l.442.122c-1.56,34.107,2.966,52.541,11.778,84.822.143.523.129,1.471-1.565,1.954A10.622,10.622,0,0,1,25.107,87.2ZM17.156,1.123C14.9,5.317,13.3,8.826,13.289,8.854l-.04.059A237.956,237.956,0,0,0,.511,30.251c4.417,12.3,15.845,48.324,17.812,54.969.211.712,3.828,1.524,6.789,1.524a9.9,9.9,0,0,0,2.644-.3c1.5-.425,1.3-1.141,1.24-1.377-4.254-15.585-7.672-28.529-9.731-41.4A205.157,205.157,0,0,1,17.156,1.123Z" transform="translate(211.248 148.913)"/><path class="e" d="M36.918,20.313c-2.2,3.894-4.149,6.711-4.282,6.91l-.009.009c-.009.009-.009.019-.019.028-5.047,8.885-9.159,16.078-12.363,22.676-8.081,16.636-10.435,29.538-7.618,56.5l-10.974.983C-.919,63.84-2.658,57.176,13.78,17.694c2.863-.888,19.934-6.437,28.12-15.643A5.051,5.051,0,0,0,43,0c1.475,5.35-2.618,14.169-6.078,20.313" transform="translate(191.694 130.441)"/><path class="c" d="M1.658,107.743h0l-.014-.241c-.175-2.974-.346-5.781-.493-8.178C-1.058,63.178-1.583,54.59,13.788,17.666l.043-.1.105-.032C17.2,16.526,33.867,11.05,41.95,1.957A4.7,4.7,0,0,0,43,0l.454,0c1.027,3.731-.415,9.486-4.286,17.106A98.381,98.381,0,0,1,33.05,27.428l-.7,1.242C15.04,59.122,9.21,69.381,13.092,106.482l.025.238L1.659,107.742ZM43.172.926A5.231,5.231,0,0,1,42.3,2.27c-3.428,3.856-8.736,7.5-15.775,10.842A97.994,97.994,0,0,1,14.18,17.949C-1.105,54.686-.582,63.249,1.619,99.291c.157,2.536.318,5.208.481,7.94l10.5-.937c-3.848-37.06,1.994-47.34,19.337-77.856l.717-1.261C33.143,26.468,44.616,9.72,43.172.926Z" transform="translate(191.465 130.376)"/><path class="b" d="M25.374,55.125s19.583-5.7,28.537-15.77c8.348-9.393-42.177-58.709-52.62-31-7.15,18.968,17.415,22.517,24.083,46.775" transform="translate(179.68 93.133)"/><path class="c" d="M25.461,55.652h0l-.062-.23c-2.981-10.842-9.511-17.479-15.272-23.334-7.148-7.264-12.794-13-8.8-23.585C3.365,3.082,7.033.226,12.224.013c.21-.009.425-.013.64-.013C16.619,0,20.972,1.31,25.8,3.895A68.787,68.787,0,0,1,36.15,10.868C43.968,17.182,50.9,25.233,53.815,31.379c1.811,3.823,1.993,6.717.525,8.368a38.346,38.346,0,0,1-8.2,6.689A75.61,75.61,0,0,1,36.753,51.4a97.252,97.252,0,0,1-11.062,4.188l-.229.066ZM12.836.471c-.207,0-.4,0-.593.011C7.259.687,3.733,3.441,1.763,8.669c-3.883,10.3,1.667,15.942,8.694,23.085l0,0c5.758,5.85,12.284,12.479,15.327,23.307a99.007,99.007,0,0,0,11.823-4.573A71.939,71.939,0,0,0,46.4,45.715a37.1,37.1,0,0,0,7.591-6.28c1.333-1.5,1.126-4.217-.6-7.854a46.845,46.845,0,0,0-6.782-9.9A83.945,83.945,0,0,0,36.17,11.547,65.45,65.45,0,0,0,24.2,3.652C19.94,1.541,16.115.471,12.836.471Z" transform="translate(179.428 92.898)"/><path class="c" d="M0,19.679A52.946,52.946,0,0,1,7.966,30.506C8.009,19.222,6.661,12.931,8.328,0h0A32.484,32.484,0,0,1,5.391,9.086a24.22,24.22,0,0,1-3.605.184C1.412,11.045.688,15,0,19.679" transform="translate(193.684 109.259)"/><path class="b" d="M0,3.288s2.229,6.285,6.742,9.256S14.4,11.8,15.256,9.459c0,0,4.053,2.218,5.184,2.845.847.423,4.442-2.684,3.08-7.419l-2.2-1.075L17.2,1.8l-1.657.457S14.455-.312,13.028.032c-2.09.5.259.883-1.544,2.685a2.055,2.055,0,0,0-.342,1.656S9.371,5.4,6.114,3.973,2.514,1.4,2.514,1.4,1.942,3.517,0,3.288" transform="translate(161.181 91.909)"/><path class="c" d="M10.358,14.121a6.209,6.209,0,0,1-3.4-1.143C2.456,10.013.219,3.863.126,3.6L0,3.246l.375.044a2.262,2.262,0,0,0,.273.017c1.461,0,1.937-1.55,1.986-1.727l.453-.009c0,.011.424,1.089,3.469,2.424a7.881,7.881,0,0,0,3.137.734,4.184,4.184,0,0,0,1.537-.257,2.128,2.128,0,0,1,.436-1.684c.811-.81.695-1.254.6-1.611a.772.772,0,0,1,.018-.623c.133-.22.433-.369,1.035-.515A1.381,1.381,0,0,1,13.64,0c1.187,0,2.06,1.55,2.38,2.216l1.549-.428,6.5,3.169.029.1a6.857,6.857,0,0,1-1.887,7.166,2.151,2.151,0,0,1-1.238.591.63.63,0,0,1-.285-.062c-.65-.36-2.318-1.276-4.96-2.721a6.941,6.941,0,0,1-3.871,3.849A4.757,4.757,0,0,1,10.358,14.121ZM2.907,2.164h0A2.569,2.569,0,0,1,.7,3.776c2.278,5.688,5.568,8.181,6.522,8.809a5.754,5.754,0,0,0,3.142,1.064,4.276,4.276,0,0,0,1.345-.218,6.464,6.464,0,0,0,3.676-3.816l.093-.259.24.133c.04.022,4.063,2.223,5.188,2.845a.164.164,0,0,0,.068.012,1.793,1.793,0,0,0,.936-.485A6.374,6.374,0,0,0,23.67,5.288l-6.147-3-1.77.489-.081-.19C15.423,2,14.57.474,13.626.474a.848.848,0,0,0-.2.023c-.573.137-.711.246-.743.3s0,.148.034.261c.1.4.281,1.06-.723,2.063a1.825,1.825,0,0,0-.278,1.443l.033.166-.147.086a4,4,0,0,1-1.9.392,8.367,8.367,0,0,1-3.334-.781A8.894,8.894,0,0,1,2.907,2.164Z" transform="translate(160.834 91.673)"/><path class="c" d="M0,5.474l1.9,1.04C2.615,1.822.467,0,.467,0A14.3,14.3,0,0,1,0,5.474" transform="translate(176.248 95.784)"/><path class="b" d="M2.374,0C1.494,7.376.9,22.093.638,32.092c-.209,8.069-2.424,8.95,2.851,10.6.541.168,2.13.44,2.5.067s4.293.609,4.359.169a4.745,4.745,0,0,0-2.2-3.381C6.6,38.7,6.058,38.4,6.058,38.4S9.41,6.944,10.118.96A34.216,34.216,0,0,1,2.374,0" transform="translate(185.479 117.571)"/><path class="c" d="M10.173,43.512a14.749,14.749,0,0,1-1.727-.184,17.061,17.061,0,0,0-1.8-.189.7.7,0,0,0-.269.033,1.348,1.348,0,0,1-.936.243,7.359,7.359,0,0,1-1.785-.267c-4-1.248-3.883-2.176-3.447-5.626l0-.035A48.642,48.642,0,0,0,.64,32.319C.919,21.49,1.523,7.366,2.378.207a.23.23,0,0,1,.1-.165A.246.246,0,0,1,2.615,0a.228.228,0,0,1,.052.006A33.9,33.9,0,0,0,10.358.96a.235.235,0,0,1,.231.262c-.405,3.421-1.809,16.354-3.953,36.416l-.092.863.024.013c.254.14.847.468,1.934,1.059A4.947,4.947,0,0,1,10.82,43.2C10.786,43.418,10.592,43.512,10.173,43.512Zm-3.5-.841a15.456,15.456,0,0,1,1.835.191,16.942,16.942,0,0,0,1.7.181,1.146,1.146,0,0,0,.144-.007,4.7,4.7,0,0,0-2.077-3.048c-1.534-.834-2.094-1.149-2.1-1.152a.233.233,0,0,1-.117-.23c.026-.247,3.277-30.738,4.03-37.179a34.393,34.393,0,0,1-7.276-.9c-.835,7.2-1.429,21.152-1.7,31.806A48.515,48.515,0,0,1,.674,37.58C.248,40.959.172,41.568,3.8,42.7a6.488,6.488,0,0,0,1.661.243.989.989,0,0,0,.6-.117A.85.85,0,0,1,6.675,42.671Z" transform="translate(185.242 117.337)"/><path class="b" d="M8.082.018C17.96.879,15.322,18.883,11.9,25.26A32.1,32.1,0,0,1,0,24.314C1.022,18.8.153-.675,8.082.018" transform="translate(187.177 93.085)"/><path class="c" d="M8.968,25.911A34.7,34.7,0,0,1,.21,24.776L0,24.72l.04-.214c.22-1.19.353-3.057.506-5.22l0-.047C1,12.83,1.622,4.053,5.138,1.05A4.231,4.231,0,0,1,7.952,0c.138,0,.28.006.422.018A6.653,6.653,0,0,1,13.9,3.728c3.082,5.7,1.123,16.944-1.526,21.877l-.056.1-.116.018A23.954,23.954,0,0,1,8.968,25.911ZM7.931.469a3.7,3.7,0,0,0-2.487.94C2.076,4.282,1.465,12.947,1.018,19.273c-.139,1.98-.27,3.851-.479,5.1a34.27,34.27,0,0,0,8.428,1.067,25.257,25.257,0,0,0,3.051-.164,31.2,31.2,0,0,0,2.821-10.427c.473-4.542-.006-8.413-1.349-10.9A6.213,6.213,0,0,0,8.332.487C8.2.475,8.061.469,7.931.469Z" transform="translate(186.906 92.851)"/><path class="c" d="M12.345,0,.8,5.121,0,6.306l1.337.077L13.066,1.512A1.053,1.053,0,0,0,12.345,0" transform="translate(139.475 130.127)"/><path class="b" d="M1.511,0,.062,2.522c-.449.783,1.673.57,2.064.352C3.227,2.257,2.462.112,1.511,0" transform="translate(169.309 100.312)"/><path class="c" d="M1.137,3.544a1.521,1.521,0,0,1-1-.261.5.5,0,0,1-.044-.644L1.542.116A.235.235,0,0,1,1.753,0h.021c.671.078,1.172.864,1.319,1.6a1.5,1.5,0,0,1-.617,1.711A3.593,3.593,0,0,1,1.137,3.544ZM1.86.506h0L.5,2.873a.182.182,0,0,0-.031.08c.05.078.283.123.639.123A3.131,3.131,0,0,0,2.247,2.9c.525-.294.427-1,.385-1.21A1.683,1.683,0,0,0,1.86.506Z" transform="translate(169.074 100.078)"/><path class="b" d="M3.317.015A4.514,4.514,0,0,0,.866.554c-.873.539-1.55,2.018.365,2.283a11.7,11.7,0,0,0,5.15-.813A31.292,31.292,0,0,0,3.317.015" transform="translate(151.192 129.159)"/><path class="c" d="M1.908,3.288A2.625,2.625,0,0,1,.282,2.909.8.8,0,0,1,0,2.2C.19.382,2.511,0,2.96,0a.235.235,0,1,1,0,.471C2.6.471.62.8.474,2.244a.329.329,0,0,0,.115.309c.643.556,3.387.127,4.966-.272a.235.235,0,1,1,.115.457,18.124,18.124,0,0,1-3.763.551" transform="translate(150.83 128.947)"/><path class="b" d="M5.55,2.6C5.063,1.873,2.676-.563.875.119S.388,5.191,1.848,8.3s2.386,4.871,2.679,4.871,3.751.717,3.361-1.029S5.55,2.6,5.55,2.6" transform="translate(71.716 135.085)"/><path class="c" d="M6.437,13.791A11.034,11.034,0,0,1,5,13.673H5l-.057-.008c-.085-.011-.146-.02-.177-.02-.316,0-.708-.359-2.891-5.005C.631,6-.459,2.6.2.986A1.433,1.433,0,0,1,1.026.135,2.137,2.137,0,0,1,1.786,0c1.8,0,3.733,2.015,4.2,2.709l.031.074c.011.041,1.943,7.766,2.34,9.546a1.026,1.026,0,0,1-.211.97A2.3,2.3,0,0,1,6.437,13.791Zm-1.6-.61c.03,0,.106.01.2.022l.023,0h.007a10.931,10.931,0,0,0,1.395.112A1.869,1.869,0,0,0,7.8,12.981a.579.579,0,0,0,.1-.549C7.513,10.72,5.587,3.015,5.567,2.938,5.188,2.395,3.352.473,1.783.473a1.673,1.673,0,0,0-.59.1.965.965,0,0,0-.56.585C.072,2.545,1.064,5.813,2.3,8.438,3.7,11.429,4.552,13.027,4.82,13.186,4.82,13.181,4.83,13.181,4.833,13.181Z" transform="translate(71.48 134.849)"/><path class="d" d="M3.265,2.286A7.911,7.911,0,0,0,.537,0,11.018,11.018,0,0,0,.02,4.644a21.521,21.521,0,0,0,1.406,6.5s2.082-.647,2.082-1.1V3.266Z" transform="translate(74.001 135.403)"/><path class="c" d="M1.526,11.748h0l-.082-.2A21.9,21.9,0,0,1,.02,4.97,11.4,11.4,0,0,1,.555.225L.649,0,.871.1A8.185,8.185,0,0,1,3.7,2.472l.031.072.246.979.007,6.839c0,.515-1.223,1-2.248,1.321l-.2.064ZM.9.641A12.068,12.068,0,0,0,.49,4.95,21.526,21.526,0,0,0,1.8,11.168a4.657,4.657,0,0,0,1.713-.829l0-6.758L3.282,2.7A7.776,7.776,0,0,0,.9.641Z" transform="translate(73.766 135.087)"/><path class="b" d="M.734,14.341C.03,11.185-.4,4.642.545,1.822,1.519-1.086,5.647-.622,7.422,4a17.58,17.58,0,0,1,.919,10.34Z" transform="translate(75.627 132.888)"/><path class="c" d="M8.768,14.812H.785l-.041-.184C.024,11.4-.406,4.866.561,1.981A2.731,2.731,0,0,1,3.139,0H3.2A4.075,4.075,0,0,1,5.638.924,7.284,7.284,0,0,1,7.882,4.152a17.818,17.818,0,0,1,.928,10.477l-.042.182ZM3.2.47H3.149A2.254,2.254,0,0,0,1.006,2.132C.1,4.838.5,11.171,1.164,14.342H8.39A17.4,17.4,0,0,0,7.443,4.321C6.76,2.545,5.24.47,3.2.47Z" transform="translate(75.387 132.652)"/><path class="c" d="M0,0H13.056q-.845,5.459-1.689,10.917a19.659,19.659,0,0,1-9.9,0Z" transform="translate(72.818 146.202)"/><path class="c" d="M.526,0A44.262,44.262,0,0,1,1.613,11l-.538-.038A43.71,43.71,0,0,0,0,.122Z" transform="translate(79.026 135.514)"/><path class="a" d="M0,274.5H274.5V0H0Z"/><g class="h"><path class="b" d="M0,26.008H9.591V0H0Z" transform="translate(52.181 225.613)"/><path class="c" d="M10.062,26.479H0V0H10.062V26.478ZM.47.47V26.008H9.591V.47Z" transform="translate(51.946 225.377)"/><path class="e" d="M0,3.206H9.591V0H0Z" transform="translate(52.181 242.513)"/><path class="c" d="M10.062,3.676H0V0H10.062V3.675ZM.47.47V3.206H9.592V.47Z" transform="translate(51.946 242.278)"/><path class="e" d="M0,3.206H9.591V0H0Z" transform="translate(52.181 241.384)"/><path class="c" d="M10.062,3.677H0V0H10.062V3.676ZM.47.47V3.206H9.592V.47Z" transform="translate(51.946 241.148)"/><path class="d" d="M.579,51.176A114.893,114.893,0,0,1,.866,25.217,105.742,105.742,0,0,1,6.923,0s.915,6.528-.547,10.365,2.2,3.356.181,7.164,2.564,5.174.494,7.945,2.4,3.816.861,6.7-3.241,5.768-1.624,7.743,2.46,2.9,1.223,4.925,2.181,4.119.857,6.165-7.79.164-7.79.164" transform="translate(50.804 182.668)"/><path class="c" d="M5.765,52.28a20.941,20.941,0,0,1-5.019-.794L.6,51.443l-.021-.151A116.048,116.048,0,0,1,.865,25.275,105.611,105.611,0,0,1,6.936,0l.453.052c.093.68.863,6.745-.561,10.481a3.188,3.188,0,0,0,.235,3.306c.512.884,1.041,1.8-.065,3.884-.986,1.859-.318,3.078.329,4.257.607,1.111,1.234,2.261.145,3.72-.966,1.292-.381,2.14.3,3.122.655.949,1.4,2.024.584,3.552l-.266.5c-1.443,2.7-2.807,5.245-1.383,6.985l.136.167c1.545,1.883,2.4,2.92,1.105,5.029-.542.888-.06,1.821.451,2.808.565,1.087,1.149,2.211.405,3.362C8.346,51.925,7.325,52.28,5.765,52.28Zm1.267-51.2a105.885,105.885,0,0,0-5.7,24.246,117.158,117.158,0,0,0-.305,25.746,19.953,19.953,0,0,0,4.771.733c1.368,0,2.245-.283,2.607-.841.595-.92.1-1.875-.425-2.886-.549-1.063-1.116-2.161-.436-3.273,1.115-1.825.476-2.6-1.068-4.487l-.136-.166c-1.623-1.984-.121-4.791,1.332-7.506l.265-.5c.678-1.275.078-2.145-.556-3.066C6.7,28.1,5.928,26.982,7.1,25.418c.91-1.217.428-2.1-.181-3.212-.673-1.228-1.436-2.621-.332-4.7.984-1.854.562-2.584.074-3.429a3.647,3.647,0,0,1-.268-3.707c1.1-2.892.817-7.456.643-9.284Z" transform="translate(50.572 182.583)"/><path class="b" d="M26.857,43.661S22.974,11.577,0,0C0,0,1.032,4.192,3.236,4.663S3.53,9.738,7.168,12.3s-.325,7.906,5.623,9.658-2.383,4.081,1.7,8.39,1.054,6.113,3.868,10.953,8.5,2.358,8.5,2.358" transform="translate(29.23 190.52)"/><path class="c" d="M23.949,44.96a6.48,6.48,0,0,1-2.868-.621A6.059,6.059,0,0,1,18.5,41.861a10.419,10.419,0,0,1-1.461-5.286,7.375,7.375,0,0,0-2.374-5.624c-2.144-2.263-1.023-4.074-.2-5.4.428-.69.8-1.286.619-1.755-.169-.441-.826-.825-2.008-1.174-3.52-1.037-3.723-3.293-3.918-5.475-.146-1.628-.285-3.166-1.774-4.215C5.294,11.462,4.969,9.38,4.708,7.708,4.49,6.3,4.328,5.5,3.537,5.333,1.206,4.836.165.673.122.5L0,0,.456.23A40.959,40.959,0,0,1,14.3,11.887a61.532,61.532,0,0,1,8.2,14.457,77.864,77.864,0,0,1,4.949,17.729l.02.174-.161.071A9.43,9.43,0,0,1,23.949,44.96ZM.729.9c.343,1.082,1.312,3.634,2.906,3.974,1.146.244,1.327,1.409,1.537,2.758.248,1.587.556,3.561,2.482,4.919,1.666,1.176,1.821,2.894,1.971,4.556.191,2.12.371,4.122,3.582,5.068,1.352.4,2.088.861,2.316,1.456.261.685-.185,1.407-.658,2.172-.82,1.324-1.749,2.825.147,4.825a7.852,7.852,0,0,1,2.5,5.914v.005a9.885,9.885,0,0,0,1.4,5.078A5.6,5.6,0,0,0,21.3,43.916a6.036,6.036,0,0,0,2.666.576,8.89,8.89,0,0,0,2.986-.542,77.568,77.568,0,0,0-5.262-18.318,60.132,60.132,0,0,0-7.93-13.671A40.6,40.6,0,0,0,.729.9Z" transform="translate(28.879 190.08)"/><path class="b" d="M.007,47.191S-.957,14.887,20.025,0c0,0-.393,4.3-2.5,5.1s.469,5.062-2.743,8.142,1.5,7.767-4.114,10.391,2.967,3.678-.423,8.549-.128,6.2-2.185,11.41-8.051,3.6-8.051,3.6" transform="translate(54.874 187.394)"/><path class="c" d="M2.27,48.135A9.069,9.069,0,0,1,.178,47.9l-.169-.044,0-.176A78.008,78.008,0,0,1,2.242,29.414,61.522,61.522,0,0,1,8.183,13.893,40.958,40.958,0,0,1,20.122.3l.417-.3-.047.51c-.017.182-.443,4.46-2.653,5.294-.756.285-.8,1.1-.8,2.52-.007,1.694-.015,3.8-1.86,5.572-1.315,1.261-1.222,2.8-1.123,4.433.133,2.188.27,4.45-3.055,6-1.117.522-1.709,1-1.81,1.461-.107.49.348,1.024.875,1.643,1.008,1.185,2.388,2.807.606,5.367a7.375,7.375,0,0,0-1.507,5.91v.009A10.422,10.422,0,0,1,8.51,44.16,5.919,5.919,0,0,1,5.646,47.4,7.448,7.448,0,0,1,2.27,48.135ZM19.953,1A40.6,40.6,0,0,0,8.724,13.888,60.141,60.141,0,0,0,2.929,28.6a77.464,77.464,0,0,0-2.458,18.9,8.943,8.943,0,0,0,1.863.195,5.73,5.73,0,0,0,5.738-3.7,9.883,9.883,0,0,0,.622-5.23,7.855,7.855,0,0,1,1.588-6.227c1.575-2.262.432-3.607-.578-4.793l0,0c-.58-.684-1.128-1.329-.973-2.044.137-.622.8-1.19,2.072-1.786,3.033-1.417,2.912-3.421,2.784-5.542-.1-1.668-.206-3.393,1.266-4.806,1.7-1.632,1.711-3.629,1.717-5.234.006-1.365.011-2.544,1.107-2.956C19.2,4.787,19.776,2.118,19.953,1Z" transform="translate(54.642 186.907)"/><path class="c" d="M15.9,19.768H1.471L0,1.6A1.6,1.6,0,0,1,1.6,0H15.186a1.6,1.6,0,0,1,1.6,1.6Z" transform="translate(46.483 232.532)"/><path class="c" d="M16.135,20.237H1.7a.236.236,0,0,1-.234-.215L0,1.851A1.846,1.846,0,0,1,.537.54,1.811,1.811,0,0,1,1.831,0H15.42a1.834,1.834,0,0,1,1.832,1.832L16.37,20.014A.234.234,0,0,1,16.135,20.237ZM1.831.47A1.363,1.363,0,0,0,.47,1.832L1.922,19.768H15.91L16.782,1.82A1.358,1.358,0,0,0,15.42.47Z" transform="translate(46.249 232.298)"/><path class="b" d="M.877,0H148.309a.879.879,0,0,1,.877.877v.3a.879.879,0,0,1-.877.877H.877A.879.879,0,0,1,0,1.182v-.3A.879.879,0,0,1,.877,0" transform="translate(48.027 159.614)"/><path class="c" d="M148.544,2.529H1.112A1.114,1.114,0,0,1,0,1.416v-.3A1.114,1.114,0,0,1,1.112,0H148.544a1.114,1.114,0,0,1,1.112,1.113v.3A1.114,1.114,0,0,1,148.544,2.529ZM1.112.47a.643.643,0,0,0-.642.642v.3a.644.644,0,0,0,.642.644H148.544a.643.643,0,0,0,.641-.644v-.3a.643.643,0,0,0-.641-.642Z" transform="translate(47.792 159.378)"/></g></g></g></svg>