<svg xmlns="http://www.w3.org/2000/svg" xmlns:xlink="http://www.w3.org/1999/xlink" width="390" height="390" viewBox="0 0 390 390"><defs><style>.a{fill:none;}.b{fill:#fff;}.c{fill:#1559a7;}.d{clip-path:url(#a);}.e{fill:#00458c;}.f{fill:#3a77bb;}.g{fill:#4f86c6;}.h{fill:#b0d1ee;}</style><clipPath id="a"><path class="a" d="M0,390H390V0H0Z"/></clipPath></defs><g transform="translate(0 -1)"><g transform="translate(0 1)"><path class="b" d="M4.731,0H116.657V16.969a4.745,4.745,0,0,0,4.731,4.731H140.9V79.888a4.746,4.746,0,0,1-4.732,4.732H4.731A4.746,4.746,0,0,1,0,79.888V4.732A4.746,4.746,0,0,1,4.731,0" transform="translate(145.463 89.017)"/><path class="c" d="M136.5,85.29H5.065A5.072,5.072,0,0,1,0,80.222V5.067A5.072,5.072,0,0,1,5.065,0h112.26V17.3a4.4,4.4,0,0,0,4.4,4.4h19.842V80.222A5.073,5.073,0,0,1,136.5,85.29ZM5.065.668a4.4,4.4,0,0,0-4.4,4.4V80.222a4.4,4.4,0,0,0,4.4,4.4H136.5a4.4,4.4,0,0,0,4.4-4.4V22.369H121.724a5.072,5.072,0,0,1-5.068-5.065V.668Z" transform="translate(145.128 88.683)"/><path class="c" d="M0,0H19.509V13.355Z" transform="translate(266.552 111.377)"/><path class="c" d="M3.549,0H22.53a3.558,3.558,0,0,1,3.548,3.549V21.237a3.558,3.558,0,0,1-3.548,3.549H3.549A3.56,3.56,0,0,1,0,21.237V3.549A3.56,3.56,0,0,1,3.549,0" transform="translate(219.632 105.646)"/><path class="c" d="M2.366,0H24.358a2.373,2.373,0,0,1,2.368,2.366v19.8a2.374,2.374,0,0,1-2.368,2.366H2.366A2.373,2.373,0,0,1,0,22.164V2.366A2.372,2.372,0,0,1,2.366,0" transform="translate(193.041 130.344)"/><path class="c" d="M2.366,0H23.713a2.372,2.372,0,0,1,2.365,2.366v19.8a2.372,2.372,0,0,1-2.365,2.366H2.366A2.373,2.373,0,0,1,0,22.164V2.366A2.373,2.373,0,0,1,2.366,0" transform="translate(219.632 130.342)"/><path class="b" d="M4.731,0H32.649A4.744,4.744,0,0,1,37.38,4.731V32.649a4.744,4.744,0,0,1-4.731,4.731H4.731A4.744,4.744,0,0,1,0,32.649V4.731A4.744,4.744,0,0,1,4.731,0" transform="translate(261.769 73.892)"/><path class="c" d="M32.984,38.049H5.065A5.071,5.071,0,0,1,0,32.984V5.065A5.071,5.071,0,0,1,5.065,0H32.984A5.072,5.072,0,0,1,38.05,5.065V32.984A5.072,5.072,0,0,1,32.984,38.049ZM5.065.668a4.4,4.4,0,0,0-4.4,4.4V32.984a4.4,4.4,0,0,0,4.4,4.4H32.984a4.4,4.4,0,0,0,4.4-4.4V5.065a4.4,4.4,0,0,0-4.4-4.4Z" transform="translate(261.434 73.557)"/><path class="a" d="M0,390H390V0H0Z"/><g class="d"><path class="b" d="M12.147,12.144H0V0H12.147V12.143ZM.672.668V11.477H11.477V.668Z" transform="translate(226.598 111.966)"/><path class="b" d="M7.96,15.918A7.959,7.959,0,1,1,15.92,7.96,7.968,7.968,0,0,1,7.96,15.918ZM7.96.668a7.291,7.291,0,1,0,7.29,7.292A7.3,7.3,0,0,0,7.96.668Z" transform="translate(224.712 134.648)"/><path class="b" d="M13.907,11.168H0L6.953,0l6.952,11.166Zm-6.953-9.9L1.205,10.5H12.7Z" transform="translate(199.45 136.876)"/><path class="b" d="M4.127,1.935,0,4.349,0,5.838c5.4,1.113,16.7-.077,20.968-3.7A4.18,4.18,0,0,0,20.88.6C20.461-1.226,6.3,1.657,4.127,1.935" transform="translate(91.525 331.89)"/><path class="c" d="M4.99,6.851a24.42,24.42,0,0,1-4.744-.4L0,6.4,0,4.482,4.4,1.94c.373-.047,1.117-.176,2.058-.338l.213-.037A85.189,85.189,0,0,1,18.893,0c1.639,0,2.464.269,2.6.846a4.473,4.473,0,0,1,.093,1.661l-.021.11-.083.071C18.1,5.548,10.563,6.851,4.99,6.851ZM19.161.606h0A88.611,88.611,0,0,0,6.776,2.173c-.963.167-1.8.31-2.235.371L.624,4.837l0,1.059a25.015,25.015,0,0,0,4.443.347,41.127,41.127,0,0,0,8.8-.967,17.677,17.677,0,0,0,7.121-2.984,4.081,4.081,0,0,0-.1-1.307c-.056-.247-.653-.378-1.727-.378Z" transform="translate(91.215 331.579)"/><path class="c" d="M7.867.2c2.266-.188,15.327-1.12,14.79,3.6C22.287,7.023,1.478,9.129.114,7.081-.3,6.464.506.365.885.353S7.867.2,7.867.2" transform="translate(90.646 329.158)"/><path class="b" d="M8.353.412,8.388,5.5A8.792,8.792,0,0,1,.173,5.55L0,0A39.178,39.178,0,0,0,8.353.412" transform="translate(91.767 324.988)"/><path class="c" d="M4.479,7.288A8.488,8.488,0,0,1,.358,6.226L.19,6.133l0-.189L0,0,.389.05a55.811,55.811,0,0,0,6.483.52A12.184,12.184,0,0,0,8.647.463L9.027.407l.041,5.664-.164.1A9.343,9.343,0,0,1,4.479,7.288ZM.693.763.846,5.729A7.787,7.787,0,0,0,4.459,6.6,9.148,9.148,0,0,0,8.4,5.681L8.366,1.171a15.072,15.072,0,0,1-1.516.067A52.177,52.177,0,0,1,.693.763Z" transform="translate(91.423 324.607)"/><path class="b" d="M4.127,1.935,0,4.348,0,5.838c5.4,1.113,16.694-.077,20.968-3.7A4.165,4.165,0,0,0,20.878.6C20.461-1.226,6.3,1.659,4.127,1.935" transform="translate(122.443 334.059)"/><path class="c" d="M4.994,6.846a24.449,24.449,0,0,1-4.749-.4L0,6.4,0,4.477,4.4,1.936c.383-.049,1.168-.184,2.161-.356l.116-.02C13.087.452,16.607,0,18.826,0c1.665,0,2.536.276,2.664.842A4.348,4.348,0,0,1,21.579,2.5l-.018.109-.083.069C18.1,5.542,10.566,6.846,4.994,6.846ZM19.162.6A88.6,88.6,0,0,0,6.779,2.168l-.31.053c-.863.149-1.545.266-1.928.319L.624,4.831.618,5.891a25.123,25.123,0,0,0,4.434.344,41.225,41.225,0,0,0,8.806-.965,17.676,17.676,0,0,0,7.127-2.983,4.06,4.06,0,0,0-.1-1.305C20.833.729,20.251.6,19.162.6Z" transform="translate(122.133 333.752)"/><path class="c" d="M7.867.2c2.266-.188,15.325-1.12,14.79,3.6C22.287,7.024,1.478,9.13.114,7.081-.3,6.466.506.366.884.354S7.867.2,7.867.2" transform="translate(121.563 331.326)"/><path class="b" d="M8.352.411,8.387,5.5a8.792,8.792,0,0,1-8.215.051L0,0A39.245,39.245,0,0,0,8.352.411" transform="translate(122.686 327.158)"/><path class="c" d="M4.479,7.289A8.489,8.489,0,0,1,.358,6.226L.19,6.133l0-.189L0,0,.389.051A55.908,55.908,0,0,0,6.874.568a12.349,12.349,0,0,0,1.772-.1L9.027.407l.041,5.664-.164.1A9.45,9.45,0,0,1,4.479,7.289ZM.691.764.846,5.729a7.757,7.757,0,0,0,3.609.877A9.055,9.055,0,0,0,8.4,5.681L8.366,1.171a15.072,15.072,0,0,1-1.521.067A54.4,54.4,0,0,1,.691.764Z" transform="translate(122.34 326.775)"/><path class="c" d="M0,0C.4,15.15,1.033,131.675,3.353,131.7l10.261.1c.6.005,8.244-47.8,9.046-52.883.388-2.472.744-4.863,1.062-7.194C18.422,48.672,10.711,24.668,8.568,3.2A60.731,60.731,0,0,1,0,0" transform="translate(87.356 194.653)"/><path class="e" d="M13.478,86.006c.861-5.012,1.5-8.8,1.708-10.041.406-2.417.776-4.758,1.109-7.042C11.051,46.085,3.423,22.3,1.179.968L.21,0C-1.964,42.978,13.478,86.006,13.478,86.006" transform="translate(94.818 197.597)"/><path class="f" d="M32,0c2.169,29.833,4.977,128.108,3.065,128.96-2.08.925-10.4-.462-10.4-.462s-3.525-25.772-6.85-45.286C13.359,57.1,3.231,28.63,0,3.314,9.413,6,20.686,4.746,32,0" transform="translate(96.366 198.399)"/><path class="b" d="M0,11.917S3.016,8.361,3.3,7.2C4.57,2,2.468-.317,10.981.035c2.5.1,3.3.024,3.118.54s-2.423.619-2.55.7-.9.387-.9.387,4.123-.412,4.381-.078.543.928-.334,1.573-4.176,1.83-3.79,1.83,3.274-.258,3.377.205-.645.619-1.469.826-3.351.9-3.351.9S8.4,9.159,7.682,10.293A50.986,50.986,0,0,1,3.505,14.8Z" transform="translate(130.681 119.323)"/><path class="c" d="M4,15.585H4L0,12.292l.219-.26c.824-.972,3.012-3.689,3.229-4.579a23.2,23.2,0,0,0,.48-2.865l.009-.077c.18-1.532.37-2.675,1.178-3.421C5.943.326,7.381,0,9.926,0c.468,0,.987.012,1.542.035l.972.034.139,0c1.515.05,2.025.066,2.263.411a.576.576,0,0,1,.047.534.772.772,0,0,1-.44.428c1.122.01,1.248.174,1.316.262a1.331,1.331,0,0,1,.318,1.014,1.61,1.61,0,0,1-.718,1.032,14.619,14.619,0,0,1-2.352,1.159h.237c1.278,0,1.74.136,1.83.538.17.752-.712.972-1.565,1.184l-.007,0-.144.035c-.7.175-2.623.7-3.2.861-.245.516-1.1,2.279-1.733,3.274a50.511,50.511,0,0,1-4.222,4.57L4,15.584ZM9.8.664c-2.3,0-3.571.277-4.255.926-.666.632-.78,1.606-.938,2.954L4.6,4.587l0,.034a23.8,23.8,0,0,1-.5,2.991c-.27,1.109-2.673,4.021-3.152,4.594l3.016,2.481a46.664,46.664,0,0,0,3.91-4.242c.589-.924,1.415-2.617,1.743-3.3l.018-.037L9.7,6.967l.149-.041c.1-.029,2.557-.7,3.358-.9l.143-.035a4.606,4.606,0,0,0,1.027-.331,4.808,4.808,0,0,0-1.039-.075c-.41,0-.926.017-1.533.05-.234.013-.361.018-.424.018H11.1l-.083-.277c-.064-.311.013-.344,1.3-.89l.022-.009a18.258,18.258,0,0,0,2.626-1.257.991.991,0,0,0,.454-.589.636.636,0,0,0-.151-.463,3.265,3.265,0,0,0-.729-.05c-.8,0-2.13.082-3.387.209L11,1.681c.358-.144.781-.323.856-.363.088-.055.17-.067.592-.118A6.444,6.444,0,0,0,14.177.842a14,14,0,0,0-1.621-.1l-.088,0c-.307-.01-.649-.022-1.03-.037C10.838.676,10.287.664,9.8.664Z" transform="translate(130.208 118.991)"/><path class="b" d="M0,2.983A11.462,11.462,0,0,0,2.145,1.4C4.309-.659,4.694.161,4.694.161S7.814,1.455,8.432,3.413C6.567,5.6,6.136,7.034,5.082,8.362A25.255,25.255,0,0,1,2.9,10.705C1.633,7.551.933,5.09,0,2.983" transform="translate(126.425 130.92)"/><path class="c" d="M3.2,11.627v0l-.182-.456C2.432,9.708,1.96,8.376,1.544,7.2l-.036-.1,0-.009C1.022,5.726.606,4.549.122,3.456L0,3.183l.261-.15A11.212,11.212,0,0,0,2.342,1.5C3.4.49,4.193,0,4.765,0a.905.905,0,0,1,.178.017.715.715,0,0,1,.392.207C5.871.46,8.575,1.738,9.177,3.65l.057.175-.12.143a19.468,19.468,0,0,0-2.2,3.182A14.541,14.541,0,0,1,5.772,8.908a25.875,25.875,0,0,1-2.214,2.375l-.355.343ZM4.819.642h0s-.009,0-.025.006A4.456,4.456,0,0,0,2.8,1.982,11.661,11.661,0,0,1,.851,3.457C1.3,4.5,1.686,5.6,2.138,6.875l.035.1c.366,1.037.781,2.212,1.282,3.48A23.018,23.018,0,0,0,5.249,8.491,13.168,13.168,0,0,0,6.307,6.863l.029-.049L6.343,6.8a20.287,20.287,0,0,1,2.139-3.12C7.808,2.024,5.11.855,5,.806L4.873.756Z" transform="translate(125.997 130.583)"/><path class="c" d="M1.9,6.047a1.706,1.706,0,0,1-.632-.129c-.01-.005-1-.553-1.217-2.9A3.7,3.7,0,0,1,.441.389,1.309,1.309,0,0,1,1.456,0a3.066,3.066,0,0,1,.6.067A2.546,2.546,0,0,1,3.942,2.549,4.1,4.1,0,0,1,3.07,5.49,1.587,1.587,0,0,1,1.9,6.047ZM1.58.642h0A2.6,2.6,0,0,0,.832.752c-.006,0-.6.37-.424,2.277s.978,2.349.986,2.353a1.437,1.437,0,0,0,.53.11,1.285,1.285,0,0,0,1.09-.7,3.776,3.776,0,0,0,.249-3.138A1.784,1.784,0,0,0,1.58.643Z" transform="translate(119.838 101.521)"/><path class="b" d="M0,7.075A12.91,12.91,0,0,1,1.719,4.085c.872-.941,2.1-4.851,2.944-3.344s-.776,3.58-.047,3.885,1.672,0,1.624-.753S4.71.859,4.946.294,5.651-.013,6.335,1,8.854,4.791,8.783,5.875,7.96,7.147,8.217,7.617a1.576,1.576,0,0,1-.164,1.555C7.77,9.5,5.288,9.42,4.1,10.538S.612,9.242.612,9.242Z" transform="translate(164.342 143.152)"/><path class="c" d="M3.7,11.5C2.334,11.5.738,9.823.723,9.806L.641,9.667,0,7.388l.044-.108A12.947,12.947,0,0,1,1.823,4.192a8.22,8.22,0,0,0,.894-1.516l.008-.016C3.351,1.453,3.891.411,4.573.4h.011a.664.664,0,0,1,.393.128A.164.164,0,0,0,4.982.511l0-.013A.711.711,0,0,1,5.563,0h.064c.39,0,.8.354,1.333,1.147C8.7,3.729,9.523,5.391,9.466,6.228a2.4,2.4,0,0,1-.477,1.291l-.007.011a.946.946,0,0,0-.133.228,1.91,1.91,0,0,1-.191,1.964c-.182.21-.538.271-1.184.381l-.014,0a5.605,5.605,0,0,0-2.784,1.009A1.385,1.385,0,0,1,3.7,11.5ZM4.583,1.066h0c-.287.007-.952,1.3-1.271,1.917L3.3,3a8.557,8.557,0,0,1-.987,1.644A11.68,11.68,0,0,0,.7,7.432L1.261,9.4c.242.239,1.5,1.432,2.409,1.432a.776.776,0,0,0,.55-.207A6.18,6.18,0,0,1,7.338,9.448l.024,0,.031-.005a3.982,3.982,0,0,0,.783-.176,1.259,1.259,0,0,0,.1-1.153.846.846,0,0,1,.157-.963l.007-.01A1.719,1.719,0,0,0,8.8,6.186c.021-.306-.172-1.374-2.392-4.664C5.935.822,5.7.7,5.643.673A.128.128,0,0,1,5.632.7a.563.563,0,0,0-.026.058,6.178,6.178,0,0,0,.659,1.707l.022.047a5.874,5.874,0,0,1,.638,1.676,1.049,1.049,0,0,1-.459.956,1.581,1.581,0,0,1-.913.269,1.847,1.847,0,0,1-.715-.143c-.6-.251-.393-.96-.193-1.646A3.177,3.177,0,0,0,4.722,1.24c-.084-.151-.137-.172-.139-.173Zm.987,1.5A7.837,7.837,0,0,1,5.29,3.791l0,.015-.006.02a2.561,2.561,0,0,0-.166.846,1.206,1.206,0,0,0,.42.074A.955.955,0,0,0,6.078,4.6a.4.4,0,0,0,.18-.37,6.744,6.744,0,0,0-.6-1.475c-.018-.042-.038-.083-.058-.123Z" transform="translate(163.991 142.819)"/><path class="b" d="M9.547,0l34.12,1.916s-3.912,22.36-8.258,30.221l-.019-.005-.019,0h0l-.016,0-.019,0-.019-.005-.017-.005-.019-.005-.038-.009-.02,0-.036-.011-.02,0-.019-.005-.019-.005-.019,0-.019,0-.012,0h-.008l-.019-.005-.019,0-.02,0-.019-.005-.019,0-.02,0-.039-.011-.02,0-.02,0-.019,0L34.835,32l-.02,0-.019,0-.06-.013-.02,0-.02-.005-.02,0-.02,0-.02-.005-.02,0-.021-.005-.02,0-.02,0-.021,0-.019-.005-.021,0-.02,0-.011,0H34.45l-.02-.005-.02,0-.021-.005-.021,0-.02,0-.063-.012-.023,0-.063-.012-.02,0-.023,0-.02,0-.047.011-.046.009L34,31.885l-.009,0-.035.007-.043.011-.044.011-.016,0-.024.005-.042.012-.04.009-.026.007-.016,0-.077.021-.032.009h-.007l-.074.023-.038.011h0l-.035.009-.035.012-.035.012h-.008l-.026.009-.034.012-.032.011-.015.005-.05.019-.031.012-.02.007-.011.005-.03.011-.031.012-.023.011h-.005L33,32.2l-.028.012h0l-.026.012-.027.012-.026.013-.005,0-.02.009-.026.013-.024.012-.012.005-.012.007-.024.013-.024.013-.013.008-.008.005-.023.013-.021.013-.019.009,0,0-.021.013-.02.013-.02.013h0l-.02.012-.019.013-.019.013-.005,0-.015.011-.017.013-.017.015-.009.005-.009.008-.017.013-.017.015-.011.009-.021.019-.016.015-.015.011,0,0-.013.015-.016.013-.015.016L1.54,29.918l-.1-.193-.026-.05-.026-.05-.026-.05-.026-.05-.026-.05-.024-.05-.026-.05-.026-.048,0-.011-.02-.039L1.19,29.23l-.024-.05-.026-.048-.023-.048-.026-.048-.023-.05-.026-.048-.011-.02-.013-.028L1,28.842l-.024-.05-.023-.047L.925,28.7.9,28.649.878,28.6l-.024-.048-.013-.032-.008-.015-.024-.048-.021-.047-.023-.047L.74,28.316l-.021-.047L.7,28.222l-.023-.047-.02-.042,0-.005-.044-.094-.023-.046-.021-.047L.54,27.894l-.023-.046-.043-.093,0,0L.453,27.71l-.021-.047L.41,27.617l-.021-.046-.02-.046L.345,27.48l-.02-.046L.3,27.389.3,27.374l-.013-.031L.263,27.3l-.021-.047-.02-.044L.2,27.163l-.021-.046L.16,27.073.1,26.939l-.021-.046-.019-.044L.039,26.8l-.02-.044L0,26.716A145.875,145.875,0,0,0,7.354,11.405C9.216,6.665,10.392,2.257,9.547,0" transform="translate(130.205 116.985)"/><path class="c" d="M32.642,33.341,1.682,30.6,1.5,30.241l.244-.254-.292.157-.058-.11.251-.245-.294.157.244-.255-.288.172-.114-.22.254-.247-.3.15L1.4,29.3l-.295.155L1.05,29.35l.251-.243-.3.15-.1-.195.255-.241-.3.149-.1-.2.26-.232-.3.143-.2-.418.259-.236-.3.144-.132-.286.266-.221-.3.144.261-.236-.3.146-.169-.37.267-.224-.306.137L0,27.108l.059-.189A145.885,145.885,0,0,0,7.4,11.648C9.561,6.138,10.3,2.381,9.587.481L9.408,0,44.416,1.968l-.066.37c-.039.223-3.914,22.4-8.3,30.325l-.126.232-.341-.094-.012-.348-.086.323-.007-.347-.092.323-.085-.023-.037-.351L35.2,32.7l-.1-.023-.028-.348L35,32.658l-.169-.034-.012-.343-.079.325-.094-.021-.035-.347-.063.331-.081-.017v.01l-.092.022-.16-.306.064.329-.189-.3.088.322-.205-.289.092.322-.205-.289.1.318-.2.068-.2-.283.115.314-.208-.278.122.312-.116.05-.2-.276.114.315-.567.408-.178.017Zm.242-.911h0l.24.247-.15-.3.195-.1.243.259-.15-.3.485-.174.2.289-.105-.317.221.284L33.966,32l.509-.122.205.034.019.344.073-.328.2.04v.341l.087-.323.537.123c3.959-7.428,7.629-27.28,8.035-29.52L10.358.723c.511,2.16-.277,5.919-2.34,11.169a147.3,147.3,0,0,1-7.3,15.228l.019-.01.087.186-.265.23.3-.147.042.094-.26.233.3-.149.053.109-.266.222.3-.143.195.417L.957,28.4l.3-.149.1.2L1.1,28.68l.3-.143-.259.237.3-.15.058.114-.263.226.3-.149.144.292-.253.242.3-.149.1.2-.254.244.3-.149-.247.249.292-.158.057.11-.25.245.294-.158.1.184,30.449,2.7.325-.23Z" transform="translate(129.852 116.622)"/><path class="c" d="M0,10.379C.4,9.449,1.366,7.217,1.727,6.3A49.972,49.972,0,0,0,3.537.923C4.8.463,6.093,0,6.093,0,4.707,3.142,2.334,7.961,0,10.379" transform="translate(135.832 122.093)"/><path class="c" d="M10.578,1.235c-.453,1.325-.917,2.556-1.39,3.641-1.2.972-2.937,2.405-3.015,2.484s-6-.5-6.171-.5S10.607,0,10.607,0Z" transform="translate(157.368 142.308)"/><path class="b" d="M16.223,4.971s-2.534-2.212-3.591,2.155a49.042,49.042,0,0,0-1.19,6.643A24.806,24.806,0,0,0,0,12.655c1.284-1.928,3.68-4.575,2.7-9.881C1.754-2.387,15.221,1.214,15.536,1.327s.686,3.643.686,3.643" transform="translate(100.928 109.005)"/><path class="c" d="M12.42,14.553h0l-.391-.131a25.049,25.049,0,0,0-7.975-1.337,23.533,23.533,0,0,0-3.313.235L0,13.425l.413-.62c.145-.215.294-.43.442-.641a10.679,10.679,0,0,0,2.212-9A2.187,2.187,0,0,1,3.76.961,6.235,6.235,0,0,1,7.719,0a37.881,37.881,0,0,1,8.623,1.349c.192.068.515.181.905,3.922l-.552.288A2.07,2.07,0,0,0,15.5,5.08a1.169,1.169,0,0,0-.358.055c-.645.205-1.162,1.037-1.5,2.4a48.843,48.843,0,0,0-1.182,6.6l-.046.41ZM4.054,12.417a25.628,25.628,0,0,1,7.792,1.241A50.058,50.058,0,0,1,13,7.382c.393-1.629,1.048-2.6,1.946-2.886a1.873,1.873,0,0,1,.557-.084,2.33,2.33,0,0,1,1,.242,17.047,17.047,0,0,0-.474-2.7A37.036,37.036,0,0,0,7.659.675a5.514,5.514,0,0,0-3.478.8,1.546,1.546,0,0,0-.458,1.568,11.226,11.226,0,0,1-2.323,9.5l0,.007a.029.029,0,0,1-.007.012A24.585,24.585,0,0,1,4.054,12.417Z" transform="translate(100.236 108.67)"/><path class="c" d="M5.48,1.432c-.737.054-1.567.647-2.065,2.711-.118.489-.224.948-.318,1.383h0C2.967,2.361,0,0,0,0S4.344.984,5.48,1.432" transform="translate(110.145 111.988)"/><path class="c" d="M3.628,5.925h0l-.658-.059C2.85,2.95.116.685,0,.59L.281,0,.325.01C1.354.246,4.789,1.046,5.81,1.448l-.1.644c-.986.071-1.5,1.375-1.766,2.456l-.008.032c-.112.473-.217.92-.31,1.343ZM1.326.931h0A9.122,9.122,0,0,1,3.342,4.218,4.245,4.245,0,0,1,4.688,1.788C3.576,1.469,1.966,1.082,1.326.931Z" transform="translate(109.938 111.661)"/><path class="c" d="M18.287,20.48s-2.608-1.077-3.118.567-.51,1.816-1.873,2.382S7.17,24.847,6.489,21.614C5.825,18.455-1.874,11.186,4.431,5.3c-1.656-.423-3.071.751-3.937.353C-.565,5.164.409,4.239.409,4.239a3.444,3.444,0,0,1,2.84-.385A7.044,7.044,0,0,1,5,4.537C5.4,3.347,7.236-.491,14.2.229c0,0,11.516-2.041,12.707,6.07,0,0,.681,3.063-.169,2.722s-1.022-1.644-1.022-1.644.423,2.31,0,2.382-1.814.51-1.814.51-.512,8.565-.85,10.267-4.767-.056-4.767-.056" transform="translate(94.553 90.59)"/><path class="b" d="M3.9,3.421S5.361.467,3.852.043,1.027,2.485,1.027,2.485L0,5.24l1.634.545Z" transform="translate(164.588 143.252)"/><path class="b" d="M.564,1.594s1.7-.356,1.281.05S0,3.442,0,3.442l.078,3.29a1.486,1.486,0,0,1,.262.118c10.821,7.663,26.419,7.549,42.021.8.406-.176-.138-3.449-.138-3.449S3.594-.1,2.772,0,.564,1.594.564,1.594" transform="translate(86.707 190.446)"/><path class="c" d="M20.419,13.348A38.065,38.065,0,0,1,9.7,11.874,30.992,30.992,0,0,1,.485,7.456a.529.529,0,0,0-.1-.044l-.3-.134L0,3.637,1.518,2.159c-.182.026-.367.057-.549.094L.66,1.7l.006-.007C.911,1.43,2.18.115,3.069,0a.523.523,0,0,1,.053,0C4.766,0,36.3,3.5,42.6,4.2l.25.028.041.25c.586,3.529.152,3.719-.057,3.81A56.72,56.72,0,0,1,20.419,13.348ZM1.963,1.448c.451,0,.523.139.575.241a.426.426,0,0,1-.121.526L.676,3.912l.07,2.926a.7.7,0,0,1,.128.075A30.335,30.335,0,0,0,9.9,11.239,37.4,37.4,0,0,0,20.42,12.682,55.972,55.972,0,0,0,42.487,7.713a12.608,12.608,0,0,0-.214-2.874C41.9,4.8,4.776.666,3.17.666H3.144a3.412,3.412,0,0,0-1.259.782Z" transform="translate(86.368 190.115)"/><path class="b" d="M8.94,0s.547,3.206,1.135,8.792c.838,7.945-2.706,11.72-7.43,6.58,0,0-3.517,0-2.439-4.084,0,0,1.758-3.461,3.062-.909,0,0,2.044.114,2.157,1.363a3.552,3.552,0,0,0,.737-3.348c-.51-2.155-.227-2.835-.227-2.835S5.48,3.517,6.1,2.78,8.43,2.666,8.94,0" transform="translate(110.367 97.91)"/><path class="c" d="M7,18.393c-1.278,0-2.72-.815-4.169-2.358a3.183,3.183,0,0,1-2.253-1.12,3.777,3.777,0,0,1-.357-3.376c.01-.021,1.012-2.094,2.273-2.1a1.566,1.566,0,0,1,1.32.957,2.993,2.993,0,0,1,2.05.986,3.449,3.449,0,0,0,.311-2.578,6.726,6.726,0,0,1-.248-2.927c-.1-.506-.385-2.219.261-2.983a2.016,2.016,0,0,1,.993-.539l.007,0C7.9,2.133,8.635,1.9,8.947.274A.334.334,0,0,1,9.276,0l.034,0A.3.3,0,0,1,9.6.282c0,.022.558,3.322,1.139,8.812.491,4.641-.5,8.11-2.584,9.051A2.811,2.811,0,0,1,7,18.393Zm-4.5-8.282c-.585,0-1.324,1.021-1.652,1.664A3.154,3.154,0,0,0,1.1,14.5a2.6,2.6,0,0,0,1.878.869.342.342,0,0,1,.247.109c1.348,1.467,2.649,2.242,3.762,2.242a2.178,2.178,0,0,0,.9-.189c1.783-.8,2.643-4.09,2.191-8.372-.356-3.379-.7-5.914-.926-7.446A2.691,2.691,0,0,1,7.4,2.993L7.388,3a1.513,1.513,0,0,0-.694.336,3.885,3.885,0,0,0-.1,2.492.33.33,0,0,1-.018.2,5.8,5.8,0,0,0,.245,2.63,3.858,3.858,0,0,1-.833,3.666.333.333,0,0,1-.228.091.351.351,0,0,1-.119-.021.33.33,0,0,1-.216-.282c-.084-.931-1.824-1.056-1.842-1.058a.343.343,0,0,1-.28-.181C3.046,10.367,2.773,10.112,2.491,10.112Z" transform="translate(110.033 97.573)"/><path class="b" d="M44.3,73.026a101.235,101.235,0,0,1-.878-24.692c0-.043,9.261,8.542,20.446,5.611,7.367-1.93,13.66-7.731,17.015-14.592a4.9,4.9,0,0,0,.384-3.082l3.924-2.95s1.077-4.655-6-5.9c-3.169.678-1.437,1.927-4.077,3.344-.111.012-.22.024-.326.039-5.384.689-3.874,3.9-7.982,6.845a9.214,9.214,0,0,1-6.335,1.978C53.892,39,48.993,30.151,46.5,25.289,42,16.539,42.325,12.106,38.384,8.146,34.715,4.464,25.112-2.094,13.582.655-3.55,4.739-.072,61.663,1.084,72.735c8.521,3.787,20.505,9.336,43.214.29" transform="translate(85.151 121.42)"/><path class="c" d="M22,78.623c-9.017,0-15.384-2.831-20.5-5.106l-.007,0-.464-.208-.021-.192A279.6,279.6,0,0,1,.243,38.337C.721,28.215,1.9,19.961,3.753,13.806,6.063,6.125,9.431,1.706,13.761.674A24.58,24.58,0,0,1,19.448,0,26.757,26.757,0,0,1,32.871,3.767a29.724,29.724,0,0,1,6.007,4.486c2.318,2.331,3.178,4.767,4.368,8.138l.007.02a67.878,67.878,0,0,0,3.8,9.07c2.978,5.8,7.64,13.582,13.706,14.155.225.021.454.031.681.031a9.309,9.309,0,0,0,5.428-1.948,10.124,10.124,0,0,0,2.978-3.446c.968-1.626,1.8-3.03,5.155-3.46l.108-.013.163-.02a3.148,3.148,0,0,0,1.559-1.606c.336-.685.653-1.332,2.55-1.737l.063-.016.065.012c2.686.474,4.555,1.482,5.556,2.995a4.565,4.565,0,0,1,.712,3.308l-.029.12-3.853,2.9a5.277,5.277,0,0,1-.454,3.087C77.894,47.1,71.293,52.755,64.211,54.611a19.218,19.218,0,0,1-4.857.624c-7.31,0-13.2-4.123-15.4-5.9a101.431,101.431,0,0,0,.929,23.972l.048.268-.253.1C36.329,77.007,28.91,78.623,22,78.623ZM19.459.664h0a23.831,23.831,0,0,0-5.541.66c-3.636.867-6.59,4.324-8.78,10.277C3.285,16.64,1.971,23.466,1.232,31.892A211.61,211.61,0,0,0,.6,54.78c.14,6.356.523,12.943,1.052,18.073l.111.048.011,0c5.05,2.246,11.335,5.04,20.24,5.04,6.759,0,14.008-1.565,22.161-4.785a102.43,102.43,0,0,1-.835-24.513l.021-.2.185-.077a.347.347,0,0,1,.127-.026.488.488,0,0,1,.3.153,28.2,28.2,0,0,0,5.581,3.638,22.047,22.047,0,0,0,9.787,2.435,18.575,18.575,0,0,0,4.693-.6c6.9-1.81,13.334-7.334,16.8-14.417A4.648,4.648,0,0,0,81.2,36.7l-.052-.214,3.993-3.006a4,4,0,0,0-.643-2.689c-.892-1.338-2.589-2.241-5.042-2.683-1.517.335-1.731.767-2.028,1.364a3.8,3.8,0,0,1-1.9,1.934l-.126.039c-.089.008-.18.019-.267.029l-.05.006c-3.031.389-3.717,1.544-4.668,3.141a10.655,10.655,0,0,1-3.159,3.644,9.97,9.97,0,0,1-5.81,2.077c-.25,0-.5-.012-.752-.035-6.39-.605-11.189-8.575-14.244-14.517a68.346,68.346,0,0,1-3.837-9.172l0-.007c-1.161-3.288-2-5.663-4.21-7.878C37.584,7.9,30.1.666,19.461.665Z" transform="translate(84.894 121.076)"/><path class="c" d="M14.05,39.123a102.28,102.28,0,0,1-.265-22.583S4.178,10.238,0,0Z" transform="translate(115.099 153.07)"/><path class="c" d="M0,15.437l.028.016,3.493,1.715.035.013c.165-.073,6.007-2.756,5.863-14.653v0A14.8,14.8,0,0,1,6.075,0a26.112,26.112,0,0,1-.8,7.326C3.645,13.938.118,15.39,0,15.437" transform="translate(132.83 157.459)"/><path class="c" d="M.515,5.674S1.563,3.361,3.306,3.7A7.2,7.2,0,0,1,6.667,2.266C8.44,2.112,14.616.709,14.616.709L14.577,0,13.79.154S4.108,1.542,3.351,3.114A4.652,4.652,0,0,0,.655,4.27c-.881,1-.818,1.6-.14,1.4" transform="translate(109.337 103.662)"/><path class="b" d="M0,1.845S4.825-.787,5.728.236,7,1.021,4.632,2.847.634,5.623.56,5.5,0,1.845,0,1.845" transform="translate(135.047 121.31)"/><path class="c" d="M.724,5.225A.334.334,0,0,1,.567,4.6l.2-.1C4.506,2.547,5.1,1.6,5.117,1.21,5.122,1.121,5.1,1,4.879.858c-1-.646-3.5.475-4.385.962A.329.329,0,0,1,.04,1.688a.337.337,0,0,1,.133-.454C.533,1.035,3.751-.677,5.244.3a1.04,1.04,0,0,1,.54.945c-.048.976-1.546,2.2-4.714,3.843l-.191.1a.327.327,0,0,1-.156.039" transform="translate(136.091 120.912)"/><path class="c" d="M.334,5.985a.344.344,0,0,1-.1-.016.332.332,0,0,1-.216-.42C.062,5.4,1.181,1.951,2.7.534A1.931,1.931,0,0,1,5.232.417.334.334,0,0,1,5.27.889.339.339,0,0,1,4.8.926a1.245,1.245,0,0,0-1.637.1c-1.4,1.3-2.5,4.695-2.509,4.73a.334.334,0,0,1-.317.231" transform="translate(164.253 142.84)"/><path class="c" d="M3.26.008l10.112.8a2.37,2.37,0,0,1,2.17,2.545l-.705,8.9a2.371,2.371,0,0,1-2.546,2.17l-10.114-.8a2.373,2.373,0,0,1-2.17-2.546L.714,2.179A2.372,2.372,0,0,1,3.26.008" transform="translate(144.2 126.152)"/><path class="c" d="M12.815,15.1c-.062,0-.131,0-.216-.008l-10.114-.8a2.7,2.7,0,0,1-2.476-2.9l.7-8.9A2.71,2.71,0,0,1,3.393,0c.075,0,.151,0,.226.01l10.113.8a2.7,2.7,0,0,1,2.476,2.906l-.7,8.9A2.708,2.708,0,0,1,12.815,15.1ZM3.4.67A2.042,2.042,0,0,0,1.379,2.541l-.7,8.894a2.033,2.033,0,0,0,1.861,2.186l10.115.8c.055,0,.11.007.165.007a2.042,2.042,0,0,0,2.023-1.872l.7-8.9a2.032,2.032,0,0,0-1.864-2.184L3.566.676C3.507.672,3.452.67,3.4.67Z" transform="translate(143.866 125.817)"/><path class="b" d="M7.9,7,7,7.9,3.948,4.84.89,7.9,0,7,3.055,3.948,0,.892.89,0,3.948,3.058,7,0,7.9.892,4.84,3.948Z" transform="translate(147.941 129.037)"/><path class="c" d="M21.984.187A3.994,3.994,0,0,0,20.826,0c-1.214,0-4.641,1.144-6.2,1.526s-5.992.45-9.56,1.661S-.13,5.264.008,7.2s1.213,5.3,8.349,6.061,11.5-3.047,13.577-3.567,2.65-4.4,2.65-4.4L22.211,7.032s-1.316-.173-2.182-2.112A5.577,5.577,0,0,1,20.167.8s.861-.291,1.817-.611" transform="translate(166.132 262.18)"/><path class="c" d="M.119,14.837C-1.224,2.877,9.145-3.976,13.017,2.483c0,0-.765-2.717,2.3-2.3C26.43,1.7,32.834,24.326,14.2,28.567a16.555,16.555,0,0,1-.516-3.592l-1.343-.12h0Z" transform="translate(277.022 178.784)"/><path class="b" d="M2.564,0C1.51.351.49.7.49.7A5.577,5.577,0,0,0,.352,4.817c.866,1.941,2.182,2.114,2.182,2.114L5.173,5A5.146,5.146,0,0,1,2.564,0" transform="translate(185.809 262.281)"/><path class="c" d="M2.963,7.755h0L2.83,7.735A3.533,3.533,0,0,1,.386,5.429a5.815,5.815,0,0,1,.143-4.4L.586.9.723.855C.732.851,1.757.5,2.8.158L3.276,0,3.235.5A4.821,4.821,0,0,0,5.69,5.2l.419.262-3.147,2.3ZM2.548.945l-1.1.368-.022.007-.348.117A5.158,5.158,0,0,0,1,5.157,3.118,3.118,0,0,0,2.8,7.045L4.93,5.491A5.426,5.426,0,0,1,2.548.945Z" transform="translate(185.47 261.806)"/><path class="b" d="M53.91,5.428,35.972,0h-2.09V2.69c-1.744.782-12.3.592-13.852,0V0H18.536L0,5.428v5.429H53.91Z" transform="translate(233.491 328.688)"/><path class="c" d="M54.581,11.528H0V5.513L18.87,0H20.7V2.777a41.485,41.485,0,0,0,7.069.431,29.157,29.157,0,0,0,6.112-.416V0L36.4.013l18.179,5.5v6.012ZM18.919.667h0L.67,6.014v4.844H53.91V6.011L36.255.667h-1.7V3.242l-.2.089c-.772.345-3.253.551-6.635.551-3,0-6.531-.187-7.474-.545l-.215-.082V.667h-1.11Z" transform="translate(233.156 328.353)"/><path class="b" d="M0,0V26.139c1.554.594,12.109.783,13.852,0V0A62.241,62.241,0,0,1,0,0" transform="translate(253.52 305.238)"/><path class="c" d="M7.683,27.372c-3,0-6.524-.187-7.468-.545L0,26.745V0L.372.041A61.3,61.3,0,0,0,7.251.428a62.74,62.74,0,0,0,6.9-.383L14.523,0V26.73l-.2.088C13.552,27.165,11.069,27.372,7.683,27.372ZM.67.746v25.52a41.4,41.4,0,0,0,7.065.431,29.177,29.177,0,0,0,6.117-.417V.748a63.808,63.808,0,0,1-6.6.349A62.542,62.542,0,0,1,.67.746Z" transform="translate(253.185 304.865)"/><path class="b" d="M26.676,0C13.143,7.793,2.188,34.148,0,35.535c3.14.419,6.853,1.2,8.161,2.3,8.494-14.87,8.379-30.86,18.512-37.83Z" transform="translate(247.049 213.209)"/><path class="c" d="M8.431,38.638h0l-.306-.254c-1.032-.866-4.019-1.7-7.99-2.228L0,35.543c.54-.345,1.992-2.967,3.673-6l.01-.018c4.937-8.93,13.2-23.876,23-29.522l.485.4-.039.112L27.04.57C21.1,4.659,18.731,11.906,15.989,20.3,14.164,25.886,12.1,32.221,8.63,38.291l-.2.345ZM22.684,3.759C14.863,10.682,8.23,22.677,4.266,29.844A56.787,56.787,0,0,1,.88,35.586c2.031.3,5.689.961,7.353,2.049,3.307-5.889,5.331-12.077,7.117-17.537l0-.009c1.041-3.187,2.024-6.2,3.178-8.963A30.243,30.243,0,0,1,22.684,3.759Z" transform="translate(246.872 212.92)"/><path class="b" d="M0,.247V6.626a64.068,64.068,0,0,0,26.7,0V0C24.269,1.6,13.561.937,1.223.325.819.3.412.278,0,.247" transform="translate(247.161 297.596)"/><path class="c" d="M13.635,9A65.792,65.792,0,0,1,.267,7.574L0,7.518V.509L.36.535c.458.034.856.059,1.216.076L4.089.737l.088,0c5.572.28,10.833.545,14.889.545,4.337,0,6.809-.3,7.782-.945L27.367,0V7.519l-.267.056A67.217,67.217,0,0,1,13.635,9ZM.67,1.228V6.973A64.792,64.792,0,0,0,13.636,8.326,66.182,66.182,0,0,0,26.7,6.973V1.168c-1.309.537-3.759.787-7.709.787-4.043,0-9.332-.267-14.932-.55L1.543,1.28c-.224-.011-.449-.025-.676-.04Z" transform="translate(246.826 296.975)"/><path class="f" d="M3.924,14.222a8.887,8.887,0,0,0-2.4,3.328C-1.192,24.84.55,36.156.55,36.156s28.737,2.9,29.116,1.86S35.261,1.607,34.453.009L34.448,0c-3.9,6.791-11,11.168-22.118,10.312-2.721-.209-7.953,4.394-7.953,4.394Z" transform="translate(273.959 262.369)"/><path class="f" d="M29.651.733Q27.941.7,26.384.658C18.171,2.01,7.879.455.279,0,.256.026-.935,1.41,1.786,3.1c2.748,1.7,20.277,8.716,33.636,9.379s24.812,1.391,25.9-.772c2.252-4.469,1.505-7.275-.606-8.986v.005L60.2,2.341c-2.721-2.2-7.19-2.2-10.95-1.982C39.3,1.4,40.062,3.2,31.534,1.4A8.471,8.471,0,0,1,29.651.733" transform="translate(212.963 285.441)"/><path class="b" d="M33.5,63.038c-2.718-.209-8.18,4.152-8.18,4.152l-8.353-8.965L0,44.672,16.165,55.308c.195.128.556.638.168,1.026h0A19.2,19.2,0,0,0,20,57.832c2.459.732,10.464,2.3,10.464,2.3-1.518-2.251-1.518-10.465-1.518-10.465s-14.44-.313-19.1-2.041S3.728,42.5,2.42,41.4h0C13.429,22.13,9.969.971,33.118.015c28.02-1.156,41.2,66.162.38,63.023" transform="translate(252.79 209.643)"/><path class="c" d="M25.495,67.978h0l-8.562-9.192L0,45.267l.392-.541L16.557,55.362a1.2,1.2,0,0,1,.487.815.875.875,0,0,1-.036.36,19.162,19.162,0,0,0,3.3,1.308c1.851.553,6.9,1.59,9.75,2.16-1.07-2.535-1.211-8.045-1.229-9.673-2.4-.064-14.607-.47-18.88-2.056a13.964,13.964,0,0,1-6.431-5.027l-.022-.028a9.068,9.068,0,0,0-1.077-1.228l-.215-.18.141-.242c3.418-5.986,5.48-12.3,7.3-17.864l0-.013C13.679,11.346,17.164.681,33.314.013,33.532,0,33.754,0,33.973,0A18.673,18.673,0,0,1,44.7,3.531,30.652,30.652,0,0,1,53.6,13.572C61.112,26.531,62,43.92,55.65,54.019a19.957,19.957,0,0,1-7.922,7.309A24.807,24.807,0,0,1,36.4,63.811c-.88,0-1.793-.036-2.712-.107-.063,0-.123-.006-.179-.006-2.6,0-7.716,4.047-7.768,4.088l-.241.191ZM6.088,49.274h0l11.3,9.023,8.179,8.775c.876-.675,5.387-4.042,7.963-4.042.072,0,.143,0,.21.008.9.069,1.785.1,2.643.1a24.193,24.193,0,0,0,11.014-2.4,19.283,19.283,0,0,0,7.692-7.077c6.223-9.9,5.334-26.995-2.067-39.756a30.089,30.089,0,0,0-8.636-9.788A17.963,17.963,0,0,0,34.013.668c-.224,0-.444,0-.672.015C17.652,1.329,14.4,11.291,10.281,23.9c-1.8,5.524-3.85,11.785-7.228,17.767a13.19,13.19,0,0,1,.986,1.164,13.211,13.211,0,0,0,6.137,4.816c4.531,1.679,18.847,2.017,18.989,2.02l.328.008V50c0,.081.017,8.141,1.459,10.277l-.341.514c-1.909-.376-8.29-1.652-10.5-2.31a19.335,19.335,0,0,1-3.732-1.524l-.392-.215.318-.314a.21.21,0,0,0,.071-.187.535.535,0,0,0-.187-.323Z" transform="translate(252.58 209.309)"/><path class="c" d="M.063.718S-.348,4.39.936,5.674C3.748,8.486,11.154,3.187,12.156.591l-1-.591Z" transform="translate(281.859 210.557)"/><path class="c" d="M0,3.564A21.5,21.5,0,0,1,10.938,0l.254,2.635c-.565.9-1.695.309-1.695.309a24.077,24.077,0,0,0-9.5.62" transform="translate(273.583 209.746)"/><path class="c" d="M7.864,6.288A60.837,60.837,0,0,1,0,0S14.136,8.608,16.314,9.7s12.641,3.075,12.641,3.075A21.311,21.311,0,0,1,30.791,15.5c-.215-.015-10.917.117-14.753-3.056S7.864,6.288,7.864,6.288" transform="translate(255.208 257.497)"/><path class="b" d="M3.46,0A23.311,23.311,0,0,0,0,1c1.612,1.53,2.163,6.586,2.542,9.748.487,4.058,7.984-1.262,8.975-3.21A16.287,16.287,0,0,1,9.716.555Z" transform="translate(280.993 203.204)"/><path class="c" d="M4.41,12.8a2.487,2.487,0,0,1-.418-.035,1.728,1.728,0,0,1-1.446-1.7l-.04-.328v-.011C2.134,7.606,1.572,2.893.092,1.485a.31.31,0,0,1-.083-.291C.058,1.01.1.851,3.673.009A.228.228,0,0,1,3.734,0l.028,0,6.256.554a.283.283,0,0,1,.259.273,16.086,16.086,0,0,0,1.765,6.848.284.284,0,0,1,.008.27,10.7,10.7,0,0,1-3.181,3.015A9.078,9.078,0,0,1,4.41,12.8ZM3.758.568c-1.235.29-2.476.617-3.018.8,1.431,1.793,1.97,6.313,2.328,9.3L3.109,11c.085.714.406,1.111.983,1.213a1.963,1.963,0,0,0,.333.027c2.18,0,6.212-3.029,7.053-4.418A16.532,16.532,0,0,1,9.724,1.1L3.758.568Z" transform="translate(280.714 202.921)"/><path class="c" d="M0,2.282A38.214,38.214,0,0,1,.953,7.565c.262-.228.721-.635,1.457-1.351A47.569,47.569,0,0,0,6.927,0S2.142,1.594,0,2.282" transform="translate(282.393 204.782)"/><path class="c" d="M0,27.009s8.932,2.439,11.585-7.958A37.933,37.933,0,0,0,11.487,0S6.152,21.044,0,27.009" transform="translate(282.42 230.968)"/><path class="b" d="M38.242,10.671s.428,8.623,1.946,10.872c0,0-8.76-2.075-10.892-2.71a16.453,16.453,0,0,1-3.67-1.5h0c.389-.387.028-.9-.168-1.026L1.46.52S1.213.27,0,.317A7.5,7.5,0,0,1,3.553.1c3.14.419,6.853,1.2,8.162,2.3s2.773,4.5,7.429,6.226,19.1,2.041,19.1,2.041" transform="translate(243.495 248.641)"/><path class="c" d="M40.227,22.2h0c-.087-.021-8.757-2.074-10.912-2.717A16.78,16.78,0,0,1,25.649,18l-.4-.218.257-.349a.212.212,0,0,0,.069-.186.535.535,0,0,0-.186-.324l-24-15.79S1.194.976.438.976c-.1,0-.2,0-.309.008L0,.336A6.479,6.479,0,0,1,2.215,0a11.363,11.363,0,0,1,1.5.105c1.965.26,6.711,1.011,8.335,2.377a9.435,9.435,0,0,1,1.193,1.354,13.243,13.243,0,0,0,6.137,4.813c4.459,1.653,18.391,2.006,18.981,2.021h.007l.311.007.016.311V11c.047.878.5,8.635,1.889,10.692l-.354.512ZM2.225.665c-.112,0-.222,0-.327.007l23.86,15.69a1.19,1.19,0,0,1,.487.813.868.868,0,0,1-.036.364,16.81,16.81,0,0,0,3.3,1.305c1.182.352,4.6,1.2,10.161,2.536-1.1-2.567-1.522-8.341-1.626-10.05-2.4-.064-14.623-.47-18.895-2.055A13.994,13.994,0,0,1,12.715,4.25a9.04,9.04,0,0,0-1.1-1.257C10.586,2.127,7.6,1.295,3.625.766A10.7,10.7,0,0,0,2.225.665Z" transform="translate(243.38 248.309)"/><path class="b" d="M28.663,17.181a12.376,12.376,0,0,0,1.632-.1c.388-.387.027-.9-.168-1.026L6.128.266S5.844-.019,4.409.078C3.391.145,1.19.058,0,0,9.633,5.6,19.991,12.462,24.17,15.465Z" transform="translate(238.828 248.896)"/><path class="c" d="M29.028,17.859a1.912,1.912,0,0,1-.242-.012l-.076-.019L24.141,16.07C19.847,12.987,9.518,6.158,0,.625L.181,0C.813.03,2.41.1,3.615.1,4,.1,4.319.095,4.554.08c.213-.015.415-.023.6-.023.936,0,1.267.191,1.381.305L30.477,16.11a1.2,1.2,0,0,1,.487.815.872.872,0,0,1-.267.726l-.081.083-.114.013C30.342,17.766,29.519,17.859,29.028,17.859ZM1.5.725h0C11.2,6.434,20.756,12.819,24.5,15.5l4.412,1.686c.033,0,.072,0,.118,0,.3,0,.845-.047,1.258-.092a.214.214,0,0,0,.015-.108.537.537,0,0,0-.187-.324L6.112.879a1.928,1.928,0,0,0-1-.152c-.158,0-.331.006-.514.018-.247.017-.584.026-1,.026C3.042.771,2.356.756,1.5.725Z" transform="translate(238.661 248.562)"/><path class="c" d="M24.872,1.2c.482,0,1.14.06,1.366.4.372.557.987,5.643,1.193,6.622A6.45,6.45,0,0,1,27.4,10.4a44.889,44.889,0,0,1-6.723.718c-4.886.281-10.092-.266-12.294-.146S-.1,9.678,0,8.96A4.314,4.314,0,0,1,1.363,6.3c.821-.559,8.733-2.5,9-2.718s4.2-1.366,4.424-1.88A5.945,5.945,0,0,1,15.748,0c.2,1.18.4,2.106.4,2.106a16.991,16.991,0,0,0,5.39,2.548c2.347.4,3.477-2.216,3.477-2.216Z" transform="translate(178.77 328.309)"/><path class="b" d="M9.077.223l.764,6.719S8.712,9.555,6.363,9.157A17.009,17.009,0,0,1,.974,6.61S.493,2.523,0,0A34.88,34.88,0,0,0,9.053.226Z" transform="translate(193.941 323.805)"/><path class="c" d="M7.253,9.933a3.158,3.158,0,0,1-.525-.045A17,17,0,0,1,1.217,7.3L1.2,7.284,1.078,7.2l-.016-.15-.009-.074C.9,5.708.5,2.537.093.464L0,0,.471.07A37.082,37.082,0,0,0,5.926.49a30.493,30.493,0,0,0,3.51-.2L9.768.254l.063.33L10.6,7.393l-.033.08A3.972,3.972,0,0,1,7.253,9.933ZM.838.8c.38,2.092.756,5.057.869,6.023A16.086,16.086,0,0,0,6.841,9.227a2.471,2.471,0,0,0,.41.035c1.606,0,2.506-1.646,2.67-1.976L9.2.992a31.484,31.484,0,0,1-3.266.166A37.6,37.6,0,0,1,.838.8Z" transform="translate(193.52 323.405)"/><path class="f" d="M.332,0a10.488,10.488,0,0,1,1.36.732s-.359.933-.536.987S.024,1.612,0,1.457A12.613,12.613,0,0,1,.332,0" transform="translate(243.264 248.429)"/><path class="b" d="M5.948,30.539C5.5,30,.073,2.777.073,2.777S-.5,1.308,1.542.929l28.282-.9S31.083-.3,31.437,1.261,38.278,33.5,38.278,33.5s.22.951-.539,1.14a16.432,16.432,0,0,1-2.658.034c-4.7-2.781-9.329-5.345-13.111-7.108-3.527-1.644-8.854.136-14.661,3.184Z" transform="translate(205.635 215.336)"/><path class="c" d="M36.933,35.369c-.4,0-.895-.01-1.527-.031l-.158-.047C30.021,32.2,25.619,29.81,22.165,28.2a6.961,6.961,0,0,0-2.954-.589c-2.85,0-6.583,1.233-11.412,3.768l-.1.052-1.6-.242-.083-.1C5.6,30.566,2.116,13.377.079,3.177a1.635,1.635,0,0,1,.112-1.27A2.2,2.2,0,0,1,1.816.935l28.33-.9A1,1,0,0,1,30.435,0a1.6,1.6,0,0,1,.831.226A1.927,1.927,0,0,1,32.1,1.52c.279,1.224,4.341,20.418,6.076,28.615l0,.008.039.186c.429,2.029.713,3.37.727,3.432a1.214,1.214,0,0,1-.786,1.534A5.442,5.442,0,0,1,36.933,35.369ZM19.179,26.928a7.58,7.58,0,0,1,3.268.666C25.9,29.2,30.3,31.587,35.513,34.673c.554.019,1.031.028,1.417.028a5.569,5.569,0,0,0,1.064-.056.374.374,0,0,0,.239-.174.889.889,0,0,0,.054-.566c-.054-.26-6.492-30.7-6.842-32.235A1.3,1.3,0,0,0,30.926.8a.943.943,0,0,0-.494-.132.837.837,0,0,0-.19.019L1.889,1.6a1.545,1.545,0,0,0-1.11.629.985.985,0,0,0-.055.766c1.744,8.733,5.2,25.736,5.794,27.578l1.07.161C12.484,28.173,16.275,26.928,19.179,26.928Z" transform="translate(205.299 215.001)"/><path class="b" d="M7.783,4.461C-8.331,16.408,5.3,59.556,7.005,59.9a34.309,34.309,0,0,0,13.706.167s-4.644-27.177-2.878-35.542c1.382-6.543,24.508,1.164,38.937-2.424C48.383,17.156,37.577,0,37.577,0,29.364,3.79,16.845,4.786,7.783,4.461" transform="translate(184.844 263.533)"/><path class="c" d="M14.941,61.461a38.708,38.708,0,0,1-7.677-.8c-1.066-.217-3.439-7.713-4.9-14.3C.206,36.641-3.57,13.132,7.909,4.619l.1-.07.117.006c1.054.038,2.146.058,3.246.058a92.5,92.5,0,0,0,13.711-1A47.986,47.986,0,0,0,37.763.123L38.028,0l.156.249c.027.043,2.756,4.354,6.5,9.242,3.394,4.433,8.332,10.244,12.583,12.753l-.089.612a41.241,41.241,0,0,1-9.918,1.017c-4.239,0-8.721-.393-12.676-.74h-.007c-3.411-.3-6.632-.581-9.284-.581a15.833,15.833,0,0,0-4.666.523,2.746,2.746,0,0,0-2.137,1.952c-.71,3.362-.465,10.191.727,20.3.864,7.325,1.939,13.849,2.146,15.082l.006.035.054.314-.311.068A28.638,28.638,0,0,1,14.941,61.461ZM8.215,5.226h0C3.121,9.068.58,16.463.662,27.205c.12,15.76,5.773,32.088,6.795,32.819a37.94,37.94,0,0,0,7.458.77,28.4,28.4,0,0,0,5.74-.558c-.467-2.779-4.5-27.4-2.821-35.349.438-2.082,2.732-3.01,7.441-3.01,2.664,0,5.919.286,9.365.588,3.941.345,8.407.736,12.619.736a42.573,42.573,0,0,0,8.974-.814C52.956,20.24,49.042,16.242,44.6,10.51,41.144,6.05,38.5,1.989,37.775.851A49.562,49.562,0,0,1,25.023,4.294a93.582,93.582,0,0,1-13.684.985c-1.058,0-2.109-.018-3.125-.053Z" transform="translate(184.518 263.106)"/><path class="c" d="M23.157,23.071a37.572,37.572,0,0,0,7.684-.966C22.456,17.156,11.649,0,11.649,0A47.041,47.041,0,0,1,0,3.34H0S9.756,15.988,23.157,23.071" transform="translate(210.773 263.533)"/><path class="c" d="M23.758,23.835h0l-.078-.041C10.321,16.731.512,4.1.415,3.972L0,3.433H.679A46.389,46.389,0,0,0,12.188.123L12.454,0l.156.249c.027.043,2.757,4.355,6.5,9.242C22.5,13.924,27.44,19.735,31.69,22.244l-.089.613a37.692,37.692,0,0,1-7.755.977l-.088,0ZM12.2.851A46.7,46.7,0,0,1,1.293,4C3,6.1,12.089,16.883,23.915,23.161a38.184,38.184,0,0,0,6.744-.774c-3.277-2.148-7.191-6.145-11.634-11.878C15.592,6.079,12.933,2,12.2.851Z" transform="translate(210.093 263.106)"/><path class="g" d="M3.964.06A18.631,18.631,0,0,1,0,0C11.517,6.813,23.468,14.968,24.272,15.873a16.657,16.657,0,0,0,2.6,1.425c1.327-.376,1.362-1.08,1.421-1.522S3.964.06,3.964.06" transform="translate(240.596 249.933)"/><path class="c" d="M4.8,42.408a.552.552,0,0,1-.2-.038l-.158-.061a2.357,2.357,0,0,1-1.1-.7A7.438,7.438,0,0,1,1.978,39.87C.25,36.877.113,32.554.039,30.232l-.027-.749.377-.019.377-.018v.017l.027.743c.07,2.254.2,6.45,1.838,9.288a6.62,6.62,0,0,0,1.222,1.563l.106.1a1.97,1.97,0,0,0,.949.571l.007,0a.378.378,0,0,1,.215.488A.337.337,0,0,1,4.8,42.408ZM.012,29.479h0a3.939,3.939,0,0,1,.451-2.623.572.572,0,0,1,.423-.19.692.692,0,0,1,.28.063l-.277.707.168-.337.169-.337-.01-.005c-.01-.006-.027-.016-.05-.027.491.049.981.075,1.457.075,5.186,0,8.4-3.08,9.55-9.153.409-2.157.034-11.851-.126-15.991C12.01.671,11.984.019,11.992,0a.352.352,0,0,1,.055,0,.383.383,0,0,1,.375.323c.333,2.243.738,5.21.914,8.276a38.44,38.44,0,0,1-.42,9.189A13.816,13.816,0,0,1,9.8,24.727a9.3,9.3,0,0,1-7.136,2.834,16.063,16.063,0,0,1-1.65-.089.364.364,0,0,1-.144-.045.034.034,0,0,0-.026.012c-.06.063-.15.406-.081,2l-.754.035Z" transform="translate(281.858 230.589)"/><path class="b" d="M.337,18.515s-1.988,4.926,3.7,7.2c9.081.352,21.751-.628,30.036-4.453,0,0,13.549,21.508,22.078,23.308s7.769,0,17.717-1.042S85.328,45.9,85.328,45.9s.517-6.915,4.656-11.093-11.67-9.246-13.467-11.268C75.385,22.263,52.28,6.7,39.252.626,30.622-3.4,11.221,13.072.337,18.515" transform="translate(188.352 242.271)"/><path class="c" d="M85.357,46.366h0C85.345,46.342,84.116,44,77.7,44a33.746,33.746,0,0,0-3.462.193,64.166,64.166,0,0,0-7.367,1.187A20.65,20.65,0,0,1,62.3,46a28.841,28.841,0,0,1-5.884-.768c-1.875-.4-4.122-1.742-6.679-4a63.444,63.444,0,0,1-6.849-7.308,135.163,135.163,0,0,1-8.607-11.9,49.422,49.422,0,0,1-12.714,3.444,93.284,93.284,0,0,1-13.685.985c-1.193,0-2.378-.022-3.523-.067l-.11-.023A6.5,6.5,0,0,1,.43,22.993a6.025,6.025,0,0,1-.066-4.271L.411,18.6l.112-.057c3.124-1.561,6.971-4.049,11.044-6.683l.059-.038C20.2,6.283,29.907,0,36.478,0a7.647,7.647,0,0,1,3.25.656C52.935,6.809,75.9,22.3,77.1,23.646a21.61,21.61,0,0,0,4.388,2.462c4.179,2.044,9.379,4.588,9.821,7.2a2.307,2.307,0,0,1-.755,2.067C86.541,39.425,86,46.187,86,46.254l-.638.112ZM77.72,43.328c2.07,0,5.823.268,7.7,2.064.281-2.026,1.3-7.1,4.659-10.491a1.654,1.654,0,0,0,.57-1.485c-.386-2.272-5.628-4.835-9.455-6.707a20.163,20.163,0,0,1-4.6-2.618C75.439,22.782,52.2,7.2,39.446,1.26a7.065,7.065,0,0,0-3-.6c-6.338,0-15.965,6.23-24.459,11.726C7.933,15.011,4.1,17.491.939,19.086c-.259.764-1.309,4.675,3.5,6.629,1.12.043,2.282.064,3.451.064,15.028,0,23.45-3.139,26.374-4.489l.265-.122.156.247c.135.214,13.551,21.405,21.864,23.162a28.287,28.287,0,0,0,5.733.757,19.928,19.928,0,0,0,4.445-.608,63.754,63.754,0,0,1,7.438-1.2A34.024,34.024,0,0,1,77.72,43.328Z" transform="translate(188.017 241.939)"/><path class="c" d="M5.71,6.388C7.98,4.451,4.955,1.044,2.287.218c-5.824-1.8,1.03,8.211,3.423,6.169" transform="translate(219.197 226.302)"/><path class="b" d="M8.323,0C4.187,3.545.375,7.883.037,11.651c-.592,6.587,5.981,11.156,15.338,4.689,0,0,4.707-.684,4.215-3.762s-4.2-2.655-5.168-.8C13.84,12.892,10.267-2.73,9.871,3.035c-.1,1.4-1.287,1.667-1.644.577A10.757,10.757,0,0,1,8.323,0" transform="translate(273.946 188.442)"/><path class="c" d="M7.283,20.137a7.609,7.609,0,0,1-3.887-1A7.258,7.258,0,0,1,.038,11.955C.414,7.769,4.816,3.187,8.442.081A.342.342,0,0,1,8.66,0a.32.32,0,0,1,.165.046.329.329,0,0,1,.162.347A10.022,10.022,0,0,0,8.88,3.842c.089.272.252.44.427.44l.029,0c.23-.029.5-.334.537-.935.064-.913.2-1.533.671-1.589a.564.564,0,0,1,.063,0c.688,0,1.267,1.458,2.775,6.14.437,1.358.98,3.048,1.3,3.721a3.459,3.459,0,0,1,2.706-1.288,3.276,3.276,0,0,1,.532.043,2.78,2.78,0,0,1,2.339,2.491,2.726,2.726,0,0,1-.5,2.118c-1.078,1.47-3.454,1.936-3.92,2.015A15.646,15.646,0,0,1,7.283,20.137ZM8.2,1.178C4.967,4.042,1.044,8.246.7,12.016a6.6,6.6,0,0,0,3.029,6.548,6.955,6.955,0,0,0,3.553.905A15.055,15.055,0,0,0,15.521,16.4a.356.356,0,0,1,.141-.056c.025,0,2.553-.394,3.558-1.763a2.045,2.045,0,0,0,.375-1.615,2.111,2.111,0,0,0-1.785-1.937,2.624,2.624,0,0,0-.414-.032,2.691,2.691,0,0,0-2.344,1.271.413.413,0,0,1-.37.235h-.029c-.439-.037-.689-.614-1.91-4.4l-.014-.043a34.715,34.715,0,0,0-2.07-5.523,4.506,4.506,0,0,0-.122.859c-.066.985-.61,1.49-1.119,1.554a.869.869,0,0,1-.128.009,1.179,1.179,0,0,1-1.046-.9A7.95,7.95,0,0,1,8.2,1.178Z" transform="translate(273.611 188.108)"/><path class="b" d="M0,0,3.954,1.335S3.081,2.926,1.593,2.413A2.817,2.817,0,0,1,0,0" transform="translate(276.898 202.102)"/><path class="c" d="M2.533,3.323A2.076,2.076,0,0,1,1.846,3.2,3.129,3.129,0,0,1,.028.493L0,0,4.8,1.62l-.191.351A2.55,2.55,0,0,1,2.533,3.323ZM.783.969a2.157,2.157,0,0,0,1.28,1.6,1.441,1.441,0,0,0,.473.083,1.691,1.691,0,0,0,1.249-.672Z" transform="translate(276.538 201.628)"/><path class="b" d="M.989,35.486S-3.2,11.593,5.658,3.169,22.124,4.782,19.749,13.853s-5.843,18.763-7.786,21.823Z" transform="translate(310.418 284.922)"/><path class="c" d="M12.477,36.355h0l-11.435-.2-.048-.272A80.875,80.875,0,0,1,0,22.825c.081-9.421,2.019-16,5.759-19.557C8.042,1.1,10.336,0,12.58,0a6.853,6.853,0,0,1,3.463.956c3.813,2.251,5.729,8.1,4.362,13.324-2.358,9-5.868,18.836-7.826,21.916l-.1.158ZM12.613.67c-2.061,0-4.27,1.066-6.39,3.083A16.6,16.6,0,0,0,2.015,11.6,43.278,43.278,0,0,0,.71,21.524a81.842,81.842,0,0,0,.9,13.973l10.507.181c1.937-3.188,5.367-12.864,7.645-21.568,1.3-4.947-.485-10.472-4.054-12.578A6,6,0,0,0,12.613.67Z" transform="translate(310.085 284.581)"/><path class="h" d="M7.062.073a4.82,4.82,0,0,1,3.878,1.108c6.49,4.848-5.552,18.472-5.552,18.472H0C1.833,16.5,4.813,8.24,7.062.073" transform="translate(322.596 300.591)"/><path class="c" d="M6.119,20.322H0l.291-.5C2.114,16.689,5.071,8.487,7.323.318l.054-.2.2-.04A4.3,4.3,0,0,1,8.406,0a5.555,5.555,0,0,1,3.315,1.248,4.971,4.971,0,0,1,2.02,3.622c.26,2.518-.884,5.814-3.4,9.8A47.63,47.63,0,0,1,6.22,20.21l-.1.112ZM8.39.671A3.657,3.657,0,0,0,7.909.7c-2.134,7.7-4.914,15.5-6.761,18.951H5.817A48.373,48.373,0,0,0,10,13.925c2.278-3.692,3.314-6.716,3.08-8.988a4.334,4.334,0,0,0-1.756-3.155A4.918,4.918,0,0,0,8.39.671Z" transform="translate(322.014 300.256)"/><path class="c" d="M.335,29.307H.3a.337.337,0,0,1-.3-.368C1.152,17.865,3.469.464,3.493.289a.333.333,0,0,1,.661.089C4.132.552,1.817,17.944.668,29.007a.335.335,0,0,1-.333.3" transform="translate(317.59 291.401)"/><path class="c" d="M0,0H24.641L22.1,18.92H2.652Z" transform="translate(308.171 318.69)"/><path class="h" d="M7.062.073a4.82,4.82,0,0,1,3.878,1.108c6.49,4.848-5.552,18.472-5.552,18.472H0C1.833,16.5,4.813,8.24,7.062.073" transform="translate(53.762 300.591)"/><path class="c" d="M6.119,20.322H0l.291-.5C2.115,16.687,5.073,8.485,7.324.318l.053-.2.2-.04A4.31,4.31,0,0,1,8.407,0a5.558,5.558,0,0,1,3.314,1.248,4.971,4.971,0,0,1,2.02,3.622c.261,2.518-.884,5.814-3.4,9.8A47.654,47.654,0,0,1,6.22,20.21l-.1.112ZM8.393.671A3.663,3.663,0,0,0,7.912.7C5.775,8.409,2.994,16.2,1.149,19.654H5.817A48.372,48.372,0,0,0,10,13.925c2.278-3.692,3.314-6.716,3.08-8.988a4.334,4.334,0,0,0-1.756-3.155A4.915,4.915,0,0,0,8.393.671Z" transform="translate(53.18 300.256)"/><path class="b" d="M.988,35.486S-3.2,11.593,5.659,3.169s16.464,1.613,14.09,10.684-5.843,18.763-7.786,21.823Z" transform="translate(41.584 284.922)"/><path class="c" d="M12.478,36.355h0l-11.437-.2-.048-.272A80.875,80.875,0,0,1,0,22.825c.081-9.42,2.019-16,5.759-19.557C8.042,1.1,10.336,0,12.58,0a6.853,6.853,0,0,1,3.463.956c3.813,2.251,5.729,8.1,4.362,13.324-2.357,9-5.867,18.834-7.825,21.916l-.1.158ZM12.614.67c-2.059,0-4.269,1.066-6.391,3.083A16.6,16.6,0,0,0,2.015,11.6a43.281,43.281,0,0,0-1.3,9.926,82.086,82.086,0,0,0,.9,13.973l10.507.181c1.936-3.187,5.367-12.862,7.646-21.568,1.3-4.947-.485-10.472-4.054-12.578A6.006,6.006,0,0,0,12.614.67Z" transform="translate(41.251 284.581)"/><path class="c" d="M.335,29.307H.3a.337.337,0,0,1-.3-.368C1.152,17.865,3.469.464,3.493.289a.334.334,0,0,1,.662.089C4.132.552,1.817,17.944.668,29.007a.334.334,0,0,1-.333.3" transform="translate(48.756 291.401)"/><path class="c" d="M0,0H24.641L22.1,18.92H2.652Z" transform="translate(39.337 318.69)"/></g></g></g></svg>