<svg xmlns="http://www.w3.org/2000/svg" width="22.457" height="21.46" viewBox="0 0 22.457 21.46"><defs><style>.a{fill:#fff;}</style></defs><g transform="translate(0 -9.6)"><g transform="translate(0 9.6)"><path class="a" d="M22.457,22.753v8.3H17.643V23.311c0-1.948-.694-3.274-2.438-3.274a2.632,2.632,0,0,0-2.47,1.76,3.331,3.331,0,0,0-.162,1.175V31.06H7.759s.063-13.121,0-14.479h4.814v2.052l-.031.047h.031v-.047a4.778,4.778,0,0,1,4.339-2.391C20.081,16.236,22.457,18.309,22.457,22.753ZM2.726,9.6a2.508,2.508,0,1,0-.063,5h.031a2.509,2.509,0,1,0,.031-5ZM.287,31.06H5.1V16.576H.287Z" transform="translate(0 -9.6)"/></g></g></svg>