<svg xmlns="http://www.w3.org/2000/svg" width="15.001" height="15" viewBox="0 0 15.001 15"><defs><style>.a{fill:#fff;}</style></defs><path class="a" d="M619.7,68.753a.985.985,0,0,0-.725-.3h-4.43v-4.43A1.011,1.011,0,0,0,613.522,63h-2.045a1.014,1.014,0,0,0-1.024,1.024v4.431h-4.43A1.014,1.014,0,0,0,605,69.479v2.044a1.014,1.014,0,0,0,1.024,1.024h4.431v4.432a1.031,1.031,0,0,0,.077.392,1.018,1.018,0,0,0,.946.629h2.046a1.02,1.02,0,0,0,.725-.3,1.034,1.034,0,0,0,.222-.333,1.015,1.015,0,0,0,.076-.392V72.545h4.432A1.019,1.019,0,0,0,620,71.523V69.477a.986.986,0,0,0-.3-.724Z" transform="translate(-604.999 -63)"/></svg>