<svg xmlns="http://www.w3.org/2000/svg" width="24" height="19.493" viewBox="0 0 24 19.493"><defs><style>.a{fill:#fff;}</style></defs><path class="a" d="M67.8,23.172a9.81,9.81,0,0,1-2.832.762,4.776,4.776,0,0,0,2.163-2.711,9.654,9.654,0,0,1-3.122,1.188A4.921,4.921,0,0,0,55.5,25.776,5.462,5.462,0,0,0,55.62,26.9a13.709,13.709,0,0,1-5.657-1.515,13.947,13.947,0,0,1-4.485-3.632,4.931,4.931,0,0,0-.076,4.827A4.914,4.914,0,0,0,47,28.335a4.882,4.882,0,0,1-2.223-.625v.061A4.753,4.753,0,0,0,45.9,30.9a4.838,4.838,0,0,0,2.825,1.7,5.067,5.067,0,0,1-1.294.168,6.274,6.274,0,0,1-.929-.076A4.931,4.931,0,0,0,51.1,36.1a9.631,9.631,0,0,1-6.106,2.1,10.5,10.5,0,0,1-1.188-.061,13.658,13.658,0,0,0,7.553,2.208,14.378,14.378,0,0,0,4.919-.83A12.5,12.5,0,0,0,60.2,37.3a14.871,14.871,0,0,0,2.81-3.206,14.278,14.278,0,0,0,1.759-3.784,13.973,13.973,0,0,0,.579-3.952q0-.426-.015-.64A10.287,10.287,0,0,0,67.8,23.174Z" transform="translate(-43.804 -20.858)"/></svg>