<svg xmlns="http://www.w3.org/2000/svg" width="26.511" height="19.889" viewBox="0 0 26.511 19.889"><defs><style>.a{fill:#fff;}</style></defs><path class="a" d="M130.239,144.232a3.657,3.657,0,0,0-2.656-1.2c-3.71-.288-9.275-.288-9.275-.288H118.3s-5.565,0-9.274.288a3.659,3.659,0,0,0-2.656,1.2,6.386,6.386,0,0,0-1.053,2.809,45.552,45.552,0,0,0-.265,4.576v2.145a45.536,45.536,0,0,0,.265,4.577,6.362,6.362,0,0,0,1.053,2.806,4.335,4.335,0,0,0,2.923,1.209c2.121.217,9.014.284,9.014.284s5.571-.01,9.281-.294a3.673,3.673,0,0,0,2.656-1.2,6.373,6.373,0,0,0,1.053-2.806,45.559,45.559,0,0,0,.265-4.577v-2.145a45.562,45.562,0,0,0-.265-4.577A6.374,6.374,0,0,0,130.239,144.232Zm-15.248,13.434v-9.945l8.287,4.972Z" transform="translate(-105.047 -142.749)"/></svg>