<svg xmlns="http://www.w3.org/2000/svg" width="135.981" height="106.917" viewBox="0 0 135.981 106.917"><defs><style>.a{fill:#b0d1ee;}.b{fill:#1559a7;}.c{fill:#fff;}.d{fill:#3a77bb;}.e{fill:#00458c;}</style></defs><g transform="translate(-10.005 -48.409)"><g transform="translate(10.005 48.409)"><path class="a" d="M4.772,0H86.157a4.786,4.786,0,0,1,4.772,4.772V50.53A4.786,4.786,0,0,1,86.157,55.3H4.772A4.786,4.786,0,0,1,0,50.53V4.772A4.786,4.786,0,0,1,4.772,0" transform="translate(14.357 0)"/><path class="b" d="M0,13.438c.312-1.993,1.95-4.82,3.891-7.368,2.194-2.879,4.785-5.413,6.3-6,.59-.228,1,.1,1.284.832.6,1.56.629,5.113.656,8.91.04,5.571.084,11.678,1.913,12.58a.415.415,0,0,0,.295.024c2.105-.532,4.1-7.714,4.164-9.847.366,1.456-.612,4.875-1.826,7.33a11.423,11.423,0,0,1-1.124,1.874,2.412,2.412,0,0,1-1.139.937h0a.713.713,0,0,1-.5-.047c-2-.986-2.04-7.19-2.081-12.849-.027-3.768-.052-7.293-.636-8.8C10.975.46,10.688.2,10.3.355,7.544,1.419,1.216,9.3,0,13.438" transform="translate(37.42 14.713)"/><path class="b" d="M5.621,1.645c1.467.893,8.667,3.174,8.6,3.779C13.9,8.075.282,6.857.029,6.1-.231,5.321,1.346.428,1.886.048s3.735,1.6,3.735,1.6" transform="translate(15.799 94.796)"/><path class="c" d="M4.774,1.476c-.14.57-.986,4.675-1.1,4.71C2.525,6.546-.176,5.292.009,4.5L1.07,0Z" transform="translate(18.163 91.538)"/><path class="b" d="M3.289,6.476A5.048,5.048,0,0,1,.355,5.334c-.279-.259-.394-.5-.343-.721L1.1,0,4.984,1.547l-.02.081c-.04.162-.136.609-.258,1.174-.771,3.563-.81,3.575-.9,3.6A1.742,1.742,0,0,1,3.289,6.476ZM1.234.261.2,4.656c-.034.142.068.333.287.536A4.91,4.91,0,0,0,3.291,6.283a1.6,1.6,0,0,0,.419-.049c.113-.268.537-2.224.79-3.392l.017-.079c.11-.513.194-.9.24-1.1L1.234.261h0Z" transform="translate(18.066 91.408)"/><path class="b" d="M2.4.012C2.884.1,5.967,1.172,6.133,1.6s-.3,2.816.033,3.38c.746,1.268,9.119,4.06,6.064,5.235-.862.331-5.136.133-5.8.033S-.13,7.3,0,6.275,1.477-.286,2.4.012" transform="translate(34.898 91.642)"/><path class="c" d="M3.778,1.24c0,.118-.53,3.288-.53,3.288s-2.766.32-3.238-.9C-.1,3.605.729,0,.729,0Z" transform="translate(37.365 88.721)"/><path class="b" d="M2.579,4.861c-.814,0-2.23-.132-2.572-1.015h0A17.755,17.755,0,0,1,.72.142L.753,0,4.012,1.326l0,.081c0,.081-.181,1.226-.532,3.311l-.015.092-.093.012H3.361C3.046,4.855,2.762,4.861,2.579,4.861ZM.93.34C.65,1.565.234,3.483.236,3.751l0,0c.289.745,1.586.856,2.334.856.313,0,.561-.018.682-.029.212-1.265.454-2.733.5-3.092L.93.34Z" transform="translate(37.252 88.551)"/><path class="c" d="M0,1.556,3.814,0S4.8,5.828,6.768,7.963s9.813,1.831,9.73,1.519-5.144,2.556-5.144,2.556-5.868.469-8.211-3.75A41.693,41.693,0,0,1,0,1.556" transform="translate(31.325 40.506)"/><path class="b" d="M11.028,12.35a12.088,12.088,0,0,1-3.738-.594,7.059,7.059,0,0,1-4.1-3.234A43.064,43.064,0,0,1,.036,1.771L0,1.658l.106-.043L4.063,0l.026.153c0,.014.254,1.481.744,3.191A12.977,12.977,0,0,0,7.013,8.053,5.892,5.892,0,0,0,10.261,9.4a24.832,24.832,0,0,0,4.113.324c.672,0,1.312-.024,1.758-.066a1.634,1.634,0,0,1,.493-.142.144.144,0,0,1,.057.009l.056.023.033.077a.158.158,0,0,1-.092.18,1.944,1.944,0,0,1-.581.124c-.836.368-2.657,1.329-4.53,2.392l-.052.015C11.507,12.337,11.326,12.35,11.028,12.35ZM3.871.347h0L.308,1.8a44.4,44.4,0,0,0,3.1,6.6,6.825,6.825,0,0,0,3.968,3.124,11.77,11.77,0,0,0,3.637.577c.254,0,.417-.009.461-.012,1.713-.969,3.035-1.677,3.928-2.105-.315.016-.652.024-1,.024a23.551,23.551,0,0,1-4.242-.374A6.184,6.184,0,0,1,6.83,8.221,11.554,11.554,0,0,1,4.734,3.9,32.926,32.926,0,0,1,3.871.347Z" transform="translate(31.172 40.332)"/><path class="b" d="M14.387,0s1.894,22.711.237,28.718c-.933,3.384-5.539,22.848-8.852,22.5C4.03,51.037.925,50.932.1,48.812-.905,46.225,5.94,27.98,6.65,24.576s-.906-4.044-.311-4.246S14.387,0,14.387,0" transform="translate(18.163 43.464)"/><path class="d" d="M7.158,0C22.252,16.933,20.31,13.8,15.92,35.6c-.134.664-7.23.3-6.972-1.953C11.97,7.361,3.029,18.472.46,6.058-.373,2.037.18,3.184.18,3.184Z" transform="translate(26.238 54.808)"/><path class="c" d="M1.282,0c.026.1.144,1.6-.288,1.982S0,.816,0,.816Z" transform="translate(47.588 52.509)"/><path class="b" d="M1,2.363a.342.342,0,0,1-.084-.01C.5,2.246.135,1.332.033,1.055L0,.962,1.51,0l.043.166c.025.1.17,1.669-.326,2.106A.338.338,0,0,1,1,2.363ZM1.331.408.3,1.064c.184.468.473,1,.674,1.049l.02,0a.1.1,0,0,0,.067-.028C1.348,1.834,1.366.913,1.331.408Z" transform="translate(47.437 52.312)"/><path class="c" d="M0,3.287A18.049,18.049,0,0,0,1.719,0S2.874,3.268,3.413,4.805q.059.169.112.306C4.051,6.473,2.933,7.433,1.64,8.8.994,9.486,0,3.287,0,3.287" transform="translate(32.984 39.577)"/><path class="b" d="M1.668,9.025A.264.264,0,0,1,1.6,9.013C.934,8.809.214,4.629.009,3.352L0,3.3l.038-.044A17.973,17.973,0,0,0,1.736,0l.233,0,.166.469c.334.947,1.117,3.165,1.528,4.337.04.114.076.213.111.3.5,1.3-.4,2.241-1.538,3.43l0,0c-.142.147-.259.27-.371.388A.263.263,0,0,1,1.668,9.025ZM1.841.39A16.219,16.219,0,0,1,.263,3.369C.675,5.918,1.329,8.71,1.669,8.776l.3-.316.084-.088C3.176,7.2,3.988,6.358,3.541,5.2c-.034-.09-.072-.191-.114-.309C3.03,3.757,2.3,1.679,1.943.68Z" transform="translate(32.852 39.531)"/><path class="c" d="M11.957,2.288C9.63-2.615-.289,1.192.006,5.923A10.857,10.857,0,0,1,3.044,8.18s-.648.186-.757,2.189,1.2,12.115,1.2,12.115,7.978.165,10.851-1.712C14.1,16.1,13.533,5.609,11.957,2.288" transform="translate(22.889 37.204)"/><path class="b" d="M4.176,22.733c-.262,0-.447,0-.526,0H3.612l-.107,0-.014-.106c-.134-1.039-1.309-10.2-1.2-12.138.082-1.5.463-2.025.683-2.207A10.769,10.769,0,0,0,.082,6.157l-.07-.03,0-.076C-.164,3.319,2.865,1.039,5.8.281A8.606,8.606,0,0,1,7.925,0a5.519,5.519,0,0,1,2.481.527,3.827,3.827,0,0,1,1.787,1.828c1.615,3.4,2.183,14.384,2.4,18.519v.012l0,.071-.06.039a13.21,13.21,0,0,1-5.394,1.47A45.889,45.889,0,0,1,4.176,22.733ZM7.922.249h0A8.387,8.387,0,0,0,5.863.521a8.7,8.7,0,0,0-4.24,2.36A4.468,4.468,0,0,0,.252,5.962,11.23,11.23,0,0,1,3.257,8.212l.146.149-.2.058c-.006,0-.568.24-.668,2.076-.1,1.868,1.056,10.956,1.188,11.986l.333,0c1.792,0,7.831-.119,10.281-1.656-.212-4.1-.774-15.005-2.368-18.366A3.589,3.589,0,0,0,10.28.745,5.288,5.288,0,0,0,7.922.25Z" transform="translate(22.765 37.084)"/><path class="c" d="M4.056.779S3.14,2.541,3.548,3.563.1,3.744.007,3.476.747,1.617.636.446,4.056.779,4.056.779" transform="translate(29.38 34.151)"/><path class="b" d="M2.844,4.334a7.3,7.3,0,0,1-1.21-.122C1.38,4.167.11,3.931.015,3.659c-.049-.14.022-.366.189-.864A5.926,5.926,0,0,0,.637.6.479.479,0,0,1,.826.135.954.954,0,0,1,1.388,0,9.689,9.689,0,0,1,4.251.788l.138.059L4.32.981c-.036.07-.877,1.727-.5,2.668a.4.4,0,0,1-.044.43A1.216,1.216,0,0,1,2.844,4.334ZM1.375.275h0A.665.665,0,0,0,.991.361a.206.206,0,0,0-.075.21A6.109,6.109,0,0,1,.472,2.876l0,.007v0a3.962,3.962,0,0,0-.189.664,8.079,8.079,0,0,0,2.6.5,1.222,1.222,0,0,0,.635-.117c.047-.032.086-.07.04-.185A4.2,4.2,0,0,1,4,.988,8.844,8.844,0,0,0,1.375.275Z" transform="translate(29.24 34.014)"/><path class="b" d="M3.016,1.449a4.535,4.535,0,0,0-.186.863,1.121,1.121,0,0,1-1.136.194A5.262,5.262,0,0,1,0,.651,2.816,2.816,0,0,0,.009.091.554.554,0,0,1,.008,0C.652.2,1.743.545,2.135.643Z" transform="translate(30.007 34.506)"/><path class="b" d="M7.4,5.9A1.833,1.833,0,0,0,8.92,4.376C9.477.291,6.393-.9,6.356.655c-.02.861-.007.326-.007.326C-3.7.843.421,10.636,3.578,10.188,5.718,9.884,7.4,5.9,7.4,5.9" transform="translate(26.959 24.856)"/><path class="c" d="M0,7.442c.4.224,4.924.924,4.924.924S9.44,2.011,8.668.662.251.443.251.443Z" transform="translate(49.092 41.607)"/><path class="e" d="M5.107,8.629h0l-.075-.011C4.271,8.5.454,7.9.066,7.68L0,7.643l0-.076L.257.465l.1-.016A42.23,42.23,0,0,1,5.749,0C7.564,0,8.625.246,8.9.73c.331.578-.142,1.988-1.4,4.189-.977,1.7-2.126,3.337-2.346,3.648l-.045.062ZM5.823.254A41.89,41.89,0,0,0,.5.68L.253,7.492c.467.164,2.785.565,4.74.869A46.488,46.488,0,0,0,7.54,4.322C8.559,2.471,8.945,1.3,8.687.853,8.46.455,7.5.254,5.823.254Z" transform="translate(48.965 41.478)"/><path class="c" d="M36.335,7.922c-15.769,9.3-15.88,9.561-31.649,18.862C.175,24.3-.078,21.844.014,18.862,15.782,9.561,15.893,9.3,31.663,0c1.355,2.814,3.09,5.182,4.673,7.922" transform="translate(17.521 42.118)"/><path class="b" d="M4.812,27.1h0l-.062-.034c-4.54-2.5-4.83-5.01-4.736-8.035l0-.068.058-.035c7.782-4.59,11.793-7,15.672-9.339l.16-.1C19.768,7.17,23.761,4.765,31.723.068L31.839,0,31.9.122a49.85,49.85,0,0,0,2.88,4.989l0,.008c.59.938,1.2,1.908,1.783,2.917l.062.107-.106.062c-7.914,4.668-11.929,7.086-15.812,9.423-3.855,2.322-7.841,4.722-15.837,9.439l-.061.036ZM31.733.35c-7.949,4.69-12.066,7.169-15.7,9.357-3.868,2.329-7.866,4.736-15.777,9.4a8.384,8.384,0,0,0,.617,4.074,8.775,8.775,0,0,0,3.931,3.634c7.891-4.654,11.9-7.068,15.775-9.4l.155-.093C24.6,15,28.587,12.6,36.29,8.053c-.581-1-1.187-1.961-1.723-2.81l-.02-.031A51.072,51.072,0,0,1,31.733.35Z" transform="translate(17.398 41.942)"/><path class="c" d="M5.836.583c2.32,6.195-2.51,7.372-4.118,5.037C1.55,5.377.374,5.51.084,4.737S.308,3.389.791,3.552s.285,1.274.671.668.349-.4-.087-1.769,1.438-2.608,2-2.436-1.333,1.328.039,1.473A1.6,1.6,0,0,0,5.087.181s.066,1.509.75.4" transform="translate(29.164 29.208)"/><path class="b" d="M3.981,6.979A2.716,2.716,0,0,1,1.739,5.813a1.129,1.129,0,0,0-.391-.121C.908,5.6.3,5.469.092,4.9A1.1,1.1,0,0,1,.255,3.74a.687.687,0,0,1,.491-.218.647.647,0,0,1,.208.035c.292.1.378.43.442.671.007.027.021.079.034.122.015-.02.034-.048.05-.074l.073-.114c.225-.343.225-.343,0-1.021l-.01-.03c-.048-.143-.1-.3-.163-.5A1.873,1.873,0,0,1,1.971.756,2.394,2.394,0,0,1,3.387,0a.523.523,0,0,1,.15.02A.257.257,0,0,1,3.72.184c.055.17-.088.357-.268.593l0,0c-.143.188-.339.444-.288.562.014.033.081.114.39.146a1.693,1.693,0,0,0,.174.009A1.467,1.467,0,0,0,5.089.278L5.335.3c.015.332.108.667.192.689h0c.019,0,.122-.017.326-.346L5.988.425l.089.237c.408,1.091,1.55,4.748-.9,6.028A2.588,2.588,0,0,1,3.981,6.979ZM.749,3.772a.44.44,0,0,0-.315.142.847.847,0,0,0-.11.9c.165.44.671.546,1.077.632.265.057.457.1.544.224A2.5,2.5,0,0,0,3.978,6.731a2.328,2.328,0,0,0,1.079-.262c1.146-.6,1.977-2.354.869-5.493a.543.543,0,0,1-.395.259.293.293,0,0,1-.067-.008c-.137-.036-.24-.18-.307-.427a1.563,1.563,0,0,1-1.427.947,1.929,1.929,0,0,1-.2-.011c-.327-.035-.521-.131-.593-.3-.108-.252.12-.55.321-.813.088-.116.236-.309.23-.369A.345.345,0,0,0,3.39.246,2.158,2.158,0,0,0,2.147.931a1.637,1.637,0,0,0-.529,1.605c.067.212.125.387.172.527.248.747.263.791-.027,1.237l-.072.111c-.08.123-.169.237-.279.237l-.03,0c-.139-.022-.177-.168-.225-.353s-.117-.444-.282-.5A.393.393,0,0,0,.749,3.772Z" transform="translate(29.04 29.085)"/><path class="c" d="M.742.2C-1.481,7.2,1.895,16.466,3,19.8c0,0,.868,3.2,2.408,3.267a3.291,3.291,0,0,0,2.819-1.731c.339-.556-1.114-2.175-1.114-2.175C5.5,14.709,2.551,5.537,6.033,1.281,6.356.884.967-.511.742.2" transform="translate(22.256 42.929)"/><path class="b" d="M5.652,23.311l-.129,0C3.912,23.235,3.037,20.084,3,19.95l-.2-.582C1.557,15.651-1.369,6.947.746.283.8.126.969.036,1.276.008,1.338,0,1.408,0,1.484,0A13,13,0,0,1,4.293.467a4.577,4.577,0,0,1,1.975.8.183.183,0,0,1-.018.208c-2.457,3-2.089,8.971,1.092,17.733.249.28,1.476,1.708,1.112,2.305A3.467,3.467,0,0,1,5.652,23.311ZM.864.32h0L.982.356c-2.09,6.584.815,15.233,2.056,18.926l0,.007.2.589a9.7,9.7,0,0,0,.615,1.581c.358.712.941,1.568,1.682,1.6.043,0,.081,0,.117,0a3.224,3.224,0,0,0,2.591-1.675c.2-.329-.523-1.384-1.1-2.029l-.025-.04C3.909,10.494,3.543,4.451,6.029,1.361A6.434,6.434,0,0,0,4.157.682,11.993,11.993,0,0,0,1.527.245a2.419,2.419,0,0,0-.255.012C1.061.279.99.33.982.356Z" transform="translate(22.134 42.807)"/><path class="c" d="M3.3.551C2.828.249,2.2-.094,1.856.024c-.583.2-.312.616-.312.616-.438-.225-.909.023-.8.536C.771,1.3.158.9.024,1.462s.26,1.175,1.909.67C3.177,1.75,4.532,1.345,3.3.551" transform="translate(44.819 53.245)"/><path class="b" d="M1.013,2.567a1.119,1.119,0,0,1-.791-.249.767.767,0,0,1-.195-.759.466.466,0,0,1,.491-.4,1.07,1.07,0,0,1,.211.024.58.58,0,0,1,.222-.5A.623.623,0,0,1,1.337.556a.8.8,0,0,1,.145.014A.454.454,0,0,1,1.507.395.625.625,0,0,1,1.94.031.593.593,0,0,1,2.138,0,2.886,2.886,0,0,1,3.491.572c.4.256.573.5.539.742-.067.488-.96.762-1.9,1.052l-.032.01A3.788,3.788,0,0,1,1.013,2.567Zm-.5-1.162c-.136,0-.206.061-.242.211a.529.529,0,0,0,.122.52.874.874,0,0,0,.622.184A3.554,3.554,0,0,0,2.02,2.138l.032-.009.007,0c.748-.23,1.679-.517,1.725-.846.018-.135-.13-.307-.428-.5A2.737,2.737,0,0,0,2.14.248.38.38,0,0,0,2.02.266a.431.431,0,0,0-.279.211A.293.293,0,0,0,1.773.7L1.611.875A.589.589,0,0,0,1.34.8.387.387,0,0,0,1.1.878a.372.372,0,0,0-.112.395L1,1.34l-.052.067A.149.149,0,0,1,.84,1.45a.644.644,0,0,1-.126-.018A1,1,0,0,0,.511,1.405Z" transform="translate(44.694 53.12)"/><path class="c" d="M1.659,0C1.614,0-.053-.025,0,.169A.934.934,0,0,0,.993.656c.565-.067.969-.7.667-.652" transform="translate(33.234 33.897)"/><path class="b" d="M.977.915A1.017,1.017,0,0,1,.006.329.158.158,0,0,1,.039.182,3.159,3.159,0,0,1,1.41,0c.171,0,.31,0,.366.005H1.8a.214.214,0,0,1,.173.07.23.23,0,0,1,.011.242,1.134,1.134,0,0,1-.852.589A1.318,1.318,0,0,1,.977.915ZM1.526.25A7.485,7.485,0,0,0,.277.327.865.865,0,0,0,.984.666,1.02,1.02,0,0,0,1.1.659.928.928,0,0,0,1.739.253c-.046,0-.118,0-.213,0Z" transform="translate(33.109 33.77)"/><path class="c" d="M12.138,2.256s4.139.367,6.484,2.9,2.069,7.45,2.069,7.45l-19.5-2.069S-1.152,5.2.734,1.475s11.4.782,11.4.782" transform="translate(4.643 73.661)"/><path class="b" d="M20.926,12.869l-19.7-2.09L1.2,10.714a16.888,16.888,0,0,1-.946-3.2,12.752,12.752,0,0,1-.24-2.963,7.357,7.357,0,0,1,.73-3C1.26.521,2.363,0,4.018,0A13.705,13.705,0,0,1,7.29.478a31.381,31.381,0,0,1,5,1.786,13.361,13.361,0,0,1,2.548.566A9.209,9.209,0,0,1,18.831,5.2a6.786,6.786,0,0,1,1.323,2.22,11.793,11.793,0,0,1,.615,2.426,15.539,15.539,0,0,1,.164,2.895l-.008.129ZM4.025.254h0C2.464.254,1.434.727.962,1.66-.773,5.086,1.17,10,1.4,10.548L20.69,12.595c.022-.814.031-4.993-2.041-7.227a9.363,9.363,0,0,0-4.044-2.352,12.676,12.676,0,0,0-2.361-.506L12.2,2.5c-.2-.092-4.84-2.243-8.177-2.243Z" transform="translate(4.526 73.532)"/><path class="c" d="M5.761,6.024A33.555,33.555,0,0,1,7.047,1.334S1.852-.414.518.092.7,6.44,1.965,7.29s3.8-1.266,3.8-1.266" transform="translate(0.124 48.049)"/><path class="b" d="M2.812,7.737a1.4,1.4,0,0,1-.792-.222C1,6.831-.19,3.019.026,1.142.092.568.285.216.6.1A2.09,2.09,0,0,1,1.308,0a26.631,26.631,0,0,1,5.9,1.337l.118.04-.04.119a33.885,33.885,0,0,0-1.28,4.66l0,.051-.04.035A6.371,6.371,0,0,1,2.812,7.737ZM1.321.243A1.85,1.85,0,0,0,.687.33C.411.433.31.844.273,1.17c-.2,1.774.942,5.5,1.886,6.139a1.162,1.162,0,0,0,.657.181,6.176,6.176,0,0,0,2.95-1.407A31.572,31.572,0,0,1,7.014,1.534,26.18,26.18,0,0,0,1.321.243Z" transform="translate(0 47.927)"/><path class="c" d="M0,5.34C.276,4.7.1,0,.1,0S10.669,3.408,13.8,11.593,4.733,22.572,4.733,22.572Z" transform="translate(15.541 54.252)"/><path class="b" d="M4.777,22.893,0,5.5l.018-.04A32.955,32.955,0,0,0,.1.178L.1,0,.267.055A29.237,29.237,0,0,1,6.028,2.846a24.086,24.086,0,0,1,4.565,3.621,15.58,15.58,0,0,1,3.45,5.255,6.318,6.318,0,0,1-.185,5.431c-1.152,2.158-3.531,3.6-5.324,4.424a21.192,21.192,0,0,1-3.64,1.288l-.116.027ZM.359.349a32.336,32.336,0,0,1-.1,5.169L4.952,22.595a21.147,21.147,0,0,0,3.933-1.468,14.449,14.449,0,0,0,2.683-1.683,8.006,8.006,0,0,0,2.07-2.409,6.076,6.076,0,0,0,.173-5.224A15.154,15.154,0,0,0,10.7,6.936a22.869,22.869,0,0,0-4.17-3.477A29.918,29.918,0,0,0,.359.349Z" transform="translate(15.409 54.079)"/><path class="c" d="M5.3.043c5.426,4.629,20.97,20.3,26.4,24.925,2.721,4.468-2.836,7.833-5.081,5.956L.214,6A4.651,4.651,0,0,1,5.3.043" transform="translate(1.876 49.34)"/><path class="b" d="M28.336,31.7a2.578,2.578,0,0,1-1.681-.553L.228,6.191.219,6.159a4.59,4.59,0,0,1,.895-4.443A5,5,0,0,1,4.821,0a4.259,4.259,0,0,1,.617.045L5.473.05,5.5.073C8.226,2.4,13.552,7.554,18.7,12.541l.012.012C23.864,17.535,29.188,22.687,31.9,25l.026.03a4.112,4.112,0,0,1-.735,5.544A4.479,4.479,0,0,1,28.336,31.7ZM4.819.248h0A4.747,4.747,0,0,0,1.3,1.88,4.346,4.346,0,0,0,.448,6.057l26.372,24.9a2.321,2.321,0,0,0,1.515.5,4.238,4.238,0,0,0,2.692-1.071,3.844,3.844,0,0,0,.693-5.209C29,22.853,23.685,17.708,18.545,12.732l-.013-.013-.079-.077C13.348,7.7,8.07,2.6,5.366.286A4.026,4.026,0,0,0,4.82.249Z" transform="translate(1.752 49.215)"/><path class="c" d="M5.772,0S.095,6.087,0,8.663s2.366,3.783,3.378,2.864S5.772,0,5.772,0" transform="translate(3.344 53.336)"/><path class="b" d="M2.645,12.042a2.18,2.18,0,0,1-.9-.213A3.193,3.193,0,0,1,0,8.743,5.82,5.82,0,0,1,.915,6.319,26.186,26.186,0,0,1,2.851,3.494C4.234,1.7,5.648.168,5.8,0L6.02.1V.107C5.875,1.2,4.589,10.793,3.588,11.7A1.376,1.376,0,0,1,2.645,12.042ZM5.721.461C5.19,1.049,3.823,2.6,2.6,4.253,1.073,6.309.284,7.823.251,8.751A2.947,2.947,0,0,0,1.846,11.6a1.927,1.927,0,0,0,.8.191,1.128,1.128,0,0,0,.776-.275C4.155,10.852,5.212,4.255,5.721.461Z" transform="translate(3.22 53.251)"/><path class="c" d="M3.126.673a2.5,2.5,0,0,0-.644,2.314L0,2.573.454,0Z" transform="translate(13.454 51.539)"/><path class="b" d="M2.81,3.294h0L0,2.827.5,0,3.511.759,3.359.913A2.389,2.389,0,0,0,2.744,3.1l.065.195ZM.7.306.288,2.623l2.167.361A2.563,2.563,0,0,1,3.043.9L.7.306Z" transform="translate(13.31 51.387)"/><path class="c" d="M11.067.1C1.032-1.678-.529,20.063.131,24.391c.233,1.524,17.462,3.061,18.005-1.069.211-1.6-.6-5.006-.863-9.329C16.985,9.335,16.858,1.132,11.067.1" transform="translate(4.042 54.031)"/><path class="b" d="M9.69,26.227a41.473,41.473,0,0,1-6.341-.485C1.339,25.41.2,24.981.127,24.533-.343,21.461.276,7.175,5.7,1.881A6.091,6.091,0,0,1,10.046,0a6.66,6.66,0,0,1,1.161.105c5.56.987,5.981,8.324,6.26,13.179l.007.113c.014.248.028.483.042.713.122,1.981.353,3.729.556,5.272l0,.013a19.048,19.048,0,0,1,.3,4.067c-.307,2.335-5.336,2.735-8.306,2.765ZM10.052.249A5.859,5.859,0,0,0,5.875,2.058C.86,6.953-.192,20.8.373,24.5c.089.586,4.279,1.483,9.273,1.483l.423,0c4.918-.05,7.857-.979,8.064-2.548a19.149,19.149,0,0,0-.306-4.015c-.2-1.544-.435-3.295-.558-5.29-.01-.164-.02-.332-.03-.5-.006-.106-.012-.213-.019-.32-.274-4.777-.688-12-6.056-12.95A6.359,6.359,0,0,0,10.052.249Z" transform="translate(3.924 53.907)"/><path class="b" d="M11.576,6.885c.413-.025,1.139-1.711,1.088-2.545S12.876,1,10.761.3a6.6,6.6,0,0,0-6.144,1.2C3.039,2.845,3.191,5.323,2.853,6.587S1.327,8.752.626,10.868c-.043.131-.087.277-.131.435-.661,2.384-1.225,7.523,2.261,7.311,3.717-.226,6.094-2.028,5.969-4.094s-1.257-3.91-1-4.627c.086-.239.8-.256,1.366-.7a27.88,27.88,0,0,0,2.483-2.306" transform="translate(6.708 41.938)"/><path class="c" d="M5.922,0C6.06,2.257,7.308,7.7,3.9,7.585a3.051,3.051,0,0,1-2.579-1.5S.054,5.746,0,4.92s.337-1.264,1.189-.9.1,1.652.9,1.189-.1-1.652.7-2.116S5.831,2.663,5.922,0" transform="translate(13.424 45.857)"/><path class="b" d="M4.127,7.835l-.111,0A3.176,3.176,0,0,1,1.359,6.314C1.054,6.219.053,5.847,0,5.051A1.117,1.117,0,0,1,.351,4.018a.725.725,0,0,1,.429-.129,1.523,1.523,0,0,1,.587.14,1.015,1.015,0,0,1,.545,1.008v.006a.769.769,0,0,0,.041.265h0a.575.575,0,0,0,.2-.085c.335-.194.313-.541.288-.943v0c-.025-.422-.054-.9.412-1.169a3.875,3.875,0,0,1,.724-.279A2.7,2.7,0,0,0,5.924.12.123.123,0,0,1,6.046,0h.009a.131.131,0,0,1,.117.117c.02.331.066.743.115,1.179l.009.08C6.516,3.328,6.818,6,5.7,7.207A2.051,2.051,0,0,1,4.127,7.835ZM.781,4.139a.491.491,0,0,0-.287.081.913.913,0,0,0-.242.817C.3,5.763,1.463,6.085,1.475,6.088a.124.124,0,0,1,.079.063,2.612,2.612,0,0,0,.591.716,2.983,2.983,0,0,0,1.88.718H4.1a1.827,1.827,0,0,0,1.425-.547c1.037-1.122.742-3.73.527-5.635l-.011-.1c-.008-.068-.015-.132-.022-.2a3.056,3.056,0,0,1-2.36,1.955,3.672,3.672,0,0,0-.674.257c-.334.192-.313.539-.289.94v0c.026.423.055.9-.412,1.173a.709.709,0,0,1-.328.116.255.255,0,0,1-.122-.029c-.145-.078-.156-.26-.168-.471-.018-.3-.039-.647-.394-.8A1.28,1.28,0,0,0,.781,4.139Z" transform="translate(13.3 45.732)"/><path class="d" d="M0,6.629c0,.414,3.724,17.52,3.724,17.52l3.31-1.242S7.1.358,6.684.358,3.722,0,3.722,0Z" transform="translate(19.017 82.055)"/><path class="e" d="M3.757,24.45h0l-.03-.139C3.345,22.557,0,7.176,0,6.763V6.731L.016,6.7,3.779,0l.084.012L3.9.018h0c.761.105,2.566.351,2.9.351H6.86l.048.042c.406.408.39,17.425.375,22.631v.087L3.757,24.449ZM3.913.27.251,6.791C.345,7.524,2.7,18.444,3.939,24.116l3.095-1.161C7.057,14.53,7,1.627,6.735.616,6.254.59,4.6.365,3.913.27Z" transform="translate(18.893 81.92)"/><path class="c" d="M19.49,0H1.059A1.063,1.063,0,0,0,0,1.059v22.03a1.063,1.063,0,0,0,1.059,1.059H19.49a1.063,1.063,0,0,0,1.06-1.059V1.059A1.063,1.063,0,0,0,19.49,0" transform="translate(3.248 82.055)"/><path class="e" d="M19.614,24.4H1.184A1.185,1.185,0,0,1,0,23.213V1.184A1.185,1.185,0,0,1,1.184,0H19.614A1.185,1.185,0,0,1,20.8,1.184v22.03A1.185,1.185,0,0,1,19.614,24.4ZM1.184.249a.936.936,0,0,0-.935.935v22.03a.936.936,0,0,0,.935.935H19.614a.936.936,0,0,0,.936-.935V1.184a.936.936,0,0,0-.936-.935Z" transform="translate(3.124 81.931)"/><path class="c" d="M2.356,6.848,7.093,8.136S5.162,3.583,5.024,3.215A24.483,24.483,0,0,0,2.2.78,7.875,7.875,0,0,0,.961.165C.462-.008,0-.134,0,.26c0,.827,2.356,6.588,2.356,6.588" transform="translate(15.715 54.537)"/><path class="b" d="M5.236.006a.124.124,0,0,1-.009.248C.952.09.319,3.507.254,5.215c-.015.4,0,.709.008.858a.331.331,0,0,1-.013.164h0l-.007.013L.029,6.122l0-.007c.013-.023-.017.006-.018-.029-.008-.151-.023-.467-.008-.88C.075,3.416.74-.166,5.236.006" transform="translate(28.336 74.178)"/><path class="c" d="M.945.124C.919.121-.03.108,0,.218A.531.531,0,0,0,.565.495C.887.457,1.117.1.945.124" transform="translate(18.245 51.511)"/><path class="b" d="M.625.628A.629.629,0,0,1,.018.256L0,.193.046.125C.137.016.58,0,.836,0c.115,0,.207,0,.24,0H1.1a.159.159,0,0,1,.132.061.181.181,0,0,1,.013.191A.706.706,0,0,1,.716.623.879.879,0,0,1,.625.628ZM.933.25a5.886,5.886,0,0,0-.6.027.454.454,0,0,0,.294.1.534.534,0,0,0,.064,0A.475.475,0,0,0,.944.25Z" transform="translate(18.108 51.506)"/><path class="b" d="M6.625,2.714c-.508.8-3.965,1.422-5.36,1.718S-.672,6.169,1.22,7.007s11.02.25,11.155-.364S13.3,1.475,12.34.671C11.6.053,9.734-.06,8.383.025,6.268.159,7.132,1.917,6.625,2.714" transform="translate(93.303 95.6)"/><path class="c" d="M2,0c-.3.062-.573.117-.791.163C-.126.447-.645,1.831,1.171,2.635S11.93,2.616,12,2.285s.041-.193.071-.35C8.469,3.03,2.886,2.479,2.731,2.4S2.813,1.013,2,0" transform="translate(93.447 99.91)"/><path class="c" d="M.493.615,0,10.975C-.058,12.2,3.777,12.09,4.055,11.5A109.97,109.97,0,0,0,5.372,0C5.19-.036.493.615.493.615" transform="translate(101.109 84.932)"/><path class="b" d="M2.369,12.172a5.575,5.575,0,0,1-1.3-.14C.159,11.806-.014,11.4,0,11.09L.5.628.6.613C1.34.511,5.056,0,5.489,0l.033,0,.058.012.03.058a103.412,103.412,0,0,1-1.32,11.6C4.129,12.019,3.209,12.172,2.369,12.172ZM5.385.248C4.858.287,2.316.626.735.845L.248,11.1c-.018.384.467.587.877.689a5.207,5.207,0,0,0,1.241.137c.83,0,1.609-.165,1.7-.359a47.183,47.183,0,0,0,.772-5.5C5.135,3.394,5.38.782,5.385.248Z" transform="translate(100.985 84.811)"/><path class="b" d="M6.134,3.183c-.386.862-3.715,1.987-5.051,2.484s-1.661,2,.332,2.554S12.353,6.855,12.4,6.229s.158-5.247-.908-5.9c-.82-.5-2.685-.342-4.008-.06C5.407.708,6.52,2.321,6.134,3.183" transform="translate(106.668 98.598)"/><path class="c" d="M1.8,0c-.29.106-.55.2-.759.278C-.244.754-.555,2.2,1.358,2.729S12,1.137,12.023.8s.012-.2.019-.357c-3.407,1.61-9.01,1.881-9.174,1.828S2.746.885,1.8,0" transform="translate(106.809 104.014)"/><path class="c" d="M0,1.321,1.028,11.642c.122,1.225,3.9.551,4.088-.072A110.022,110.022,0,0,0,4.738,0C4.552-.011,0,1.321,0,1.321" transform="translate(112.591 87.585)"/><path class="b" d="M2.628,12.571c-.142,0-.276-.006-.4-.018-.929-.092-1.16-.473-1.191-.776L0,1.353l.1-.028C1.461.927,4.651,0,4.876,0h0l.06,0,.039.052a103.521,103.521,0,0,1,.391,11.673c-.065.215-.421.427-1,.595A6.616,6.616,0,0,1,2.628,12.571ZM4.78.264h0C4.261.38,1.8,1.088.268,1.535L1.286,11.752c.038.382.547.512.967.554.128.013.265.019.408.019a6.19,6.19,0,0,0,1.625-.232c.481-.137.805-.3.846-.437A47.139,47.139,0,0,0,5.091,6.1c-.1-2.691-.237-5.31-.311-5.84Z" transform="translate(112.457 87.462)"/><path class="c" d="M7.368,3.3,6.9,0S3.57.714,1.371,5.638s-1.565,13.456.577,14.431S7.368,3.3,7.368,3.3" transform="translate(100.273 39.743)"/><path class="b" d="M2.247,20.381a.543.543,0,0,1-.226-.05C.959,19.847.2,17.609.032,14.49a20.1,20.1,0,0,1,1.35-8.753A13.343,13.343,0,0,1,3.168,2.771a9.567,9.567,0,0,1,1.8-1.724A5.933,5.933,0,0,1,7,.028L7.131,0l.488,3.447,0,.021c-.079.429-.8,4.3-1.777,8.237-.569,2.3-1.113,4.181-1.618,5.585-.626,1.744-1.194,2.758-1.686,3.015A.637.637,0,0,1,2.247,20.381ZM6.924.307h0a6.736,6.736,0,0,0-2.18,1.242A11.472,11.472,0,0,0,1.609,5.838C-.589,10.759.051,19.162,2.124,20.1a.29.29,0,0,0,.124.028.373.373,0,0,0,.172-.048C4.057,19.231,6.372,8.825,7.367,3.442L6.924.307Z" transform="translate(100.148 39.594)"/><path class="d" d="M6.371,0c.19-.013,1.722-.043,2.179.965A8.152,8.152,0,0,1,9.033,4.96c-.2,1.566-4.169,3.4-6.739,2.32C.14,6.371-1.2,1.793,1.532.834A35.21,35.21,0,0,1,6.371,0" transform="translate(110.179 83.647)"/><path class="b" d="M7.455,0c1.568.152,4.459,6.566-2.1,7.422C-.921,8.241-.858,2.267,1.385.524,2.007.04,7.455,0,7.455,0" transform="translate(98.95 83.51)"/><path class="b" d="M1.786,0S1.081,5.365.677,9.613-.458,28.268.4,29.466s4.711,2.21,5.679-1.038S8.349,11.9,8.349,11.9L8.21.533Z" transform="translate(100.727 57.498)"/><path class="e" d="M3.829,16.661c.5-4.081.886-7.968.886-7.968L4.609,0,0,.077Z" transform="translate(104.362 60.709)"/><path class="d" d="M0,0S1,11.158,2.56,16.742a63.127,63.127,0,0,1,1.582,7.9c.126.862.222,1.561.306,2.037.471,2.66,6.455,2.3,6.412-.6-.06-4.153-.382-19.9-1.829-25.8Z" transform="translate(106.851 59.896)"/><path class="b" d="M10.75,8.968c.007.074,4.578,8.017.648,7.524-1.011-.127-7.641.389-9.258-1.131A7.514,7.514,0,0,1,1.086,6.294C2.189,4.584-.194,2.618,3,.573A3.375,3.375,0,0,1,5.784.124C10.152,1.309,10.4,5.469,10.75,8.968" transform="translate(103.644 27.626)"/><path class="c" d="M15.08,1.478s1.1,5.316-.266,6.9S11.8,9.934,6.689,9.266.447,8.186.092,6.322.5.239.866.02,15.08,1.478,15.08,1.478" transform="translate(101.505 52.149)"/><path class="b" d="M11.483,9.938A39.07,39.07,0,0,1,6.8,9.5C1.788,8.847.475,8.463.094,6.458-.262,4.589.478.294.927.026A.792.792,0,0,1,1.2,0C2.963,0,12.375,1.124,15.218,1.469l.089.01.018.088c.045.219,1.1,5.392-.293,7A4.092,4.092,0,0,1,11.483,9.938ZM1.208.235a.876.876,0,0,0-.169.011A8.618,8.618,0,0,0,.453,2.718,12.686,12.686,0,0,0,.338,6.411c.331,1.741,1.3,2.166,6.491,2.845a39.679,39.679,0,0,0,4.666.429,3.819,3.819,0,0,0,3.349-1.279c.512-.592.725-1.809.633-3.618A24.088,24.088,0,0,0,15.1,1.7C10.9,1.2,2.59.235,1.208.235Z" transform="translate(101.381 52.036)"/><path class="c" d="M9.117,1.745C10.454,1.3,7.375.29,6.863.029S-.091,1.3,0,2.571,2.65,7.864,5.1,8.539,11.8,4.314,11.8,4.314Z" transform="translate(91.159 43.55)"/><path class="b" d="M5.721,8.848a2.009,2.009,0,0,1-.527-.068C2.7,8.094.1,3.993,0,2.7c-.02-.279.186-.558.63-.853A12.657,12.657,0,0,1,3.793.586,13.992,13.992,0,0,1,6.769,0a.669.669,0,0,1,.274.039c.094.048.289.126.514.217,1.179.474,2.154.9,2.141,1.337a.378.378,0,0,1-.235.314l2.628,2.52-.077.089C11.863,4.692,8.241,8.848,5.721,8.848ZM6.772.24A17.385,17.385,0,0,0,.739,2.076c-.333.226-.5.437-.49.608.09,1.244,2.607,5.2,5.01,5.857a1.766,1.766,0,0,0,.472.061c2.178,0,5.395-3.465,6.017-4.16L9.008,1.813,9.2,1.748c.183-.061.248-.125.248-.162.009-.3-1.437-.878-1.981-1.1l0,0C7.224.39,7.034.313,6.931.261A.424.424,0,0,0,6.772.24Z" transform="translate(91.034 43.429)"/><path class="c" d="M4.82,4.167S2.958,5.316,1.558,4.9-.246,2.282.137,1.162,1.092,0,1.092,0,4.488,1.79,4.3,1.6A15.968,15.968,0,0,0,4.82,4.167" transform="translate(107.042 53.063)"/><path class="b" d="M2.359,5.24a2.474,2.474,0,0,1-.712-.1A2.086,2.086,0,0,1,.417,4.03,3.924,3.924,0,0,1,.144,1.246C.554.05,1.2,0,1.208,0l.036,0,.031.017C2.335.576,4,1.435,4.38,1.594l.052-.03.086.076a.131.131,0,0,1,.017.174l-.01.013c.031.321.3,1.493.541,2.434l.022.088L5.01,4.4A5.831,5.831,0,0,1,2.359,5.24ZM1.2.257C1.081.289.675.464.38,1.328A3.636,3.636,0,0,0,.638,3.916,1.88,1.88,0,0,0,1.719,4.9a2.215,2.215,0,0,0,.635.087A5.619,5.619,0,0,0,4.8,4.233a17.375,17.375,0,0,1-.519-2.421C3.953,1.691,3.146,1.284,1.2.257Z" transform="translate(106.917 52.938)"/><path class="c" d="M30.271,14.592,0,8.51C.17,6.726.8,4.273,1.76,0L32.032,6.082c2.166,3.774.143,7.962-1.76,8.51" transform="translate(96.261 43.579)"/><path class="b" d="M30.411,14.866h0l-.029-.006L0,8.755l.01-.111A54.547,54.547,0,0,1,1.223,2.533c.175-.762.36-1.574.551-2.415L1.8,0l.119.023L32.246,6.117l.028.049a7.054,7.054,0,0,1,.443,6.172,4.121,4.121,0,0,1-2.277,2.519l-.03.008ZM1.989.291h0c-.194.859-.377,1.656-.524,2.3a56.763,56.763,0,0,0-1.2,5.968L30.4,14.609a3.919,3.919,0,0,0,2.087-2.364,6.806,6.806,0,0,0-.4-5.906L1.989.291Z" transform="translate(96.127 43.433)"/><path class="c" d="M7.264.562A21.625,21.625,0,0,1,13.2,4.9c2.039,2.426,3.8,8.6,1.542,12.159a7.141,7.141,0,0,1-5.773,3.488,4.837,4.837,0,0,1-1.749-3.707s5.281-3.558.761-8.817L.062,6.478c0-.017-.858-3.176,3.923-5.34S7.264.562,7.264.562" transform="translate(103.325 38.18)"/><path class="b" d="M9.1,20.795H9.045l-.032-.025a5.236,5.236,0,0,1-.969-1.07,4.386,4.386,0,0,1-.827-2.742l0-.062.051-.035A6.664,6.664,0,0,0,8.405,15.81a5.575,5.575,0,0,0,1.36-2.836A6.035,6.035,0,0,0,8.035,8.26L.085,6.711l-.02-.076C.03,6.5-.737,3.323,4.057,1.152A11.3,11.3,0,0,1,7.362,0c.232,0,.289.08.327.133.112.158,0,.366-.106.514a21.617,21.617,0,0,1,5.831,4.3c2.124,2.528,3.826,8.725,1.552,12.306a7.933,7.933,0,0,1-1.822,2.025A7.364,7.364,0,0,1,11.28,20.33,6.513,6.513,0,0,1,9.1,20.795ZM7.346.244A10.443,10.443,0,0,0,4.16,1.378C-.087,3.3.19,5.981.289,6.5L8.167,8.033l.028.033a6.287,6.287,0,0,1,1.815,4.944,6.371,6.371,0,0,1-2.549,4.02,4.137,4.137,0,0,0,.721,2.421,5.2,5.2,0,0,0,.95,1.1,7.11,7.11,0,0,0,5.624-3.429c1.467-2.311,1.6-8.282-1.533-12.014A21.6,21.6,0,0,0,7.333.8L7.183.725,7.3.6C7.419.474,7.5.316,7.486.277,7.48.269,7.452.244,7.346.244Z" transform="translate(103.201 38.053)"/><path class="c" d="M3.664,0A12.717,12.717,0,0,0,3.67,4a2.061,2.061,0,0,1-1.736,1.25,1.589,1.589,0,0,1-1.733-1A6.415,6.415,0,0,0,0,.842Z" transform="translate(107.251 35.924)"/><path class="b" d="M1.981,5.535A1.91,1.91,0,0,1,.561,4.97.978.978,0,0,1,.25,4.4c0-.015.007-.049.016-.1a5.684,5.684,0,0,0-.207-3.25L0,.914,3.975,0,3.96.17a13.417,13.417,0,0,0,0,3.95l.014.042L3.959,4.2A2.159,2.159,0,0,1,2.113,5.532C2.067,5.534,2.022,5.535,1.981,5.535ZM3.7.318.342,1.09A6.12,6.12,0,0,1,.51,4.344L.5,4.381C.5,4.4.5,4.415.5,4.423a1.527,1.527,0,0,0,1.51.863l.092,0A1.916,1.916,0,0,0,3.712,4.15,13.782,13.782,0,0,1,3.7.318Z" transform="translate(107.078 35.764)"/><path class="b" d="M3.373,0c-.023.331-.039.632-.05.9C2.753,1.861,1.348,3,.5,2.68a.791.791,0,0,1-.4-.317A5.91,5.91,0,0,0,0,1.048,7.382,7.382,0,0,1,1.207.36Z" transform="translate(107.496 36.522)"/><path class="c" d="M.264,6.106C1.682,9.861,6.57,5.794,5.94,5.812,2.506,5.91,4.813,1.047,1.864,0a6.3,6.3,0,0,0-1.6,6.106" transform="translate(105.543 30.089)"/><path class="b" d="M2.482,7.966A2.26,2.26,0,0,1,.271,6.292,6.48,6.48,0,0,1,1.9.053L1.955,0l.072.026c1.464.52,1.7,1.952,1.9,3.215v.007c.225,1.387.42,2.585,2.025,2.585l.1,0h.008a.164.164,0,0,1,.175.139c.051.364-1.517,1.529-2.885,1.879A3.563,3.563,0,0,1,2.482,7.966ZM2.017.287h0A6.415,6.415,0,0,0,.489,3.017,5.179,5.179,0,0,0,.5,6.205,2.035,2.035,0,0,0,2.489,7.717l.1,0A5.749,5.749,0,0,0,5.932,6.08c-1.8-.016-2.025-1.431-2.247-2.8-.2-1.23-.407-2.5-1.667-2.993Z" transform="translate(105.421 29.946)"/><path class="c" d="M1.659,0C1.614,0-.053-.025,0,.169A.934.934,0,0,0,.993.656c.565-.067.969-.7.667-.652" transform="translate(106.532 35.578)"/><path class="b" d="M.976.914A1.016,1.016,0,0,1,.006.328.159.159,0,0,1,.039.182,3.187,3.187,0,0,1,1.415,0c.192,0,.335,0,.361,0H1.8a.209.209,0,0,1,.174.07.224.224,0,0,1,.012.24A1.134,1.134,0,0,1,1.131.9,1.244,1.244,0,0,1,.976.914ZM1.514.249A7.5,7.5,0,0,0,.277.327a.861.861,0,0,0,.7.339A1.024,1.024,0,0,0,1.1.658.93.93,0,0,0,1.739.252C1.69.25,1.615.249,1.514.249Z" transform="translate(106.408 35.453)"/><path class="c" d="M4.855,8.4c.207-.279,2.107-3.824,2.107-3.824S3.946-.5,2.4.039C1.348.405.076,3.576,0,5.467c0,.038.07.119.072.155.068.765,1.1.854,1.1.854Z" transform="translate(58.638 20.506)"/><path class="e" d="M5.016,8.687h0L1.257,6.722C1.072,6.7.143,6.553.073,5.758c0,0,0,0,0,0h0S.063,5.752.057,5.742A.278.278,0,0,1,0,5.588C.079,3.628,1.379.431,2.488.047A.845.845,0,0,1,2.77,0c.673,0,1.586.725,2.713,2.156a26.566,26.566,0,0,1,1.71,2.483l.036.061L7.2,4.761l-.013.024c-.446.831-1.916,3.562-2.1,3.816l-.063.086ZM.252,5.591s.012.01.018.021a.3.3,0,0,1,.052.123c.057.642.945.737.983.741l.047.014L4.936,8.363c.292-.481,1.4-2.525,2.006-3.658C6.017,3.165,3.954.25,2.775.25A.635.635,0,0,0,2.57.283C1.559.633.324,3.75.249,5.6.25,5.592.251,5.591.252,5.591Z" transform="translate(58.514 20.381)"/><path class="b" d="M.769,3.458,7.8,2.942A.6.6,0,0,0,8.356,2.3L8.227.553A.6.6,0,0,0,7.588,0L.553.518A.6.6,0,0,0,0,1.157L.13,2.907a.6.6,0,0,0,.639.551" transform="translate(76.606 7.006)"/><path class="c" d="M1.761,6.31a3.492,3.492,0,0,0,.168-1.9C1.768,3.94.468,4.532.016,3.637c-.184-.363,1.232-.48,1.227-.564A4.161,4.161,0,0,0,.854,1.119C.466.64-.013.808.077.407S.828-.072,1.489.058,2.317.5,2.317.5A1.374,1.374,0,0,1,3.392.42C3.923.64,3.936.7,3.936.7s.738-.064,1,.3c.812,1.137.568,4.192.259,5.463Z" transform="translate(78.327 6.714)"/><path class="b" d="M5.413,6.719h0L1.722,6.553,1.767,6.4a3.5,3.5,0,0,0,.17-1.828C1.9,4.458,1.666,4.45,1.4,4.44H1.39A1.384,1.384,0,0,1,.03,3.818a.249.249,0,0,1-.005-.226c.1-.214.493-.312.995-.419l.063-.014c.057-.012.116-.025.158-.036V3.109c0-.006,0-.012,0-.019A3.766,3.766,0,0,0,.882,1.322,1.118,1.118,0,0,0,.41.993L.4.991C.227.916.008.823.08.5c.1-.439.65-.5.97-.5a3.1,3.1,0,0,1,.587.06A1.485,1.485,0,0,1,2.48.468,1.609,1.609,0,0,1,3.092.34a1.23,1.23,0,0,1,.472.091A2.788,2.788,0,0,1,4.108.7h.079a1.22,1.22,0,0,1,.972.354c.849,1.19.6,4.261.279,5.564l-.024.1ZM1.052.25C.633.25.367.363.323.559.3.669.308.68.5.762a1.349,1.349,0,0,1,.575.4A3.837,3.837,0,0,1,1.488,3.08v0l0,.109c.008.132-.1.155-.419.224-.517.109-.8.207-.824.284.233.46.72.476,1.15.491h0c.346.013.673.024.768.3a3.475,3.475,0,0,1-.123,1.827l3.17.142A12.789,12.789,0,0,0,5.485,3.7a4.933,4.933,0,0,0-.529-2.5c-.166-.232-.631-.25-.769-.25-.053,0-.092,0-.116,0L3.96.963,3.946.892A2.783,2.783,0,0,0,3.468.66.96.96,0,0,0,3.094.588,1.387,1.387,0,0,0,2.5.731l-.11.059L2.332.681A1.115,1.115,0,0,0,1.59.3,2.859,2.859,0,0,0,1.052.25Z" transform="translate(78.203 6.588)"/><path class="b" d="M.611.441C.293,1.149-.357,5.8.25,6.277c.857.679,4.572.892,5.912-.033.762-.9-.066-5.7-.526-5.985C5.259.023.923-.254.611.441" transform="translate(74.197 99.649)"/><path class="c" d="M0,0C.005.133.143,4.358.182,5.575c.027.822,4.125.413,4.141-.1L4.472.359Z" transform="translate(75.187 94.909)"/><path class="b" d="M1.858,6.3H1.842C1.1,6.3.2,6.2.188,5.715l-.03-.927C.091,2.723.01.241.006.14L0,0,4.73.381,4.577,5.61C4.562,6.133,2.578,6.3,1.858,6.3ZM.259.27c.021.618.1,3.02.147,4.509l.031.927c0,.118.214.226.563.287a5.062,5.062,0,0,0,.87.067A5.036,5.036,0,0,0,4.33,5.6L4.475.608.259.27Z" transform="translate(75.057 94.774)"/><path class="c" d="M.01.055A7.238,7.238,0,0,0,2.767,0L2.8.76A4.889,4.889,0,0,1,0,.824Z" transform="translate(76.025 104.9)"/><path class="b" d="M.6.441C.3,1.117-.312,5.784.194,6.255c.779.726,4.6.928,5.957-.012.763-.9-.065-5.7-.525-5.985C5.248.023.913-.254.6.441" transform="translate(64.608 99.649)"/><path class="c" d="M0,0C.006.133.143,4.358.182,5.575c.027.822,4.125.413,4.141-.1L4.472.359Z" transform="translate(65.587 94.909)"/><path class="b" d="M1.858,6.3H1.842C1.1,6.3.2,6.2.188,5.715L.145,4.378v-.01C.1,2.926.01.242.006.14L0,0,4.73.381,4.577,5.61C4.562,6.133,2.578,6.3,1.858,6.3ZM.259.27C.277.8.34,2.732.393,4.37L.436,5.706c0,.118.214.225.563.287a5.065,5.065,0,0,0,.875.068A5.011,5.011,0,0,0,4.33,5.6L4.475.608.259.27Z" transform="translate(65.457 94.774)"/><path class="c" d="M3.01,0C3.9,2.341,8.651,8.062,8.651,8.062c.5,13.847,1.063,27.349,1.155,41.233.013,2.2-6.967,1.468-7.05.156C2.5,45.467.775,18.47.446,14.046.09,9.268,0,5.909,0,5.909Z" transform="translate(71.245 45.753)"/><path class="b" d="M6.891,51.127a10.4,10.4,0,0,1-2.7-.355c-.636-.182-1.4-.505-1.432-1.007-.019-.3-1.96-30.721-2.31-35.4C.091,9.59,0,6.243,0,6.217V6.186l.014-.029L3.151,0l.1.262c.866,2.272,5.427,7.793,5.621,8.027l.027.032,0,.042c.071,1.974.143,3.954.218,5.979l.006.155c.439,11.968.853,23.272.931,35.1.005.9-1.039,1.459-2.864,1.522C7.08,51.126,6.982,51.127,6.891,51.127ZM3.123.6.25,6.242c.01.357.111,3.616.445,8.1C1.041,19,2.925,48.5,3,49.749c.017.276.467.562,1.235.784a9.892,9.892,0,0,0,2.628.346c.106,0,.211,0,.314-.005,1.648-.058,2.629-.533,2.624-1.272-.078-11.856-.494-23.188-.934-35.186l0-.066-.023-.619c-.064-1.739-.13-3.538-.193-5.316C7.909,7.514,4.147,2.9,3.123.6Z" transform="translate(71.121 45.447)"/><path class="d" d="M4.223,0S-.039,16.869,0,16.275s.219-15,.6-14.98A33.917,33.917,0,0,0,4.223,0" transform="translate(73.109 53.764)"/><path class="c" d="M6.8,0C5.906,2.341,1.156,8.062,1.156,8.062.656,22,.085,35.582,0,49.559c-.009,1.51,6.941,1.638,7.051-.107.255-3.983,1.981-30.981,2.31-35.4.356-4.779.446-8.138.446-8.138Z" transform="translate(64.392 46.422)"/><path class="b" d="M3.629,51.156c-.117,0-.241,0-.4-.006C1.735,51.1,0,50.729,0,49.864.074,37.889.494,26.45.938,14.34l0-.046c.07-1.894.144-3.912.217-5.93l0-.042.027-.032.006-.007c.487-.59,4.778-5.826,5.615-8.021L6.905,0l3.152,6.186v.031c0,.033-.093,3.4-.447,8.143C9.3,18.489,7.764,42.5,7.3,49.766c-.028.447-.438.813-1.185,1.059A8.3,8.3,0,0,1,3.629,51.156ZM6.933.6C5.881,2.965,1.858,7.865,1.4,8.415c-.072,2.019-.146,4.016-.214,5.888C.743,26.412.322,37.85.248,49.865c0,.539,1.253.975,2.987,1.036.124,0,.25.006.375.006,1.622,0,3.391-.362,3.441-1.158.741-11.592,2.027-31.606,2.31-35.406.32-4.288.427-7.5.446-8.1L6.933.6Z" transform="translate(64.267 46.116)"/><path class="c" d="M0,.9,6.8,0l3.7,28.076-6.8.9Z" transform="translate(58.697 25.122)"/><path class="b" d="M3.735,29.252,0,.929,7.046,0l3.735,28.322-7.046.93ZM6.833.279.279,1.143l3.67,27.831,6.553-.864Z" transform="translate(58.557 24.982)"/><path class="c" d="M1.2.22S.32-.26.079.2C-.188.7.273,1.739.721,2.148c.4.37.793.146.757.037C1.393,1.933,1.2.22,1.2.22" transform="translate(67.065 25.129)"/><path class="b" d="M1.306,2.6a.8.8,0,0,1-.545-.237C.29,1.935-.21.839.092.264A.473.473,0,0,1,.383.028.7.7,0,0,1,.588,0a1.947,1.947,0,0,1,.8.236l.057.031.008.065c.076.683.212,1.763.271,1.939a.222.222,0,0,1-.117.252A.547.547,0,0,1,1.306,2.6ZM.585.249A.441.441,0,0,0,.454.266.222.222,0,0,0,.313.381c-.239.454.208,1.428.616,1.8a.575.575,0,0,0,.388.172H1.35a.263.263,0,0,0,.121-.041C1.387,1.981,1.238.682,1.208.425A1.705,1.705,0,0,0,.585.249Z" transform="translate(66.942 25.004)"/><path class="c" d="M.034.67s.605-.946,1-.591c.34.31.065,1.292-.191,1.7C.478,2.353,0,2.308,0,2.163,0,1.892.034.67.034.67" transform="translate(74.177 24.272)"/><path class="b" d="M.295,2.508a.43.43,0,0,1-.115-.015A.221.221,0,0,1,0,2.291C0,2.023.031.865.034.792V.758L.054.729C.1.66.494.059.9.006A.393.393,0,0,1,.963,0a.4.4,0,0,1,.274.114c.41.372.1,1.423-.17,1.858A.991.991,0,0,1,.295,2.508ZM.962.249a.172.172,0,0,0-.032,0C.709.282.419.632.282.835.277,1,.248,1.957.249,2.253a.187.187,0,0,0,.043,0A.333.333,0,0,0,.361,2.25a.82.82,0,0,0,.5-.411C1.118,1.424,1.326.531,1.07.3A.154.154,0,0,0,.962.249Z" transform="translate(74.052 24.147)"/><path class="c" d="M0,.325c.573.642.488,4.4.127,5.85S.551,7,.551,7l3.459-.734A17.63,17.63,0,0,1,3.743,1.2C4.085-.823,0,.325,0,.325" transform="translate(69.499 26.27)"/><path class="b" d="M.426,7.337a.285.285,0,0,1-.154-.043c-.187-.121-.2-.453-.058-1.043C.568,4.83.639,1.087.11.5L0,.373.159.328A9.391,9.391,0,0,1,2.366,0,2.089,2.089,0,0,1,3.76.371a.97.97,0,0,1,.272.943A17.59,17.59,0,0,0,4.3,6.346l.02.1L.781,7.2A.683.683,0,0,1,.426,7.337ZM2.382.2A9.188,9.188,0,0,0,.354.49,7.046,7.046,0,0,1,.7,3.262,15.232,15.232,0,0,1,.414,6.3c-.171.687-.055.8-.03.82a.078.078,0,0,0,.042.01.516.516,0,0,0,.248-.11L.716,7l3.361-.714a17.409,17.409,0,0,1-.248-5.006A.767.767,0,0,0,3.622.525,1.866,1.866,0,0,0,2.382.2Z" transform="translate(69.312 26.168)"/><path class="b" d="M.778,4.23C.347.053,4.068,1.974,5.12.606c1.409-1.835,2.618.8,2.407,3.87-.11,1.6.113,4.093-1.7,4.587a6.8,6.8,0,0,1-3.62.319C.009,8.55-.7,4.488.778,4.23" transform="translate(67.44 18.986)"/><path class="d" d="M.353,17.545C.353,17.293,0,12.61,0,12.61A64.5,64.5,0,0,0,1.864,4.2a36.106,36.106,0,0,1,.2-4.01C2.689.069,5.05-.305,6.4.521c0,0,.151,9.821-2.317,14.706Z" transform="translate(77.585 12.46)"/><path class="d" d="M5.634,0A14.6,14.6,0,0,0,1.051,3.727C-.611,5.994-.158,11.08,1.4,10.879S2.46,6.9,8.05,4.737,5.634,0,5.634,0" transform="translate(58.958 35.191)"/><path class="c" d="M14.834,0a8.8,8.8,0,0,1-3.957,4.593C8.909,5.646-.626,9.723.033,12.444a34.513,34.513,0,0,0,1.446,4.707c.245.644,2.544-1.661,3.08-2.041,0,0-1.158,9.52-1.711,11.836s-.554,2.317.252,2.719,8.915,3.022,14.152-.7c0,0,.5.2.152-2.77S15.488,14.1,16.093,11.685s3.929-8.663,3.929-8.663S19.216.352,14.834,0" transform="translate(62.449 24.818)"/><path class="b" d="M10.287,31.183a20.347,20.347,0,0,1-7.12-1.275c-.894-.446-.872-.537-.317-2.859.5-2.074,1.479-9.96,1.671-11.52-.119.1-.262.228-.414.362-1.141,1-1.932,1.626-2.349,1.626a.336.336,0,0,1-.07-.007.286.286,0,0,1-.2-.183A34.3,34.3,0,0,1,.054,12.679v0L.036,12.6c-.581-2.4,6.005-5.6,9.544-7.314.612-.3,1.068-.518,1.364-.676a8.741,8.741,0,0,0,3.9-4.52L14.871,0l.1.008c4.423.355,5.262,3,5.3,3.109l.015.049-.025.045-.005.01c-.341.644-3.346,6.36-3.912,8.624-.469,1.876.385,7.854.95,11.809l.023.159c.143,1.011.267,1.883.34,2.494.2,1.686.161,2.649-.117,2.863a.227.227,0,0,1-.12.049A12.143,12.143,0,0,1,10.287,31.183ZM4.84,14.976h0l-.034.279,0,.018c-.12.981-1.189,9.646-1.712,11.833-.531,2.22-.531,2.22.187,2.579a20.078,20.078,0,0,0,7,1.255,11.875,11.875,0,0,0,7.02-1.95l.055-.04.032.013c.048-.051.274-.419.012-2.628-.074-.632-.205-1.551-.357-2.614l0-.033c-.567-3.975-1.425-9.983-.944-11.9.584-2.336,3.575-8,3.914-8.642A3.779,3.779,0,0,0,18.918,1.7,6.78,6.78,0,0,0,15.044.264,9.057,9.057,0,0,1,11.06,4.833c-.309.165-.8.4-1.372.681C6.713,6.957-.257,10.337.277,12.546l.017.07,0,.008A34.082,34.082,0,0,0,1.72,17.237c.009.023.018.027.029.031a.155.155,0,0,0,.041.005c.371,0,1.511-1,2.123-1.542l.031-.028.024-.021c.285-.251.51-.449.643-.543l.228-.162Z" transform="translate(62.325 24.687)"/><path class="c" d="M.009.055A7.238,7.238,0,0,0,2.766,0L2.8.76A4.889,4.889,0,0,1,0,.824Z" transform="translate(66.425 104.9)"/><path class="d" d="M.77,1.539A.77.77,0,1,0,0,.77a.771.771,0,0,0,.77.769" transform="translate(20.337 4.554)"/><path class="d" d="M.77,1.539A.77.77,0,1,0,0,.769a.771.771,0,0,0,.77.77" transform="translate(23.319 4.535)"/><path class="d" d="M.77,1.539A.77.77,0,1,0,0,.769a.771.771,0,0,0,.77.77" transform="translate(26.3 4.516)"/><path class="d" d="M1.191.6V8.077a.6.6,0,0,1-.6.6h0a.6.6,0,0,1-.6-.6V.6A.6.6,0,0,1,.6,0h0a.6.6,0,0,1,.6.6" transform="translate(102.245 20.273)"/><path class="a" d="M3.927.047h0a1.4,1.4,0,0,1,.989,1.712l-2.167,8.1a1.4,1.4,0,0,1-2.7-.722l2.168-8.1A1.4,1.4,0,0,1,3.927.047" transform="translate(129.462 87.472)"/><path class="b" d="M1.522,11.148A1.525,1.525,0,0,1,.052,9.232l2.168-8.1A1.527,1.527,0,0,1,3.69,0a1.53,1.53,0,0,1,.393.052A1.525,1.525,0,0,1,5.161,1.916l-2.168,8.1A1.525,1.525,0,0,1,1.522,11.148ZM3.691.249a1.274,1.274,0,0,0-.637.172,1.261,1.261,0,0,0-.594.773L.292,9.3a1.273,1.273,0,0,0,1.229,1.6,1.278,1.278,0,0,0,1.232-.945l2.167-8.1a1.275,1.275,0,0,0-.9-1.56A1.253,1.253,0,0,0,3.691.249Z" transform="translate(129.338 87.347)"/><path class="c" d="M2.259,0h0a.078.078,0,0,1,.055.1L.153,8.177A.078.078,0,0,1,0,8.137L2.163.058A.078.078,0,0,1,2.259,0" transform="translate(130.651 89.308)"/><path class="c" d="M6.687.221h0a1.4,1.4,0,0,1,.42,1.932L2.573,9.21A1.4,1.4,0,1,1,.221,7.7L4.755.641A1.4,1.4,0,0,1,6.687.221" transform="translate(128.528 90.095)"/><path class="b" d="M1.519,10.1A1.522,1.522,0,0,1,.241,7.756L4.776.7A1.514,1.514,0,0,1,5.734.035,1.553,1.553,0,0,1,6.061,0,1.522,1.522,0,0,1,7.337,2.344L2.8,9.4A1.519,1.519,0,0,1,1.519,10.1ZM6.062.248a1.292,1.292,0,0,0-.276.031,1.263,1.263,0,0,0-.8.555L.45,7.891A1.274,1.274,0,0,0,2.594,9.267L7.128,2.21A1.273,1.273,0,0,0,6.062.248Z" transform="translate(128.403 89.97)"/><path class="b" d="M4.64.012h0A.078.078,0,0,1,4.664.12L.143,7.156a.078.078,0,0,1-.131-.084L4.533.036A.078.078,0,0,1,4.64.012" transform="translate(129.573 91.863)"/><path class="a" d="M.895.093h0A1.4,1.4,0,0,0,.093,1.9L3.111,9.727A1.4,1.4,0,1,0,5.72,8.721L2.7.894A1.4,1.4,0,0,0,.895.093" transform="translate(122.635 88.743)"/><path class="b" d="M4.543,10.871A1.526,1.526,0,0,1,3.12,9.9L.1,2.07A1.525,1.525,0,0,1,.975.1,1.506,1.506,0,0,1,1.521,0,1.533,1.533,0,0,1,2.942.975L5.961,8.8a1.521,1.521,0,0,1-1.418,2.069ZM1.519.249h0A1.275,1.275,0,0,0,.334,1.981L3.351,9.809a1.274,1.274,0,0,0,2.377-.918L2.711,1.064A1.285,1.285,0,0,0,1.519.25Z" transform="translate(122.51 88.618)"/><path class="c" d="M.05.005h0a.077.077,0,0,0-.044.1l3.008,7.8a.078.078,0,1,0,.145-.056L.151.05A.078.078,0,0,0,.05.005" transform="translate(124.147 90.561)"/><path class="c" d="M.52.308h0A1.4,1.4,0,0,0,.308,2.273l5.26,6.534A1.4,1.4,0,0,0,7.746,7.054L2.486.52A1.4,1.4,0,0,0,.52.308" transform="translate(121.491 91.503)"/><path class="b" d="M6.786,9.577a1.328,1.328,0,0,1-.168-.01A1.509,1.509,0,0,1,5.6,9.01L.335,2.476A1.522,1.522,0,0,1,2.707.567L7.967,7.1A1.521,1.521,0,0,1,6.786,9.577ZM1.52.248a1.286,1.286,0,0,0-.8.28A1.278,1.278,0,0,0,.528,2.32L5.789,8.854a1.263,1.263,0,0,0,.856.466,1.232,1.232,0,0,0,.149.009,1.261,1.261,0,0,0,.786-.28,1.277,1.277,0,0,0,.193-1.792L2.513.722A1.269,1.269,0,0,0,1.52.248Z" transform="translate(121.367 91.379)"/><path class="b" d="M.029.017h0a.078.078,0,0,0-.012.11L5.261,6.641a.078.078,0,0,0,.121-.1L.138.029A.078.078,0,0,0,.029.017" transform="translate(123.145 93.238)"/><path class="c" d="M1.016.053h0A1.4,1.4,0,0,0,.053,1.78l2.29,8.07a1.4,1.4,0,1,0,2.69-.763L2.743,1.016A1.4,1.4,0,0,0,1.016.053" transform="translate(125.168 90.88)"/><path class="b" d="M3.813,11.116a1.529,1.529,0,0,1-1.465-1.107L.058,1.939A1.519,1.519,0,0,1,2.263.2a1.506,1.506,0,0,1,.723.911l2.291,8.07a1.526,1.526,0,0,1-1.048,1.88A1.534,1.534,0,0,1,3.813,11.116ZM1.522.249A1.24,1.24,0,0,0,1.175.3,1.278,1.278,0,0,0,.3,1.871l2.291,8.07a1.27,1.27,0,0,0,1.574.878,1.278,1.278,0,0,0,.878-1.573L2.748,1.175A1.264,1.264,0,0,0,2.142.412,1.277,1.277,0,0,0,1.522.249Z" transform="translate(125.043 90.755)"/><path class="b" d="M.056,0h0A.077.077,0,0,0,0,.1L2.286,8.144a.078.078,0,0,0,.1.053.077.077,0,0,0,.053-.1L.153.056A.078.078,0,0,0,.056,0" transform="translate(126.634 92.714)"/><path class="c" d="M1.4,0h0A1.4,1.4,0,0,1,2.8,1.4V9.787a1.4,1.4,0,0,1-2.8,0V1.4A1.4,1.4,0,0,1,1.4,0" transform="translate(128.569 88.826)"/><path class="b" d="M1.522,11.434A1.524,1.524,0,0,1,0,9.911V1.523a1.522,1.522,0,1,1,3.045,0V9.911A1.524,1.524,0,0,1,1.522,11.434Zm0-11.185A1.275,1.275,0,0,0,.248,1.523V9.911a1.274,1.274,0,0,0,2.548,0V1.523A1.275,1.275,0,0,0,1.522.249Z" transform="translate(128.444 88.701)"/><path class="b" d="M.422,0h0A.078.078,0,0,1,.5.077V8.44a.078.078,0,0,1-.156,0V.077A.078.078,0,0,1,.422,0" transform="translate(129.545 90.68)"/><path class="b" d="M0,0H9.632L8.44,7.477h-7.2Z" transform="translate(123.597 98.15)"/></g></g></svg>