<svg xmlns="http://www.w3.org/2000/svg" width="121.664" height="132.109" viewBox="0 0 121.664 132.109"><defs><style>.a{fill:#eeeeef;}.b{fill:#1559a7;}.c{fill:#fff;}.d{fill:#00458c;}.e{fill:#3a77bb;}.f{fill:#b0d1ee;}</style></defs><g transform="translate(0 -0.001)"><path class="a" d="M0,0Z" transform="translate(0 0.001)"/><path class="b" d="M18.908,59.128h0L15.419,48.345H15.2v-.683L0,.7,1.752,0,7.659,18.3H20.43L14.734.7,16.485,0,35.54,59.042l-1.9.087-3.49-10.783h-12.8l3.452,10.7-1.9.087ZM14.271,38.791h0l2.638,8.174H29.7L27.06,38.791H14.271Zm-3.084-9.554,2.638,8.174H26.613l-2.645-8.174H11.188ZM8.1,19.683l2.638,8.174h12.78l-2.645-8.174H8.1Z" transform="translate(48.179 72.272)"/><g transform="translate(16.732 8.368)"><path class="c" d="M17.342,7.58c.673-.186,2.292-1.112,1.682-1.223s-3.687-.169-3.687-.169-5.2.851-11.62-3.3A6.038,6.038,0,0,0,2.772.96c-.65-.815-.421.488-.368.93S.443-.292.186.027.193,1.091.193,1.091A1.833,1.833,0,0,0,.109,2.469c.287.616.6.738.6.738s-.54.235.29,1.148c.2.219.7.438,1.331.9,2,1.472,6.263,3.889,14.175,3.992Z" transform="translate(65.777 60.34)"/><path class="b" d="M16.689,9.483h-.073C10.767,9.405,5.843,8.017,2.373,5.467c-.3-.224-.592-.4-.782-.514l-.009-.005a2.658,2.658,0,0,1-.557-.4C.649,4.136.486,3.789.544,3.519a.454.454,0,0,1,.084-.181,1.878,1.878,0,0,1-.508-.7A1.892,1.892,0,0,1,.184,1.2C.125,1.016-.047.39.211.07A.192.192,0,0,1,.355,0H.363c.254,0,.706.461,1.419,1.221.2.211.444.473.6.616-.09-.692-.1-1.036.107-1.124A.2.2,0,0,1,2.567.7c.149,0,.3.164.413.307a6,6,0,0,1,.954,1.928A21.845,21.845,0,0,0,9.774,5.6a16.374,16.374,0,0,0,4.433.675,7.836,7.836,0,0,0,1.227-.085c.237,0,3.13.062,3.727.17.193.034.227.145.23.208.018.38-1.309,1.054-1.852,1.226l-.851,1.689ZM.379.235h0C.224.464.355.986.419,1.168l.016.045-.021.044A1.724,1.724,0,0,0,.33,2.537a1.366,1.366,0,0,0,.535.68l.248.107-.246.108a.2.2,0,0,0-.1.142c-.021.108.007.359.427.821a2.69,2.69,0,0,0,.505.354l.01.006.017.01c.217.133.487.3.782.515C5.927,7.79,10.781,9.162,16.546,9.248l.831-1.65.05-.013A4.587,4.587,0,0,0,19.152,6.6l-.008,0-.024-.006c-.6-.107-3.642-.167-3.67-.167a8.583,8.583,0,0,1-1.185.067A19.548,19.548,0,0,1,3.771,3.1L3.733,3.08l-.011-.044A6.007,6.007,0,0,0,2.8,1.149C2.633.942,2.568.931,2.566.931a2.782,2.782,0,0,0,.053.917l.018.144a.15.15,0,0,1-.079.168.135.135,0,0,1-.059.014c-.123,0-.3-.169-.886-.793L1.6,1.371A6.587,6.587,0,0,0,.379.235Z" transform="translate(65.661 60.223)"/><path class="c" d="M0,0H21.106a3.749,3.749,0,0,1,3.738,3.738V25.215H17.817a5.655,5.655,0,1,1-10.233,0H0V17.584A5.655,5.655,0,1,0,0,7.631Z" transform="translate(57.537 34.783)"/><path class="b" d="M12.817,33.513a5.772,5.772,0,0,1-5.3-8.065H0V17.5l.172.093a5.539,5.539,0,1,0,0-9.747L0,7.943V0H21.223a3.858,3.858,0,0,1,3.854,3.854V25.448H18.114a5.72,5.72,0,0,1,.475,2.294A5.778,5.778,0,0,1,12.817,33.513ZM.233,17.891v7.324h7.65l-.078.166a5.486,5.486,0,0,0-.528,2.361,5.538,5.538,0,1,0,10.55-2.361l-.078-.166h7.094V3.854A3.625,3.625,0,0,0,21.223.232H.233V7.556a5.771,5.771,0,1,1,0,10.335Z" transform="translate(57.42 34.667)"/><path class="c" d="M8.111,0C8.038.185,6.622,2.283,6.622,2.283c-.033,4.059,1.2,10.1-3.844,10.633C1.419,13.06-.189,13.614.018,14s1.966,1.081,3.994,1.4a15.124,15.124,0,0,0,4.422-.246c.142.035.172.412.427.474A1.918,1.918,0,0,0,9.7,15.4c.123-1.5-.332-2.691-.322-4.274C9.4,8.5,9.849,5.408,10.1,2.537Z" transform="translate(66.903 107.486)"/><path class="b" d="M9.055,15.984a.448.448,0,0,1-.1-.011.586.586,0,0,1-.357-.353.535.535,0,0,0-.076-.123l-.072.013-.276.049a15.883,15.883,0,0,1-2.75.283,8.464,8.464,0,0,1-1.309-.095c-1.917-.3-3.823-.986-4.079-1.462a.276.276,0,0,1,0-.264c.228-.431,1.682-.868,2.845-.991C6.989,12.6,6.822,8.37,6.674,4.642v0l0-.076c-.028-.723-.055-1.406-.049-2.051V2.478l.02-.03C7.185,1.641,8.067.314,8.118.187L8.193,0l.125.157,2.016,2.574,0,.046c-.075.857-.169,1.749-.261,2.612v0l-.016.154v.011c-.21,1.972-.428,4.011-.44,5.795a12.823,12.823,0,0,0,.176,1.969,9.881,9.881,0,0,1,.146,2.314l-.006.064-.057.029A2.293,2.293,0,0,1,9.055,15.984Zm-.521-.715a.167.167,0,0,1,.044,0c.113.026.171.139.222.239s.11.211.205.234a.224.224,0,0,0,.055.006,1.934,1.934,0,0,0,.646-.2,9.936,9.936,0,0,0-.149-2.194l0-.014a12.886,12.886,0,0,1-.176-1.991c.011-1.786.228-3.819.437-5.785l0-.045c.091-.851.194-1.815.273-2.718L8.242.438c-.193.32-.659,1.027-1.383,2.1l-.005.008c0,.664.025,1.384.053,2.08.152,3.832.324,8.175-4,8.634a5,5,0,0,0-2.664.867c-.015.028-.01.038-.006.046.169.315,1.814,1.01,3.91,1.341a8.2,8.2,0,0,0,1.274.093,15.485,15.485,0,0,0,2.7-.279h.005A3.164,3.164,0,0,1,8.534,15.269Z" transform="translate(66.787 107.256)"/><path class="b" d="M2.989,0c-.07.01-.14.019-.212.027C1.419.17-.189.725.018,1.112s1.966,1.08,3.994,1.4a15.137,15.137,0,0,0,4.423-.246c.142.034.171.412.427.473A1.921,1.921,0,0,0,9.7,2.505c.047-.58,0-1.134.021-1.726a13.127,13.127,0,0,1-6.3.13C2.744.527,2.921.325,2.989,0" transform="translate(66.903 120.376)"/><path class="c" d="M4.621,0C4.594.2,3.71,2.569,3.71,2.569L5.6,10.7c-.766,1.145-1.849,2.651-3.135,3.108s-2.72,1.374-2.427,1.7,2.164.59,4.211.426a15.138,15.138,0,0,0,4.241-1.276c.146,0,.264.36.527.36s.76-.426.76-.426a16.625,16.625,0,0,0-1.417-4.563L7.148,2Z" transform="translate(81.83 107.195)"/><path class="b" d="M3.1,16.316A5.83,5.83,0,0,1,.068,15.8a.27.27,0,0,1-.058-.258c.12-.473,1.431-1.239,2.533-1.63,1.181-.42,2.2-1.763,3.05-3.021L3.7,2.777l.013-.033c.3-.817.885-2.4.905-2.543L4.651,0,7.373,2.154l1.216,8.052a16.486,16.486,0,0,1,1.42,4.583l.01.066L9.97,14.9c-.021.018-.53.452-.835.452a.583.583,0,0,1-.43-.259l-.012-.013a.436.436,0,0,0-.092-.088l-.322.141,0,0a12.865,12.865,0,0,1-3.9,1.133C3.962,16.3,3.534,16.316,3.1,16.316ZM4.8.416c-.16.5-.651,1.83-.855,2.376l1.9,8.146-.029.042c-.877,1.309-1.941,2.708-3.194,3.153A5.013,5.013,0,0,0,.235,15.6c-.007.029,0,.039.006.045a6.124,6.124,0,0,0,2.856.437c.417,0,.841-.017,1.26-.051a12.664,12.664,0,0,0,3.817-1.112l.011,0a1.512,1.512,0,0,1,.421-.159c.116,0,.2.092.273.181l0,0c.075.086.153.175.25.175a1.579,1.579,0,0,0,.634-.356A16.233,16.233,0,0,0,8.376,10.3l-.014-.039L7.156,2.28Z" transform="translate(81.713 106.979)"/><path class="b" d="M3.125,1.281a3.245,3.245,0,0,1-.6.284C1.208,2.023-.26,2.939.039,3.266s2.217.589,4.315.425A15.767,15.767,0,0,0,8.7,2.416c.15,0,.27.36.539.36s.779-.425.779-.425A20.535,20.535,0,0,0,9.467,0C9.274.791,8.279,1.564,6.242,1.924a3.724,3.724,0,0,1-3.117-.643" transform="translate(81.631 119.483)"/><path class="b" d="M5.107,0S1.573,8.2.658,13.4c-.787,4.47-.671,14.145-.622,16.783.031,1.7,4.678,2.1,4.723.75.093-2.73,1.856-12.659,3.408-16.558,1.792-4.5.966-11.975.594-11.368S5.107,0,5.107,0" transform="translate(72.74 79.155)"/><path class="d" d="M.295,0C.2.234.1.484,0,.747c.664,2.86,2.658,11.515,3.217,14.679a29.141,29.141,0,0,1,.98-3.1c1.33-3.341,1.218-8.318.92-10.414C3.47,1.172,1.276.357.295,0" transform="translate(76.71 81.204)"/><path class="e" d="M0,0S2.034,9.811,2.819,15.8C3.5,20.978,5.7,29.682,6.284,31.941c.4,1.549,5.325.759,5.046-.507C7.643,14.768,10.555,15.266,9.5,3.33Z" transform="translate(78.088 77.731)"/><path class="c" d="M2.835,0,.124.995c-.805,2.616,2.482,2.621,4.8,2.7,1.117.04,5.944-.037,6.362-.355.215-.162-.015-1.355-.347-2.165S2.835,0,2.835,0" transform="translate(76.488 79.42)"/><path class="b" d="M5.749,3.94c-.359,0-.587,0-.716-.008l-.275-.009C3.089,3.866,1.012,3.8.274,2.761A1.858,1.858,0,0,1,.128,1.078l.017-.055L2.933,0h.023c1.31.062,7.862.413,8.205,1.251.284.695.631,2.058.309,2.3C11.052,3.871,7.2,3.94,5.749,3.94ZM2.969.235.334,1.2A1.587,1.587,0,0,0,.463,2.627c.671.94,2.685,1.009,4.3,1.064l.276.01c.185.007.45.01.768.01a30.463,30.463,0,0,0,5.519-.341,3.983,3.983,0,0,0-.384-2.029C10.749.861,6.689.413,2.969.235Z" transform="translate(76.372 79.303)"/><path class="c" d="M.277,15.774c-1.906,2.637,6.521,3.113,9.886,2.456,1.767-.345,1.371-.339,1.312-1.815-.129-3.215-.132-9.963-1.8-13.722C8.534.108,6.072-.975,3.5,1.064.565,3.386,3.241,11.675.277,15.774" transform="translate(76.25 63.462)"/><path class="b" d="M6.9,18.752a21.483,21.483,0,0,1-4.157-.369A4.1,4.1,0,0,1,.161,17.158,1.114,1.114,0,0,1,.3,15.827c1.456-2.015,1.527-5.027,1.6-7.94.068-2.877.132-5.594,1.646-6.794A4.464,4.464,0,0,1,6.307,0,3.272,3.272,0,0,1,7.1.1,4.385,4.385,0,0,1,9.925,2.771c1.477,3.339,1.656,9.066,1.763,12.487l.006.171c.013.4.025.776.038,1.11.011.261.031.476.05.658.092.927.01,1-1.465,1.287A19.123,19.123,0,0,1,6.9,18.752Zm-.6-18.5A4.214,4.214,0,0,0,3.7,1.293c-1.42,1.124-1.483,3.783-1.55,6.6-.07,2.952-.142,6-1.646,8.085A.871.871,0,0,0,.377,17.02C1.073,18.11,4.324,18.5,6.9,18.5a18.967,18.967,0,0,0,3.373-.263c1.334-.261,1.334-.261,1.26-1.011l0-.018c-.017-.176-.039-.394-.049-.655-.012-.308-.023-.646-.035-1.005l-.009-.278c-.106-3.4-.285-9.1-1.741-12.392A4.136,4.136,0,0,0,7.035.344,3.036,3.036,0,0,0,6.309.256Z" transform="translate(76.121 63.334)"/><path class="b" d="M1.466,8.185c-.172.368-.364.518-.536.459C-.14,8.28-1.15,1.45,3.155.717A3.516,3.516,0,0,1,4.861.866,2.537,2.537,0,0,1,8.382.578c1.082,1.087.553,2.459-.722,3.11a5.9,5.9,0,0,1,.311,1.17c.355,2.2-.772,4.806-2.3,4.806-.52,0-.689-.352-1.379-.954L4.173,8.6A3.2,3.2,0,0,0,6.037,6.376s1.024.248.937-.757c-.2-2.311-1.289,1.154-1.468.925-.312-.4-2.381-2.427-2.123-4.262a1.941,1.941,0,0,1-1.886.83S.536,6.778,1.423,8.123l.043.062" transform="translate(77.28 53.842)"/><path class="c" d="M0,1.246A5.883,5.883,0,0,1,.294,2.865C.26,3.839,2.774,2.9,3.019,2.5A6.467,6.467,0,0,1,2.6,0,3.49,3.49,0,0,1,0,1.246" transform="translate(80.095 61.503)"/><path class="b" d="M1.044,3.484A1.174,1.174,0,0,1,.71,3.442a.48.48,0,0,1-.373-.505,5.757,5.757,0,0,0-.29-1.582L0,1.2l.164.007.1,0A3.385,3.385,0,0,0,2.667,0l.2.1a6.169,6.169,0,0,0,.416,2.428l0,.008.018.052-.028.047A3.694,3.694,0,0,1,1.044,3.484ZM2.6.405A3.63,3.63,0,0,1,.314,1.44,5.591,5.591,0,0,1,.569,2.945a.25.25,0,0,0,.208.274.932.932,0,0,0,.269.034,4.037,4.037,0,0,0,2-.7A7.789,7.789,0,0,1,2.6.405Z" transform="translate(79.937 61.427)"/><path class="b" d="M0,1.026A7.135,7.135,0,0,1,.286,2.371a3.974,3.974,0,0,0,.507-.152A3.141,3.141,0,0,0,2.565,0L2.376.013A3.413,3.413,0,0,1,0,1.026" transform="translate(80.095 61.723)"/><path class="c" d="M.45.83S-.511,4.5.376,5.841C1.6,7.692,4.762,5.935,4.99,4.094c0,0,1.023.248.937-.757-.2-2.311-1.29,1.154-1.469.925C4.147,3.861,2.078,1.835,2.336,0A1.941,1.941,0,0,1,.45.83" transform="translate(78.327 56.124)"/><path class="b" d="M2,6.81A1.853,1.853,0,0,1,.4,5.971,4.813,4.813,0,0,1,.072,2.964,16.51,16.51,0,0,1,.455.867L.485.754.6.783A1.327,1.327,0,0,0,.927.825,2.013,2.013,0,0,0,2.356,0l0,0,.21.082C2.352,1.629,3.885,3.363,4.462,4.016l.138.159c.069-.108.181-.333.262-.5.367-.738.606-1.19.887-1.19a.264.264,0,0,1,.05,0c.2.038.311.308.362.9a.815.815,0,0,1-.233.731.863.863,0,0,1-.562.18,1.271,1.271,0,0,1-.161-.01A3.535,3.535,0,0,1,2.6,6.737,2.694,2.694,0,0,1,2,6.81ZM.654,1.034c-.145.6-.828,3.648-.063,4.809a1.581,1.581,0,0,0,1.4.734,2.452,2.452,0,0,0,.558-.067A3.273,3.273,0,0,0,4.993,4.146l.016-.129.127.03a1.08,1.08,0,0,0,.231.024.635.635,0,0,0,.41-.124.6.6,0,0,0,.153-.534c-.056-.653-.173-.691-.175-.691H5.747c-.148,0-.514.735-.671,1.049l-.006.012c-.248.5-.333.66-.459.673l-.065.007L4.485,4.4c-.039-.051-.107-.127-.2-.229C3.751,3.563,2.329,1.95,2.316.407A1.978,1.978,0,0,1,.939,1.06,1.585,1.585,0,0,1,.654,1.034Z" transform="translate(78.208 56.058)"/><path class="c" d="M18.282,4.416c.629-.3,2.057-1.5,1.437-1.5s-3.658.49-3.658.49S11.1,5.167,4.04,2.227A6.034,6.034,0,0,0,2.766.5c-.784-.686-.326.555-.2.98S.251-.32.055.039s.2,1.045.2,1.045A1.837,1.837,0,0,0,.414,2.457c.392.555.719.621.719.621s-.49.327.49,1.078c.234.18,1.076-.179,1.779.164,2.232,1.091,7.275,3.108,15.079,1.8Z" transform="translate(64.195 63.748)"/><path class="b" d="M13.6,6.784A22.869,22.869,0,0,1,3.467,4.541a1.594,1.594,0,0,0-.72-.144c-.158,0-.313.014-.449.026-.113.01-.22.02-.315.02a.5.5,0,0,1-.315-.077c-.445-.342-.667-.655-.657-.93a.44.44,0,0,1,.05-.192,1.888,1.888,0,0,1-.625-.6A1.894,1.894,0,0,1,.243,1.217C.152,1.047-.129.463.069.1A.19.19,0,0,1,.2.006.237.237,0,0,1,.254,0C.52,0,1.022.362,1.819.952c.219.163.519.385.7.5-.213-.665-.281-1-.1-1.125A.2.2,0,0,1,2.536.3a.78.78,0,0,1,.423.231A6.093,6.093,0,0,1,4.243,2.254a20.78,20.78,0,0,0,7.967,1.669,12.955,12.955,0,0,0,3.929-.512c.029,0,3.058-.5,3.7-.5.2,0,.25.1.263.164.084.363-1.053,1.235-1.576,1.521l.2,1.733-.109.018A30.377,30.377,0,0,1,13.6,6.784ZM2.744,4.165a1.846,1.846,0,0,1,.824.166A22.63,22.63,0,0,0,13.6,6.552a30.153,30.153,0,0,0,4.868-.412l-.195-1.675.074-.036a4.585,4.585,0,0,0,1.521-1.279h-.032c-.61,0-3.614.483-3.64.488a13.146,13.146,0,0,1-3.983.518,21.036,21.036,0,0,1-8.1-1.7L4.07,2.435l-.019-.041A6.008,6.008,0,0,0,2.806.7C2.61.53,2.542.528,2.54.528a2.772,2.772,0,0,0,.214.891L2.8,1.56a.149.149,0,0,1-.048.178.14.14,0,0,1-.082.026c-.132,0-.376-.171-.987-.625A6.659,6.659,0,0,0,.263.232C.151.487.38.988.469,1.144l.024.042L.48,1.232A1.726,1.726,0,0,0,.626,2.506a1.36,1.36,0,0,0,.647.574l.262.061-.222.149a.2.2,0,0,0-.07.157c0,.11.071.352.567.732a.3.3,0,0,0,.168.03c.089,0,.2-.01.3-.019C2.4,4.18,2.571,4.165,2.744,4.165Z" transform="translate(64.078 63.631)"/><path class="c" d="M.012,2.044A13.027,13.027,0,0,1,.673,4.986c0,.289.625.031.856.011C6.359,4.576,6.691.508,4.64.047,3.264-.262,2.565,1.035.9,1.642c-.46.167-.982.081-.885.4" transform="translate(80.171 65.134)"/><path class="b" d="M.98,5.355a.345.345,0,0,1-.221-.061A.229.229,0,0,1,.673,5.1,12.189,12.189,0,0,0,.063,2.343l0-.007L.017,2.194a.284.284,0,0,1,.021-.239c.082-.131.26-.162.486-.2H.534a2.589,2.589,0,0,0,.438-.1A7,7,0,0,0,2.561.769L2.573.761l.007,0A3.146,3.146,0,0,1,4.345,0a2.016,2.016,0,0,1,.438.05A1.71,1.71,0,0,1,6.059,1.942c-.1,1.453-1.5,3.034-4.4,3.288a1.686,1.686,0,0,0-.21.044l-.016,0A1.981,1.981,0,0,1,.98,5.355ZM4.343.232A2.974,2.974,0,0,0,2.711.948L2.7.953a7.234,7.234,0,0,1-1.652.915,2.675,2.675,0,0,1-.485.114c-.129.022-.305.052-.333.1,0,.006,0,.024,0,.049l.044.142A12.1,12.1,0,0,1,.906,5.1a.116.116,0,0,0,.075.017,2.022,2.022,0,0,0,.381-.067l.01,0A1.977,1.977,0,0,1,1.634,5c2.77-.241,4.1-1.716,4.192-3.071A1.467,1.467,0,0,0,4.731.277,1.747,1.747,0,0,0,4.343.232Z" transform="translate(80.055 65.018)"/><path class="c" d="M1.31,0C1.274,0-.044.005,0,.157A.738.738,0,0,0,.793.528C1.239.467,1.549-.038,1.31,0" transform="translate(79.235 61.431)"/><path class="b" d="M.8.768A.809.809,0,0,1,.018.306L0,.247.045.174C.107.1.392.005,1.391,0h.038l.032,0A.169.169,0,0,1,1.6.061a.2.2,0,0,1,.016.208.922.922,0,0,1-.68.49A1.062,1.062,0,0,1,.8.768ZM1.36.233A7.14,7.14,0,0,0,.279.308.67.67,0,0,0,.8.536.8.8,0,0,0,.9.529a.729.729,0,0,0,.468-.3H1.36Z" transform="translate(79.108 61.315)"/><path class="b" d="M.011.014C.673-.074,4.5.282,4.5.282s.587,7.1.323,7.146S.143,8.443.056,7.473.011.014.011.014" transform="translate(43.541 37.601)"/><path class="c" d="M1.361,3.39C1.2,3.218.106,2.479.01,2.132s.52.075.521-.068S0-.1.356,0A2.139,2.139,0,0,1,.887.279C.954.284.844.015,1.053,0s.582.339.582.339-.054-.273.208-.2.344.333.4.3.03-.307.224-.079a5.368,5.368,0,0,1,.38,1.647c.026.294.041.389.041.389Z" transform="translate(50.351 0.116)"/><path class="b" d="M1.459,3.657h0l-.066-.07c-.039-.042-.165-.141-.3-.245l-.016-.012C.539,2.911.087,2.543.014,2.279a.222.222,0,0,1,.043-.237A.2.2,0,0,1,.2,1.991a.915.915,0,0,1,.27.064l.041.014C.5,2,.48,1.918.464,1.843.236.779.152.21.323.049A.177.177,0,0,1,.447,0,.209.209,0,0,1,.5.008a1.332,1.332,0,0,1,.42.2A.237.237,0,0,1,1.162,0h.022a.906.906,0,0,1,.488.236A.179.179,0,0,1,1.711.189a.241.241,0,0,1,.17-.062.4.4,0,0,1,.107.016.651.651,0,0,1,.328.218A.162.162,0,0,1,2.429.275a.153.153,0,0,1,.032,0A.293.293,0,0,1,2.67.4a5.588,5.588,0,0,1,.408,1.712c.025.279.039.377.04.382l.011.074L1.459,3.657ZM.242,2.229a4.2,4.2,0,0,0,.978.917l.026.02c.1.08.184.144.243.194l1.39-.9c-.009-.073-.02-.184-.032-.321A5.351,5.351,0,0,0,2.493.553a.189.189,0,0,1-.079.1.136.136,0,0,1-.067.019c-.075,0-.131-.071-.165-.114a.506.506,0,0,0-.254-.2A.186.186,0,0,0,1.88.359H1.868a.156.156,0,0,0,0,.075L1.672.542A1.194,1.194,0,0,0,1.181.234H1.176C1.146.25,1.146.3,1.146.321a.2.2,0,0,1-.053.157L1.056.511H.993A.3.3,0,0,1,.843.435,1.1,1.1,0,0,0,.474.242,6.788,6.788,0,0,0,.69,1.794a2.606,2.606,0,0,1,.072.388v.059L.7,2.3a.16.16,0,0,1-.1.029A.714.714,0,0,1,.4,2.276h0A1.294,1.294,0,0,0,.242,2.229Z" transform="translate(50.235 0)"/><path class="b" d="M3.7,0A3.6,3.6,0,0,0,.291,2.412c-.907,3.115.384,8.178,2.8,10.394.53.485,7.547,5.473,7.9,5.6a27.671,27.671,0,0,0,5.826-1.765c0-.229.822-3.866-4.282-5.429C7.31,9.616,10.942.145,3.7,0" transform="translate(37.626 8.054)"/><path class="c" d="M0,26.639c.354-2.648.358-8.946,5.032-10.5,6.52-2.174,16.565-1.224,11.919-14.306C16.339.106,19.728-.412,19.943.328c4.1,14.036-1.549,13.556-4.739,20.48-.369.8-.178,3.383-.463,4.42a1.492,1.492,0,0,1-.266.521c-.359,3.078-.672,7.051-.045,8.044,1.059,1.677-3,4.06-5.826,2.56s1.6-9.164,1.6-9.164h0A53.6,53.6,0,0,1,0,26.639" transform="translate(34.551 2.543)"/><path class="b" d="M10.73,37.051a4.378,4.378,0,0,1-2.05-.482,1.791,1.791,0,0,1-.886-1.143c-.289-1-.053-2.52.7-4.506a28.281,28.281,0,0,1,1.63-3.486c-.608.043-1.276.064-1.986.064a61.159,61.159,0,0,1-8.024-.63L0,26.851l.015-.113c.043-.323.081-.707.122-1.113.3-3.027.811-8.093,4.988-9.486,1.206-.4,2.554-.7,3.858-.993h0c3.411-.761,6.938-1.547,8.418-4.223,1.123-2.03.981-4.954-.434-8.939A1.147,1.147,0,0,1,17.195.777a2.237,2.237,0,0,1,.95-.589A3.446,3.446,0,0,1,19.24,0a2.028,2.028,0,0,1,.439.043c.354.079.471.244.507.368,2.957,10.136.88,12.725-1.75,16a20.863,20.863,0,0,0-3,4.559,8.11,8.11,0,0,0-.26,2.282v.013a10.991,10.991,0,0,1-.2,2.106,1.6,1.6,0,0,1-.266.535c-.509,4.37-.53,7.189-.059,7.937a1.437,1.437,0,0,1-.343,1.8,4.267,4.267,0,0,1-1.551,1.013A5.558,5.558,0,0,1,10.73,37.051Zm-.407-9.865h0l.037.132.072.042a29.4,29.4,0,0,0-1.523,3.157A15.906,15.906,0,0,0,8.076,33.1a4.81,4.81,0,0,0-.059,2.263,1.569,1.569,0,0,0,.772,1,4.071,4.071,0,0,0,1.932.462,4.958,4.958,0,0,0,3.423-1.341,1.248,1.248,0,0,0,.317-1.517c-.515-.816-.505-3.548.028-8.12l0-.032.021-.026a1.38,1.38,0,0,0,.245-.481,11.119,11.119,0,0,0,.187-2.046v-.014a8.033,8.033,0,0,1,.281-2.377,21.04,21.04,0,0,1,3.026-4.606C20.841,13.043,22.885,10.5,19.962.476c-.025-.089-.147-.164-.334-.206a1.832,1.832,0,0,0-.4-.04,2.706,2.706,0,0,0-1.859.7.916.916,0,0,0-.178.975c1.439,4.051,1.576,7.037.418,9.129C16.078,13.8,12.5,14.6,9.036,15.373H9.031c-1.3.289-2.638.588-3.832.986C1.167,17.7.668,22.677.369,25.647l0,.037c-.036.351-.069.683-.105.971a60.822,60.822,0,0,0,7.866.612c.8,0,1.537-.027,2.2-.081Z" transform="translate(34.421 2.428)"/><path class="c" d="M.132,0,0,3.928S.53,5.6,1.721,5.208c0,0,1.1-.53,1.236-1.457L2.991.988Z" transform="translate(40.577 14.75)"/><path class="b" d="M1.478,5.546a1.088,1.088,0,0,1-.5-.122,2.42,2.42,0,0,1-.973-1.3L0,4.105V4.086L.139,0,3.226,1.066,3.191,3.914a2.4,2.4,0,0,1-1.3,1.56A1.3,1.3,0,0,1,1.478,5.546ZM.36.323h0L.233,4.073a2.161,2.161,0,0,0,.853,1.145.877.877,0,0,0,.4.1A1.008,1.008,0,0,0,1.8,5.26l0,0A2.155,2.155,0,0,0,2.959,3.9l.032-2.665L.36.323Z" transform="translate(40.459 14.589)"/><path class="b" d="M.041.889,0,2.088A1.611,1.611,0,0,0,1.37,3.2,1.924,1.924,0,0,0,2.928,1.976L2.945.6,1.856,0S.7.576.041.889" transform="translate(40.616 15.415)"/><path class="c" d="M0,2.791C.072,6.075,1.621,7.339,2.876,7.228,4.229,7.107,5.3,5.38,5.371,2.567c0,0-2.873-.742-3.632-2.567,0,0-.455,3-1.739,2.791" transform="translate(39.288 10.356)"/><path class="b" d="M2.871,7.432A2.226,2.226,0,0,1,1.4,6.83,5.453,5.453,0,0,1,0,2.849l0-.172L.169,2.7a.693.693,0,0,0,.1.007.664.664,0,0,0,.4-.138C1.4,2.039,1.712.239,1.745.036v0L2.019,0c.71,1.71,3.419,2.452,3.534,2.483l.111.029,0,.114c-.074,2.78-1.105,4.664-2.626,4.8C2.981,7.43,2.925,7.432,2.871,7.432ZM1.949.492A4.271,4.271,0,0,1,.837,2.806.947.947,0,0,1,.295,3a5.085,5.085,0,0,0,1.3,3.617,1.943,1.943,0,0,0,1.28.529c.045,0,.091,0,.135-.006a2.16,2.16,0,0,0,1.643-1.3,7.26,7.26,0,0,0,.718-3.108A8.717,8.717,0,0,1,3.8,2.088,4.65,4.65,0,0,1,1.949.492Z" transform="translate(39.141 10.301)"/><path class="c" d="M1.31,0C1.274,0-.044,0,0,.157a.738.738,0,0,0,.792.37C1.238.467,1.549-.038,1.31,0" transform="translate(41.289 16.219)"/><path class="b" d="M.8.768A.815.815,0,0,1,.017.307L0,.247.046.173C.173.018.973,0,1.31,0h.118l.03,0A.176.176,0,0,1,1.6.06a.2.2,0,0,1,.016.208.916.916,0,0,1-.68.49A.989.989,0,0,1,.8.768ZM1.359.233A7.069,7.069,0,0,0,.279.308.683.683,0,0,0,.8.536.776.776,0,0,0,.9.529a.73.73,0,0,0,.468-.3Z" transform="translate(41.161 16.103)"/><path class="f" d="M2.964,17.831C1.946,15.455.3,14.388,1.025,12.156S1.219,9.392.248,6.918,1.51,5.56.831,2.5,1.17-.308,2.479.613,4.6,4.513,4.5,5.715s.691,2.9,1.273,4.744-.194,5.966-.291,6.014-2.522,1.358-2.522,1.358" transform="translate(92.765 99.778)"/><path class="b" d="M3.023,18.11h0l-.05-.117a14.149,14.149,0,0,0-1.054-1.926l0-.006v0c-.75-1.206-1.4-2.248-.885-3.821.6-1.836.341-2.456-.346-4.111L.675,8.107c-.126-.3-.268-.643-.419-1.029C-.247,5.795.087,5.4.44,4.99c.34-.4.725-.847.392-2.344C.506,1.176.543.365.948.095A.581.581,0,0,1,1.281,0,2.749,2.749,0,0,1,2.662.634c1.362.959,2.172,3.992,2.075,5.206a9.1,9.1,0,0,0,.781,3.268l.036.1c.151.43.307.874.45,1.329a13.874,13.874,0,0,1-.348,6.153c-.068.034-1.354.728-2.205,1.187l-.009,0-.306.165-.112.06ZM1.286.232a.361.361,0,0,0-.209.056C.866.429.692.943,1.06,2.6,1.417,4.2.974,4.724.617,5.141c-.333.39-.6.7-.145,1.851.155.4.3.74.424,1.042.692,1.666.979,2.356.354,4.274-.48,1.47.112,2.422.862,3.627l0,.005a15.04,15.04,0,0,1,1.02,1.845l.016-.009c.52-.281,2.1-1.135,2.363-1.273A17.771,17.771,0,0,0,5.9,14.069a10.037,10.037,0,0,0-.118-3.459c-.153-.484-.32-.958-.482-1.416l0-.01A9.235,9.235,0,0,1,4.5,5.821c.091-1.139-.7-4.1-1.977-5A2.615,2.615,0,0,0,1.286.232Z" transform="translate(92.649 99.662)"/><path class="c" d="M.927,17.607C.738,16.784-.679,14.079.4,12.819S2.2,11.684,1.976,10.4s-1.01-3.45.053-4.633,2.106.526,2.158-1.291S4.037,1.153,5.2.886s1.233.655,1.813.2,4.291-2.214,3.4.048S6.729,4.541,7.45,6.108s1.842,1.417.1,3.083-2.216,1.2-1.574,2.889a9.782,9.782,0,0,1,.184,4.253S.912,17.539.927,17.607" transform="translate(94.259 98.479)"/><path class="b" d="M1.1,17.822h0l-.048-.1-.127.029a7.234,7.234,0,0,0-.24-.718l-.007-.02C.251,15.851-.467,13.9.43,12.862a7.268,7.268,0,0,1,.942-.907c.509-.426.742-.621.6-1.416-.04-.23-.1-.493-.162-.77V9.762c-.3-1.311-.663-2.943.245-3.955a1.342,1.342,0,0,1,1.049-.5,2.828,2.828,0,0,1,.417.039,2.044,2.044,0,0,0,.276.028A.31.31,0,0,0,4,5.32c.111-.094.17-.332.181-.728.006-.23.008-.455.01-.673V3.777C4.207,2.3,4.215,1.138,5.291.89a1.952,1.952,0,0,1,.43-.052,1.456,1.456,0,0,1,.812.253.619.619,0,0,0,.292.122.386.386,0,0,0,.234-.1A6.942,6.942,0,0,1,10,0a.93.93,0,0,1,.562.149c.274.2.3.587.085,1.141a7.841,7.841,0,0,1-1.8,2.464l-.007.007c-.861.893-1.54,1.6-1.164,2.417a4.783,4.783,0,0,0,.63.987l0,0c.539.688.707,1.015-.562,2.224a13.635,13.635,0,0,1-1.164.987c-.755.583-.816.63-.381,1.777a9.776,9.776,0,0,1,.189,4.314l-.013.076-.075.017c-1.983.456-5,1.167-5.193,1.258Zm2-12.278a1.132,1.132,0,0,0-.878.419C1.4,6.885,1.755,8.451,2.04,9.71l.008.035c.061.271.118.526.157.753a1.42,1.42,0,0,1-.684,1.634,7.169,7.169,0,0,0-.916.881c-.807.94-.119,2.806.293,3.921l.019.053c.084.23.157.429.2.586.285-.1.973-.262,2.5-.624,1.086-.258,2.2-.516,2.545-.594a9.488,9.488,0,0,0-.191-4.116c-.482-1.271-.361-1.412.456-2.043l0,0a13.576,13.576,0,0,0,1.145-.97c1.166-1.111,1.008-1.313.54-1.912L8.114,7.3A4.97,4.97,0,0,1,7.46,6.275c-.443-.963.321-1.757,1.207-2.676l.007-.008a7.63,7.63,0,0,0,1.752-2.386c.174-.444.172-.737-.007-.87a.694.694,0,0,0-.413-.1A6.808,6.808,0,0,0,7.2,1.291a.609.609,0,0,1-.378.156.8.8,0,0,1-.4-.151l-.006,0a1.245,1.245,0,0,0-.7-.222,1.7,1.7,0,0,0-.377.046c-.9.206-.9,1.235-.912,2.658v0c0,.243,0,.527-.012.819-.013.48-.094.757-.263.9A.513.513,0,0,1,3.8,5.61a2.239,2.239,0,0,1-.309-.03h0A2.641,2.641,0,0,0,3.108,5.544Z" transform="translate(94.145 98.361)"/><path class="b" d="M0,0H8.686L7.595,8.434H1.427Z" transform="translate(92.507 114.38)"/><path class="b" d="M3.546.115A.077.077,0,1,0,3.41.041,33.733,33.733,0,0,0,0,12.386a.078.078,0,0,0,.071.084A.078.078,0,0,0,.155,12.4,33.548,33.548,0,0,1,3.546.115" transform="translate(97.029 102.164)"/><path class="c" d="M2.092,0h24.6V9.606a5.692,5.692,0,1,0,0,6.092v10.69H18a5.821,5.821,0,1,1-9.268,0H0V2.093A2.1,2.1,0,0,1,2.092,0" transform="translate(28.559 24.671)"/><path class="b" d="M13.482,35.966a5.939,5.939,0,0,1-4.864-9.345H0V2.209A2.211,2.211,0,0,1,2.209,0H26.922V9.722l-.215.063a5.576,5.576,0,1,0,0,5.967l.215.063V26.621H18.345a5.938,5.938,0,0,1-4.863,9.345ZM2.209.232A1.978,1.978,0,0,0,.233,2.209V26.388h8.85l-.143.187a5.7,5.7,0,1,0,9.083,0l-.143-.187h8.808v-10.2a5.817,5.817,0,1,1,0-6.847V.232Z" transform="translate(28.442 24.555)"/><path class="b" d="M5.351,4.568s1.632.662,1.9-1.942S6.189.154,4.468.021C1.568-.2.082,1.323,0,4.081-.043,5.581,2.157,6.4,2.157,6.4Z" transform="translate(21.121 46.708)"/><path class="b" d="M3.649,0S.7-.031.321.391-.087,4.823.154,5.179s8.375.481,8.5-.333A2.338,2.338,0,0,0,7.507,2.195c-1.169-.467-2.76-.16-2.887-.556S4.351-.054,3.649,0" transform="translate(27.66 117.67)"/><path class="c" d="M4.46,1.432S3.55,8.476,3.5,12.495s.074,3.576.074,3.576a6.606,6.606,0,0,1-3.436-.032C.353,15.929-.507,4.7.5,1.449S4.46,1.432,4.46,1.432" transform="translate(28.03 102.28)"/><path class="b" d="M1.842,16.466a3.187,3.187,0,0,1-1.705-.274l-.031-.086.056-.035c.036-.2,0-1.315-.042-2.6C0,9.85-.2,3.8.509,1.52.776.661,1.2.16,1.783.031A1.428,1.428,0,0,1,2.084,0,4.425,4.425,0,0,1,4.641,1.465l.033.035-.007.047c-.009.07-.91,7.092-.958,11.052-.032,2.5.006,3.239.031,3.455l.087-.021-.073.256H3.641A8.7,8.7,0,0,1,1.842,16.466ZM2.087.206h0a1.208,1.208,0,0,0-.259.027C1.327.345.95.8.706,1.582c-.7,2.239-.5,8.272-.38,11.877a25.144,25.144,0,0,1,.036,2.648,6.64,6.64,0,0,0,1.544.151,7.975,7.975,0,0,0,1.637-.16A34.408,34.408,0,0,1,3.5,12.6c.045-3.662.8-9.827.955-11.026A4.3,4.3,0,0,0,2.087.206Z" transform="translate(27.926 102.178)"/><path class="b" d="M3.649,0S.7-.031.321.39-.087,4.823.154,5.178s8.375.481,8.505-.333A2.34,2.34,0,0,0,7.507,2.194c-1.169-.467-2.761-.16-2.887-.556S4.351-.054,3.649,0" transform="translate(16.006 118.289)"/><path class="c" d="M4.46,1.432s-.91,7.044-.96,11.063.074,3.576.074,3.576a6.606,6.606,0,0,1-3.436-.032C.353,15.929-.507,4.7.5,1.449S4.46,1.432,4.46,1.432" transform="translate(16.376 102.898)"/><path class="b" d="M1.843,16.465a3.189,3.189,0,0,1-1.705-.274l-.031-.085.055-.035c.036-.2,0-1.28-.039-2.534l0-.072C0,9.849-.2,3.8.509,1.52.776.661,1.2.16,1.783.031A1.427,1.427,0,0,1,2.083,0c1.2,0,2.5,1.4,2.559,1.465l.032.035-.007.047c-.009.069-.91,7.1-.958,11.051-.031,2.512.006,3.243.031,3.455l.086-.021-.072.255h-.1l-.01,0A8.668,8.668,0,0,1,1.843,16.465ZM2.088.205h0a1.207,1.207,0,0,0-.261.028C1.327.345.95.8.706,1.582c-.7,2.243-.5,8.274-.38,11.877a24.98,24.98,0,0,1,.036,2.648,6.548,6.548,0,0,0,1.541.151A7.994,7.994,0,0,0,3.544,16.1a33.677,33.677,0,0,1-.043-3.5C3.548,8.848,4.363,2.3,4.456,1.57A4.2,4.2,0,0,0,2.088.206Z" transform="translate(16.272 102.796)"/><path class="c" d="M1.522.071c-1.784.364-1.869,3-.927,3.751.971.773,5.9,1.1,6.651-.067S7.145.4,6.795.137,1.522.071,1.522.071" transform="translate(26.132 104.706)"/><path class="b" d="M4.4,4.754A7.777,7.777,0,0,1,.637,4.03,2.438,2.438,0,0,1,.081,1.679,2,2,0,0,1,1.614.074l.019,0C2.053.055,3.526,0,4.814,0A6.973,6.973,0,0,1,6.981.161c.372.278,1.275,2.531.478,3.774a2.193,2.193,0,0,1-1.528.707A9.605,9.605,0,0,1,4.4,4.754ZM4.868.233h0C3.941.233,2.8.258,1.652.3A1.783,1.783,0,0,0,.307,1.734,2.2,2.2,0,0,0,.783,3.848,7.715,7.715,0,0,0,4.4,4.523a9.252,9.252,0,0,0,1.493-.11,2.043,2.043,0,0,0,1.371-.6c.7-1.092-.1-3.223-.422-3.462A9.163,9.163,0,0,0,4.868.233Z" transform="translate(26.016 104.589)"/><path class="c" d="M1.521.071c-1.784.364-1.868,3-.927,3.751.971.773,5.9,1.1,6.651-.067S7.145.4,6.795.137,1.521.071,1.521.071" transform="translate(14.466 104.706)"/><path class="b" d="M4.4,4.755A7.781,7.781,0,0,1,.637,4.031,2.442,2.442,0,0,1,.081,1.679,2,2,0,0,1,1.613.073l.019,0C2.179.05,3.583,0,4.81,0a6.981,6.981,0,0,1,2.17.161c.372.278,1.275,2.531.479,3.774a2.193,2.193,0,0,1-1.528.707A9.6,9.6,0,0,1,4.4,4.755ZM4.865.233C3.952.233,2.781.259,1.651.3A1.783,1.783,0,0,0,.307,1.734,2.2,2.2,0,0,0,.783,3.848,7.712,7.712,0,0,0,4.4,4.523a9.243,9.243,0,0,0,1.493-.11,2.045,2.045,0,0,0,1.371-.6c.7-1.092-.1-3.223-.423-3.462A9.151,9.151,0,0,0,4.865.233Z" transform="translate(14.351 104.588)"/><path class="c" d="M0,1.353A8.413,8.413,0,0,0,1.659.511c.495-.4.978-.681,1.064-.4S2.13.747,2.34.858s1.7.211,1.709.533-1.015.247-1.015.247.285.384.173.631a.466.466,0,0,1-.383.26.338.338,0,0,1-.111.446.984.984,0,0,1-.57.124s.186.26-.1.3A1.834,1.834,0,0,1,.829,3.161a4.788,4.788,0,0,0-.705-.408Z" transform="translate(32.001 67.172)"/><path class="b" d="M1.889,3.647a1.791,1.791,0,0,1-1-.272,4.639,4.639,0,0,0-.688-.4L.138,2.948,0,1.393l.082-.031.011,0A8.015,8.015,0,0,0,1.71.538,2,2,0,0,1,2.687,0a.3.3,0,0,1,.1.015A.26.26,0,0,1,2.959.2c.064.214-.127.409-.28.565-.054.055-.092.1-.115.125.09.025.274.057.439.085.77.132,1.275.24,1.286.53a.255.255,0,0,1-.082.2,1.282,1.282,0,0,1-.824.179H3.368a.673.673,0,0,1,.068.554.545.545,0,0,1-.338.3.424.424,0,0,1-.2.458,1.022,1.022,0,0,1-.46.141.242.242,0,0,1-.016.143.275.275,0,0,1-.24.153A2.285,2.285,0,0,1,1.889,3.647Zm.8-3.413C2.62.234,2.4.281,1.856.72a7.814,7.814,0,0,1-1.608.827l.11,1.245a5.5,5.5,0,0,1,.662.39,1.553,1.553,0,0,0,.867.232A2.1,2.1,0,0,0,2.151,3.4.125.125,0,0,0,2.21,3.38a.218.218,0,0,0-.039-.1L2.019,3.07l.26.029a.418.418,0,0,0,.069,0,.834.834,0,0,0,.426-.11A.217.217,0,0,0,2.843,2.7l-.08-.161.179-.008a.348.348,0,0,0,.283-.191c.063-.14-.081-.407-.161-.514l-.152-.2.253.018c.07,0,.147.007.224.007a1.413,1.413,0,0,0,.655-.112c-.035-.152-.8-.282-1.082-.331a2.559,2.559,0,0,1-.554-.125.184.184,0,0,1-.1-.133C2.29.827,2.388.728,2.512.6L2.519.6c.1-.1.242-.249.218-.328C2.728.242,2.72.239,2.714.237A.1.1,0,0,0,2.689.234Z" transform="translate(31.877 67.055)"/><path class="c" d="M4.515.706,7.771,2.438C10.26,15.63,10.1,17.28,10.558,27.869c.05,1.162.108,2.432.177,3.836.078,1.576-2.358,1.326-3.691,1.2-1.416-.131-1.749-.057-1.846-1.332C4.307,19.822,5.548,19.7,0,8.608L.917,0Z" transform="translate(22.021 73.382)"/><path class="b" d="M8.692,33.257c-.514,0-1.044-.049-1.47-.088H7.209l-.361-.033C5.688,33.033,5.3,33,5.2,31.722c-.18-2.372-.27-4.209-.35-5.83C4.539,19.567,4.444,17.658.016,8.8L0,8.768l0-.033L.934,0,4.69.741,7.995,2.5l.011.055c2.234,11.841,2.333,14.3,2.662,22.427l.027.669v.01c.03.742.061,1.509.1,2.34.047,1.075.105,2.371.178,3.836a1.119,1.119,0,0,1-.333.907A2.8,2.8,0,0,1,8.692,33.257ZM1.139.277l-.9,8.448C4.675,17.6,4.769,19.521,5.084,25.88c.076,1.538.17,3.453.349,5.824.082,1.08.289,1.1,1.435,1.2l.363.033c.391.037.927.088,1.451.088a2.63,2.63,0,0,0,1.8-.446.888.888,0,0,0,.261-.728c-.07-1.422-.129-2.726-.178-3.837-.041-.953-.076-1.817-.11-2.654l-.015-.368v0c-.329-8.115-.428-10.564-2.648-22.336L4.6.955,1.139.277h0Z" transform="translate(21.902 73.244)"/><path class="b" d="M2.806,11.677A63.627,63.627,0,0,0,0,5.335C.609,2.694,1.233,0,1.233,0c.436.049,4.372,1.329,4.372,1.329l-2.8,10.348Z" transform="translate(22.503 77.628)"/><path class="c" d="M10.341.816C9.628,12.584,6.607,17.879,5.9,28.967c-.045.706.3,2.347-.514,2.454C4.151,31.584.469,31.96,0,30.729.368,24.82,2.239,5.592,1.169.464c-.254-1.22,9.172.353,9.172.353" transform="translate(15.561 75.107)"/><path class="b" d="M2.962,31.835c-1.72,0-2.714-.32-2.954-.951L0,30.861v-.026c.074-1.185.209-2.925.367-4.94v-.012c.619-7.928,1.655-21.2.8-25.281A.321.321,0,0,1,1.259.3C1.452.1,2.031,0,2.98,0a59.348,59.348,0,0,1,7.5.816l.1.016-.007.1a85.272,85.272,0,0,1-2.28,14.592l0,.008,0,.012A80.927,80.927,0,0,0,6.131,29.088a6.171,6.171,0,0,0,.015.622c.043.822.1,1.845-.629,1.94A20.448,20.448,0,0,1,2.962,31.835ZM2.894.227h0c-.822,0-1.316.08-1.467.236A.09.09,0,0,0,1.4.554c.859,4.113-.178,17.4-.8,25.341V25.9l-.014.185c-.15,1.927-.28,3.59-.352,4.739.275.642,1.639.777,2.736.777a19.783,19.783,0,0,0,2.516-.181c.512-.068.465-.971.427-1.7a5.9,5.9,0,0,1-.014-.65A82.1,82.1,0,0,1,8.063,15.5l0-.011A85.209,85.209,0,0,0,10.336,1.028a55.789,55.789,0,0,0-7.442-.8Z" transform="translate(15.443 74.993)"/><path class="e" d="M0,2.609A25.285,25.285,0,0,0,1.125,0,6.591,6.591,0,0,1,5.4,5.608c.705,4.621.29,6.414,1.411,6.561.578.075.974.111,1.222.127.747.049.567,3.075-.11,3.093-.83.022-3.677,0-4.428-1.386C2.611,12.382,0,2.609,0,2.609" transform="translate(24.244 55.358)"/><path class="b" d="M7.744,15.651a10.036,10.036,0,0,1-2.263-.239A2.86,2.86,0,0,1,3.515,14.2C2.642,12.595.12,3.18.013,2.78L0,2.734l.024-.041A25.339,25.339,0,0,0,1.14.1L1.177,0l.1.029a6.757,6.757,0,0,1,4.356,5.7c.239,1.56.347,2.779.434,3.759l0,.038v.007c.161,1.821.228,2.575.873,2.66.594.077.988.111,1.215.126.578.037.6,1.186.592,1.537-.011.612-.174,1.774-.707,1.788C7.963,15.649,7.858,15.651,7.744,15.651ZM1.319.286h0a24.084,24.084,0,0,1-1.07,2.48l0,.008c.44,1.634,2.676,9.86,3.469,11.316.652,1.2,3.021,1.329,4.009,1.329.107,0,.213,0,.314,0,.213-.006.463-.648.48-1.561.014-.739-.144-1.286-.375-1.3-.332-.022-.757-.066-1.23-.128-.832-.11-.908-.977-1.076-2.877l0-.036c-.087-.977-.2-2.192-.432-3.746A6.6,6.6,0,0,0,1.319.286Z" transform="translate(24.119 55.217)"/><path class="c" d="M1.1,2.7C1.09,2.719-.984,23.044.589,23.46c2.208.584,9.42,2.223,13.313-.121.686-.412.468-1.4.173-2.348C12.32,15.377,14.2.529,6.965.034,4.195-.155,2.634.4,1.1,2.7" transform="translate(16.448 54.741)"/><path class="b" d="M8.432,24.791a32.584,32.584,0,0,1-7.753-1.1c-.142-.037-.256-.17-.348-.408-.437-1.141-.44-4.932-.01-11.268.279-4.094.759-9.191.8-9.261A6.228,6.228,0,0,1,3.248.63,5.845,5.845,0,0,1,6.157,0c.288,0,.6.012.933.034,5.173.354,5.76,7.7,6.278,14.187a35.974,35.974,0,0,0,.936,6.85c.321,1.026.516,2.038-.224,2.484A11.008,11.008,0,0,1,8.432,24.791ZM6.173.233h0a5.664,5.664,0,0,0-2.8.6A5.949,5.949,0,0,0,1.333,2.857C1.1,4.545-.591,23.112.738,23.464a32.459,32.459,0,0,0,7.7,1.1,10.755,10.755,0,0,0,5.524-1.206c.6-.362.414-1.278.122-2.214a36.034,36.034,0,0,1-.945-6.9C12.626,7.849,12.046.606,7.076.266c-.32-.022-.624-.033-.9-.033Z" transform="translate(16.33 54.625)"/><path class="c" d="M27.385,0l-.966,26.56L5.289,26.7A5.22,5.22,0,0,1,0,21.256L.771.172,9.2.117a6,6,0,0,0-.443.792A5.864,5.864,0,1,0,18.91.055Z" transform="translate(27.788 50.957)"/><path class="b" d="M5.406,26.931H5.37A5.338,5.338,0,0,1,0,21.369L.775.173,9.532.117,9.411.3a5.864,5.864,0,0,0-.434.776,5.755,5.755,0,0,0,2.8,7.631,5.7,5.7,0,0,0,2.412.535,5.75,5.75,0,0,0,4.742-9l-.124-.18L27.622,0l0,.122-.97,26.671ZM9.1.352,1,.4.236,21.378A5.1,5.1,0,0,0,5.37,26.7H5.4l21.018-.136L27.381.234l-8.14.052A6.011,6.011,0,0,1,19.617,6a5.971,5.971,0,0,1-7.94,2.912A5.988,5.988,0,0,1,8.765.977,6.1,6.1,0,0,1,9.1.352Z" transform="translate(27.672 50.84)"/><path class="c" d="M.093,0A6.856,6.856,0,0,1,0,2c.938,1.646,2.913,2.188,2.733.865a5.414,5.414,0,0,1-.1-1.329A2.332,2.332,0,0,1,.832.315,3.162,3.162,0,0,1,.093,0" transform="translate(22.446 52.789)"/><path class="b" d="M2.294,3.939A3.069,3.069,0,0,1,.025,2.274L0,2.231l.014-.047A6.539,6.539,0,0,0,.1.219L.088,0,.277.112a3.108,3.108,0,0,0,.712.3L1.04.43l.023.047a2.22,2.22,0,0,0,1.711,1.16l.108.014-.007.109a5.341,5.341,0,0,0,.1,1.3c.08.586-.219.779-.405.841A.843.843,0,0,1,2.294,3.939ZM.346.414h0A6.345,6.345,0,0,1,.251,2.2,2.824,2.824,0,0,0,2.3,3.705a.625.625,0,0,0,.195-.028c.21-.071.294-.267.252-.581a5.517,5.517,0,0,1-.106-1.245A2.452,2.452,0,0,1,.876.625,3.376,3.376,0,0,1,.346.414Z" transform="translate(22.32 52.577)"/><path class="b" d="M0,0C.007.1.013.2.018.3.411,1,1.409,2.527,2.581,2.542a5.057,5.057,0,0,1-.035-.93A2.3,2.3,0,0,1,.693.269,1.273,1.273,0,0,1,.521.109Z" transform="translate(22.533 52.718)"/><path class="c" d="M4.638,2.594c0,1.289-.194,2.324-1.323,2.649A2.353,2.353,0,0,1,.6,3.956,1.632,1.632,0,0,1,0,2.737c-.02-.8.573-.7.74,0s.972.83.746.194C1.17,2.041,3.831,1.248,3.51,0,4.5.43,4.638,1.125,4.638,2.594" transform="translate(22.623 49.031)"/><path class="b" d="M2.879,5.635a2.656,2.656,0,0,1-1.315-.358,2.189,2.189,0,0,1-.94-1.046A1.734,1.734,0,0,1,0,2.942c-.015-.586.27-.669.358-.68l.042,0c.248,0,.476.263.569.653a.67.67,0,0,0,.417.509.217.217,0,0,0,.057.009.08.08,0,0,0,.061-.021c.025-.028.035-.1-.012-.237-.175-.493.362-.917.93-1.366C3.034,1.323,3.666.824,3.514.231L3.455,0l.218.1c1.032.448,1.2,1.163,1.2,2.7,0,1.224-.171,2.4-1.408,2.76A2.1,2.1,0,0,1,2.879,5.635ZM.4,2.492H.389c-.083.011-.163.152-.155.444A1.536,1.536,0,0,0,.787,4.064l.028.02.013.032A2.21,2.21,0,0,0,2.87,5.4a1.924,1.924,0,0,0,.53-.071C4.427,5.037,4.638,4.1,4.638,2.8,4.638,1.436,4.517.8,3.77.4c.009.632-.634,1.14-1.2,1.588-.5.4-.975.77-.855,1.107a.439.439,0,0,1-.036.473.3.3,0,0,1-.233.1.473.473,0,0,1-.116-.015.9.9,0,0,1-.584-.681C.661,2.621.489,2.492.4,2.492Z" transform="translate(22.507 48.829)"/><path class="c" d="M0,3.5c.407-.146,1.564-.57,1.791-1.124S1.938-.182,2.2.013s.489.26.554,1.352,2.736-.6,3.062-.326.179,1.01-.521,1.987A6.633,6.633,0,0,1,2.638,4.948a4.028,4.028,0,0,1-1.723.475Z" transform="translate(25.259 65.903)"/><path class="b" d="M1.083,5.656H1L0,3.55l.121-.044c1-.362,1.583-.719,1.723-1.058a5.655,5.655,0,0,0,.171-1.26V1.179c.058-.807.092-1.1.245-1.164A.148.148,0,0,1,2.325,0a.174.174,0,0,1,.1.037l.064.047c.295.211.478.41.535,1.391a.236.236,0,0,0,.1.208.438.438,0,0,0,.236.053,5.317,5.317,0,0,0,1.473-.42,3.66,3.66,0,0,1,1.02-.307.281.281,0,0,1,.191.059c.4.342.215,1.143-.5,2.143a6.3,6.3,0,0,1-2.5,1.857l-.2.1A4.189,4.189,0,0,1,1.083,5.656ZM2.353.268h0a6.214,6.214,0,0,0-.1.894l0,.034a5.551,5.551,0,0,1-.188,1.34C1.9,2.93,1.312,3.315.321,3.681L1.149,5.42a4.148,4.148,0,0,0,1.6-.46l.2-.1A6.1,6.1,0,0,0,5.358,3.074c.7-.981.779-1.626.541-1.829a.112.112,0,0,0-.047-.008,4.12,4.12,0,0,0-.885.279l-.046.018a5.155,5.155,0,0,1-1.551.435A.664.664,0,0,1,3,1.879.467.467,0,0,1,2.8,1.488C2.74.548,2.572.426,2.358.273l-.006,0Z" transform="translate(25.098 65.787)"/><path class="e" d="M.19,14.363c.848.984,5.676,1.8,9.684.8,1.208-.3,1.111-3.569-.455-3.264-1.379.268-4.41.718-4.925-.393-.67-1.446,1.2-7.267.917-9.208C5.2.812,3.551-.551,2.191.225-.02,1.484-.264,13.836.19,14.363" transform="translate(15.879 56.624)"/><path class="b" d="M5.989,15.859A16.87,16.87,0,0,1,2.3,15.472a4.24,4.24,0,0,1-2.082-.916c-.37-.43-.29-6.3.383-10.191C1.008,2.02,1.562.632,2.251.239A1.789,1.789,0,0,1,3.147,0a2.056,2.056,0,0,1,.908.221A3,3,0,0,1,5.644,2.4a17.151,17.151,0,0,1-.5,4.273l0,.022c-.38,2.026-.774,4.121-.422,4.88.2.423.887.646,2,.646a15.039,15.039,0,0,0,2.8-.319,1.107,1.107,0,0,1,.217-.022c.548,0,.971.434,1.132,1.16.214.961-.08,2.164-.845,2.354A16.872,16.872,0,0,1,5.989,15.859ZM3.148.234a1.563,1.563,0,0,0-.782.208C1.842.74,1.372,1.8,1.007,3.5.1,7.721.129,14.033.4,14.4a4.207,4.207,0,0,0,1.971.834,16.773,16.773,0,0,0,3.662.388,16.213,16.213,0,0,0,3.935-.46c.615-.154.863-1.224.673-2.078-.066-.294-.286-.979-.892-.979a.931.931,0,0,0-.186.02,15.877,15.877,0,0,1-2.857.325c-1.217,0-1.955-.263-2.2-.782-.383-.827,0-2.864.4-5.021a17.458,17.458,0,0,0,.5-4.219,2.758,2.758,0,0,0-1.46-2A1.818,1.818,0,0,0,3.148.234Z" transform="translate(15.762 56.507)"/><path class="c" d="M1.31,0C1.274,0-.044,0,0,.157a.739.739,0,0,0,.792.37C1.238.467,1.549-.038,1.31,0" transform="translate(25.291 53.113)"/><path class="b" d="M.8.769A.819.819,0,0,1,.017.307L0,.248.046.174C.177.013,1.034,0,1.294,0H1.43l.034,0A.17.17,0,0,1,1.6.061a.2.2,0,0,1,.016.208.92.92,0,0,1-.68.49A.933.933,0,0,1,.8.769ZM1.36.234A7.1,7.1,0,0,0,.279.308.677.677,0,0,0,.8.535a.822.822,0,0,0,.1-.007.73.73,0,0,0,.468-.3Z" transform="translate(25.163 52.997)"/><path class="f" d="M3.028,17.831c1.018-2.376,2.668-3.443,1.94-5.675s-.194-2.765.776-5.238S4.483,5.56,5.162,2.5,4.822-.308,3.513.613s-2.122,3.9-2.025,5.1S.8,8.616.215,10.459s.194,5.966.291,6.014,2.522,1.358,2.522,1.358" transform="translate(6.174 99.778)"/><path class="b" d="M3.195,18.111h0l-.112-.06C2.326,17.642.641,16.733.563,16.694a13.886,13.886,0,0,1-.349-6.152c.154-.49.322-.967.485-1.428l0-.007a9.117,9.117,0,0,0,.78-3.266C1.384,4.628,2.193,1.6,3.557.635A2.749,2.749,0,0,1,4.936,0,.579.579,0,0,1,5.27.1c.406.27.442,1.081.116,2.551-.332,1.5.052,1.946.391,2.344.354.414.688.8.185,2.088-.146.372-.284.7-.406,1l-.02.048c-.689,1.656-.947,2.275-.347,4.113.513,1.573-.136,2.616-.887,3.823l0,0a14.266,14.266,0,0,0-1.057,1.93l-.049.117ZM4.932.233A2.611,2.611,0,0,0,3.69.826c-1.278.9-2.067,3.858-1.976,5A9.212,9.212,0,0,1,.922,9.18v0c-.145.411-.325.923-.486,1.428a10.045,10.045,0,0,0-.118,3.458A17.837,17.837,0,0,0,.7,16.5c.274.146,1.973,1.062,2.38,1.282A14.839,14.839,0,0,1,4.1,15.942l0,0c.75-1.205,1.342-2.158.863-3.628-.627-1.921-.34-2.61.353-4.275.127-.3.27-.649.424-1.042C6.2,5.84,5.934,5.532,5.6,5.143c-.356-.417-.8-.937-.443-2.546C5.525.944,5.351.43,5.141.29A.368.368,0,0,0,4.932.233Z" transform="translate(6.064 99.661)"/><path class="c" d="M9.629,17.607c.189-.823,1.606-3.529.524-4.788S8.357,11.684,8.58,10.4s1.01-3.45-.053-4.633-2.106.526-2.158-1.291S6.52,1.153,5.354.886s-1.233.655-1.813.2S-.751-1.132.136,1.13,3.827,4.541,3.106,6.108s-1.842,1.417-.1,3.083,2.216,1.2,1.574,2.889A9.782,9.782,0,0,0,4.4,16.332s5.245,1.207,5.229,1.275" transform="translate(0.116 98.479)"/><path class="b" d="M9.684,17.822h0c-.19-.091-3.21-.8-5.194-1.258l-.075-.017L4.4,16.471a9.8,9.8,0,0,1,.189-4.315c.435-1.147.374-1.194-.38-1.776L4.2,10.372a13.827,13.827,0,0,1-1.153-.979c-1.268-1.209-1.1-1.537-.562-2.225a4.755,4.755,0,0,0,.633-.989c.376-.819-.3-1.525-1.164-2.418A7.829,7.829,0,0,1,.144,1.29C-.073.735-.045.351.229.149A.933.933,0,0,1,.792,0,6.927,6.927,0,0,1,3.729,1.108a.386.386,0,0,0,.234.1.616.616,0,0,0,.29-.121A1.46,1.46,0,0,1,5.066.837,1.944,1.944,0,0,1,5.5.89C6.571,1.137,6.579,2.3,6.59,3.775v.07c0,.241,0,.49.01.746.012.4.071.634.181.727a.306.306,0,0,0,.205.058,2.049,2.049,0,0,0,.276-.028,2.817,2.817,0,0,1,.416-.039,1.343,1.343,0,0,1,1.05.5c.908,1.01.541,2.64.246,3.95v.006c-.06.265-.122.538-.163.775-.138.8.095.99.6,1.417a7.306,7.306,0,0,1,.941.907c.9,1.042.179,2.987-.248,4.15a7.551,7.551,0,0,0-.249.74l-.114-.025-.062.1ZM.779.231h0a.692.692,0,0,0-.412.1C.189.468.187.76.361,1.2A7.647,7.647,0,0,0,2.114,3.592L2.12,3.6c.886.919,1.651,1.713,1.207,2.676A4.989,4.989,0,0,1,2.67,7.308l0,0c-.469.6-.627.8.54,1.913a13.481,13.481,0,0,0,1.135.962l.012.009c.816.631.937.771.456,2.042a9.461,9.461,0,0,0-.191,4.116c3.515.809,4.647,1.085,5.044,1.229.05-.17.129-.386.226-.65.41-1.115,1.1-2.982.291-3.92a7.111,7.111,0,0,0-.915-.88l0,0A1.417,1.417,0,0,1,8.582,10.5c.039-.229.1-.484.157-.754l.007-.033c.285-1.259.639-2.826-.19-3.749a1.112,1.112,0,0,0-.877-.419,2.672,2.672,0,0,0-.383.036H7.29a2.267,2.267,0,0,1-.3.029A.517.517,0,0,1,6.634,5.5c-.17-.142-.251-.419-.264-.9-.009-.29-.011-.576-.012-.818-.01-1.426-.017-2.457-.913-2.663a1.7,1.7,0,0,0-.377-.046,1.234,1.234,0,0,0-.7.221l-.007,0a.8.8,0,0,1-.4.15.612.612,0,0,1-.377-.154A6.781,6.781,0,0,0,.779.232Z" transform="translate(0 98.362)"/><path class="b" d="M8.686,0H0L1.091,8.434H7.259Z" transform="translate(3.739 114.38)"/><path class="b" d="M.009.115A.077.077,0,1,1,.146.041,33.733,33.733,0,0,1,3.555,12.386.078.078,0,1,1,3.4,12.4,33.548,33.548,0,0,0,.009.115" transform="translate(4.347 102.164)"/></g></g></svg>