<svg xmlns="http://www.w3.org/2000/svg" xmlns:xlink="http://www.w3.org/1999/xlink" width="169.911" height="169.911" viewBox="0 0 169.911 169.911"><defs><style>.a{fill:none;}.b{fill:#fff;}.c{fill:#1559a7;}.d{fill:#b0d1ee;}.e{fill:#3a77bb;}.f{fill:#eeeeef;}.g{fill:#00458c;}.h{clip-path:url(#a);}</style><clipPath id="a"><path class="a" d="M0,169.911H169.911V0H0Z"/></clipPath></defs><g transform="translate(0 -1)"><path class="b" d="M0,18.21H6.715V0H0Z" transform="translate(114.855 138.483)"/><path class="c" d="M7.007,18.5H0V0H7.007V18.5ZM.291.292V18.211H6.715V.292Z" transform="translate(114.71 138.338)"/><path class="d" d="M0,2.245H6.715V0H0Z" transform="translate(114.855 150.316)"/><path class="c" d="M7.007,2.536H0V0H7.007V2.536ZM.291.291V2.245H6.715V.291Z" transform="translate(114.71 150.171)"/><path class="b" d="M7.509,0H84.42l7.509,3.361H0Z" transform="translate(29.653 97.075)"/><path class="c" d="M91.976,3.6H.048L0,3.371,7.556,0,84.516.01l7.509,3.361-.048.225h0ZM7.581.235.6,3.361H91.425L84.443.235Z" transform="translate(29.606 96.957)"/><path class="b" d="M0,49.063H91.13V0H0Z" transform="translate(30.455 101.073)"/><path class="c" d="M91.421,49.354H0V0H91.421V49.354ZM.291.291V49.062h90.84V.291Z" transform="translate(30.309 100.927)"/><path class="e" d="M0,1.751H91.13V0H0Z" transform="translate(30.455 101.072)"/><g transform="translate(0 1)"><path class="e" d="M3.708,1.569c-.076.052-.152.108-.225.166h0q-.2.469-.371.911h0l-.081.219h0c-.08.218-.152.431-.219.639l-.065.207h0l-.061.2h0l-.057.2h0l-.054.2h0l-.05.195h0L2.477,4.7h0c-.031.127-.059.252-.085.375l-.037.183h0l-.035.18-.033.178-.029.176h0c-.019.116-.036.231-.052.344L2.182,6.3l-.02.166h0l-.018.163-.016.161h0l-.015.159h0L2.1,7.109h0l-.011.154h0l-.009.153-.008.15-.006.149-.005.146,0,.145h0l0,.142h0l0,.14,0,.139h0V8.7h0v.134h0v.133h0v.26h0v.128h0v.126h0v.125h0v.124h0v.123h0V9.98h0l0,.121h0l0,.119h0c0,.159-.011.314-.022.468h0c-.006.077-.012.153-.019.229H2c-.007.075-.015.15-.025.225h0c-.024.187-.056.372-.1.554h0C2.02,15.452,1.815,18.671,0,21.827c.784-.105,1.347,1.017,2.191,1.017.795,0,3.532-.258,5.922-.338,2.158-.072,4.2-1.126,5.865-1.548a73.291,73.291,0,0,1,1.205-7.745,70.8,70.8,0,0,1-1.446-8.082c-.373-2.277-.26-3.927.881-4.124.067-.011.479.112.546.111-1.9-1.89-9.112-1.147-11.455.449" transform="translate(83.97 72.035)"/><path class="c" d="M2.465,23.135a1.992,1.992,0,0,1-1.182-.559l-.021-.017a1.592,1.592,0,0,0-.879-.448.623.623,0,0,0-.089.006L0,22.157.147,21.9c1.747-3.038,2.008-6.1,1.863-10.052l0-.037.017-.033c.019-.1.055-.292.083-.509.008-.06.018-.14.025-.222s.014-.158.019-.224c.01-.15.017-.3.021-.461l.007-.607,0-.907L2.292,6.6l.043-.337c.016-.116.034-.231.052-.348l.136-.724c.023-.109.047-.215.073-.328l.012-.052.34-1.2c.074-.226.146-.437.221-.645l.082-.22c.123-.322.245-.622.374-.918l.044-.056c.068-.054.144-.11.232-.171A13.388,13.388,0,0,1,9.866.037C10.246.012,10.631,0,11.011,0c2.777,0,4,.632,4.529,1.162l.245.244-.346,0a1.469,1.469,0,0,1-.269-.053A2.447,2.447,0,0,0,14.9,1.3c-.913.158-1.157,1.451-.748,3.954a68.8,68.8,0,0,0,1.392,7.829l0,.015.057.262-.007.032a71.534,71.534,0,0,0-1.2,7.729l-.011.1-.1.025c-.537.136-1.116.34-1.729.556l0,0a14.144,14.144,0,0,1-4.161.994c-1.355.046-2.827.148-3.9.223C3.56,23.084,2.826,23.135,2.465,23.135ZM11.019.29h0c-.365,0-.747.012-1.134.037a13.328,13.328,0,0,0-5.82,1.506c-.067.045-.13.092-.189.137-.127.294-.246.587-.353.87l-.081.219c-.077.21-.15.423-.217.633L2.892,4.878c-.03.123-.058.247-.084.371l-.133.712c-.02.118-.037.237-.052.339L2.47,8.981l0,.774-.008.614c0,.173-.012.328-.022.474,0,.07-.011.152-.019.232s-.017.162-.026.231c-.025.193-.056.374-.1.551C2.444,15.767,2.2,18.8.521,21.831a2.166,2.166,0,0,1,.938.513,1.755,1.755,0,0,0,1.006.5c.358,0,1.158-.055,2-.114,1.083-.075,2.565-.178,3.913-.223a13.914,13.914,0,0,0,4.079-.98l.028-.01c.574-.2,1.116-.392,1.627-.528a71.644,71.644,0,0,1,1.192-7.629l-.043-.2a68.716,68.716,0,0,1-1.4-7.871c-.439-2.678-.115-4.077.99-4.277A8.241,8.241,0,0,0,11.019.291Z" transform="translate(83.696 71.89)"/><path class="c" d="M5.092,0A11.45,11.45,0,0,0,1.074,1.318,8.09,8.09,0,0,0,0,3.36v0H0S2.288,1.928,3.5,1.232A5.54,5.54,0,0,0,4.911.263Z" transform="translate(86.784 72.172)"/><path class="b" d="M12.6,24.731c-1.491,0-3.062-.065-4.671-.193l3.418-.243.409-.029-7.476-.433.006-.106c.072-1.274.15-2.285.244-3.179.606.047,1.245.106,1.921.168,1.807.167,3.855.355,5.787.355a16.405,16.405,0,0,0,4.509-.515,5.432,5.432,0,0,0,3.125-2.029c.611-.88.821-2.3.644-4.352a51.8,51.8,0,0,0-1-5.835c-.7-3.353-1.366-6.519-.513-7.773A1.266,1.266,0,0,1,19.87.017,1.186,1.186,0,0,1,20.07,0c.565,0,1.123.417,1.659,1.24a13.553,13.553,0,0,1,1.391,3.21,52.559,52.559,0,0,1,1.833,9.269c.222,1.9.358,3.727.393,5.3a3.875,3.875,0,0,1-1.14,2.893C21.923,24.241,16.636,24.731,12.6,24.731ZM.314,22.4v0a1.518,1.518,0,0,1-.275-1.179.864.864,0,0,1,.52-.508c-.1.6-.18,1.169-.244,1.686Z" transform="translate(78.971 73.152)"/><path class="c" d="M12.814,25.027c-1.5,0-3.1-.067-4.748-.2v-.291l1.572-.112-5.365-.311.015-.252c.074-1.287.152-2.3.245-3.186l.015-.141.142.011c.621.048,1.281.109,1.919.168h.006c1.819.167,3.882.357,5.8.357a16.13,16.13,0,0,0,4.429-.5A5.3,5.3,0,0,0,19.9,18.59c1.33-1.917.422-6.249-.378-10.071v0l0-.007c-.708-3.38-1.377-6.573-.49-7.878a1.409,1.409,0,0,1,.961-.611A1.317,1.317,0,0,1,20.215,0a1.55,1.55,0,0,1,.929.341c2.037,1.524,3.453,7.977,4.1,13.507.222,1.9.359,3.738.394,5.309a4.037,4.037,0,0,1-1.322,3.136,10.165,10.165,0,0,1-5,2.186A33.677,33.677,0,0,1,12.814,25.027Zm-8-4.177c-.087.857-.159,1.807-.226,2.992l7.33.425,0,.291-1.628.115c.809.035,1.618.053,2.4.053a34.8,34.8,0,0,0,6.4-.515,10.059,10.059,0,0,0,5.025-2.13,3.758,3.758,0,0,0,1.231-2.918c-.034-1.552-.169-3.379-.391-5.282-.61-5.22-2.019-11.838-3.985-13.308a1.244,1.244,0,0,0-.754-.282,1.054,1.054,0,0,0-.175.015,1.11,1.11,0,0,0-.769.488c-.818,1.2-.161,4.339.534,7.66.853,4.071,1.735,8.28.334,10.3a5.552,5.552,0,0,1-3.17,2.082,16.337,16.337,0,0,1-4.556.529c-1.938,0-4.006-.191-5.831-.36l-.2-.018c-.551-.05-1.072-.1-1.575-.138ZM.333,22.615h0a1.65,1.65,0,0,1-.288-1.3,1.017,1.017,0,0,1,.6-.6l.246-.109-.044.266C.753,21.459.671,22.025.6,22.56l-.271.055Zm.177-1.476a.589.589,0,0,0-.189.269.984.984,0,0,0,.057.628C.421,21.728.466,21.426.511,21.138Z" transform="translate(78.825 73.006)"/><path class="b" d="M.1,1.515A1.6,1.6,0,0,1,.444,2.926c-2.138,10.693,4.132-.154,4.119-.192A5.332,5.332,0,0,1,3.541.331C3.525-.852.1,1.515.1,1.515" transform="translate(91.251 69.51)"/><path class="c" d="M.69,7.925a.513.513,0,0,1-.272-.074C.062,7.634-.324,6.9.448,3.04a1.462,1.462,0,0,0-.3-1.279L.024,1.638l.143-.1C.689,1.177,2.46,0,3.33,0A.589.589,0,0,1,3.6.057a.437.437,0,0,1,.23.416,3.443,3.443,0,0,0,.735,1.874l0,.006a2.326,2.326,0,0,1,.277.479c.106.314-2.413,3.957-3.4,4.745A1.307,1.307,0,0,1,.69,7.925ZM3.317.284h0a8.268,8.268,0,0,0-2.855,1.4A1.794,1.794,0,0,1,.733,3.1C-.039,6.963.393,7.55.615,7.623a.3.3,0,0,0,.1.015c.52,0,1.461-1.163,2.159-2.139A29.36,29.36,0,0,0,4.551,2.872a3.351,3.351,0,0,0-.225-.364l0,0A3.731,3.731,0,0,1,3.542.476c0-.122-.051-.149-.072-.161A.331.331,0,0,0,3.317.285Z" transform="translate(91.105 69.367)"/><path class="c" d="M.177,1.837A1.841,1.841,0,0,1,.142,2.1c-.053.266-.1.514-.142.753C.485,5.468,3.252,1.106,3.355,0c0,0-.165.31-.443.293A3.612,3.612,0,0,1,.177,1.837" transform="translate(91.553 70.34)"/><path class="b" d="M0,3.333c.511,1.456,1.364,3.12,2.667,3.555A3.518,3.518,0,0,0,7,3.936c.032-.347.139-.719.178-1.143a2.028,2.028,0,0,0,.682-1.751,1.015,1.015,0,0,0-.3-.568c-1.209-.414-1.182.7-1.137,1.094.373,1.093-.125.99-.72-.121C5.453.975,3.443.225,2.008,0c.311.3.847.39,1.687,1,.989.721-2.083.948-2.845.324A1.92,1.92,0,0,1,.518.978,3.576,3.576,0,0,1,0,3.333" transform="translate(88.074 65.143)"/><path class="c" d="M3.739,7.325a3.014,3.014,0,0,1-.955-.155C1.4,6.708.519,4.932.025,3.524L0,3.454l.043-.062A3.405,3.405,0,0,0,.535,1.15L.8,1.036a1.787,1.787,0,0,0,.307.322,2.811,2.811,0,0,0,1.54.33,3.184,3.184,0,0,0,1.083-.153c.137-.055.177-.107.18-.121s-.021-.067-.135-.151A6.655,6.655,0,0,0,2.687.625l0,0,0,0A2.325,2.325,0,0,1,2.069.249L2.192,0C3.63.226,5.71.988,6,1.523a2.488,2.488,0,0,0,.574.789,1.6,1.6,0,0,0-.121-.552A1.386,1.386,0,0,1,6.759.542a.769.769,0,0,1,.495-.16,1.645,1.645,0,0,1,.519.1l.051.031a1.158,1.158,0,0,1,.343.647,2.113,2.113,0,0,1-.685,1.849c-.022.2-.057.392-.091.574l0,.01,0,.016c-.032.17-.062.331-.076.485A3.712,3.712,0,0,1,5.6,6.742,3.416,3.416,0,0,1,3.739,7.325ZM.836,1.51A3.4,3.4,0,0,1,.324,3.5c.47,1.317,1.294,2.976,2.551,3.4a2.72,2.72,0,0,0,.862.14A3.128,3.128,0,0,0,5.44,6.5,3.417,3.417,0,0,0,7.02,4.066c.015-.172.048-.345.083-.528s.075-.393.1-.614L7.2,2.865l.044-.038a1.894,1.894,0,0,0,.633-1.614A.883.883,0,0,0,7.649.747,1.3,1.3,0,0,0,7.256.673a.493.493,0,0,0-.314.1c-.266.214-.226.764-.207.927.183.526.174.824-.026.911a.239.239,0,0,1-.093.019c-.233,0-.535-.334-.874-.966A6.383,6.383,0,0,0,3.031.471a6.451,6.451,0,0,1,.913.557c.185.135.27.277.252.422s-.14.268-.36.355a3.616,3.616,0,0,1-1.217.175,2.916,2.916,0,0,1-1.7-.4C.89,1.559.862,1.534.836,1.51Z" transform="translate(87.912 65)"/><path class="c" d="M8.043,8.249c.6,1.11,1.093,1.214.72.121C8.718,7.976,8.691,6.862,9.9,7.276c0,0,.1-2.8-1.936-3.85a4.938,4.938,0,0,0,.042-.678c0-3.81-3.82-3.041-4.542-1.388a3.689,3.689,0,0,0-.2,2.127A5.782,5.782,0,0,0,.189,6.674c-.506,1.4.054,3.552,1.08,2.6.114.686.332,1.456.721,1.233l.015.025L2,10.5a.677.677,0,0,0,.147-.13,3.4,3.4,0,0,0,.7-2.591,1.9,1.9,0,0,0,.332.349c.762.624,3.835.4,2.845-.324-.84-.613-1.376-.705-1.687-1,1.435.225,3.445.975,3.7,1.449" transform="translate(85.738 58.342)"/><path class="b" d="M8.34,0C3.263,2.3-1.387,25.579.384,25.382c.232-.025,2.965,1.139,3.53-.206a9.816,9.816,0,0,0,.233-2.066A38.5,38.5,0,0,1,6.207,11.8c.242-.782.435-1.416.532-1.837C7.272,7.625,6.166,5,8.34,0" transform="translate(79.114 73.77)"/><path class="c" d="M2.783,26.1a7.234,7.234,0,0,1-1.9-.35l-.016,0a3.2,3.2,0,0,0-.333-.086l-.035,0c-.13,0-.307-.076-.406-.441C-.706,22.294,3.653,2.157,8.424,0l.193.19a16.32,16.32,0,0,0-1.42,7.4,11.086,11.086,0,0,1-.173,2.534c-.1.439-.3,1.1-.534,1.848A38.244,38.244,0,0,0,4.436,23.25a9.5,9.5,0,0,1-.244,2.115A1.36,1.36,0,0,1,2.783,26.1ZM.537,25.369a1.98,1.98,0,0,1,.429.1,6.993,6.993,0,0,0,1.821.34c.6,0,.982-.188,1.137-.559a10.507,10.507,0,0,0,.222-2.018A38.5,38.5,0,0,1,6.213,11.889c.25-.81.434-1.415.528-1.826a10.821,10.821,0,0,0,.165-2.468v0A16.56,16.56,0,0,1,8.186.464,10.105,10.105,0,0,0,5.285,4.5a49.352,49.352,0,0,0-2.837,7.928C.771,18.438.023,23.855.376,25.143c.038.137.088.229.125.229l.011,0Z" transform="translate(78.97 73.637)"/><path class="f" d="M2.127,0a9.257,9.257,0,0,0,.72,2.079C3.087,2.24,4.74,1,5.3,1.8c.529.756-3.964,2.608-5.186,1.873L0,1.572.13.558S2.139.046,2.127,0" transform="translate(79.684 93.452)"/><path class="c" d="M1.072,4.106a1.74,1.74,0,0,1-.888-.188l-.066-.04L0,1.7.144.562l.1-.025C1.109.316,2.09.052,2.2,0l.061.124.158-.04,0,0A8.855,8.855,0,0,0,3.077,2.08c.04,0,.293-.114.478-.194l.009,0A3.614,3.614,0,0,1,4.871,1.5a.784.784,0,0,1,.694.333c.074.107.153.333-.145.652A7.741,7.741,0,0,1,1.072,4.106ZM2.173.318C1.92.405,1.445.53.407.8L.29,1.71.4,3.7a1.6,1.6,0,0,0,.673.118A7.69,7.69,0,0,0,5.207,2.29c.068-.073.174-.207.118-.287a.527.527,0,0,0-.463-.209,3.434,3.434,0,0,0-1.19.358,1.931,1.931,0,0,1-.62.207.244.244,0,0,1-.14-.039A6.243,6.243,0,0,1,2.173.318Z" transform="translate(79.538 93.332)"/><path class="c" d="M0,.015C.217,0,2.073,0,2.073,0S.126,2.441.122,2.35,0,.015,0,.015" transform="translate(79.886 94.663)"/><path class="c" d="M.275,2.647a.118.118,0,0,1-.043-.009l-.1-.031L.13,2.5C.126,2.424.036.713.008.19V.169L0,.023.147.016C.362.006,2.14,0,2.226,0h.3L2.34.237C.608,2.41.39,2.647.275,2.647ZM1.922.293C1.642.294.7.3.306.3l.03.56c.022.425.05.949.068,1.29C.817,1.671,1.671.608,1.922.293Z" transform="translate(79.733 94.516)"/><path class="b" d="M0,.381A4.731,4.731,0,0,1,2.607.1c.589.26,1.1,1.6.514,2.188-.61.606-2.072.652-2.988.569Z" transform="translate(79.551 92.16)"/><path class="c" d="M.984,3.182c-.325,0-.586-.019-.712-.031L.146,3.14,0,.421.107.387A7.4,7.4,0,0,1,2.128,0a1.727,1.727,0,0,1,.69.117,1.787,1.787,0,0,1,.829,1.272,1.251,1.251,0,0,1-.271,1.152A3.629,3.629,0,0,1,.984,3.182ZM2.131.29A7.114,7.114,0,0,0,.3.631L.423,2.872c.185.014.376.021.566.021A3.3,3.3,0,0,0,3.17,2.334a1.011,1.011,0,0,0,.19-.891A1.533,1.533,0,0,0,2.7.383,1.441,1.441,0,0,0,2.131.29Z" transform="translate(79.399 92.015)"/><path class="b" d="M.011.907C-.147.854,1.43.3,1.889.007,2.1-.127,1.222,1.823.011.907" transform="translate(90.953 70.307)"/><path class="c" d="M.811,1.481a1.218,1.218,0,0,1-.723-.258L.015,1.2,0,1.087C-.006.945.082.9.881.565a9.864,9.864,0,0,0,1.076-.5L2.066,0l.108.1c.153.187-.247.739-.44.938A1.3,1.3,0,0,1,.811,1.481Zm.983-1C1.559.6,1.27.718.994.834c-.172.072-.419.177-.58.252a.848.848,0,0,0,.4.106.784.784,0,0,0,.311-.066A1.6,1.6,0,0,0,1.794.484Z" transform="translate(90.807 70.122)"/><path class="c" d="M0,.216A.242.242,0,1,1,.482.269C.482.274.405,1.7.709,1.936c.023.132-.013.177-.145.2C.168,2.2-.014.348,0,.216" transform="translate(80.868 92.99)"/><path class="g" d="M16.977,2.056h0L0,1.591V0L17.235.453l.022.473a.442.442,0,0,1-.246.429L27.743.594l.409-.03.011.354L16.977,2.056Z" transform="translate(62.578 96.853)"/><path class="c" d="M0,.335C.895.174,2.014,0,2.014,0S3.052.027,3.272.678l.6,13.533-.521.065L2.619.9A.536.536,0,0,0,2.1.439Z" transform="translate(76.478 83.412)"/><path class="b" d="M0,1.425H0A.444.444,0,0,0,.244,1L.2,0,11.138.633l-.409.03Z" transform="translate(79.592 96.784)"/><path class="c" d="M.243,1.776h0L0,1.462l.3-.007.21.012v.291l-.267.018Zm.717-.052h0L.886,1.448a.3.3,0,0,0,.164-.291L1,0l.162.009L12.1.643l0,.29L.96,1.724ZM1.3.309h0l.039.835a.626.626,0,0,1-.045.265L9.826.8,1.3.309Z" transform="translate(78.64 96.63)"/><path class="b" d="M.415,0,17.231.85a.5.5,0,0,1,.462.463l.738,13.743a.389.389,0,0,1-.415.419L1.2,14.626a.5.5,0,0,1-.463-.463L0,.419A.389.389,0,0,1,.415,0" transform="translate(61.403 82.782)"/><path class="c" d="M18.189,15.775h-.031l-16.815-.85a.653.653,0,0,1-.6-.6L0,.578A.546.546,0,0,1,.157.157.556.556,0,0,1,.547,0H.572L17.389.85a.655.655,0,0,1,.6.605L18.731,15.2a.537.537,0,0,1-.541.578ZM.544.3a.238.238,0,0,0-.175.07A.248.248,0,0,0,.3.561L1.039,14.3a.352.352,0,0,0,.321.322l16.815.849h0a.254.254,0,0,0,.184-.069.25.25,0,0,0,.07-.193L17.694,1.471a.352.352,0,0,0-.321-.322L.557.3Z" transform="translate(61.254 82.632)"/><path class="c" d="M.964.455C2.85-.859,2.616.99,1.821,2,.755,3.364-1.171,1.944.964.455" transform="translate(68.964 89.304)"/><path class="c" d="M7.337,1.06C6.908,3.7,1.867,5.129.608,6.536-.012,7.229-.363,9.2.583,9.048L13.572,6.929C14.707,6.744,13.086.03,11.958,0l.17,1.682h0l.045.3A3.83,3.83,0,0,1,7.989,3.017l-.081-.3-.076-.036c-.144-.39-.311-1.138-.495-1.621" transform="translate(137.052 146.748)"/><path class="b" d="M0,.645C.285,1.965.747,3.519,1.041,4.621A3.83,3.83,0,0,0,5.224,3.589L4.65,0H4.355A7.329,7.329,0,0,1,0,.645" transform="translate(144 145.144)"/><path class="c" d="M2.6,5.144A4.517,4.517,0,0,1,1.135,4.9a.147.147,0,0,1-.089-.1c-.08-.3-.171-.624-.267-.971L.762,3.77C.5,2.832.207,1.77,0,.822A.145.145,0,0,1,.041.69.149.149,0,0,1,.146.645l.026,0A5.911,5.911,0,0,0,1.228.736a7.04,7.04,0,0,0,3.2-.715A.144.144,0,0,1,4.5,0H4.8A.147.147,0,0,1,4.94.123l.573,3.59a.146.146,0,0,1-.033.117A3.68,3.68,0,0,1,2.6,5.144ZM.334.969h0c.2.874.464,1.839.7,2.69l.026.1c.106.379.182.656.248.9a4.152,4.152,0,0,0,1.3.21A3.386,3.386,0,0,0,5.215,3.691L4.672.291H4.54a7.283,7.283,0,0,1-3.295.739A6.5,6.5,0,0,1,.334.969Z" transform="translate(143.855 144.999)"/><path class="b" d="M18.979.37c-.47,6.694-3.788,7.357-11,6.946A26.57,26.57,0,0,0,4,6.427C3.07,6.427-.411,8.257.04,8.635c.331.278,1.234-.166,1.242-.094.02.174-1.154.531-.584.722.482.161,1.482-.423,1.906-.423s.419,2.481,2.329,2.5c11.139.1,16.549,0,18.859-9.958-.33-.372-.645-.743-.943-1.116-1.422-.579-3.023-.05-3.87.105" transform="translate(91.037 73.147)"/><path class="c" d="M7.966,11.647c-.839,0-1.7-.008-2.615-.016l-.274,0c-1.4-.012-1.846-1.252-2.112-1.992a1.772,1.772,0,0,0-.231-.509,3.1,3.1,0,0,0-.656.193l-.018.006a3.39,3.39,0,0,1-1.019.256A.754.754,0,0,1,.8,9.547C.639,9.494.553,9.411.542,9.3S.59,9.1.729,9a1.508,1.508,0,0,1-.221.018.628.628,0,0,1-.415-.125.26.26,0,0,1-.073-.3c.24-.658,3.275-2.164,4.127-2.164a26.056,26.056,0,0,1,4.021.9c1.17.066,2.087.1,2.886.1,2.807,0,4.512-.4,5.7-1.329C18.077,5.055,18.784,3.28,18.98.5A.146.146,0,0,1,19.1.372c.134-.024.282-.058.453-.1l.009,0h0A8.982,8.982,0,0,1,21.531,0,3.965,3.965,0,0,1,23.05.274a.132.132,0,0,1,.058.045c.288.36.595.723.938,1.109a.143.143,0,0,1,.033.13,16.646,16.646,0,0,1-2.172,5.485,8.755,8.755,0,0,1-3.35,3.034C16.01,11.39,12.745,11.647,7.966,11.647ZM2.749,8.84c.239,0,.339.277.489.7.257.713.644,1.789,1.841,1.8,1.008.01,2.05.02,3.014.02,4.722,0,7.937-.251,10.4-1.535,2.64-1.378,4.271-3.925,5.288-8.257-.313-.352-.6-.691-.874-1.035A3.76,3.76,0,0,0,21.53.292a8.78,8.78,0,0,0-1.906.267c-.14.031-.255.057-.362.078a11.583,11.583,0,0,1-.719,3.487,5.072,5.072,0,0,1-1.578,2.162,6.151,6.151,0,0,1-2.529,1.1,17.041,17.041,0,0,1-3.572.308c-.789,0-1.686-.029-2.745-.089L8.04,7.585h0a23.694,23.694,0,0,0-3.889-.866C3.276,6.717.333,8.324.292,8.7a.31.31,0,0,0,.175.04,2.827,2.827,0,0,0,.693-.145l.007,0a.994.994,0,0,1,.247-.058.157.157,0,0,1,.091.027.16.16,0,0,1,.068.112c.018.16-.148.255-.4.4l0,0a2.516,2.516,0,0,0-.3.192l.023.009a.48.48,0,0,0,.152.021,3.316,3.316,0,0,0,.93-.242l.009,0A2.713,2.713,0,0,1,2.749,8.84Z" transform="translate(90.891 73.002)"/><path class="c" d="M2.382,0C.02,2.918-.216,5.611.125,9.55c.053.618,2.442-.81,4.471.015C2.415,6.828,1.219,3.973,2.382,0" transform="translate(109.291 63.847)"/><path class="c" d="M.53,9.947a.471.471,0,0,1-.288-.075.294.294,0,0,1-.118-.219C-.222,5.654.041,2.932,2.413,0l.253.132c-1,3.428-.35,6.249,2.187,9.433l-.169.225a3.677,3.677,0,0,0-1.408-.252,8.806,8.806,0,0,0-1.9.267l-.015,0A4.394,4.394,0,0,1,.53,9.947ZM2.2.755A9.5,9.5,0,0,0,.475,4.811,18.46,18.46,0,0,0,.414,9.629a.179.179,0,0,0,.116.025,4.71,4.71,0,0,0,.777-.134h0a8.992,8.992,0,0,1,1.968-.273,4.323,4.323,0,0,1,1.054.123,11.793,11.793,0,0,1-2-3.67A9.244,9.244,0,0,1,2.2.755Z" transform="translate(109.146 63.755)"/><path class="c" d="M8.577,0A16.544,16.544,0,0,1,4.554,2.645C2.964,3.16,1.373,2.977.6,3.8a2.584,2.584,0,0,0-.486,2.42c.159.243,13.863.061,14.155-.091S13.957.4,13.619.187s-.371-.132-.713-.181l0,.211c0,.316,0,.516,0,.516a3.591,3.591,0,0,1-4.276.273Z" transform="translate(113.154 149.751)"/><path class="b" d="M0,.4.217,4.1a3.592,3.592,0,0,0,4.276-.273s0-.2,0-.516C4.483,2.5,4.479.924,4.521,0Z" transform="translate(121.573 146.66)"/><path class="c" d="M2.342,4.985A3.967,3.967,0,0,1,.3,4.382L.231,4.343,0,.431,4.829,0,4.821.167c-.04.852-.04,2.265-.034,3.3l.006.588L4.736,4.1A3.836,3.836,0,0,1,2.342,4.985ZM4.523.32.308.7l.2,3.475a3.645,3.645,0,0,0,1.827.519A3.537,3.537,0,0,0,4.5,3.913l0-.444C4.492,2.692,4.488,1.249,4.523.32Z" transform="translate(121.419 146.5)"/><path class="c" d="M4.966,8.788C2.824,10.268,0,9.2,0,6.5,0,3.279,9.467-2.79,11.773,1.458c0,0,3.13.275,3.217,5.006l-1.026.283h0v0h0l0-.005h0l0-.008h0l0-.01h0l0-.011h0l-.006-.014h0l-.007-.015h0l-.008-.017h0l-.009-.019h0l-.009-.02h0L13.9,6.6h0l-.011-.023h0l-.012-.025h0l-.013-.026h0L13.845,6.5h0l-.015-.028-.015-.029h0l-.016-.03h0l-.017-.03h0l-.018-.032-.019-.032h0l-.019-.033h0l-.02-.033h0l-.021-.034h0l-.022-.034h0l-.022-.035h0l-.023-.035h0l-.023-.035-.025-.035-.025-.035-.026-.035h0l-.026-.034h0l-.027-.034-.027-.035-.028-.034h0l-.029-.033h0l-.029-.032-.03-.033-.031-.031-.031-.031h0l-.032-.03h0l-.032-.029-.033-.028h0l-.033-.026h0l-.034-.025h0l-.035-.025-.035-.023h0l-.035-.022-.036-.02-.036-.019-.037-.017h0L12.842,5.4,12.8,5.388h0l-.038-.011h0l-.038-.01-.039-.008-.039-.005-.039,0H12.53l-.04,0-.041.006-.041.008-.059.015-.054.015-.051.014-.047.014-.044.015-.04.014h0l-.037.015h0l-.034.015-.03.013-.028.015h0l-.025.015h0l-.022.015h0l-.02.015h0l-.017.015h0l-.015.015h0L11.87,5.6h0l-.011.016h0l-.009.015h0l-.007.016h0l0,.016h0l0,.017h0l0,.017h0v.017l0,.036h0l0,.019h0l.007.039h0l0,.02.023.087c.008.03.015.063.022.1h0l.009.053h0l0,.027h0l0,.028,0,.029v.03h0v.03h0l0,.031,0,.032,0,.033h0l-.007.034-.009.035-.011.036h0l-.012.036h0l-.015.037-.017.039-.02.04-.022.041-.025.042-.027.043-.03.044-.033.046-.036.047-.04.048-.043.049-.047.05-.05.052a1.274,1.274,0,0,0-.212,1.026s-1.1.637-3.113-.247l-.093-.042-.091-.041-.088-.04-.085-.041-.083-.04-.081-.04-.078-.04h0l-.076-.039-.073-.039h0l-.071-.038h0l-.068-.038h0l-.067-.037h0L7.11,7.3l-.062-.037-.06-.036L6.93,7.187l-.056-.035L6.82,7.117h0l-.051-.035-.05-.034L6.67,7.014l-.046-.033h0L6.58,6.949h0l-.042-.032h0L6.5,6.885h0l-.039-.031-.037-.03-.036-.03-.034-.029h0l-.032-.029h0l-.031-.027h0l-.029-.027-.027-.027h0L6.2,6.629h0L6.179,6.6l-.023-.025h0l-.022-.024h0l-.021-.023h0l-.019-.022h0l-.019-.022-.017-.021h0l-.016-.02h0l-.015-.019-.014-.019L6,6.39H6l-.011-.017h0l-.011-.016h0l-.009-.015h0l-.009-.015h0l-.008-.013h0L5.94,6.3h0l-.006-.012-.006-.011h0l-.005-.011h0l0-.009h0l0-.008h0l0-.008h0l0-.007h0l0-.005h0v0h0v0h0v0h0v0h0v0h0v0h0v.006h0l0,.008h0l0,.01h0l0,.011h0l0,.012h0l0,.014L5.872,6.3h0l-.006.017h0l-.006.018h0l-.007.019h0l-.008.02h0L5.835,6.4h0l-.009.022h0l-.01.023h0l-.011.023h0l-.011.025h0l-.012.025h0l-.013.026-.014.026L5.741,6.6h0l-.015.027h0l-.016.028h0l-.017.028-.018.029h0l-.018.029-.019.029-.02.029h0L5.6,6.825l-.022.029-.023.029-.024.029L5.5,6.94h0l-.025.028L5.45,7l-.027.027-.028.027-.029.026-.03.026L5.3,7.128l-.033.024-.033.024L5.2,7.2l-.035.022h0l-.036.02-.037.02h0l-.039.018-.04.018-.04.016-.042.015-.043.013-.044.012L4.8,7.365l-.047.009-.047.008-.049.006-.05,0-.051,0H4.508l-.053,0-.054,0-.056-.005h0v0l0,0h0l0,0,0,.005,0,0v0l0,.007,0,.008v0l0,.006,0,.009,0,.009h0l0,.011,0,.012,0,.006,0,.006.005.013.005.014h0l.005.013.006.015,0,.011,0,.005.006.017.006.017,0,0,0,.013.008.019.006.016v0l.008.02.008.02,0,.009.005.012.009.022.009.022h0l.01.022.01.024.005.014,0,.01.011.025.011.025,0,0,.009.021.012.026.009.021,0,.006.012.027.012.027,0,.01.009.019.013.029.012.028v0l.013.03.014.03.007.016.007.015.015.032.015.032,0,0,.013.029.016.033.016.034.016.033.016.035,0,.009.012.026.016.035.015.03,0,.005.018.036.018.036.008.016.01.02.018.037.019.038h0l.019.037Z" transform="translate(95.424 51.541)"/><path class="c" d="M10.777,51.65C9.6,47.683,2.879,26.492,0,18.336,1.983,14.252,4.528,9.8,7.653,4.3c.006-.006.006-.012.012-.018l.006-.006C7.752,4.154,8.957,2.41,10.321,0c-.813,20.132,1.89,31.518,7.337,51.48.556,2.018-6.605,1.112-6.88.17" transform="translate(131.187 93.314)"/><path class="c" d="M0,13.275A143.206,143.206,0,0,1,7.922,0C4.8,5.5,2.253,9.952.269,14.036c-.094-.269-.181-.521-.269-.761" transform="translate(130.918 97.615)"/><path class="c" d="M2.7,0C2.68.363,2.662.72,2.65,1.071,1.287,3.481.082,5.225,0,5.348.064,5.2,1.188,2.75,2.7,0" transform="translate(138.857 92.244)"/><path class="c" d="M15.541,53.978a13,13,0,0,1-2.9-.336c-.933-.227-1.494-.514-1.582-.81C9.834,48.682,2.736,26.313.021,18.763L0,18.7l.028-.057A145.066,145.066,0,0,1,7.973,5.338c0-.009,1.162-2.54,2.692-5.338l.273.076c-.966,21.112,1.836,32.522,7.29,52.5.088.324.08.911-.969,1.21A6.575,6.575,0,0,1,15.541,53.978ZM10.619.7C9.225,3.291,8.233,5.463,8.225,5.48L8.2,5.517A147.291,147.291,0,0,0,.316,18.725C3.05,26.337,10.124,48.637,11.342,52.75c.131.441,2.369.943,4.2.943a6.125,6.125,0,0,0,1.637-.184c.927-.263.807-.706.767-.852C15.314,43.01,13.2,35,11.924,27.028A126.989,126.989,0,0,1,10.619.7Z" transform="translate(130.759 92.175)"/><path class="e" d="M22.852,12.573c-1.363,2.41-2.568,4.154-2.65,4.277l-.006.006c-.006.006-.006.012-.012.018-3.124,5.5-5.669,9.952-7.653,14.036-5,10.3-6.459,18.283-4.716,34.976l-6.793.608C-.569,39.516-1.645,35.391,8.53,10.953,10.3,10.4,20.868,6.968,25.936,1.27A3.126,3.126,0,0,0,26.614,0c.913,3.312-1.621,8.77-3.762,12.573" transform="translate(118.655 80.741)"/><path class="c" d="M1.026,66.691h0l-.009-.149C.909,64.7.8,62.963.712,61.479-.655,39.106-.98,33.79,8.535,10.935l.027-.063.065-.02c2.018-.622,12.337-4.012,17.34-9.641A2.906,2.906,0,0,0,26.614,0L26.9,0c.636,2.309-.257,5.871-2.653,10.588a60.9,60.9,0,0,1-3.785,6.389l-.436.769C9.309,36.6,5.7,42.946,8.1,65.911l.015.147-7.092.633ZM26.723.573a3.238,3.238,0,0,1-.538.832,30.531,30.531,0,0,1-9.764,6.711A60.657,60.657,0,0,1,8.777,11.11C-.684,33.85-.36,39.15,1,61.459c.1,1.57.2,3.224.3,4.915l6.5-.58C5.417,42.854,9.033,36.491,19.768,17.6l.444-.78C20.515,16.383,27.617,6.017,26.723.573Z" transform="translate(118.514 80.701)"/><path class="b" d="M15.706,34.122S27.828,30.6,33.37,24.36C38.538,18.547,7.263-11.98.8,5.169-3.626,16.91,11.579,19.106,15.706,34.122" transform="translate(111.219 57.648)"/><path class="c" d="M15.76,34.448h0l-.038-.142c-1.845-6.711-5.887-10.819-9.453-14.443-4.424-4.5-7.919-8.048-5.449-14.6C2.083,1.908,4.353.14,7.566.008,7.7,0,7.83,0,7.962,0a17.487,17.487,0,0,1,8.008,2.411,42.578,42.578,0,0,1,6.405,4.316c4.839,3.908,9.131,8.892,10.934,12.7,1.121,2.366,1.233,4.158.325,5.18a23.736,23.736,0,0,1-5.077,4.141,46.8,46.8,0,0,1-5.809,3.071A60.2,60.2,0,0,1,15.9,34.407l-.142.041ZM7.945.291c-.128,0-.248,0-.367.007C4.493.425,2.311,2.13,1.091,5.366c-2.4,6.375,1.032,9.868,5.382,14.289l0,0c3.564,3.621,7.6,7.725,9.487,14.427a61.284,61.284,0,0,0,7.318-2.831A44.53,44.53,0,0,0,28.719,28.3a22.967,22.967,0,0,0,4.7-3.887c.825-.929.7-2.61-.37-4.862a29,29,0,0,0-4.2-6.128,51.961,51.961,0,0,0-6.46-6.273A40.512,40.512,0,0,0,14.982,2.26,16.329,16.329,0,0,0,7.945.291Z" transform="translate(111.063 57.502)"/><path class="c" d="M0,12.181a32.773,32.773,0,0,1,4.931,6.7C4.957,11.9,4.123,8,5.155,0h0A20.107,20.107,0,0,1,3.337,5.624a14.992,14.992,0,0,1-2.231.114C.874,6.837.426,9.282,0,12.181" transform="translate(119.887 67.629)"/><path class="b" d="M0,2.035s1.38,3.89,4.173,5.729S8.912,7.3,9.443,5.855c0,0,2.509,1.373,3.209,1.761.524.262,2.749-1.662,1.906-4.592l-1.364-.665L10.645,1.115,9.62,1.4S8.947-.193,8.064.02c-1.294.31.16.546-.955,1.662A1.272,1.272,0,0,0,6.9,2.707s-1.1.637-3.113-.247S1.556.868,1.556.868,1.2,2.177,0,2.035" transform="translate(99.768 56.89)"/><path class="c" d="M6.411,8.741a3.843,3.843,0,0,1-2.1-.708C1.52,6.2.136,2.391.078,2.23L0,2.009l.232.027A1.4,1.4,0,0,0,.4,2.047c.9,0,1.2-.96,1.23-1.069l.28-.006c0,.007.262.674,2.147,1.5A4.878,4.878,0,0,0,6,2.927a2.59,2.59,0,0,0,.951-.159,1.317,1.317,0,0,1,.27-1.043c.5-.5.43-.776.372-1A.478.478,0,0,1,7.6.342c.082-.136.268-.229.641-.319A.855.855,0,0,1,8.443,0c.735,0,1.275.959,1.473,1.372l.959-.265L14.9,3.068l.018.062a4.244,4.244,0,0,1-1.168,4.436,1.331,1.331,0,0,1-.766.366.39.39,0,0,1-.177-.039c-.4-.223-1.435-.79-3.07-1.684a4.3,4.3,0,0,1-2.4,2.383A2.944,2.944,0,0,1,6.411,8.741ZM1.8,1.34h0a1.59,1.59,0,0,1-1.368,1A11.608,11.608,0,0,0,4.468,7.79a3.562,3.562,0,0,0,1.945.659,2.647,2.647,0,0,0,.833-.135A4,4,0,0,0,9.521,5.952l.057-.16.148.082c.025.014,2.515,1.376,3.211,1.761a.1.1,0,0,0,.042.007,1.11,1.11,0,0,0,.579-.3,3.945,3.945,0,0,0,1.092-4.069l-3.8-1.857-1.1.3L9.7,1.6C9.546,1.238,9.019.293,8.434.293a.525.525,0,0,0-.121.014c-.355.085-.44.152-.46.185s0,.092.021.162c.065.246.174.656-.448,1.277a1.13,1.13,0,0,0-.172.893l.021.1-.091.053a2.474,2.474,0,0,1-1.178.243,5.179,5.179,0,0,1-2.064-.484A5.5,5.5,0,0,1,1.8,1.34Z" transform="translate(99.553 56.744)"/><path class="c" d="M0,3.388l1.175.644C1.619,1.128.289,0,.289,0A8.854,8.854,0,0,1,0,3.388" transform="translate(109.095 59.289)"/><path class="b" d="M1.47,0C.925,4.566.555,13.675.395,19.864c-.129,4.995-1.5,5.54,1.765,6.56.335.1,1.318.272,1.549.042s2.657.377,2.7.1a2.937,2.937,0,0,0-1.36-2.093c-.962-.522-1.3-.711-1.3-.711S5.825,4.3,6.263.594A21.179,21.179,0,0,1,1.47,0" transform="translate(114.808 72.774)"/><path class="c" d="M6.3,26.933a9.129,9.129,0,0,1-1.069-.114A10.56,10.56,0,0,0,4.114,26.7a.432.432,0,0,0-.167.021.835.835,0,0,1-.58.15,4.555,4.555,0,0,1-1.1-.166c-2.476-.773-2.4-1.347-2.134-3.483l0-.021a30.109,30.109,0,0,0,.264-3.2C.569,13.3.943,4.56,1.472.128a.142.142,0,0,1,.062-.1A.152.152,0,0,1,1.618,0a.141.141,0,0,1,.032,0A20.986,20.986,0,0,0,6.411.594a.146.146,0,0,1,.143.162C6.3,2.874,5.435,10.879,4.108,23.3l-.057.534.015.008c.157.087.525.29,1.2.656A3.062,3.062,0,0,1,6.7,26.739C6.676,26.875,6.556,26.933,6.3,26.933Zm-2.165-.521a9.567,9.567,0,0,1,1.136.118,10.487,10.487,0,0,0,1.053.112.709.709,0,0,0,.089,0,2.91,2.91,0,0,0-1.285-1.887c-.949-.516-1.3-.711-1.3-.713a.144.144,0,0,1-.073-.142C3.768,23.744,5.78,4.87,6.246.883a21.288,21.288,0,0,1-4.5-.558C1.225,4.782.858,13.418.687,20.013a30.03,30.03,0,0,1-.27,3.249C.154,25.353.106,25.73,2.35,26.43a4.016,4.016,0,0,0,1.028.15.612.612,0,0,0,.374-.073A.526.526,0,0,1,4.131,26.412Z" transform="translate(114.662 72.629)"/><path class="b" d="M5,.011c6.115.533,4.482,11.677,2.363,15.624A19.868,19.868,0,0,1,0,15.05C.632,11.635.095-.418,5,.011" transform="translate(115.86 57.618)"/><path class="c" d="M5.551,16.038a21.479,21.479,0,0,1-5.421-.7L0,15.3l.025-.133c.136-.737.218-1.892.313-3.231l0-.029C.62,7.942,1,2.508,3.18.65A2.619,2.619,0,0,1,4.922,0c.086,0,.173,0,.261.011a4.118,4.118,0,0,1,3.423,2.3c1.908,3.53.695,10.488-.945,13.542l-.035.064-.072.011A14.827,14.827,0,0,1,5.551,16.038ZM4.909.29A2.289,2.289,0,0,0,3.369.872C1.285,2.651.907,8.014.63,11.93c-.086,1.226-.167,2.383-.3,3.158a21.212,21.212,0,0,0,5.217.66,15.634,15.634,0,0,0,1.889-.1A19.313,19.313,0,0,0,9.185,9.193,12.168,12.168,0,0,0,8.35,2.446,3.846,3.846,0,0,0,5.157.3C5.073.294,4.99.29,4.909.29Z" transform="translate(115.692 57.473)"/><path class="c" d="M7.642,0,.5,3.17,0,3.9l.828.047L8.087.936A.652.652,0,0,0,7.642,0" transform="translate(86.333 80.547)"/><path class="b" d="M.935,0l-.9,1.561c-.278.484,1.036.353,1.278.218C2,1.4,1.524.069.935,0" transform="translate(104.8 62.091)"/><path class="c" d="M.7,2.194a.942.942,0,0,1-.618-.162.309.309,0,0,1-.027-.4L.955.072A.146.146,0,0,1,1.085,0H1.1c.416.048.725.535.816.99A.931.931,0,0,1,1.533,2.05,2.224,2.224,0,0,1,.7,2.194ZM1.152.313h0L.31,1.778a.113.113,0,0,0-.019.049c.031.048.175.076.4.076a1.938,1.938,0,0,0,.7-.108c.325-.182.264-.619.238-.749A1.042,1.042,0,0,0,1.152.313Z" transform="translate(104.654 61.946)"/><path class="b" d="M2.053.009A2.794,2.794,0,0,0,.536.343C0,.677-.423,1.592.762,1.756a7.244,7.244,0,0,0,3.187-.5A19.37,19.37,0,0,0,2.053.009" transform="translate(93.585 79.947)"/><path class="c" d="M1.181,2.035A1.625,1.625,0,0,1,.174,1.8.5.5,0,0,1,0,1.36C.118.236,1.554,0,1.832,0a.146.146,0,0,1,0,.291c-.222,0-1.448.2-1.539,1.1a.2.2,0,0,0,.071.191c.4.344,2.1.078,3.074-.169a.146.146,0,1,1,.071.283,11.218,11.218,0,0,1-2.329.341" transform="translate(93.361 79.816)"/><path class="b" d="M3.435,1.611C3.134,1.159,1.657-.349.541.074s-.3,3.139.6,5.065S2.621,8.154,2.8,8.154s2.322.444,2.081-.637S3.435,1.611,3.435,1.611" transform="translate(44.391 83.616)"/><path class="c" d="M3.984,8.536A6.83,6.83,0,0,1,3.1,8.464H3.092l-.035,0c-.052-.007-.09-.012-.11-.013-.2,0-.438-.222-1.79-3.1C.391,3.713-.284,1.61.122.61A.887.887,0,0,1,.635.084,1.323,1.323,0,0,1,1.106,0,4.037,4.037,0,0,1,3.7,1.677l.019.046c.007.025,1.2,4.807,1.449,5.909a.635.635,0,0,1-.131.6A1.421,1.421,0,0,1,3.984,8.536Zm-.993-.378c.019,0,.066.006.125.013l.014,0h0A6.766,6.766,0,0,0,4,8.244a1.157,1.157,0,0,0,.826-.209.359.359,0,0,0,.061-.34c-.236-1.06-1.428-5.829-1.44-5.876C3.211,1.482,2.075.293,1.1.293A1.035,1.035,0,0,0,.739.356.6.6,0,0,0,.392.719c-.347.857.267,2.879,1.029,4.5A15.137,15.137,0,0,0,2.983,8.162S2.989,8.159,2.992,8.159Z" transform="translate(44.245 83.469)"/><path class="d" d="M2.021,1.415A4.9,4.9,0,0,0,.332,0a6.82,6.82,0,0,0-.32,2.874A13.321,13.321,0,0,0,.883,6.9s1.289-.4,1.289-.679v-4.2Z" transform="translate(45.806 83.812)"/><path class="c" d="M.945,7.272h0L.893,7.149A13.557,13.557,0,0,1,.013,3.076,7.058,7.058,0,0,1,.344.139L.4,0,.539.063A5.067,5.067,0,0,1,2.287,1.53l.019.045.152.606,0,4.233c0,.319-.757.621-1.392.818l-.126.04ZM.557.4A7.47,7.47,0,0,0,.3,3.064a13.324,13.324,0,0,0,.811,3.849A2.883,2.883,0,0,0,2.175,6.4l0-4.183-.141-.546A4.813,4.813,0,0,0,.557.4Z" transform="translate(45.66 83.616)"/><path class="b" d="M.454,8.877c-.436-1.954-.7-6-.117-7.749C.941-.672,3.5-.385,4.594,2.477a10.882,10.882,0,0,1,.569,6.4Z" transform="translate(46.812 82.255)"/><path class="c" d="M5.427,9.169H.486L.461,9.055c-.446-2-.712-6.043-.113-7.828A1.69,1.69,0,0,1,1.943,0H1.98A2.522,2.522,0,0,1,3.49.572a4.509,4.509,0,0,1,1.389,2,11.029,11.029,0,0,1,.574,6.485l-.026.113ZM1.982.291H1.949A1.4,1.4,0,0,0,.623,1.32c-.56,1.675-.316,5.6.1,7.558H5.193a10.768,10.768,0,0,0-.587-6.2C4.184,1.575,3.243.291,1.982.291Z" transform="translate(46.664 82.11)"/><path class="c" d="M0,0H8.082Q7.559,3.379,7.036,6.758a12.169,12.169,0,0,1-6.13,0Z" transform="translate(45.073 90.496)"/><path class="c" d="M.325,0A27.4,27.4,0,0,1,1,6.81L.665,6.787A27.055,27.055,0,0,0,0,.075Z" transform="translate(48.916 83.881)"/><path class="a" d="M0,169.911H169.911V0H0Z" transform="translate(0 0)"/><g class="h" transform="translate(0 0)"><path class="b" d="M0,16.1H5.937V0H0Z" transform="translate(32.299 139.651)"/><path class="c" d="M6.228,16.39H0V0H6.228V16.389ZM.291.291V16.1H5.936V.291Z" transform="translate(32.154 139.505)"/><path class="e" d="M0,1.985H5.937V0H0Z" transform="translate(32.299 150.112)"/><path class="c" d="M6.228,2.275H0V0H6.228V2.275ZM.291.291V1.985H5.938V.291Z" transform="translate(32.154 149.966)"/><path class="e" d="M0,1.985H5.937V0H0Z" transform="translate(32.299 149.412)"/><path class="c" d="M6.228,2.276H0V0H6.228V2.275ZM.291.291V1.985H5.938V.291Z" transform="translate(32.154 149.267)"/><path class="d" d="M.358,31.677A71.117,71.117,0,0,1,.536,15.609,65.453,65.453,0,0,1,4.285,0s.566,4.04-.339,6.416,1.363,2.077.112,4.434,1.587,3.2.306,4.918,1.484,2.362.533,4.15-2.006,3.57-1.005,4.793,1.523,1.8.757,3.048,1.35,2.55.531,3.816-4.822.1-4.822.1" transform="translate(31.447 113.069)"/><path class="c" d="M3.568,32.361a12.962,12.962,0,0,1-3.107-.491l-.091-.027-.013-.094a71.832,71.832,0,0,1,.177-16.1A65.371,65.371,0,0,1,4.293,0l.28.032c.058.421.534,4.175-.347,6.488a1.973,1.973,0,0,0,.145,2.046,2.045,2.045,0,0,1-.04,2.4,2.415,2.415,0,0,0,.2,2.635,1.868,1.868,0,0,1,.09,2.3c-.6.8-.236,1.325.183,1.932a1.905,1.905,0,0,1,.361,2.2l-.165.309c-.893,1.67-1.737,3.246-.856,4.324l.084.1c.956,1.165,1.483,1.807.684,3.113-.335.55-.037,1.127.279,1.738.35.673.711,1.368.251,2.081C5.166,32.14,4.534,32.361,3.568,32.361ZM4.352.671A65.541,65.541,0,0,0,.824,15.679,72.519,72.519,0,0,0,.635,31.615a12.351,12.351,0,0,0,2.953.453c.847,0,1.39-.175,1.614-.521.368-.569.061-1.16-.263-1.786-.34-.658-.691-1.338-.27-2.026.69-1.13.295-1.612-.661-2.777l-.084-.1c-1-1.228-.075-2.966.825-4.646l.164-.308c.419-.789.048-1.328-.344-1.9a1.692,1.692,0,0,1-.177-2.272c.563-.753.265-1.3-.112-1.988a2.685,2.685,0,0,1-.205-2.91A1.773,1.773,0,0,0,4.12,8.712a2.257,2.257,0,0,1-.166-2.295,14.911,14.911,0,0,0,.4-5.746Z" transform="translate(31.303 113.016)"/><path class="b" d="M16.624,27.026S14.221,7.166,0,0C0,0,.639,2.595,2,2.886s.182,3.141,2.433,4.729-.2,4.894,3.481,5.978-1.475,2.526,1.051,5.193.652,3.784,2.394,6.78,5.262,1.46,5.262,1.46" transform="translate(18.093 117.929)"/><path class="c" d="M14.824,27.829a4.011,4.011,0,0,1-1.775-.384,3.75,3.75,0,0,1-1.595-1.534,6.449,6.449,0,0,1-.9-3.272,4.565,4.565,0,0,0-1.47-3.481c-1.327-1.4-.633-2.522-.127-3.34.265-.427.494-.8.383-1.086-.1-.273-.511-.511-1.243-.727-2.179-.642-2.3-2.038-2.425-3.389a3.121,3.121,0,0,0-1.1-2.609A4.316,4.316,0,0,1,2.914,4.771C2.779,3.9,2.679,3.406,2.189,3.3.747,2.993.1.417.075.307L0,0,.282.142A25.353,25.353,0,0,1,8.848,7.358a38.087,38.087,0,0,1,5.074,8.949,48.2,48.2,0,0,1,3.064,10.974l.013.107-.1.044A5.837,5.837,0,0,1,14.824,27.829ZM.451.557c.212.67.812,2.25,1.8,2.46.709.151.821.872.951,1.707A4.077,4.077,0,0,0,4.737,7.768a3.39,3.39,0,0,1,1.22,2.82c.118,1.312.23,2.552,2.217,3.137.837.246,1.293.533,1.434.9.162.424-.115.871-.408,1.344-.507.82-1.083,1.749.091,2.987a4.86,4.86,0,0,1,1.548,3.66v0a6.118,6.118,0,0,0,.865,3.143,3.467,3.467,0,0,0,1.478,1.418,3.736,3.736,0,0,0,1.65.356,5.5,5.5,0,0,0,1.848-.336,48.013,48.013,0,0,0-3.257-11.338A37.221,37.221,0,0,0,8.516,7.4,25.128,25.128,0,0,0,.451.557Z" transform="translate(17.876 117.657)"/><path class="b" d="M0,29.21S-.593,9.215,12.4,0c0,0-.243,2.661-1.549,3.154s.29,3.133-1.7,5.04S10.08,13,6.6,14.626s1.837,2.277-.262,5.291-.079,3.839-1.353,7.062S0,29.21,0,29.21" transform="translate(33.966 115.994)"/><path class="c" d="M1.405,29.8a5.614,5.614,0,0,1-1.3-.143l-.1-.027,0-.109A48.286,48.286,0,0,1,1.388,18.207,38.081,38.081,0,0,1,5.065,8.6,25.352,25.352,0,0,1,12.455.183L12.713,0l-.029.315c-.011.112-.274,2.761-1.642,3.277-.468.176-.493.682-.5,1.56A4.314,4.314,0,0,1,9.394,8.6a3.123,3.123,0,0,0-.7,2.744c.082,1.354.167,2.754-1.891,3.714-.691.323-1.058.619-1.121.9-.066.3.215.634.541,1.017.624.733,1.478,1.738.375,3.322a4.565,4.565,0,0,0-.933,3.658v.006a6.451,6.451,0,0,1-.4,3.368,3.664,3.664,0,0,1-1.773,2.007A4.61,4.61,0,0,1,1.405,29.8ZM12.35.617A25.133,25.133,0,0,0,5.4,8.6a37.226,37.226,0,0,0-3.587,9.1A47.949,47.949,0,0,0,.292,29.4a5.536,5.536,0,0,0,1.153.121A3.547,3.547,0,0,0,5,27.228a6.117,6.117,0,0,0,.385-3.237,4.862,4.862,0,0,1,.983-3.854c.975-1.4.267-2.232-.358-2.967l0,0c-.359-.423-.7-.823-.6-1.265.085-.385.492-.737,1.283-1.106,1.877-.877,1.8-2.117,1.723-3.431A3.394,3.394,0,0,1,9.192,8.39a4.068,4.068,0,0,0,1.063-3.24c0-.845.007-1.575.685-1.83C11.885,2.963,12.241,1.311,12.35.617Z" transform="translate(33.822 115.692)"/><path class="c" d="M9.842,12.236H.91L0,.989A.989.989,0,0,1,.989,0H9.4a.989.989,0,0,1,.988.989Z" transform="translate(28.772 143.934)"/><path class="c" d="M9.987,12.526H1.055a.146.146,0,0,1-.145-.133L0,1.146A1.143,1.143,0,0,1,.332.334,1.121,1.121,0,0,1,1.133,0H9.544a1.135,1.135,0,0,1,1.134,1.134l-.546,11.255A.145.145,0,0,1,9.987,12.526ZM1.133.291a.844.844,0,0,0-.843.843l.9,11.1H9.848l.54-11.109A.841.841,0,0,0,9.544.291Z" transform="translate(28.627 143.789)"/><path class="b" d="M.543,0H91.8a.544.544,0,0,1,.543.543V.731a.544.544,0,0,1-.543.543H.543A.544.544,0,0,1,0,.731V.543A.544.544,0,0,1,.543,0" transform="translate(29.728 98.798)"/><path class="c" d="M91.946,1.565H.688A.69.69,0,0,1,0,.876V.689A.689.689,0,0,1,.688,0H91.946a.689.689,0,0,1,.688.689V.876A.69.69,0,0,1,91.946,1.565ZM.688.291a.4.4,0,0,0-.4.4V.876a.4.4,0,0,0,.4.4H91.946a.4.4,0,0,0,.4-.4V.689a.4.4,0,0,0-.4-.4Z" transform="translate(29.583 98.653)"/></g></g></g></svg>