<svg xmlns="http://www.w3.org/2000/svg" xmlns:xlink="http://www.w3.org/1999/xlink" width="140.109" height="140.109" viewBox="0 0 140.109 140.109"><defs><style>.a{fill:none;}.b{fill:#fff;}.c{fill:#1559a7;}.d{fill:#00458c;}.e{clip-path:url(#a);}.f{fill:#b0d1ee;}.g{fill:#3a77bb;}</style><clipPath id="a"><path class="a" d="M0,140.109H140.109V0H0Z"/></clipPath></defs><g transform="translate(0 -1)"><g transform="translate(0 1)"><path class="b" d="M20.734,4.827,5.97.044A.91.91,0,0,0,4.827.628L.044,15.391a.91.91,0,0,0,.583,1.143l14.764,4.783a.911.911,0,0,0,1.143-.584L21.317,5.97a.91.91,0,0,0-.583-1.143" transform="translate(55.021 54.056)"/><path class="c" d="M15.792,21.6a1.025,1.025,0,0,1-.316-.049L.712,16.77A1.028,1.028,0,0,1,.05,15.476L4.833.712A1.022,1.022,0,0,1,6.127.051L20.891,4.835a1.028,1.028,0,0,1,.66,1.294L16.77,20.892a1.024,1.024,0,0,1-.511.6A1.011,1.011,0,0,1,15.792,21.6ZM5.811.241a.786.786,0,0,0-.75.544L.279,15.549a.789.789,0,0,0,.507.992l14.764,4.783a.777.777,0,0,0,.6-.048.79.79,0,0,0,.391-.458L21.323,6.055a.791.791,0,0,0-.506-.993L6.054.28A.79.79,0,0,0,5.811.241Z" transform="translate(54.9 53.934)"/><path class="b" d="M1.929,3.231c.1-.144,1.527-.564,1.72-1.4S3.8-.07,3.485.115,3.054.664,2.7.686,1.441-.069.706.005-.165,1.922.183,2.58s1.746.651,1.746.651" transform="translate(57.324 71.342)"/><path class="c" d="M2.106,3.479h0L2.05,3.473h0c-.06,0-1.474-.008-1.848-.716A3.059,3.059,0,0,1,.263.441.729.729,0,0,1,.814.007,1.118,1.118,0,0,1,.938,0,2.942,2.942,0,0,1,2.192.429l.034.017a1.994,1.994,0,0,0,.586.241c.165-.01.266-.12.394-.258a1.482,1.482,0,0,1,.34-.3A.249.249,0,0,1,3.673.094a.219.219,0,0,1,.132.045c.282.208.229,1.2.082,1.841-.157.673-1.016,1.085-1.478,1.307L2.373,3.3a1.792,1.792,0,0,0-.231.123l-.035.051ZM.927.241a.758.758,0,0,0-.089,0A.5.5,0,0,0,.475.554,2.849,2.849,0,0,0,.41,2.644c.279.529,1.377.582,1.594.587a2.237,2.237,0,0,1,.3-.161c.425-.2,1.217-.584,1.347-1.145A2.729,2.729,0,0,0,3.663.332,1.54,1.54,0,0,0,3.394.58L3.383.591a.808.808,0,0,1-.556.335H2.8A1.814,1.814,0,0,1,2.114.659l-.008,0A2.88,2.88,0,0,0,.927.241Z" transform="translate(57.204 71.221)"/><path class="c" d="M4.924.388a.613.613,0,0,1,.748.519,8.95,8.95,0,0,1,.339,3.054c-.444.793-5.2,2.062-5.97-1.48C-.293.937,1.416-.787,4.924.388" transform="translate(69.73 131.983)"/><path class="b" d="M3.116,0l.11,2.158A3.3,3.3,0,0,1,.1,2.24L0,.4Z" transform="translate(71.805 130.609)"/><path class="c" d="M1.66,2.866a3.074,3.074,0,0,1-1.5-.386L.105,2.448,0,.431,3.355,0l.12,2.358-.06.038A3.6,3.6,0,0,1,1.66,2.866ZM3.128.27.252.641.338,2.3a2.831,2.831,0,0,0,1.315.318,3.519,3.519,0,0,0,1.576-.394Z" transform="translate(71.679 130.473)"/><path class="c" d="M5.125.711c.355.03.591.109.673.614A8.949,8.949,0,0,1,5.725,4.4C5.179,5.123.292,5.746.006,2.133-.12.56,1.8-.922,5.125.711" transform="translate(60.413 131.797)"/><path class="b" d="M3.292.018,3.113,2.172A3.3,3.3,0,0,1,0,1.836L.15,0Z" transform="translate(62.745 130.778)"/><path class="c" d="M1.934,2.664A3.094,3.094,0,0,1,.055,2.053L0,2.014.165,0H.277L3.548.019l-.2,2.354L3.288,2.4A3.577,3.577,0,0,1,1.934,2.664ZM.386.241h0L.251,1.9a2.866,2.866,0,0,0,1.683.519A3.566,3.566,0,0,0,3.125,2.21L3.287.259.386.241Z" transform="translate(62.619 130.657)"/><path class="b" d="M2.59.026C2.625-.4,2.085,4.549,2,7.23S.075,30.04,0,31.516s5.86,2.216,7.162,1.406c0,0,1.2-22.689.974-25.6s-.225-3.808-.225-3.808Z" transform="translate(61.009 98.448)"/><path class="d" d="M5.295,33.521a10.7,10.7,0,0,1-4.618-.957c-.466-.275-.693-.583-.676-.916.028-.539.287-3.512.614-7.276l.025-.288C1.163,18.1,1.952,9.067,2.005,7.365,2.034,6.4,2.4,1.307,2.6.234L2.585.226l.006-.07h.022l0-.01v0L2.592.139h.024c.016-.067.029-.1.04-.108L2.719,0l.117.079,0,.025L8.152,3.589v.066c0,.038,0,.975.225,3.8C8.6,10.316,7.415,32.844,7.4,33.067l0,.062-.053.033A4.31,4.31,0,0,1,5.295,33.521ZM2.8.37c0,.044-.483,4.456-.56,7C2.193,9.052,1.437,17.717.885,24.044L.88,24.1l-.012.14v.008C.532,28.088.268,31.119.24,31.66c-.012.237.176.471.558.7a10.548,10.548,0,0,0,4.555.913,4.3,4.3,0,0,0,1.813-.281c.012-.226,1.2-22.643.971-25.517-.193-2.445-.221-3.491-.225-3.753Z" transform="translate(60.888 98.31)"/><path class="b" d="M5.277.026c-.041-.426.563,4.516.679,7.2S8.181,30,8.275,31.479s-5.831,2.292-7.144,1.5C.466,22.9,1.252,2.739,0,3.583Z" transform="translate(68.409 98.278)"/><path class="d" d="M3.026,33.539a4.009,4.009,0,0,1-1.889-.32l-.054-.032,0-.063C.8,28.979.776,23,.751,17.732v-.047C.721,11.322.688,4.111.14,3.818l-.005,0L0,3.623,5.218.1,5.274.04,5.332,0l.063.032c.013.006.028.043.042.106h.025l0,.069L5.454.216c.207,1.032.646,6.155.689,7.139C6.215,9.02,7.079,17.63,7.71,23.916l.017.166c.409,4.07.7,6.993.736,7.528.021.333-.2.644-.663.924a7.149,7.149,0,0,1-2.155.733A13.637,13.637,0,0,1,3.026,33.539ZM5.251.372h0L.337,3.686c.564.75.614,5.56.653,14v.046c.025,5.239.054,11.178.324,15.314A4,4,0,0,0,3,33.3a10.958,10.958,0,0,0,4.673-.974c.379-.231.564-.467.549-.7-.034-.533-.331-3.486-.706-7.225v0l-.029-.293-.058-.583C6.814,17.394,5.973,9,5.9,7.366,5.809,5.21,5.39,1.5,5.251.372Z" transform="translate(68.342 98.139)"/><path class="b" d="M1.727.078A11.083,11.083,0,0,0,.349,0s-1.18,4.656.8,4.775.577-4.7.577-4.7" transform="translate(65.03 78.88)"/><path class="c" d="M1.346,5.018l-.08,0a1.09,1.09,0,0,1-.851-.463C-.463,3.352.321.223.355.091L.377,0,.469,0H.553A11.466,11.466,0,0,1,1.864.079l.079.01.022.076c.041.14.988,3.431.129,4.506A.912.912,0,0,1,1.346,5.018ZM.566.24C.444.761-.123,3.411.608,4.411a.851.851,0,0,0,.672.365h.043a.688.688,0,0,0,.583-.256c.71-.889,0-3.665-.149-4.212A11.068,11.068,0,0,0,.566.24Z" transform="translate(64.907 78.76)"/><path class="b" d="M10.6.807a10.021,10.021,0,0,1-.039,2.827c-.269.511-5.844.374-7.9-.016S.186,3.036.033,2.36A5.822,5.822,0,0,1,.4.033C.5-.192,10.6.807,10.6.807" transform="translate(63.42 98.885)"/><path class="c" d="M7.876,4.189a35.352,35.352,0,0,1-5.115-.349C.74,3.458.209,3.259.036,2.492A5.843,5.843,0,0,1,.414.091C.43.053.452,0,.977,0c1.178,0,4.368.259,9.754.792l.1.011.01.1a9.451,9.451,0,0,1-.052,2.894C10.654,4.049,9.62,4.189,7.876,4.189ZM.824.223A1.743,1.743,0,0,0,.617.232,5.616,5.616,0,0,0,.27,2.438c.137.609.516.784,2.537,1.166A32.178,32.178,0,0,0,7.8,3.947a7.134,7.134,0,0,0,2.78-.267,8.708,8.708,0,0,0,.033-2.66C7.493.713,2.079.223.824.223Z" transform="translate(63.3 98.78)"/><path class="b" d="M.545.307C.451.113.423-.1.193.048S-.053,1.14.1,1.445s.277.373.323.234S.545.307.545.307" transform="translate(64.724 79.382)"/><path class="c" d="M.478,1.989h0c-.12,0-.231-.114-.361-.369C-.045,1.306-.071.268.249.067A.372.372,0,0,1,.446,0,.238.238,0,0,1,.515.01c.12.039.17.157.218.272C.747.316.76.346.773.375L.788.4l0,.031C.773.642.71,1.688.662,1.835a.2.2,0,0,1-.169.152ZM.44.239l0,0A.259.259,0,0,0,.377.27,1.746,1.746,0,0,0,.331,1.511,1.151,1.151,0,0,0,.444,1.7c.03-.21.072-.777.1-1.246L.528.414.511.375.505.361A.44.44,0,0,0,.44.239Z" transform="translate(64.604 79.262)"/><path class="b" d="M3.806,0S1.033,2.19,1.227,1.7,5.818,3.792,5.818,3.792s4.6,5.219,4.933,7.885S8.2,17.269,5.731,16.385-.193,1.791.008,1.5A28.772,28.772,0,0,1,3.806,0" transform="translate(66.704 81.346)"/><path class="c" d="M6.775,16.779a2.891,2.891,0,0,1-.974-.168C4.425,16.12,2.87,12.034,1.807,8.694.881,5.782-.153,1.794.019,1.549A23.1,23.1,0,0,1,3.877,0L3.99.208C3.06.941,2.363,1.454,1.918,1.733A30.527,30.527,0,0,1,5.988,3.8l.029.024c.473.54,4.635,5.352,4.961,7.949a4.71,4.71,0,0,1-1.842,4.094A3.8,3.8,0,0,1,6.775,16.779ZM3.271.462A22.346,22.346,0,0,0,.229,1.675,53.012,53.012,0,0,0,2.14,8.946c1.438,4.449,2.767,7.091,3.741,7.44a2.645,2.645,0,0,0,.892.153,3.562,3.562,0,0,0,2.212-.857A4.527,4.527,0,0,0,10.741,11.8C10.417,9.239,6.035,4.212,5.849,4a25.739,25.739,0,0,0-4.2-2.109A.764.764,0,0,1,1.344,2a.12.12,0,0,1-.078-.026.164.164,0,0,1-.041-.207.208.208,0,0,1,.131-.119.332.332,0,0,1,.1-.013A.96.96,0,0,1,1.6,1.65C1.926,1.457,2.551,1.013,3.271.462Z" transform="translate(66.594 81.232)"/><path class="b" d="M13.511,12.333c5.884-4.674,4.86,15.019,3.734,15.5-1.655.709-9.76.9-10.466-1.58s.833-7.567-.387-10.34C5.226,13.265-1.937,9.558.5.215c0,0,1.086-.77,2.764.6-.349,4.362.124,7.492,5.033,9.444Z" transform="translate(56.696 73.618)"/><path class="c" d="M13.44,28.548a13.62,13.62,0,0,1-5.378-.869A2.171,2.171,0,0,1,6.78,26.412a14.176,14.176,0,0,1-.057-4.432c.169-2.149.344-4.372-.325-5.893a10,10,0,0,0-1.767-2.26C2.257,11.245-1.332,7.344.505.308L.516.266.552.241A1.6,1.6,0,0,1,1.459,0a3.223,3.223,0,0,1,2,.849l.048.04,0,.063c-.37,4.622.311,7.476,4.958,9.323l5.145,2.046a2.813,2.813,0,0,1,1.666-.7,1.563,1.563,0,0,1,.707.168c1.938.971,2.484,6.142,2.349,10.658-.054,1.832-.317,5.364-.921,5.623A12.659,12.659,0,0,1,13.44,28.548ZM1.457.24A1.457,1.457,0,0,0,.726.415C-1.052,7.3,2.474,11.127,4.807,13.662A10.146,10.146,0,0,1,6.619,15.99c.693,1.578.515,3.83.343,6.009V22a14.092,14.092,0,0,0,.049,4.343,1.95,1.95,0,0,0,1.155,1.116,13.28,13.28,0,0,0,5.226.836,13.029,13.029,0,0,0,3.924-.451c.254-.109.676-2.1.775-5.411.127-4.238-.378-9.513-2.217-10.435a1.32,1.32,0,0,0-.6-.141,2.654,2.654,0,0,0-1.573.689l-.054.044L8.374,10.5c-2.3-.915-3.725-2.09-4.481-3.7-.653-1.39-.842-3.125-.632-5.8A2.959,2.959,0,0,0,1.457.24Z" transform="translate(56.578 73.494)"/><path class="c" d="M5.9.04C10.854,1.553,7.221,6.9,9.517,9.461c1.536,1.712,2.013,8.317-1.961,8.791S.9,17.033.134,13.68s2.021-4.406,1.01-7.358A5.113,5.113,0,0,1,1.79,1.813,4.2,4.2,0,0,1,5.9.04" transform="translate(64.163 75.909)"/><path class="c" d="M6.4,18.571a6.665,6.665,0,0,1-4.112-1.224,5.881,5.881,0,0,1-2.15-3.519A5.507,5.507,0,0,1,.733,9.95v0a4.217,4.217,0,0,0,.419-3.464,5.222,5.222,0,0,1,.66-4.618A4.272,4.272,0,0,1,5.4,0a5.014,5.014,0,0,1,.64.042l.02,0C9.076.969,9,3.277,8.923,5.509c-.051,1.535-.1,2.986.8,3.993,1.036,1.154,1.6,4.379.737,6.652a3.319,3.319,0,0,1-2.773,2.337A10.835,10.835,0,0,1,6.4,18.571ZM5.408.242A4.046,4.046,0,0,0,2.01,2a4.979,4.979,0,0,0-.631,4.4,4.409,4.409,0,0,1-.424,3.639v0a5.3,5.3,0,0,0-.581,3.731,5.641,5.641,0,0,0,2.072,3.379,6.442,6.442,0,0,0,3.964,1.176,10.6,10.6,0,0,0,1.255-.078,3.131,3.131,0,0,0,2.577-2.183c.8-2.138.292-5.31-.692-6.408-.97-1.08-.917-2.647-.866-4.162v0C8.758,3.261,8.829,1.149,6,.279A4.694,4.694,0,0,0,5.408.242Z" transform="translate(64.042 75.788)"/><path class="b" d="M6.234,0,0,6.143l7.408,2.53Z" transform="translate(60.858 60.108)"/><path class="c" d="M7.776,9.1h0L0,6.448,6.543,0,7.776,9.1ZM6.369.508.446,6.346l7.039,2.4Z" transform="translate(60.636 59.853)"/><path class="c" d="M3.127,1.5a5.022,5.022,0,0,1-2.05,3.663C-.58,6.339.008,7.675.649,8.263s4.54.161,5.961-.717S8.37,1.958,7.836.836C6.961-1,3.249.636,3.127,1.5" transform="translate(95.427 82.692)"/><path class="c" d="M.137,0A35.609,35.609,0,0,0,.012,4.111c.211,8.77,3.111,18.747,4.195,27.2.576,4.493,2.954,6.061,8.04,2.978C10.736,23.2,9.467,12,8.922.819Z" transform="translate(91.685 49.905)"/><path class="b" d="M16.405,3.946c0-.417-1.983-2.206-1.983-2.206s-3.983-.061-7.474-.121S2.981,1.56,2.981,1.56s.91-.209.775-.791-.328-.88-.432-.731.164.566-.582.85S.042.65.042,1.053-.371,2.32,1.387,3.334,15.5,4.766,15.5,4.766Z" transform="translate(66.317 34.979)"/><path class="c" d="M15.659,5.008h0l-.048,0C15.487,5,3.236,4.592,1.446,3.56-.136,2.648-.031,1.807.026,1.355l0-.039a1.326,1.326,0,0,0,.011-.142.222.222,0,0,1,.074-.167.73.73,0,0,1,.5-.112c.188,0,.429.017.7.038h.013c.285.022.58.044.85.044A1.886,1.886,0,0,0,2.819.9c.468-.177.471-.384.474-.567A.42.42,0,0,1,3.345.09.2.2,0,0,1,3.5,0,.162.162,0,0,1,3.54,0c.232.046.383.558.452.858a.575.575,0,0,1-.074.45.871.871,0,0,1-.256.254c.67.008,1.88.027,3.408.053,3.422.059,7.433.121,7.473.122h.045l.034.03c.475.427,2.023,1.856,2.023,2.294V4.12l-.986.889ZM.6,1.134c-.186,0-.29.016-.319.049a1.085,1.085,0,0,1-.015.2c-.053.425-.141,1.135,1.3,1.968,1.686.973,13.5,1.4,14,1.413l.826-.743a10.406,10.406,0,0,0-1.9-2.04l-.66-.01c-1.247-.02-4.167-.065-6.77-.11C3.61,1.8,3.105,1.8,3.1,1.8l-.027-.238c.081-.02.787-.207.685-.646A2,2,0,0,0,3.534.293c0,.013,0,.028,0,.04,0,.207-.01.553-.63.788a2.113,2.113,0,0,1-.73.1c-.287,0-.6-.025-.878-.047C1.1,1.157.816,1.134.6,1.134Z" transform="translate(66.198 34.858)"/><path class="c" d="M3.348,6.2,1.633,4.669S-.635,3.412.174,1.283,5.864-.044,6.2,1.645A2.443,2.443,0,0,1,8.048,4.122a2.645,2.645,0,0,1-1.82,2.889c-.614.226-2.88-.81-2.88-.81" transform="translate(84.075 26.77)"/><path class="b" d="M15.833,1.965a11.746,11.746,0,0,1,3.424,4.281s.037,1.265-3.09,1.936a14.53,14.53,0,0,1,1.936,4.5,12.785,12.785,0,0,1,.074,2.941S13.058,20.094,7.14,17.675c-1.984-.378-.3-8.9-1.591-11.261,0,0-4.234-.056-5.387-.987A13.2,13.2,0,0,1,.194,1.236c.063-.266.1-.148.456-.146,5.212.035,10.629-2.984,15.183.875" transform="translate(80.011 35.53)"/><path class="c" d="M10.87,18.621A9.607,9.607,0,0,1,7.217,17.9c-1.172-.221-1.149-2.918-1.124-5.774v0c.018-2.172.036-4.419-.5-5.475C4.889,6.633,1.3,6.513.209,5.634L.173,5.606.165,5.56A12.96,12.96,0,0,1,.2,1.323c.046-.2.11-.265.246-.265a.707.707,0,0,1,.1.009,2.4,2.4,0,0,0,.3.018H.863A28.365,28.365,0,0,0,5.622.536l.009,0A27.717,27.717,0,0,1,10.264,0a8.434,8.434,0,0,1,5.769,1.989,11.684,11.684,0,0,1,3.46,4.331l.007.038a1.184,1.184,0,0,1-.375.771,5.209,5.209,0,0,1-2.642,1.249,13.739,13.739,0,0,1,1.863,4.409,12.923,12.923,0,0,1,.074,2.971l-.006.045-.035.03A12.7,12.7,0,0,1,10.87,18.621ZM.451,1.3h0a.128.128,0,0,1-.008.043l-.01.038A12.994,12.994,0,0,0,.4,5.476c1.154.863,5.236.932,5.276.932h.07l.033.062c.594,1.084.575,3.408.556,5.656-.022,2.632-.045,5.354.952,5.544a9.443,9.443,0,0,0,3.587.708,12.423,12.423,0,0,0,7.315-2.7,13.291,13.291,0,0,0-.079-2.864A14.5,14.5,0,0,0,16.19,8.362L16.1,8.215l.17-.036a5.618,5.618,0,0,0,2.527-1.066,1.239,1.239,0,0,0,.467-.733,12.01,12.01,0,0,0-3.38-4.209A8.163,8.163,0,0,0,10.3.231,27.6,27.6,0,0,0,5.663.772l-.015,0a28.587,28.587,0,0,1-4.785.55,2.813,2.813,0,0,1-.346-.02L.5,1.3C.482,1.3.463,1.3.451,1.3Z" transform="translate(79.889 35.416)"/><path class="b" d="M0,.763A5.251,5.251,0,0,1,.521,3.723a2.187,2.187,0,0,0,3.164-.354A13.457,13.457,0,0,1,3.7,0Z" transform="translate(86.669 33.029)"/><path class="c" d="M2.128,4.529a2.555,2.555,0,0,1-1.52-.554L.553,3.927.57,3.856A5.181,5.181,0,0,0,.056.971L0,.836,4.061,0,3.982.2A13.365,13.365,0,0,0,3.97,3.518l.005.053-.035.039A2.417,2.417,0,0,1,2.128,4.529ZM3.7.319l-3.37.694A5.552,5.552,0,0,1,.818,3.835a2.241,2.241,0,0,0,1.3.459,2.18,2.18,0,0,0,1.612-.806A15.219,15.219,0,0,1,3.7.319Z" transform="translate(86.503 32.867)"/><path class="c" d="M0,2.589v0c.588,1.361,2.278.149,3.037-1.08A8.576,8.576,0,0,1,3.09,0L.11.366h0Z" transform="translate(87.215 33.291)"/><path class="c" d="M.932,3.449l-.072,0h0A.982.982,0,0,1,.01,2.778L0,2.722.113.385H.228L3.355,0,3.327.159a8.247,8.247,0,0,0-.051,1.487v.036l-.019.031a4.744,4.744,0,0,1-1.07,1.195A2.234,2.234,0,0,1,.932,3.449ZM3.069.277.343.611l-.1,2.1a.75.75,0,0,0,.633.5l.064,0a2,2,0,0,0,1.124-.5,4.577,4.577,0,0,0,.974-1.091A9.645,9.645,0,0,1,3.069.277Z" transform="translate(87.096 33.153)"/><path class="b" d="M.112.657a12.418,12.418,0,0,0,.061,3.58A2.425,2.425,0,0,0,2.835,5.411c1.19-.156,1.917-1.855,1.9-2.329a.772.772,0,0,0,.617-.522c.519-1.418-.394-1.373-.634-.57-.089.3-.13.6-.221.528-.185-.137-.136-.178-.328-1.128a1.881,1.881,0,0,0-.9-1.343C2.949-.262,1.827,1.072.112.657" transform="translate(85.639 30.303)"/><path class="c" d="M2.492,5.684A2.377,2.377,0,0,1,.184,4.4,11.742,11.742,0,0,1,.112.772V.766L.128.63.261.662A2.712,2.712,0,0,0,.9.739,3.8,3.8,0,0,0,2.639.232l.01,0A1.633,1.633,0,0,1,3.267,0a.284.284,0,0,1,.208.082,2.188,2.188,0,0,0,.2.169,1.744,1.744,0,0,1,.729,1.235c.046.226.077.4.1.537l.007.039a1.474,1.474,0,0,0,.1.411c.014-.045.032-.109.048-.175s.038-.147.06-.222a.868.868,0,0,1,.559-.636.384.384,0,0,1,.085-.01.339.339,0,0,1,.26.119c.176.2.161.619-.042,1.173a.893.893,0,0,1-.614.579c-.067.633-.83,2.2-2,2.35A3.786,3.786,0,0,1,2.492,5.684ZM.339.925h0A11.2,11.2,0,0,0,.405,4.313,2.144,2.144,0,0,0,2.49,5.444a3.462,3.462,0,0,0,.452-.03c1.141-.15,1.809-1.815,1.8-2.208l0-.113.114-.01a.657.657,0,0,0,.515-.442c.2-.536.172-.833.085-.933a.1.1,0,0,0-.08-.035.174.174,0,0,0-.032,0,.64.64,0,0,0-.38.47c-.02.068-.039.139-.058.214v0c-.058.225-.093.361-.2.4a.176.176,0,0,1-.05.007.163.163,0,0,1-.1-.033c-.176-.13-.191-.216-.266-.63-.029-.16-.061-.34-.108-.571A1.513,1.513,0,0,0,3.532.442,2.485,2.485,0,0,1,3.309.254.06.06,0,0,0,3.266.241a1.812,1.812,0,0,0-.517.205l-.006,0A4.006,4.006,0,0,1,.906.98,2.967,2.967,0,0,1,.339.925Z" transform="translate(85.517 30.182)"/><path class="b" d="M0,1.47A7.3,7.3,0,0,1,3.723,0c2.064,4.918,3.478,9.234.39,14.07a4.062,4.062,0,0,1-.632,1.749c-.484.559-1.973.075-2.27-.931s-.335-1.488.335-2.121,1.808-1.876.931-5.681A13.577,13.577,0,0,0,0,1.47" transform="translate(95.546 41.777)"/><path class="c" d="M3.039,16.3a1.638,1.638,0,0,1-.353-.04A1.9,1.9,0,0,1,1.267,15.05c-.3-1.007-.36-1.556.369-2.244.536-.506,1.79-1.69.9-5.568A13.677,13.677,0,0,0,.083,1.677L0,1.584.1,1.5A7.268,7.268,0,0,1,3.886.007L3.973,0l.034.081C6.05,4.952,7.491,9.38,4.4,14.239a3.974,3.974,0,0,1-.657,1.787A.9.9,0,0,1,3.039,16.3ZM3.818.254h0A7.262,7.262,0,0,0,.344,1.615a14.2,14.2,0,0,1,2.422,5.57c.924,4.013-.4,5.262-.967,5.8-.6.569-.6.978-.3,2a1.678,1.678,0,0,0,1.24,1.046,1.414,1.414,0,0,0,.3.034.68.68,0,0,0,.528-.194,3.925,3.925,0,0,0,.6-1.683v0l.018-.051A11.213,11.213,0,0,0,5.7,10.654a10.283,10.283,0,0,0,.218-3.387A24.211,24.211,0,0,0,3.818.254Z" transform="translate(95.374 41.65)"/><path class="b" d="M.857,0H15.521a.86.86,0,0,1,.857.857V15.521a.86.86,0,0,1-.857.857H.857A.86.86,0,0,1,0,15.521V.857A.86.86,0,0,1,.857,0" transform="translate(53.293 19.505)"/><path class="c" d="M15.641,16.619H.978A.979.979,0,0,1,0,15.641V.978A.979.979,0,0,1,.978,0H15.641a.979.979,0,0,1,.978.978V15.641A.979.979,0,0,1,15.641,16.619ZM.978.241A.738.738,0,0,0,.241.978V15.641a.738.738,0,0,0,.737.737H15.641a.738.738,0,0,0,.737-.737V.978a.738.738,0,0,0-.737-.737Z" transform="translate(53.172 19.385)"/><path class="b" d="M3.591,7.184A3.592,3.592,0,1,0,0,3.592,3.6,3.6,0,0,0,3.591,7.184" transform="translate(57.89 24.102)"/><path class="c" d="M3.711,7.423A3.712,3.712,0,1,1,7.422,3.712,3.716,3.716,0,0,1,3.711,7.423Zm0-7.184A3.472,3.472,0,1,0,7.183,3.712,3.476,3.476,0,0,0,3.711.239Z" transform="translate(57.771 23.983)"/><path class="b" d="M.857,0H15.521a.86.86,0,0,1,.857.857V15.521a.86.86,0,0,1-.857.857H.857A.86.86,0,0,1,0,15.521V.857A.86.86,0,0,1,.857,0" transform="translate(36.766 19.505)"/><path class="c" d="M15.642,16.619H.978A.979.979,0,0,1,0,15.641V.978A.979.979,0,0,1,.978,0H15.642a.979.979,0,0,1,.978.978V15.641A.979.979,0,0,1,15.642,16.619ZM.978.241A.738.738,0,0,0,.241.978V15.641a.738.738,0,0,0,.737.737H15.642a.738.738,0,0,0,.737-.737V.978a.738.738,0,0,0-.737-.737Z" transform="translate(36.645 19.385)"/><path class="a" d="M0,140.109H140.109V0H0Z"/><g class="e"><path class="b" d="M0,6.97H6.97V0H0Z" transform="translate(41.47 24.209)"/><path class="c" d="M7.211,7.212H0V0H7.211V7.211ZM.241.241v6.73H6.97V.241Z" transform="translate(41.35 24.089)"/><path class="c" d="M2.682,1.317a4.412,4.412,0,0,1-1.8,3.216C-2.063,6.623,3.018,8.949,6.539,6.774c1.247-.77.745-5.056.276-6.04C6.049-.878,2.789.558,2.682,1.317" transform="translate(85.748 78.955)"/><path class="b" d="M0,2.075.3,3.4c.188.839,4.027-.023,3.8-1.227L3.627,0A7.039,7.039,0,0,1,0,2.075" transform="translate(88.2 77.237)"/><path class="d" d="M1.277,4.15C.884,4.15.4,4.076.32,3.724L0,2.29l.112-.03A6.947,6.947,0,0,0,3.669.234L3.826,0l.526,2.445c.145.762-1.027,1.366-2.178,1.6A4.54,4.54,0,0,1,1.277,4.15ZM3.706.579A5.285,5.285,0,0,1,2.2,1.7a9.825,9.825,0,0,1-1.914.767L.555,3.671c.032.149.309.241.721.241a4.276,4.276,0,0,0,.85-.1c1.046-.217,2.1-.755,1.99-1.323Z" transform="translate(88.058 76.937)"/><path class="b" d="M1.527.043C1.486.036-.037-.079,0,.1a.855.855,0,0,0,.88.5C1.4.573,1.807.018,1.527.043" transform="translate(86.638 34.402)"/><path class="c" d="M.938.847A.959.959,0,0,1,0,.249.15.15,0,0,1,.044.11,1.269,1.269,0,0,1,.751,0c.433,0,.891.045.9.045.115,0,.156.04.181.077a.214.214,0,0,1,0,.227,1.045,1.045,0,0,1-.818.495Zm-.25-.6A2.57,2.57,0,0,0,.267.267.81.81,0,0,0,.958.605H.993A.854.854,0,0,0,1.588.28C1.454.268,1.039.243.688.243Z" transform="translate(86.518 34.279)"/><path class="c" d="M4.4,0h0S0,10.428,0,13.629C0,16.5,3.318,24.85,3.994,26.521c.375.928,6.2-1.274,5.7-2.776-.609-1.862-2.859-8.8-2.923-9.893-.082-1.4,1.418-4.274,3.094-7.177l-.3-2.02A14.885,14.885,0,0,0,9.275.894,9.546,9.546,0,0,1,4.783.214.717.717,0,0,1,4.4,0" transform="translate(82.368 52.991)"/><path class="f" d="M3.2,13.676C3.2,3.067,6.617,2.7,6.9.265,6.976-.352,5.309.137,3.72,1.428.818,3.783.186,7.917,0,11.469Z" transform="translate(15.557 116.191)"/><path class="d" d="M3.445,14.024h0L0,11.65l0-.067c.18-3.439.77-7.7,3.764-10.128A6.028,6.028,0,0,1,6.7,0a.6.6,0,0,1,.288.06A.321.321,0,0,1,7.146.4a4.492,4.492,0,0,1-.961,2.039C5.094,4.033,3.445,6.443,3.445,13.8v.227ZM6.691.236h0A5.811,5.811,0,0,0,3.92,1.64C1.008,4.005.428,8.167.247,11.528L3.2,13.567C3.239,6.315,4.892,3.9,5.986,2.3A4.338,4.338,0,0,0,6.909.371C6.916.3,6.892.285,6.867.271A.374.374,0,0,0,6.691.237Z" transform="translate(15.433 116.072)"/><path class="b" d="M.12,11.416A.126.126,0,0,1,.057,11.4a.12.12,0,0,1-.04-.165A16.2,16.2,0,0,0,1.772,5.576,8.462,8.462,0,0,1,5.234.018.121.121,0,0,1,5.4.056a.121.121,0,0,1-.038.166A8.214,8.214,0,0,0,2.009,5.609,16.464,16.464,0,0,1,.222,11.358a.122.122,0,0,1-.1.058" transform="translate(15.661 117.287)"/><path class="f" d="M7.818,17.218c-.2-1.333-.2-6.856-1.751-12.31S-.838-.5.112.555,3.081,2.718,3.465,8.11A60.932,60.932,0,0,0,6,20.113l1.1-.428Z" transform="translate(8.688 108.897)"/><path class="d" d="M6.041,20.392h0L6,20.27c0-.014-.547-1.691-1.134-4.036a49.856,49.856,0,0,1-1.4-8C3.139,3.657,1.617,2.193.61,1.224.45,1.07.285.911.144.755A.386.386,0,0,1,.033.3C.129.11.43,0,.86,0c.088,0,.182,0,.279.014C2.568.147,5.264,1.347,6.3,5A52.079,52.079,0,0,1,7.924,15.724v.008c.045.681.083,1.268.132,1.588l0,.027-.008.025L7.311,19.9l-1.27.495ZM.859.24C.5.24.291.325.248.41.219.467.282.55.322.593.45.737.6.885.767,1.041l.009.008c1.033.994,2.594,2.5,2.927,7.172A61.048,61.048,0,0,0,6.192,20.075l.922-.36.7-2.386c-.047-.318-.081-.832-.129-1.543l0-.037A51.756,51.756,0,0,0,6.071,5.061C5.07,1.54,2.486.381,1.117.252,1.019.244.934.24.859.24Z" transform="translate(8.568 108.777)"/><path class="b" d="M.01,9.489c0-.65-.3-5.7,2.452-8.707C5.711-2.763,9.071,6.961,8.124,5.794,7.415,4.918,4.9,2.017,3.412,2.784c-1.751.9-.8,6.455-.8,6.455Z" transform="translate(14.67 120.995)"/><path class="c" d="M.007,9.743h0V9.611c0-.041,0-.1,0-.178C-.094,4.667,1.3,2.12,2.491.822A2.181,2.181,0,0,1,4.085,0a1.924,1.924,0,0,1,.726.15C6.915,1,8.544,5.3,8.525,5.932a.186.186,0,0,1-.114.194.149.149,0,0,1-.047.008c-.1,0-.177-.1-.215-.142A14.764,14.764,0,0,0,6.061,3.856,3.513,3.513,0,0,0,4.073,2.9a1.052,1.052,0,0,0-.488.112,1.891,1.891,0,0,0-.814,1.339,9,9,0,0,0-.178,2.122,21.292,21.292,0,0,0,.255,2.866l.022.127L.008,9.743ZM4.093.245A1.956,1.956,0,0,0,2.668.986C1.509,2.25.147,4.741.245,9.428c0,.009,0,.018,0,.027s0,.017,0,.025l2.345-.225c-.146-.927-.785-5.6.885-6.455a1.291,1.291,0,0,1,.594-.138A4.077,4.077,0,0,1,6.462,3.88,16.039,16.039,0,0,1,8.268,5.757,11.6,11.6,0,0,0,7.2,3.144,6.793,6.793,0,0,0,4.955.484,1.8,1.8,0,0,0,4.093.245Z" transform="translate(14.552 120.873)"/><path class="c" d="M.136,5.594a.121.121,0,0,1-.12-.108C-.132,4.077.716,1.216,2.146.3A1.811,1.811,0,0,1,4.159.309a.12.12,0,0,1-.124.206A1.566,1.566,0,0,0,2.276.5C.916,1.372.113,4.11.256,5.461a.121.121,0,0,1-.107.132H.136" transform="translate(15.612 122.275)"/><path class="b" d="M4.192,15.163a.121.121,0,0,1-.119-.1C4.064,15,3.1,8.857,2.454,5.4A10.286,10.286,0,0,0,.036.206.12.12,0,1,1,.2.034,10.326,10.326,0,0,1,2.69,5.352c.644,3.464,1.611,9.61,1.621,9.672a.12.12,0,0,1-.1.137H4.192" transform="translate(11.282 110.382)"/><path class="b" d="M10.329,11.415a22.378,22.378,0,0,0-2.7-10.107c-2.341-4-6.394,2.177-7.617,5.178-.217.536,3.328-3.941,5.665-3.077,2.3.851,2.152,7.656,2.152,7.656Z" transform="translate(5.452 117.167)"/><path class="c" d="M10.569,11.676h0l-2.745-.385,0-.106a25.171,25.171,0,0,0-.212-3.491A10.97,10.97,0,0,0,7,5.155a2.448,2.448,0,0,0-1.25-1.511,1.737,1.737,0,0,0-.6-.1A4.657,4.657,0,0,0,2.6,4.64,18.321,18.321,0,0,0,.65,6.345c-.332.324-.443.434-.522.434a.123.123,0,0,1-.072-.028.139.139,0,0,1-.038-.188C.825,4.58,3.39.177,5.761.007,5.815,0,5.871,0,5.925,0A2.294,2.294,0,0,1,7.851,1.368a22.5,22.5,0,0,1,2.719,10.169v.138ZM5.148,3.3a1.976,1.976,0,0,1,.689.119A2.5,2.5,0,0,1,7.124,4.835,9.6,9.6,0,0,1,7.79,7.219a24.075,24.075,0,0,1,.279,3.865l2.257.316A22.451,22.451,0,0,0,7.642,1.491,2.078,2.078,0,0,0,5.907.241c-.043,0-.086,0-.129.005C3.784.389,1.434,3.994.421,6.232L.48,6.175A18.708,18.708,0,0,1,2.515,4.4,4.773,4.773,0,0,1,5.148,3.3Z" transform="translate(5.332 117.045)"/><path class="c" d="M6.7,9.451a.121.121,0,0,1-.121-.12c-.006-.309-.837-6.573-2.271-8.2C3.011-.344,1.773.156.2,1.442a.121.121,0,0,1-.169-.017.119.119,0,0,1,.017-.168C1.464.1,2.987-.736,4.489.97c1.485,1.687,2.332,8.077,2.332,8.36a.12.12,0,0,1-.12.121" transform="translate(8.292 118.825)"/><path class="c" d="M9.307,0H0L1.151,9.909H8.107Z" transform="translate(11.327 125.404)"/><path class="f" d="M28.852,55.807A1.772,1.772,0,0,1,27.1,54.29l-.715-5.062H10.245l.645,4.57a1.769,1.769,0,0,1-1.5,1.993A1.764,1.764,0,0,1,7.4,54.29L.017,2.01A1.763,1.763,0,1,1,3.51,1.517l.706,5H20.36L19.723,2.01a1.764,1.764,0,0,1,3.493-.493l.706,5L30.6,53.8a1.762,1.762,0,0,1-1.745,2.01ZM8.833,39.221l1.033,7.322H26.01l-1.033-7.322ZM7.42,29.215h0l1.034,7.322H24.6l-1.033-7.322H7.42ZM6.007,19.209,7.041,26.53H23.186l-1.034-7.322ZM4.595,9.2l1.033,7.322H21.772L20.739,9.2Z" transform="translate(80.511 80.714)"/><path class="c" d="M28.968,56.048a1.891,1.891,0,0,1-1.863-1.621l-.7-4.959H10.5L11.13,53.9a1.888,1.888,0,0,1-1.6,2.128,1.976,1.976,0,0,1-.265.018A1.892,1.892,0,0,1,7.4,54.427L.019,2.147A1.887,1.887,0,0,1,1.62.019,1.923,1.923,0,0,1,1.887,0,1.882,1.882,0,0,1,3.749,1.62l.691,4.9h15.9l-.617-4.371a1.887,1.887,0,0,1,1.6-2.128A1.956,1.956,0,0,1,21.588,0a1.888,1.888,0,0,1,1.866,1.62L30.836,53.9a1.889,1.889,0,0,1-1.6,2.128A1.886,1.886,0,0,1,28.968,56.048ZM10.227,49.227H26.614l.729,5.166a1.637,1.637,0,0,0,1.858,1.4,1.649,1.649,0,0,0,1.4-1.857L23.217,1.654A1.651,1.651,0,0,0,21.591.24a1.614,1.614,0,0,0-.23.017,1.647,1.647,0,0,0-1.4,1.858l.657,4.645H4.232L3.511,1.654A1.651,1.651,0,0,0,1.885.24a1.668,1.668,0,0,0-.231.016,1.648,1.648,0,0,0-1.4,1.858L7.637,54.393a1.644,1.644,0,1,0,3.255-.46l-.665-4.705Zm16.041-2.444H9.882L8.815,39.222H25.2l1.068,7.562ZM9.091,39.462l1,7.081h15.9l-1-7.081H9.091Zm15.766-2.685H8.47L7.4,29.216H23.789l1.068,7.561ZM7.678,29.456l1,7.08h15.9l-1-7.08Zm15.766-2.685H7.057L5.989,19.209H22.376l1.068,7.562ZM6.266,19.45h0l1,7.081h15.9l-1-7.081H6.266Zm15.766-2.685H5.645L4.576,9.2H20.963l1.068,7.562ZM4.854,9.443l1,7.081h15.9l-1-7.081Z" transform="translate(80.391 80.593)"/><path class="b" d="M21.468,55.807a1.763,1.763,0,0,1-1.745-2.01l.645-4.57H4.225L3.509,54.29A1.763,1.763,0,1,1,.017,53.8L6.692,6.519l.706-5A1.763,1.763,0,0,1,9.391.017H28.606a1.752,1.752,0,0,1,.491,0h.327V.1A1.768,1.768,0,0,1,30.6,2.01L23.216,54.29A1.773,1.773,0,0,1,21.468,55.807ZM5.637,39.221,4.6,46.543H20.748l1.033-7.322H5.637ZM7.049,29.215,6.016,36.537H22.16l1.034-7.322H7.049ZM8.462,19.209,7.428,26.53H23.573l1.034-7.322H8.462ZM9.875,9.2,8.841,16.525H24.986L26.019,9.2H9.875Zm.908-6.439-.53,3.755H26.4l.53-3.755H10.784Z" transform="translate(72.951 80.714)"/><path class="c" d="M21.592,56.048a1.9,1.9,0,0,1-.265-.019,1.889,1.889,0,0,1-1.6-2.129l.626-4.432H4.449l-.7,4.958a1.889,1.889,0,0,1-1.863,1.621,2,2,0,0,1-.264-.018A1.89,1.89,0,0,1,.019,53.9L7.4,1.62A1.884,1.884,0,0,1,9.262,0a1.915,1.915,0,0,1,.266.019h19.2A1.756,1.756,0,0,1,28.97,0a1.979,1.979,0,0,1,.264.018h.431V.133a1.889,1.889,0,0,1,1.172,2.014L23.456,54.426A1.893,1.893,0,0,1,21.592,56.048ZM4.241,49.227H20.628l-.664,4.706a1.649,1.649,0,0,0,1.631,1.875,1.65,1.65,0,0,0,1.623-1.416L30.6,2.114A1.649,1.649,0,0,0,29.5.33L29.423.3V.258h-.206A1.934,1.934,0,0,0,28.965.24a1.486,1.486,0,0,0-.222.016H9.511A1.682,1.682,0,0,0,9.265.24,1.653,1.653,0,0,0,7.637,1.655L.257,53.933a1.643,1.643,0,0,0,3.254.46l.73-5.165Zm16.731-2.444H4.585l1.068-7.562H22.04l-1.068,7.561ZM5.861,39.462l-1,7.081h15.9l1-7.081H5.861Zm16.523-2.685H6l1.067-7.562H23.453l-1.069,7.562ZM7.274,29.456l-1,7.08h15.9l1-7.08H7.274ZM23.8,26.771H7.411l1.068-7.562H24.865L23.8,26.771ZM8.687,19.45l-1,7.08h15.9l1-7.08H8.687ZM25.21,16.765H8.823L9.891,9.2H26.278L25.21,16.764ZM10.1,9.443l-1,7.081H25l1-7.081H10.1ZM26.623,6.759H10.236l.564-4H27.187l-.564,4ZM11.008,3l-.5,3.514h15.9L26.911,3h-15.9Z" transform="translate(72.831 80.593)"/><path class="b" d="M.488,0S2.944,2.929,4.48,3.441A8.626,8.626,0,0,0,8.1,3.56L7.987,6.514s-3.9.67-6.5-1.1S.488,0,.488,0" transform="translate(32.263 87.316)"/><path class="c" d="M6.331,6.988a8.7,8.7,0,0,1-4.8-1.252A3.346,3.346,0,0,1,.248,4.109,4.454,4.454,0,0,1,.01,2.292,6.982,6.982,0,0,1,.49.177L.568,0,.693.147c.024.029,2.443,2.907,3.938,3.4A5.984,5.984,0,0,0,6.5,3.808a10.284,10.284,0,0,0,1.7-.142l.148-.028-.129,3.2-.1.017A11.371,11.371,0,0,1,6.331,6.988ZM.64.455a6.6,6.6,0,0,0-.4,2.268A3.284,3.284,0,0,0,1.667,5.537a8.527,8.527,0,0,0,4.69,1.2,12.087,12.087,0,0,0,1.627-.105l.108-2.709a10.529,10.529,0,0,1-1.583.124,6.261,6.261,0,0,1-1.954-.27C3.2,3.328,1.216,1.121.64.455Z" transform="translate(32.151 87.091)"/><path class="f" d="M0,0A9.156,9.156,0,0,0,1.956,2.277c.568.352.76,3.813.611,4.5A5.568,5.568,0,0,1,.814,5.8C.107,5.152,0,0,0,0" transform="translate(33.25 87.266)"/><path class="c" d="M2.776,7h0L2.65,6.959a5.633,5.633,0,0,1-1.8-1.01C.55,5.672.316,4.666.159,2.959.043,1.686.008.423,0,.066L.221,0,.228.01A8.882,8.882,0,0,0,2.139,2.239c.66.409.806,3.974.665,4.63L2.776,7ZM.251.483h0c.074,2.187.318,4.883.763,5.287a5.294,5.294,0,0,0,1.577.912c.118-.994-.131-3.963-.58-4.24A7.732,7.732,0,0,1,.251.483Z" transform="translate(33.131 87.203)"/><path class="b" d="M.907,0h15.52a.91.91,0,0,1,.907.907V16.427a.911.911,0,0,1-.907.907H.907A.91.91,0,0,1,0,16.427V.907A.91.91,0,0,1,.907,0" transform="translate(39.064 80.991)"/><path class="c" d="M16.547,17.575H1.028A1.029,1.029,0,0,1,0,16.546V1.027A1.029,1.029,0,0,1,1.028,0H16.547a1.029,1.029,0,0,1,1.028,1.027V16.546A1.03,1.03,0,0,1,16.547,17.575ZM1.028.241a.787.787,0,0,0-.786.787V16.546a.788.788,0,0,0,.786.788H16.547a.788.788,0,0,0,.787-.788V1.027a.788.788,0,0,0-.787-.787Z" transform="translate(38.943 80.87)"/><path class="b" d="M3.8,7.6A3.8,3.8,0,1,0,0,3.8,3.809,3.809,0,0,0,3.8,7.6" transform="translate(43.929 85.856)"/><path class="c" d="M3.922,7.844A3.922,3.922,0,1,1,7.844,3.922,3.926,3.926,0,0,1,3.922,7.844Zm0-7.6A3.681,3.681,0,1,0,7.6,3.922,3.685,3.685,0,0,0,3.922.241Z" transform="translate(43.809 85.736)"/><path class="c" d="M2.535,0A6.333,6.333,0,0,0,5.119,1.276c2.111.709,2.231,1.6,2.057,1.887C6.351,4.535.459,3.965.052,2.153-.073,1.6.019.493.408.465S2.535,0,2.535,0" transform="translate(31.56 131.797)"/><path class="b" d="M3.217,0c.009.1.217,3.014.217,3.014a3.769,3.769,0,0,1-3.14.167L0,.239Z" transform="translate(31.767 129.659)"/><path class="c" d="M1.86,3.673a4.537,4.537,0,0,1-1.483-.26.119.119,0,0,1-.081-.1L0,.37A.122.122,0,0,1,.112.239L3.33,0h.008a.12.12,0,0,1,.12.109c.009.1.214,2.989.216,3.016a.121.121,0,0,1-.054.11A3.428,3.428,0,0,1,1.86,3.673ZM3.227.247.252.469.527,3.211a4.219,4.219,0,0,0,1.319.218,3.421,3.421,0,0,0,1.583-.362c-.012-.17-.044-.606-.078-1.092V1.952C3.3,1.287,3.248.535,3.227.247Z" transform="translate(31.646 129.539)"/><path class="c" d="M2.967,0s-1.4.636.8,1.337c1.389.442,3.9,3.112,3.157,4.091C6.267,6.293.441,5.139.032,3.367-.1,2.813.172,1.239.579,1.21A15.151,15.151,0,0,0,2.967,0" transform="translate(26.921 131.611)"/><path class="b" d="M3.066,0c.009.1.217,3.014.217,3.014a3.764,3.764,0,0,1-3.139.167L0,1.252Z" transform="translate(27.426 130.219)"/><path class="c" d="M1.708,3.673A4.545,4.545,0,0,1,.225,3.414a.121.121,0,0,1-.081-.106L0,1.381a.117.117,0,0,1,.074-.119L3.141.009A.132.132,0,0,1,3.188,0a.114.114,0,0,1,.061.017.12.12,0,0,1,.057.092c.005.061.08,1.1.14,1.941v.01c.039.546.073,1.018.077,1.065a.121.121,0,0,1-.056.11A3.451,3.451,0,0,1,1.708,3.673ZM3.079.293.246,1.451.377,3.212a4.225,4.225,0,0,0,1.317.217,3.431,3.431,0,0,0,1.583-.362L3.2,2V2l0-.051C3.153,1.315,3.1.607,3.079.293Z" transform="translate(27.306 130.1)"/><path class="c" d="M0,0C.024.635,6.726,1.691,6.726,1.691S10.242,27.853,8.546,30s-5.536,2.413-6.767-.635S0,0,0,0" transform="translate(28.746 99.324)"/><path class="g" d="M7.521,0s.424,7.808.6,11.756S8.95,29.923,7.975,30.9s-4.279,1.5-6.155.363S0,.276,0,.276Z" transform="translate(23.939 99.861)"/><path class="c" d="M7.382,4.292s.956.179.659-1.426S6-.541,4.562.153c0,0-3.4-.057-3.735,3.112C.709,4.382-.8,15.687.575,16.527s3.8-6.371,5.692-5.547,4.213,2.235,3.844.558S7.387,7.2,7.419,5.749,7.451,4.3,7.382,4.292" transform="translate(24.056 76.575)"/><path class="b" d="M6.349.093A4.193,4.193,0,0,0,3.534.407C1.385,1.763.567,2.6.5,6.57s-.812,6.2-.353,8.112c.809,3.367,12.831,3.638,11.616.428C10.64,12.137,12.882.765,6.349.093" transform="translate(23.791 85.455)"/><path class="c" d="M7.309,17.607A15.706,15.706,0,0,1,3.6,17.172C1.62,16.675.395,15.844.152,14.831a11.625,11.625,0,0,1,.041-3.906l0-.02C.325,9.716.473,8.369.5,6.687.567,2.706,1.4,1.808,3.589.425A2.95,2.95,0,0,1,5.229,0,10.256,10.256,0,0,1,6.3.075h0l.181.019c4.776.491,4.964,6.559,5.1,10.989a15.773,15.773,0,0,0,.414,4.1,1.176,1.176,0,0,1-.219,1.264C11.131,17.175,9.461,17.607,7.309,17.607ZM5.236.24A2.723,2.723,0,0,0,3.718.629C1.565,1.988.805,2.81.741,6.692.713,8.386.564,9.74.433,10.935l0,.014v.007a11.519,11.519,0,0,0-.046,3.818c.221.922,1.384,1.691,3.274,2.165a15.071,15.071,0,0,0,3.607.428c2.081,0,3.74-.413,4.33-1.077a.925.925,0,0,0,.175-1.019,15.8,15.8,0,0,1-.431-4.181C11.208,6.75,11.025.8,6.456.333L6.274.314A9.839,9.839,0,0,0,5.236.24Z" transform="translate(23.671 85.335)"/><path class="b" d="M2.6.293a16.839,16.839,0,0,0,.311,3.325c.883,2.473-1.8.853-2.57-.316A7.441,7.441,0,0,0,0,0Z" transform="translate(28.143 82.462)"/><path class="c" d="M2.787,5.152a2.56,2.56,0,0,1-1.3-.556A4.57,4.57,0,0,1,.364,3.488a.111.111,0,0,1-.018-.079v0A7.316,7.316,0,0,0,.012.172.119.119,0,0,1,.022.051.117.117,0,0,1,.116,0H.133l2.6.293a.119.119,0,0,1,.107.118s0,.006,0,.014a16.2,16.2,0,0,0,.3,3.272c.271.762.24,1.232-.094,1.4A.594.594,0,0,1,2.787,5.152ZM.312.262a7.783,7.783,0,0,1,.277,3.13,3.961,3.961,0,0,0,2.19,1.524.366.366,0,0,0,.166-.034c.2-.1.194-.493-.024-1.1A15.564,15.564,0,0,1,2.6.521L.312.262Z" transform="translate(28.024 82.342)"/><path class="c" d="M2.253,0a14.019,14.019,0,0,0,.172,1.7,1.332,1.332,0,0,1-.483.29C.74,2.408,0,.481,0,.481L1.509.045S1.868.026,2.253,0" transform="translate(28.534 83.99)"/><path class="c" d="M1.72,2.3C.652,2.3.034.711.008.644a.119.119,0,0,1,0-.1A.116.116,0,0,1,.086.486L1.6.048l.19-.012L2.364,0H2.37a.123.123,0,0,1,.082.03.117.117,0,0,1,.04.084A13.379,13.379,0,0,0,2.663,1.8a.121.121,0,0,1-.036.111,1.463,1.463,0,0,1-.526.317A1.176,1.176,0,0,1,1.72,2.3ZM2.259.247h0c-.333.022-.621.037-.624.037L.284.678c.187.413.7,1.374,1.446,1.374A.9.9,0,0,0,2.023,2a1.23,1.23,0,0,0,.392-.222A13.618,13.618,0,0,1,2.259.247Z" transform="translate(28.414 83.87)"/><path class="b" d="M4.573.995a5.64,5.64,0,0,1,.613,3.092C4.9,5.465,4.159,6.1,2.918,5.939A2.585,2.585,0,0,1,1.125,4.881a.684.684,0,0,1-.837-.089C-.146,4.421-.023,4.037.222,3.9s.814.826.843.548A4.079,4.079,0,0,0,.842,3.417,3.31,3.31,0,0,0,2.677,0s.361.932,1.9.995" transform="translate(26.901 79.061)"/><path class="c" d="M3.413,6.206a2.9,2.9,0,0,1-.388-.027A2.726,2.726,0,0,1,1.209,5.157a.787.787,0,0,1-.317.066A.849.849,0,0,1,.331,5,.793.793,0,0,1,0,4.342a.555.555,0,0,1,.283-.427A.221.221,0,0,1,.4,3.886c.186,0,.4.23.57.415l.016.017.078.082a5.3,5.3,0,0,0-.21-.825.121.121,0,0,1,.066-.148A3.169,3.169,0,0,0,2.679.133.121.121,0,0,1,2.77,0,.127.127,0,0,1,2.8,0,.117.117,0,0,1,2.91.077c.014.035.364.859,1.789.918a.117.117,0,0,1,.1.064,5.736,5.736,0,0,1,.624,3.171C5.157,5.541,4.48,6.206,3.413,6.206ZM1.245,4.882l.023,0a.118.118,0,0,1,.078.054,2.471,2.471,0,0,0,1.708,1,2.7,2.7,0,0,0,.352.024c.955,0,1.538-.583,1.782-1.782a5.407,5.407,0,0,0-.572-2.951A2.366,2.366,0,0,1,2.943.544,3.431,3.431,0,0,1,1.11,3.6a3.412,3.412,0,0,1,.2.983.159.159,0,0,1-.108.15.161.161,0,0,1-.05.008c-.1,0-.2-.1-.355-.272l0,0,0,0C.693,4.362.471,4.127.4,4.127h0a.312.312,0,0,0-.153.238.564.564,0,0,0,.245.455.609.609,0,0,0,.4.163A.554.554,0,0,0,1.176,4.9.125.125,0,0,1,1.245,4.882Z" transform="translate(26.78 78.941)"/><path class="b" d="M3.382.014c1.176,1.706,3.829,4.761,8.358,3.5-1.3-.664.274-2.986.318-1.483a1.957,1.957,0,0,0,.868,1.644c.536.358,2.076,1.211,1.64,1.436C5.811,9.641-1.765,1.008.362.816.817.775,2.275,1.638,3.334.2c.1-.133.012-.236.048-.184" transform="translate(27.034 93.422)"/><path class="c" d="M9.459,6.66a11.481,11.481,0,0,1-4.244-.825,12.391,12.391,0,0,1-3.37-2.006C.6,2.785-.146,1.677.024,1.134A.463.463,0,0,1,.47.815H.507A2.1,2.1,0,0,1,.966.9a3.847,3.847,0,0,0,.91.14A1.751,1.751,0,0,0,3.357.245.094.094,0,0,0,3.379.16.122.122,0,0,1,3.44.012.112.112,0,0,1,3.49,0,.127.127,0,0,1,3.6.057l-.06.048.01,0L3.6.065a9.479,9.479,0,0,0,2.85,2.8,6.429,6.429,0,0,0,3.357.944,7.4,7.4,0,0,0,1.766-.222,1.239,1.239,0,0,1-.271-1.3c.117-.373.377-.751.645-.751a.231.231,0,0,1,.038,0c.135.018.3.139.313.61A1.847,1.847,0,0,0,13.113,3.7c.1.067.243.155.366.232.829.518,1.415.908,1.4,1.2a.235.235,0,0,1-.142.2A11.416,11.416,0,0,1,9.459,6.66ZM.515,1.054H.492c-.177.016-.221.093-.239.151C.134,1.583.755,2.6,2,3.645A12.156,12.156,0,0,0,5.3,5.611,11.249,11.249,0,0,0,9.46,6.42a11.176,11.176,0,0,0,5.172-1.294c.013-.186-.926-.772-1.28-.993-.139-.087-.273-.171-.372-.237a2.073,2.073,0,0,1-.921-1.741c-.01-.3-.082-.377-.106-.38h-.007c-.081,0-.3.2-.415.582a.934.934,0,0,0,.383,1.171.121.121,0,0,1,.065.119.123.123,0,0,1-.088.1,7.842,7.842,0,0,1-2.091.3,6.638,6.638,0,0,1-3.379-.919A9.487,9.487,0,0,1,3.542.4a1.972,1.972,0,0,1-1.662.877A4.05,4.05,0,0,1,.91,1.128,2.023,2.023,0,0,0,.515,1.054Z" transform="translate(26.915 93.302)"/><path class="b" d="M1.6,0C1.745.089,4.4,2.425,4.4,2.425A8.846,8.846,0,0,1,2.286,4.263a3.648,3.648,0,0,1-1.276.4.843.843,0,0,1-.584-.335A2.338,2.338,0,0,1,.017,2.973,10.484,10.484,0,0,1,1.6,0" transform="translate(26.45 91.141)"/><path class="c" d="M3.6.157A.1.1,0,0,1,3.755.036l.26.322C5.364,2.028,6.792,3.8,6.5,4.665l0,.01a.933.933,0,0,1-.069.154A5.126,5.126,0,0,1,4.76,6.321,2.961,2.961,0,0,1,2.8,6.932l-.01,0a.517.517,0,0,1-.083-.037A4.441,4.441,0,0,1,1.517,5.369,27.822,27.822,0,0,1,.007,2.217a.1.1,0,0,1,.179-.072,27.494,27.494,0,0,0,1.5,3.127A4.317,4.317,0,0,0,2.8,6.722a.282.282,0,0,0,.054.024l.007,0a2.836,2.836,0,0,0,1.8-.592,4.964,4.964,0,0,0,1.6-1.421.824.824,0,0,0,.055-.122l0-.009c.255-.77-1.139-2.5-2.457-4.126Z" transform="translate(24.442 88.931)"/><path class="b" d="M.957.106C.931.1-.03.09,0,.2a.538.538,0,0,0,.572.28C.9.443,1.131.079.957.106" transform="translate(30.278 83.695)"/><path class="c" d="M.627.624A.641.641,0,0,1,.017.252L0,.189.046.121A1.645,1.645,0,0,1,.859,0c.1,0,.179,0,.218,0H1.1a.171.171,0,0,1,.137.059.179.179,0,0,1,.013.187.708.708,0,0,1-.53.37A.854.854,0,0,1,.627.624ZM.965.241C.859.241.5.245.313.27A.482.482,0,0,0,.628.384a.546.546,0,0,0,.063,0A.492.492,0,0,0,.965.241Z" transform="translate(30.146 83.677)"/><path class="f" d="M7.862,0A17,17,0,0,1,0,2.447L.417,5.4c1.628-.009,5.52-.086,5.994-.6C7.011,4.153,7.862,0,7.862,0" transform="translate(104.597 85.945)"/><path class="c" d="M.556,5.768h-.1L0,2.576l.133-.005A16.942,16.942,0,0,0,7.938.14L8.173,0,8.117.268c-.008.041-.852,4.18-1.481,4.861C6.175,5.629,3.075,5.752.556,5.768ZM7.826.486a17.587,17.587,0,0,1-4.5,1.839A15.932,15.932,0,0,1,.275,2.8L.659,5.527c3.28-.024,5.5-.239,5.8-.561C6.978,4.4,7.741.885,7.826.486Z" transform="translate(104.459 85.702)"/><path class="b" d="M5.807,0s.037.992-1.835,1.684c-.13.049-6.153,2.049-3.119,3.322,1.1.461,7.888.231,8.219-.185S8.613.748,8.613.748,5.8.066,5.807,0" transform="translate(115.347 130.766)"/><path class="c" d="M4.2,5.471A12.548,12.548,0,0,1,.926,5.209C.3,4.946-.012,4.622,0,4.247.033,3.174,2.819,2.094,4.015,1.679l.034-.012A3.311,3.311,0,0,0,5.537.707,1.142,1.142,0,0,0,5.806.112s0-.009,0-.013,0-.008,0-.012l.123,0L5.993,0c.133.071,1.7.467,2.766.726l.072.018.017.073c.133.62.781,3.738.436,4.173C9.046,5.287,6.463,5.471,4.2,5.471ZM6.024.259c-.065.3-.38,1.071-1.893,1.63L4.093,1.9C2.329,2.514.261,3.5.237,4.253c-.009.268.254.516.781.736a12.551,12.551,0,0,0,3.005.239A21.765,21.765,0,0,0,9.1,4.839,12.785,12.785,0,0,0,8.63.939C7.027.55,6.321.366,6.024.259Z" transform="translate(115.229 130.671)"/><path class="c" d="M4.415,0,0,2.7,4.33,17.732S6.091,32.1,6.9,32.362c.76.243,4.514.555,5.7,0,.43-.2-2.894-18.97-3.177-21.066A73.264,73.264,0,0,1,8.9,1.324Z" transform="translate(111.895 100.368)"/><path class="d" d="M0,10.077l1.664,5.777s.342,2.791.794,5.934C3.643,14.883,5.079,7.578,5.715.64L5.009,0S1.832,2.048.431,2.749c0,0-.237,3.6-.431,7.327" transform="translate(114.561 102.246)"/><path class="b" d="M0,2.746A13.13,13.13,0,0,1,.05,5.528s2.144-.727,3-.405C2.863,3.718,2.3,2.914,2.5.908S.476.533,0,2.746" transform="translate(112.473 79.61)"/><path class="c" d="M0,5.834H0l.064-.22A13,13,0,0,0,.01,2.878V2.859l0-.019C.342,1.311,1.5,0,2.218,0A.541.541,0,0,1,2.3.005c.2.031.528.207.449,1.034a7.372,7.372,0,0,0,.282,2.9l.01.039A10.217,10.217,0,0,1,3.3,5.226l.026.2-.187-.07A1.537,1.537,0,0,0,2.6,5.277,9.513,9.513,0,0,0,.218,5.76L0,5.834ZM2.212.24C1.667.24.571,1.419.251,2.872a15.926,15.926,0,0,1,.084,2.6,9,9,0,0,1,2.276-.429,2.23,2.23,0,0,1,.42.035C2.969,4.682,2.876,4.32,2.793,4V4a7.668,7.668,0,0,1-.287-2.98c.026-.271.028-.731-.247-.773A.343.343,0,0,0,2.212.24Z" transform="translate(112.343 79.491)"/><path class="c" d="M0,1.786s.1.977.117,1.807A4.135,4.135,0,0,0,1.594.493S1.181.221.81,0A4.771,4.771,0,0,0,0,1.786" transform="translate(112.473 80.57)"/><path class="c" d="M.975,4.4S.242,4.272.026,2.465.983-.324,1.622.1s1.5,1.98,3.074,2.3A2.665,2.665,0,0,1,6.489,6.245a1.893,1.893,0,0,1-2.266,1.08C3.338,7.171.975,4.4.975,4.4" transform="translate(110.134 73.849)"/><path class="b" d="M5.806,0s.037.991-1.834,1.683C3.841,1.732-2.181,3.733.853,5c1.1.461,7.888.231,8.218-.185S9.138.729,9.138.729,5.8.065,5.806,0" transform="translate(106.906 132.195)"/><path class="c" d="M4.206,5.475a12.562,12.562,0,0,1-3.28-.263C.3,4.95-.011,4.627,0,4.25.035,3.176,2.82,2.1,4.016,1.682l.033-.011C5.7,1.061,5.8.211,5.806.116c0,0,0-.008,0-.013s0-.009,0-.014l.122,0L5.988,0C6.137.069,8.04.464,9.28.71l.088.018.007.09c.045.622.25,3.745-.092,4.174C9.047,5.29,6.463,5.475,4.206,5.475ZM6.026.255C5.963.56,5.652,1.331,4.132,1.893l-.038.013C2.331,2.518.262,3.5.238,4.258c-.009.267.254.515.78.736a12.548,12.548,0,0,0,3.005.239A21.79,21.79,0,0,0,9.1,4.843,15.044,15.044,0,0,0,9.145.926C7.14.527,6.352.357,6.026.255Z" transform="translate(106.787 132.096)"/><path class="b" d="M.093,4.455A2.358,2.358,0,0,0,2.47,5.548c.92-.079,1.289-1.34,1.533-2.1,0,0,.686.275.866-.28s.3-.919-.025-1.077-.427-.084-.728.513a2.263,2.263,0,0,1-.476.728,2.4,2.4,0,0,1-.058-1.061,4.15,4.15,0,0,1,.3-1.425S1.683,1.078,1.157,0C1.139-.036-.386,3.315.093,4.455" transform="translate(109.899 77.258)"/><path class="c" d="M2.332,5.837A2.387,2.387,0,0,1,.1,4.659C-.38,3.523,1.06.121,1.221.049L1.327,0l.052.106c.34.7,1.485.8,2.136.8.282,0,.47-.019.471-.019L4.2.865l-.091.193a4.187,4.187,0,0,0-.291,1.381,5.35,5.35,0,0,0,0,.792,4.063,4.063,0,0,0,.3-.521c.225-.449.365-.649.6-.649a.674.674,0,0,1,.291.083c.417.2.271.653.087,1.22a.586.586,0,0,1-.311.371.711.711,0,0,1-.306.063A1.16,1.16,0,0,1,4.2,3.76c-.255.79-.639,1.983-1.6,2.066C2.506,5.833,2.417,5.837,2.332,5.837ZM1.282.4h0C1.268.435-.123,3.517.318,4.567a2.134,2.134,0,0,0,2,1.031c.087,0,.174,0,.258-.011.8-.069,1.162-1.184,1.4-1.922l.069-.214.119.047h0a1,1,0,0,0,.316.058.48.48,0,0,0,.2-.04.352.352,0,0,0,.184-.225c.193-.594.246-.829.036-.931a.432.432,0,0,0-.171-.06c-.1,0-.193.116-.4.518a2.355,2.355,0,0,1-.511.77l-.1.077-.069-.11c-.03-.047-.123-.266-.076-1.13a4.71,4.71,0,0,1,.24-1.286c-.105,0-.206.007-.3.007A2.941,2.941,0,0,1,1.282.4Z" transform="translate(109.785 77.101)"/><path class="b" d="M5.232.168A15.651,15.651,0,0,0,2.655.026C1.9.026,1.279-.1,1.229.188s.428.27.425.426S.8-.04.352.55-.247,2.033.7,2.417a6.127,6.127,0,0,0,2.688.043Z" transform="translate(96.579 90.352)"/><path class="c" d="M2.044,2.842A3.46,3.46,0,0,1,.778,2.65,1.164,1.164,0,0,1,.037,1.9,1.539,1.539,0,0,1,.377.6.633.633,0,0,1,.9.333a1.072,1.072,0,0,1,.324.056.327.327,0,0,1,0-.1C1.273.049,1.512,0,1.858,0c.115,0,.239.005.389.012h.016c.155.006.332.013.512.013A15.8,15.8,0,0,1,5.387.174l.17.052L3.577,2.691,3.534,2.7h0A8.724,8.724,0,0,1,2.044,2.842ZM.909.572A.406.406,0,0,0,.568.744a1.309,1.309,0,0,0-.3,1.089.922.922,0,0,0,.6.6A3.2,3.2,0,0,0,2.035,2.6a8.59,8.59,0,0,0,1.41-.13L5.136.365a19.577,19.577,0,0,0-2.361-.1c-.188,0-.37-.007-.538-.014C2.109.247,1.977.241,1.859.241c-.256,0-.381.028-.392.089s.027.088.18.154c.111.048.25.107.248.252V.8L1.826.855a.135.135,0,0,1-.07.019.6.6,0,0,1-.24-.093A1.4,1.4,0,0,0,.909.572Z" transform="translate(96.459 90.232)"/><path class="g" d="M4.091,0C3.9.585,1.592,2.606,1.542,3.933S0,17.142,0,21.169.195,34.675.974,35.129s6.039.584,6.234-.065-.52-14.415.26-19.026S10.259,3.961,10.259,3.507,4.091,0,4.091,0" transform="translate(109.311 98.74)"/><path class="b" d="M15.415.145c-5.429,1.116-.063,7.124-14.7,5.98-.77-.06-.988,3.191-.306,3.242,2.73.206,10.356.749,12.366-.927a37.163,37.163,0,0,1-.325,5.844c-.389,1.753-.974,4.35,0,4.675s9.416.844,9.805-.519S22.98-1.835,15.415.145" transform="translate(98.705 83.946)"/><path class="c" d="M17.755,19.572a29.746,29.746,0,0,1-5.22-.379c-1.072-.357-.5-2.916-.086-4.785l.006-.029A34.5,34.5,0,0,0,12.78,8.8C11.722,9.5,9.494,9.861,6.157,9.861,3.879,9.861,1.7,9.7.523,9.606A.427.427,0,0,1,.175,9.32,4.085,4.085,0,0,1,.406,6.385a.5.5,0,0,1,.406-.261l.034,0c1.212.095,2.333.142,3.331.142,2.8,0,4.792-.371,6.092-1.133a5.279,5.279,0,0,0,2.058-2.379A4.14,4.14,0,0,1,15.51.148,4.338,4.338,0,0,1,16.605,0a3.644,3.644,0,0,1,2.667,1.188c3.913,4,3.495,16.449,3.221,17.4a.772.772,0,0,1-.422.439A12,12,0,0,1,17.755,19.572ZM13.014,8.307h0l0,.25v.008a36.451,36.451,0,0,1-.328,5.864l-.006.03v0c-.35,1.575-.937,4.212-.072,4.5a29.984,29.984,0,0,0,5.153.363,11.858,11.858,0,0,0,4.2-.51.555.555,0,0,0,.3-.291,34.934,34.934,0,0,0-.065-7.559c-.322-3.27-1.121-7.591-3.1-9.612A3.423,3.423,0,0,0,16.6.243a4.089,4.089,0,0,0-1.029.139h-.006A3.894,3.894,0,0,0,12.54,2.869l0,0a5.508,5.508,0,0,1-2.119,2.462c-1.333.79-3.37,1.174-6.227,1.174-1.009,0-2.141-.049-3.365-.145H.821c-.074,0-.144.051-.216.156A3.9,3.9,0,0,0,.392,9.214c.026.055.079.148.149.152,2.138.162,4.037.244,5.644.244,3.492,0,5.725-.385,6.636-1.143l.192-.16Z" transform="translate(98.583 83.826)"/><path class="c" d="M2,1.24C2.5,1.314,4.1-.024,4.223,0s.139.017.182.39a4.278,4.278,0,0,1-.433,1.962A1.652,1.652,0,0,1,2.258,3.5C1.477,3.432-.457,2.879.1.808.388-.276,2,1.24,2,1.24" transform="translate(109.55 79.595)"/><path class="b" d="M.925.286C.9.274.013-.093,0,.022A.539.539,0,0,0,.429.494C.746.578,1.1.326.925.286" transform="translate(110.013 80.727)"/><path class="c" d="M.683.748A.636.636,0,0,1,.518.727.65.65,0,0,1,0,.126L.008.064.075.019A.2.2,0,0,1,.171,0a2.883,2.883,0,0,1,.908.288l0,0A.162.162,0,0,1,1.2.4a.179.179,0,0,1-.056.179A.7.7,0,0,1,.683.748ZM.268.253A.482.482,0,0,0,.579.495a.418.418,0,0,0,.1.013.537.537,0,0,0,.2-.042A6.111,6.111,0,0,0,.268.253Z" transform="translate(109.894 80.61)"/><path class="f" d="M3.706,13.676C3.706,3.067.289,2.7,0,.265-.07-.352,1.6.137,3.186,1.428c2.9,2.356,3.534,6.489,3.72,10.042Z" transform="translate(119.313 116.191)"/><path class="d" d="M3.7,14.022h0v-.227C3.7,6.441,2.056,4.032.965,2.438A4.482,4.482,0,0,1,0,.4.318.318,0,0,1,.166.059.6.6,0,0,1,.453,0,6.017,6.017,0,0,1,3.38,1.453c2.995,2.431,3.584,6.69,3.764,10.128l0,.067-.056.037L3.7,14.022ZM.46.235A.378.378,0,0,0,.282.27C.257.284.232.3.241.369A4.33,4.33,0,0,0,1.163,2.3C2.257,3.9,3.91,6.316,3.944,13.566L6.9,11.527C6.721,8.166,6.141,4,3.229,1.64A5.8,5.8,0,0,0,.46.235Z" transform="translate(119.194 116.073)"/><path class="b" d="M5.3,11.416a.121.121,0,0,1-.1-.058A16.464,16.464,0,0,1,3.409,5.609,8.2,8.2,0,0,0,.056.222.121.121,0,0,1,.019.056.121.121,0,0,1,.184.018,8.462,8.462,0,0,1,3.646,5.576,16.2,16.2,0,0,0,5.4,11.232a.12.12,0,0,1-.04.165.123.123,0,0,1-.062.018" transform="translate(120.697 117.287)"/><path class="f" d="M0,17.218c.2-1.333.2-6.856,1.751-12.31S8.656-.5,7.706.555,4.738,2.718,4.353,8.11a60.894,60.894,0,0,1-2.531,12l-1.1-.428Z" transform="translate(125.27 108.897)"/><path class="d" d="M2.02,20.391h0L.75,19.9,0,17.346l0-.027c.049-.318.088-.906.132-1.587v-.019A52.13,52.13,0,0,1,1.759,5C2.8,1.346,5.492.147,6.921.014,7.019,0,7.113,0,7.2,0c.43,0,.731.11.826.3a.389.389,0,0,1-.11.453c-.133.146-.286.294-.448.45l-.019.018C6.445,2.192,4.923,3.656,4.6,8.239A60.968,60.968,0,0,1,2.059,20.27l-.039.121ZM7.2.24c-.08,0-.166,0-.255.012C5.575.381,2.991,1.539,1.99,5.061A51.829,51.829,0,0,0,.377,15.737v.011c-.051.774-.084,1.265-.13,1.581l.7,2.386.921.36A60.59,60.59,0,0,0,4.356,8.222c.334-4.679,1.9-6.179,2.93-7.172l.035-.034c.153-.148.3-.287.418-.423.032-.035.1-.124.073-.184C7.771.325,7.565.24,7.2.24Z" transform="translate(125.147 108.777)"/><path class="b" d="M8.277,9.489c0-.65.3-5.7-2.452-8.707C2.575-2.763-.784,6.961.163,5.794c.71-.876,3.219-3.777,4.712-3.01,1.751.9.8,6.455.8,6.455Z" transform="translate(118.819 120.995)"/><path class="c" d="M8.517,9.743h0L5.655,9.467l.022-.127c.037-.224.895-5.489-.738-6.328a1.062,1.062,0,0,0-.49-.112C3.467,2.9,1.944,4.056.376,5.991c-.028.035-.114.142-.217.142a.153.153,0,0,1-.046-.007A.188.188,0,0,1,0,5.932C-.019,5.3,1.61,1,3.713.15A1.928,1.928,0,0,1,4.439,0,2.181,2.181,0,0,1,6.033.822c1.188,1.3,2.584,3.843,2.486,8.611,0,.076,0,.136,0,.178v.132ZM4.456,2.66a1.284,1.284,0,0,1,.593.138c1.67.858,1.031,5.528.885,6.455l2.345.225c0-.008,0-.015,0-.023s0-.018,0-.027C8.376,4.74,7.015,2.249,5.857.985A1.959,1.959,0,0,0,4.432.245a1.8,1.8,0,0,0-.863.24,6.788,6.788,0,0,0-2.244,2.66A11.607,11.607,0,0,0,.256,5.757,16.065,16.065,0,0,1,2.063,3.881,4.082,4.082,0,0,1,4.456,2.66Z" transform="translate(118.7 120.873)"/><path class="c" d="M4.08,5.593H4.068a.121.121,0,0,1-.107-.132C4.1,4.108,3.3,1.371,1.941.5A1.568,1.568,0,0,0,.182.515.12.12,0,1,1,.058.309,1.815,1.815,0,0,1,2.07.3C3.5,1.214,4.348,4.076,4.2,5.485a.121.121,0,0,1-.12.108" transform="translate(121.947 122.276)"/><path class="b" d="M0,11.415A22.378,22.378,0,0,1,2.7,1.308c2.341-4,6.394,2.177,7.617,5.178.217.536-3.328-3.941-5.665-3.077C2.351,4.26,2.5,11.065,2.5,11.065Z" transform="translate(125.996 117.167)"/><path class="c" d="M0,11.675H0v-.138A22.5,22.5,0,0,1,2.719,1.368,2.294,2.294,0,0,1,4.645,0c.054,0,.109,0,.163.007,2.37.169,4.936,4.573,5.742,6.555.045.111,0,.166-.039.188a.12.12,0,0,1-.071.028c-.076,0-.179-.1-.521-.431l-.006-.006c-.857-.838-2.862-2.8-4.5-2.8a1.738,1.738,0,0,0-.6.1,2.448,2.448,0,0,0-1.25,1.511,10.965,10.965,0,0,0-.61,2.538,25,25,0,0,0-.212,3.492l0,.106L0,11.675ZM4.672.242A2.083,2.083,0,0,0,2.927,1.49,22.444,22.444,0,0,0,.243,11.4L2.5,11.083a24.245,24.245,0,0,1,.28-3.864,9.608,9.608,0,0,1,.665-2.384A2.5,2.5,0,0,1,4.733,3.418a1.979,1.979,0,0,1,.691-.12c1.721,0,3.707,1.94,4.661,2.872l0,0,.023.023.034.034C9.133,3.993,6.784.389,4.792.247,4.757.244,4.72.242,4.672.242Z" transform="translate(125.875 117.045)"/><path class="c" d="M.121,9.449h0A.119.119,0,0,1,0,9.331C0,9.047.847,2.657,2.332.97,3.833-.736,5.357.1,6.777,1.257a.119.119,0,0,1,.017.168.121.121,0,0,1-.169.017C5.048.157,3.81-.342,2.512,1.128,1.077,2.758.247,9.022.241,9.332a.121.121,0,0,1-.12.118" transform="translate(126.663 118.825)"/><path class="c" d="M0,0H9.307L8.156,9.909H1.2Z" transform="translate(121.122 127.46)"/><path class="b" d="M.12,15.163H.1a.12.12,0,0,1-.1-.137c.01-.062.976-6.207,1.621-9.672A10.326,10.326,0,0,1,4.109.034a.12.12,0,1,1,.167.172A10.306,10.306,0,0,0,1.859,5.4C1.215,8.857.249,15,.239,15.061a.121.121,0,0,1-.119.1" transform="translate(126.183 110.382)"/></g></g></g></svg>